<svg xmlns="http://www.w3.org/2000/svg" xmlns:xlink="http://www.w3.org/1999/xlink" width="505" height="167.634" viewBox="0 0 505 167.634">
  <defs>
    <clipPath id="clip-path">
      <rect id="Rectángulo_60897" data-name="Rectángulo 60897" width="505" height="167.634" fill="none"/>
    </clipPath>
    <clipPath id="clip-path-2">
      <rect id="Rectángulo_60896" data-name="Rectángulo 60896" width="505" height="167.635" fill="none"/>
    </clipPath>
    <clipPath id="clip-path-3">
      <rect id="Rectángulo_60887" data-name="Rectángulo 60887" width="480.428" height="126.464" fill="none"/>
    </clipPath>
  </defs>
  <g id="Grupo_212222" data-name="Grupo 212222" transform="translate(-285 -2151.13)">
    <g id="Grupo_200579" data-name="Grupo 200579" transform="translate(285 2151.13)">
      <g id="Grupo_200564" data-name="Grupo 200564" clip-path="url(#clip-path)">
        <g id="Grupo_200563" data-name="Grupo 200563" transform="translate(0 -0.001)">
          <g id="Grupo_200562" data-name="Grupo 200562" clip-path="url(#clip-path-2)">
            <g id="Grupo_200561" data-name="Grupo 200561" transform="translate(17.312 16.104)" opacity="0.1" style="mix-blend-mode: screen;isolation: isolate">
              <g id="Grupo_200560" data-name="Grupo 200560">
                <g id="Grupo_200559" data-name="Grupo 200559" clip-path="url(#clip-path-3)">
                  <path id="Trazado_210167" data-name="Trazado 210167" d="M15.244,132.8,8,125.56V14.7l7.242-7.242H367.266l39.42,39.416H476.9l10.412,10.412v68.276l-7.242,7.242Z" transform="translate(-7.441 -6.899)" fill="#0068e8"/>
                  <path id="Trazado_210168" data-name="Trazado 210168" d="M480.607,133.672H15.322L7.749,126.1V14.778L15.32,7.209H367.807l39.42,39.416h70.21l10.741,10.741V126.1ZM15.784,132.555h464.36l6.916-6.916V57.828L476.975,47.742h-70.21L367.344,8.326H15.782L8.866,15.24v110.4Z" transform="translate(-7.75 -7.207)" fill="#4dffff"/>
                </g>
              </g>
            </g>
            <path id="Trazado_210169" data-name="Trazado 210169" d="M77.631,132.688a62.6,62.6,0,1,1,62.6-62.6,62.668,62.668,0,0,1-62.6,62.6m0-122.963a60.364,60.364,0,1,0,60.363,60.363A60.431,60.431,0,0,0,77.631,9.726" transform="translate(18.551 9.245)" fill="#4dffff"/>
            <path id="Trazado_210170" data-name="Trazado 210170" d="M28.5,77.732A66.482,66.482,0,0,1,13.345,35.513h4.468A62,62,0,0,0,31.949,74.888Z" transform="translate(16.467 43.821)" fill="#4dffff"/>
            <path id="Trazado_210171" data-name="Trazado 210171" d="M43.055,103.976v-6.7a61.83,61.83,0,0,0,61.762-61.762h6.7a68.541,68.541,0,0,1-68.464,68.463" transform="translate(53.127 43.821)" fill="#4dffff"/>
            <path id="Trazado_210172" data-name="Trazado 210172" d="M73.915,122.243a55.87,55.87,0,1,1,55.869-55.871,55.934,55.934,0,0,1-55.869,55.871m0-109.505a53.636,53.636,0,1,0,53.635,53.635A53.7,53.7,0,0,0,73.915,12.738" transform="translate(22.268 12.962)" fill="#0068e8"/>
            <path id="Trazado_210173" data-name="Trazado 210173" d="M97.628,65.656h-6.7A47.923,47.923,0,0,0,43.055,17.787v-6.7A54.632,54.632,0,0,1,97.628,65.656" transform="translate(53.127 13.679)" fill="#0068e8"/>
            <rect id="Rectángulo_60888" data-name="Rectángulo 60888" width="2.234" height="7.892" transform="translate(95.065 9.961)" fill="#4dffff"/>
            <rect id="Rectángulo_60889" data-name="Rectángulo 60889" width="2.234" height="7.892" transform="translate(95.065 140.818)" fill="#4dffff"/>
            <rect id="Rectángulo_60890" data-name="Rectángulo 60890" width="30.234" height="2.234" transform="translate(22.339 78.217)" fill="#4dffff"/>
            <rect id="Rectángulo_60891" data-name="Rectángulo 60891" width="30.234" height="2.234" transform="translate(139.791 78.217)" fill="#4dffff"/>
            <rect id="Rectángulo_60892" data-name="Rectángulo 60892" width="2.234" height="14.784" transform="translate(168.908 71.944)" fill="#4dffff"/>
            <rect id="Rectángulo_60893" data-name="Rectángulo 60893" width="115.839" height="6.702" transform="translate(296.127 16.569)" fill="#0068e8"/>
            <path id="Trazado_210174" data-name="Trazado 210174" d="M204.5,78.69h-2.29l6.7-17.21h2.29Zm14.48-17.21H216.69l-6.7,17.21h2.288Zm7.781,0H224.47l-6.7,17.21h2.288Zm7.781,0h-2.288l-6.7,17.21h2.288Z" transform="translate(249.511 75.863)" fill="#0068e8"/>
            <rect id="Rectángulo_60894" data-name="Rectángulo 60894" width="122.67" height="19.918" transform="translate(153.213 0.002)" fill="#0068e8"/>
            <path id="Trazado_210175" data-name="Trazado 210175" d="M487.623,144.943H16.324L4.5,133.118V15.783L16.324,3.959h358.5L414.24,43.375h70.213l14.994,14.994v74.75ZM17.249,142.709H486.7l10.517-10.515v-72.9L483.528,45.608H413.316L373.9,6.193H17.249L6.734,16.708V132.194Z" transform="translate(5.553 4.886)" fill="#4dffff"/>
            <path id="Trazado_210176" data-name="Trazado 210176" d="M4.468,65.307H0V63.744H4.468Zm0-6.034H0V57.71H4.468Zm0-6.032H0V51.68H4.468Zm0-6.029H0V45.649H4.468Zm0-6.032H0V39.617H4.468Zm0-6.032H0V33.586H4.468Zm0-6.034H0V27.552H4.468Zm0-6.032H0V21.522H4.468Zm0-6.029H0V15.491H4.468Zm0-6.032H0V9.459H4.468Z" transform="translate(0 11.672)" fill="#4dffff"/>
            <path id="Trazado_210177" data-name="Trazado 210177" d="M23.123,29.675,17.96,25.4A72.944,72.944,0,0,1,42.529,6.161L45.435,12.2A66.269,66.269,0,0,0,23.123,29.675" transform="translate(22.162 7.603)" fill="#0068e8"/>
            <path id="Trazado_210178" data-name="Trazado 210178" d="M18.288,82.219H15.534v-13h2.754Zm5.353-13H20.887v13h2.754Zm5.353,0H26.239v13h2.754Zm5.35,0H31.589v13h2.754Zm5.353,0H36.942v13H39.7Zm5.353,0H42.294v13h2.754Zm5.353,0H47.647v13H50.4Zm5.353,0H53v13h2.754Zm5.353,0H58.352v13h2.754Zm5.353,0H63.7v13h2.754Zm5.353,0H69.057v13h2.754Zm5.353,0H74.409v13h2.754Zm5.353,0H79.762v13h2.754Zm5.353,0H85.115v13h2.754Zm5.353,0H90.467v13h2.754Zm5.35,0H95.817v13h2.754Zm5.353,0H101.17v13h2.754Zm5.353,0h-2.754v13h2.754Zm5.353,0h-2.754v13h2.754Zm5.353,0h-2.754v13h2.754Zm5.352,0H122.58v13h2.754Zm5.353,0h-2.754v13h2.754Zm5.353,0h-2.754v13h2.754Zm5.353,0h-2.754v13h2.754Zm5.353,0H143.99v13h2.754Zm5.353,0h-2.754v13H152.1Zm5.35,0h-2.754v13h2.754Zm5.353,0h-2.754v13H162.8Zm5.353,0H165.4v13h2.754Zm5.353,0H170.75v13H173.5Zm5.353,0H176.1v13h2.754Zm5.353,0h-2.754v13h2.754Zm5.352,0h-2.754v13h2.754Zm5.353,0H192.16v13h2.754Zm5.353,0h-2.754v13h2.754Zm5.353,0h-2.754v13h2.754Zm5.353,0h-2.754v13h2.754Zm5.35,0h-2.754v13h2.754Zm5.352,0h-2.754v13h2.754Zm5.353,0h-2.754v13h2.754Zm5.353,0h-2.754v13h2.754Z" transform="translate(19.168 85.416)" fill="#0068e8"/>
            <rect id="Rectángulo_60895" data-name="Rectángulo 60895" width="139.501" height="2.234" transform="translate(257.526 154.637)" fill="#0068e8"/>
            <path id="Trazado_210179" data-name="Trazado 210179" d="M72.711,116.757l-.034-2.234.876-.02.065,2.234Zm-2.288-.016-.9-.036.1-2.234.885.036Zm5.471-.125-.163-2.229.871-.069.2,2.225Zm-8.654-.063-.9-.089.228-2.221.88.085Zm11.826-.268-.293-2.218.865-.121.331,2.207Zm-14.985-.114-.9-.145.378-2.2.856.141Zm18.137-.418-.44-2.189.865-.179.46,2.185ZM60.938,115.6l-.889-.2.509-2.176.853.192Zm24.388-.558-.572-2.16.851-.23L86.2,114.8Zm-27.486-.206-.873-.252.639-2.142.84.243Zm30.547-.7-.7-2.12.835-.284.733,2.111Zm-33.592-.255-.858-.3.771-2.1.824.3Zm36.6-.84-.833-2.073.822-.337.849,2.069Zm-39.579-.295-.824-.353.887-2.051.809.349Zm42.507-.985-.949-2.019.789-.382.981,2.008Zm-45.4-.328-.811-.407,1.019-1.988.78.391ZM97.171,110.3l-1.079-1.955.762-.429,1.112,1.937ZM46.1,109.937l-.782-.454,1.135-1.926.76.442Zm53.816-1.26-1.193-1.888.733-.474,1.229,1.868Zm-56.534-.4-.753-.5,1.251-1.85.73.485Zm59.182-1.39-1.311-1.812.706-.518,1.34,1.787Zm-61.793-.429-.724-.547,1.363-1.772.695.525Zm64.32-1.517-1.41-1.731c.221-.181.442-.364.661-.552l1.457,1.693c-.232.2-.469.4-.708.59m-66.813-.46c-.237-.192-.469-.393-.7-.6l1.474-1.68c.217.19.436.378.655.563Zm69.225-1.637-1.521-1.635.63-.6,1.557,1.606Zm-71.6-.489c-.223-.208-.442-.422-.661-.639l1.57-1.588c.206.2.411.4.621.6Zm73.874-1.747-1.613-1.544.6-.637,1.64,1.519Zm-76.124-.523-.614-.672,1.66-1.5.59.646Zm78.259-1.845L110.208,96.8l.561-.675,1.725,1.423Zm-80.362-.556-.574-.71,1.749-1.387.55.677ZM113.9,95.745l-1.789-1.338.516-.7,1.812,1.309Zm-84.3-.583-.529-.742,1.83-1.285.507.713Zm86.134-2.028-1.87-1.222.471-.733,1.89,1.193ZM27.8,92.517l-.48-.768,1.9-1.173.467.746Zm89.6-2.1-1.939-1.11.429-.762,1.952,1.081Zm-91.232-.643-.44-.809L27.7,87.926l.416.762ZM118.9,87.613l-2-.992.38-.784,2.017.958Zm-94.2-.681-.384-.827,2.033-.925.369.791Zm95.523-2.214-2.06-.865.333-.809,2.071.838ZM23.415,84.01l-.335-.853,2.084-.8.319.806Zm97.954-2.265-2.109-.737.281-.827,2.122.695Zm-99.06-.739-.284-.873,2.131-.668.27.833ZM122.329,78.7l-2.149-.605.23-.84,2.16.567ZM21.391,77.94l-.226-.88,2.165-.541.219.849ZM123.1,75.606l-2.183-.476.176-.851,2.194.431ZM20.663,74.84l-.172-.9,2.2-.4.165.858Zm103.025-2.368-2.207-.344.125-.865,2.214.306ZM20.129,71.694l-.121-.907,2.221-.27.112.867ZM124.078,69.3l-2.225-.2.074-.871,2.227.165ZM19.785,68.52l-.063-.909,2.229-.132.06.871Zm104.49-2.4-2.232-.076.02-.869,2.234.034ZM19.633,65.334l-.007-.911,2.234-.2.007,1.068ZM122.048,63l-.031-.873,2.232-.1.033.909ZM21.914,62.046l-2.229-.1.049-.907,2.229.141Zm99.958-2.1-.085-.867,2.223-.239.087.909ZM22.153,59l-2.223-.226.1-.914,2.216.279Zm99.359-2.084-.139-.862,2.2-.371.143.9Zm-98.943-.934-2.2-.38.159-.894,2.2.411Zm98.4-2.071-.19-.853,2.176-.507.2.894Zm-97.793-.923L21,52.474l.214-.885,2.167.55Zm97.062-2.044-.241-.838,2.14-.639.252.878ZM23.958,50.03l-2.14-.641.268-.869,2.129.679Zm95.369-2-.295-.827,2.1-.768.308.858ZM24.92,47.139l-2.093-.777.319-.849,2.084.8Zm93.314-1.975-.342-.8,2.044-.9.36.842ZM26.06,44.309l-2.044-.9.371-.831,2.033.934Zm90.912-1.932-.393-.784,1.988-1.016.409.813Zm-89.6-.82-1.984-1.025.42-.8,1.973,1.052Zm88.169-1.883-.436-.751,1.917-1.148.462.8Zm-86.693-.786-1.921-1.139.471-.777,1.9,1.173Zm85.1-1.825-.483-.726,1.845-1.258.507.762Zm-83.46-.751-1.854-1.249.521-.755L30.977,35.6Zm81.709-1.756-.525-.7,1.767-1.365.554.731ZM32.27,33.843,30.5,32.478l.563-.715,1.745,1.4ZM110.3,32.16l-.572-.668,1.689-1.463.59.688Zm-76.092-.675-1.678-1.474.6-.679,1.655,1.5Zm74.051-1.6-.605-.628,1.593-1.568.634.655Zm-71.964-.641-1.6-1.557c.214-.223.431-.44.65-.652l1.559,1.6q-.308.3-.61.61m69.795-1.506-.639-.583,1.481-1.671.677.619Zm-67.586-.6L37,25.479c.226-.208.458-.407.69-.608l1.461,1.689c-.219.188-.433.38-.648.572m65.285-1.412q-.332-.275-.67-.543l1.378-1.758c.241.19.48.384.717.581Zm-62.957-.554-1.39-1.751.722-.563,1.356,1.776Zm60.544-1.311-.708-.5,1.28-1.832.742.529Zm-58.089-.523L42,21.509l.757-.523L44,22.843Zm55.567-1.193-.737-.46,1.166-1.906.773.48Zm-53.009-.48-1.173-1.9c.261-.163.523-.319.789-.474l1.128,1.928ZM96.232,20.58l-.766-.418,1.052-1.973.8.436ZM48.5,20.144,47.45,18.171l.811-.422,1.012,1.99Zm45.025-.963-.789-.369.934-2.028.824.384Zm-42.284-.389-.916-2.037.835-.369.882,2.051Zm39.5-.835-.815-.322.8-2.084.847.333ZM54.06,17.613l-.784-2.091.847-.315.768,2.1ZM87.871,16.9l-.838-.275.686-2.124.86.279Zm-30.915-.29L56.3,14.472l.862-.264.637,2.142Zm27.994-.588-.856-.223.556-2.165.873.228ZM59.9,15.781,59.37,13.61l.885-.208.491,2.178Zm22.076-.462-.86-.168.411-2.194.894.172ZM62.891,15.14l-.411-2.194.9-.156.36,2.2ZM78.962,14.8l-.867-.116.277-2.216.9.121ZM65.9,14.68l-.264-2.216.9-.1.228,2.221Zm10.019-.208-.873-.06.147-2.229.907.065Zm-6.983-.065-.116-2.229.9-.045.1,2.234Zm3.938-.08-.885-.009.018-2.234.9.009Z" transform="translate(24.217 14.912)" fill="#4dffff"/>
          </g>
        </g>
      </g>
    </g>
    <path id="Trazado_224518" data-name="Trazado 224518" d="M2.82,12.547V17H1.32V5.625h4.2a4.215,4.215,0,0,1,2.926.953A3.231,3.231,0,0,1,9.5,9.1a3.189,3.189,0,0,1-1.035,2.551,4.4,4.4,0,0,1-2.965.895Zm0-1.227h2.7a2.7,2.7,0,0,0,1.844-.567A2.075,2.075,0,0,0,8,9.113a2.143,2.143,0,0,0-.641-1.628A2.525,2.525,0,0,0,5.6,6.852H2.82ZM15.273,9.844a4.331,4.331,0,0,0-.711-.055A1.9,1.9,0,0,0,12.633,11v6H11.188V8.547h1.406l.023.977a2.251,2.251,0,0,1,2.016-1.133,1.477,1.477,0,0,1,.641.109Zm.789,2.852a4.993,4.993,0,0,1,.488-2.234A3.643,3.643,0,0,1,17.91,8.93,3.7,3.7,0,0,1,19.9,8.391a3.565,3.565,0,0,1,2.793,1.2,4.6,4.6,0,0,1,1.066,3.18v.1a5.036,5.036,0,0,1-.473,2.215,3.589,3.589,0,0,1-1.352,1.527,3.743,3.743,0,0,1-2.02.547,3.556,3.556,0,0,1-2.785-1.2A4.575,4.575,0,0,1,16.063,12.8Zm1.453.172a3.616,3.616,0,0,0,.652,2.258,2.211,2.211,0,0,0,3.5-.012,3.955,3.955,0,0,0,.648-2.418,3.61,3.61,0,0,0-.66-2.254A2.1,2.1,0,0,0,19.9,9.578a2.075,2.075,0,0,0-1.727.852A3.925,3.925,0,0,0,17.516,12.867Zm9.5-3.3a3.073,3.073,0,0,1,2.5-1.18q2.68,0,2.7,3.023V17H30.773V11.406a1.946,1.946,0,0,0-.418-1.352,1.675,1.675,0,0,0-1.277-.437,2.086,2.086,0,0,0-1.234.375,2.546,2.546,0,0,0-.828.984V17H25.57V5h1.445ZM35.953,17H34.508V8.547h1.445ZM34.391,6.3a.863.863,0,0,1,.215-.594.807.807,0,0,1,.637-.242.819.819,0,0,1,.641.242A.854.854,0,0,1,36.1,6.3a.826.826,0,0,1-.219.586.834.834,0,0,1-.641.234.821.821,0,0,1-.637-.234A.834.834,0,0,1,34.391,6.3Zm11.031,6.563a5.026,5.026,0,0,1-.891,3.113,2.846,2.846,0,0,1-2.391,1.176,2.947,2.947,0,0,1-2.477-1.133l-.07.977H38.266V5h1.445V9.477a2.93,2.93,0,0,1,2.414-1.086,2.863,2.863,0,0,1,2.418,1.164,5.177,5.177,0,0,1,.879,3.188ZM43.977,12.7a3.906,3.906,0,0,0-.57-2.281,1.888,1.888,0,0,0-1.641-.8,2.122,2.122,0,0,0-2.055,1.328V14.6a2.181,2.181,0,0,0,2.07,1.328,1.878,1.878,0,0,0,1.617-.8A4.153,4.153,0,0,0,43.977,12.7ZM48.813,17H47.367V8.547h1.445ZM47.25,6.3a.863.863,0,0,1,.215-.594.807.807,0,0,1,.637-.242.819.819,0,0,1,.641.242.854.854,0,0,1,.219.594.826.826,0,0,1-.219.586.834.834,0,0,1-.641.234.821.821,0,0,1-.637-.234A.834.834,0,0,1,47.25,6.3Zm3.523,6.4A4.952,4.952,0,0,1,51.7,9.574a3.137,3.137,0,0,1,4.766-.168V5h1.445V17H56.578l-.07-.906a2.943,2.943,0,0,1-2.414,1.063,2.887,2.887,0,0,1-2.395-1.2,5.008,5.008,0,0,1-.926-3.141Zm1.445.164a3.749,3.749,0,0,0,.594,2.25,1.92,1.92,0,0,0,1.641.813A2.108,2.108,0,0,0,56.461,14.7V10.813a2.125,2.125,0,0,0-1.992-1.2,1.929,1.929,0,0,0-1.656.82A4.128,4.128,0,0,0,52.219,12.867Zm7.547-.172a4.993,4.993,0,0,1,.488-2.234A3.643,3.643,0,0,1,61.613,8.93,3.7,3.7,0,0,1,63.6,8.391a3.565,3.565,0,0,1,2.793,1.2,4.6,4.6,0,0,1,1.066,3.18v.1a5.036,5.036,0,0,1-.473,2.215,3.589,3.589,0,0,1-1.352,1.527,3.743,3.743,0,0,1-2.02.547,3.556,3.556,0,0,1-2.785-1.2A4.575,4.575,0,0,1,59.766,12.8Zm1.453.172a3.616,3.616,0,0,0,.652,2.258,2.211,2.211,0,0,0,3.5-.012,3.955,3.955,0,0,0,.648-2.418,3.61,3.61,0,0,0-.66-2.254A2.1,2.1,0,0,0,63.6,9.578a2.075,2.075,0,0,0-1.727.852A3.925,3.925,0,0,0,61.219,12.867ZM72.883,12.7A4.952,4.952,0,0,1,73.8,9.574a3.137,3.137,0,0,1,4.766-.168V5h1.445V17H78.688l-.07-.906A2.943,2.943,0,0,1,76.2,17.156a2.887,2.887,0,0,1-2.395-1.2,5.008,5.008,0,0,1-.926-3.141Zm1.445.164a3.749,3.749,0,0,0,.594,2.25,1.92,1.92,0,0,0,1.641.813A2.108,2.108,0,0,0,78.57,14.7V10.813a2.125,2.125,0,0,0-1.992-1.2,1.929,1.929,0,0,0-1.656.82A4.128,4.128,0,0,0,74.328,12.867ZM83.828,17H82.383V8.547h1.445ZM82.266,6.3a.863.863,0,0,1,.215-.594.807.807,0,0,1,.637-.242.819.819,0,0,1,.641.242.854.854,0,0,1,.219.594.826.826,0,0,1-.219.586.834.834,0,0,1-.641.234.821.821,0,0,1-.637-.234A.834.834,0,0,1,82.266,6.3Zm6.664,8.734,2.094-6.492H92.5L89.469,17h-1.1L85.3,8.547h1.477Zm10.18,1.125a3.07,3.07,0,0,1-2.477.992,2.628,2.628,0,0,1-2.059-.785,3.4,3.4,0,0,1-.715-2.324v-5.5H95.3v5.461q0,1.922,1.563,1.922a2.163,2.163,0,0,0,2.2-1.234V8.547h1.445V17H99.141Zm5.172.836h-1.445V5h1.445Zm1.969-4.3a4.968,4.968,0,0,1,.914-3.145A3.151,3.151,0,0,1,112,9.484l.07-.937h1.32V16.8a3.439,3.439,0,0,1-.973,2.586,3.589,3.589,0,0,1-2.613.945,4.348,4.348,0,0,1-1.789-.391,3.08,3.08,0,0,1-1.336-1.07l.75-.867a2.826,2.826,0,0,0,2.273,1.148,2.214,2.214,0,0,0,1.645-.594,2.269,2.269,0,0,0,.59-1.672v-.727a2.971,2.971,0,0,1-2.367,1,2.887,2.887,0,0,1-2.4-1.2A5.224,5.224,0,0,1,106.25,12.7Zm1.453.164a3.79,3.79,0,0,0,.586,2.246,1.9,1.9,0,0,0,1.641.816,2.117,2.117,0,0,0,2.008-1.242V10.828a2.142,2.142,0,0,0-1.992-1.211,1.921,1.921,0,0,0-1.648.82A4.128,4.128,0,0,0,107.7,12.867ZM120.789,17a3.036,3.036,0,0,1-.2-.891,3.225,3.225,0,0,1-2.406,1.047,2.984,2.984,0,0,1-2.051-.707,2.288,2.288,0,0,1-.8-1.793,2.39,2.39,0,0,1,1-2.051,4.733,4.733,0,0,1,2.824-.73h1.406v-.664A1.623,1.623,0,0,0,120.109,10a1.821,1.821,0,0,0-1.336-.449,2.108,2.108,0,0,0-1.3.391,1.151,1.151,0,0,0-.523.945H115.5a2,2,0,0,1,.449-1.223,3.066,3.066,0,0,1,1.219-.934,4.1,4.1,0,0,1,1.691-.344,3.342,3.342,0,0,1,2.289.73,2.635,2.635,0,0,1,.859,2.012v3.891a4.757,4.757,0,0,0,.3,1.852V17Zm-2.4-1.1a2.54,2.54,0,0,0,1.289-.352,2.127,2.127,0,0,0,.883-.914V12.9H119.43q-2.656,0-2.656,1.555a1.316,1.316,0,0,0,.453,1.063A1.742,1.742,0,0,0,118.391,15.9Zm9.969-6.055a4.331,4.331,0,0,0-.711-.055A1.9,1.9,0,0,0,125.719,11v6h-1.445V8.547h1.406l.023.977a2.251,2.251,0,0,1,2.016-1.133,1.477,1.477,0,0,1,.641.109ZM135.219,17h-1.445V8.547h1.445ZM133.656,6.3a.863.863,0,0,1,.215-.594.807.807,0,0,1,.637-.242.819.819,0,0,1,.641.242.854.854,0,0,1,.219.594.826.826,0,0,1-.219.586.834.834,0,0,1-.641.234.821.821,0,0,1-.637-.234A.834.834,0,0,1,133.656,6.3ZM138.9,8.547l.047,1.063a3.08,3.08,0,0,1,2.531-1.219q2.68,0,2.7,3.023V17h-1.445V11.406a1.946,1.946,0,0,0-.418-1.352,1.675,1.675,0,0,0-1.277-.437,2.086,2.086,0,0,0-1.234.375,2.546,2.546,0,0,0-.828.984V17h-1.445V8.547ZM147.07,17V9.664h-1.336V8.547h1.336V7.68a2.878,2.878,0,0,1,.727-2.1,2.745,2.745,0,0,1,2.055-.742,3.816,3.816,0,0,1,.992.132l-.078,1.165a4.151,4.151,0,0,0-.781-.07,1.41,1.41,0,0,0-1.086.411,1.669,1.669,0,0,0-.383,1.18v.893h1.8V9.664h-1.8V17Zm4.461-4.3a4.993,4.993,0,0,1,.488-2.234,3.642,3.642,0,0,1,1.359-1.531,3.7,3.7,0,0,1,1.988-.539,3.565,3.565,0,0,1,2.793,1.2,4.6,4.6,0,0,1,1.066,3.18v.1a5.036,5.036,0,0,1-.473,2.215,3.589,3.589,0,0,1-1.352,1.527,3.743,3.743,0,0,1-2.02.547,3.556,3.556,0,0,1-2.785-1.2,4.575,4.575,0,0,1-1.066-3.164Zm1.453.172a3.616,3.616,0,0,0,.652,2.258,2.211,2.211,0,0,0,3.5-.012,3.954,3.954,0,0,0,.648-2.418,3.61,3.61,0,0,0-.66-2.254,2.1,2.1,0,0,0-1.754-.863,2.075,2.075,0,0,0-1.727.852A3.925,3.925,0,0,0,152.984,12.867Zm12.141-3.023a4.331,4.331,0,0,0-.711-.055A1.9,1.9,0,0,0,162.484,11v6h-1.445V8.547h1.406l.023.977a2.251,2.251,0,0,1,2.016-1.133,1.477,1.477,0,0,1,.641.109Zm2.688-1.3.039.938a3.122,3.122,0,0,1,2.508-1.094,2.417,2.417,0,0,1,2.414,1.359,3.2,3.2,0,0,1,1.1-.984,3.242,3.242,0,0,1,1.6-.375q2.781,0,2.828,2.945V17h-1.445V11.422a1.941,1.941,0,0,0-.414-1.355,1.823,1.823,0,0,0-1.391-.449,1.917,1.917,0,0,0-1.336.48,1.949,1.949,0,0,0-.617,1.293V17h-1.453V11.461a1.613,1.613,0,0,0-1.8-1.844,1.934,1.934,0,0,0-1.945,1.211V17h-1.445V8.547ZM185.7,17a3.036,3.036,0,0,1-.2-.891,3.225,3.225,0,0,1-2.406,1.047,2.984,2.984,0,0,1-2.051-.707,2.287,2.287,0,0,1-.8-1.793,2.39,2.39,0,0,1,1-2.051,4.733,4.733,0,0,1,2.824-.73h1.406v-.664A1.623,1.623,0,0,0,185.016,10a1.821,1.821,0,0,0-1.336-.449,2.107,2.107,0,0,0-1.3.391,1.151,1.151,0,0,0-.523.945h-1.453a2,2,0,0,1,.449-1.223,3.066,3.066,0,0,1,1.219-.934,4.1,4.1,0,0,1,1.691-.344,3.342,3.342,0,0,1,2.289.73,2.635,2.635,0,0,1,.859,2.012v3.891a4.757,4.757,0,0,0,.3,1.852V17Zm-2.4-1.1a2.54,2.54,0,0,0,1.289-.352,2.127,2.127,0,0,0,.883-.914V12.9h-1.133q-2.656,0-2.656,1.555a1.316,1.316,0,0,0,.453,1.063A1.742,1.742,0,0,0,183.3,15.9Zm9.273.078a2.082,2.082,0,0,0,1.352-.469,1.649,1.649,0,0,0,.641-1.172h1.367a2.621,2.621,0,0,1-.5,1.383,3.293,3.293,0,0,1-1.23,1.047,3.55,3.55,0,0,1-1.629.391A3.482,3.482,0,0,1,189.824,16a4.59,4.59,0,0,1-1.02-3.152v-.242a5.089,5.089,0,0,1,.453-2.2,3.451,3.451,0,0,1,1.3-1.492,3.7,3.7,0,0,1,2-.531,3.39,3.39,0,0,1,2.363.852,3.043,3.043,0,0,1,1,2.211h-1.367a1.992,1.992,0,0,0-.621-1.348,1.932,1.932,0,0,0-1.379-.527,2.023,2.023,0,0,0-1.707.793,3.724,3.724,0,0,0-.605,2.293v.273a3.65,3.65,0,0,0,.6,2.25A2.033,2.033,0,0,0,192.57,15.977ZM199.125,17H197.68V8.547h1.445ZM197.563,6.3a.863.863,0,0,1,.215-.594.807.807,0,0,1,.637-.242.819.819,0,0,1,.641.242.854.854,0,0,1,.219.594.826.826,0,0,1-.219.586.834.834,0,0,1-.641.234.821.821,0,0,1-.637-.234A.834.834,0,0,1,197.563,6.3Zm3.492,6.391a4.993,4.993,0,0,1,.488-2.234A3.642,3.642,0,0,1,202.9,8.93a3.7,3.7,0,0,1,1.988-.539,3.565,3.565,0,0,1,2.793,1.2,4.6,4.6,0,0,1,1.066,3.18v.1a5.036,5.036,0,0,1-.473,2.215,3.589,3.589,0,0,1-1.352,1.527,3.743,3.743,0,0,1-2.02.547,3.556,3.556,0,0,1-2.785-1.2,4.575,4.575,0,0,1-1.066-3.164Zm1.453.172a3.616,3.616,0,0,0,.652,2.258,2.211,2.211,0,0,0,3.5-.012A3.954,3.954,0,0,0,207.3,12.7a3.61,3.61,0,0,0-.66-2.254,2.1,2.1,0,0,0-1.754-.863,2.075,2.075,0,0,0-1.727.852A3.925,3.925,0,0,0,202.508,12.867ZM205.547,5h1.75L205.2,7.3l-1.164,0Zm6.383,3.547.047,1.063a3.08,3.08,0,0,1,2.531-1.219q2.68,0,2.7,3.023V17h-1.445V11.406a1.946,1.946,0,0,0-.418-1.352,1.675,1.675,0,0,0-1.277-.437,2.086,2.086,0,0,0-1.234.375,2.546,2.546,0,0,0-.828.984V17h-1.445V8.547ZM223,12.7a4.961,4.961,0,0,1,.914-3.152,3.226,3.226,0,0,1,4.82-.152l.063-.852h1.328v11.7H228.68V16.219a3.033,3.033,0,0,1-2.328.938,2.915,2.915,0,0,1-2.441-1.191A5.072,5.072,0,0,1,223,12.8Zm1.445.164a3.761,3.761,0,0,0,.613,2.281,1.951,1.951,0,0,0,1.652.828,2.164,2.164,0,0,0,1.969-1.141V10.7a2.171,2.171,0,0,0-1.953-1.117,1.965,1.965,0,0,0-1.664.832A4.094,4.094,0,0,0,224.445,12.867Zm13.219,3.3a3.07,3.07,0,0,1-2.477.992,2.628,2.628,0,0,1-2.059-.785,3.4,3.4,0,0,1-.715-2.324v-5.5h1.445v5.461q0,1.922,1.563,1.922a2.163,2.163,0,0,0,2.2-1.234V8.547h1.445V17H237.7Zm7.109.992a3.693,3.693,0,0,1-2.8-1.129,4.19,4.19,0,0,1-1.078-3.02v-.266a5.073,5.073,0,0,1,.48-2.246,3.748,3.748,0,0,1,1.344-1.547,3.378,3.378,0,0,1,1.871-.559,3.166,3.166,0,0,1,2.563,1.086,4.7,4.7,0,0,1,.914,3.109v.6h-5.727a3,3,0,0,0,.73,2.02,2.3,2.3,0,0,0,1.777.77,2.517,2.517,0,0,0,1.3-.312,3.258,3.258,0,0,0,.93-.828l.883.688A3.55,3.55,0,0,1,244.773,17.156Zm-.18-7.578a1.928,1.928,0,0,0-1.469.637A3.1,3.1,0,0,0,242.391,12h4.234v-.109a2.753,2.753,0,0,0-.594-1.707A1.815,1.815,0,0,0,244.594,9.578Zm16.25,3.289a5.062,5.062,0,0,1-.883,3.109,2.829,2.829,0,0,1-2.391,1.18,3.1,3.1,0,0,1-2.422-.977v4.07H253.7V8.547h1.32l.07.938a2.977,2.977,0,0,1,2.453-1.094,2.882,2.882,0,0,1,2.41,1.148,5.117,5.117,0,0,1,.887,3.2ZM259.4,12.7a3.735,3.735,0,0,0-.609-2.258,1.963,1.963,0,0,0-1.672-.828,2.125,2.125,0,0,0-1.969,1.164V14.82a2.129,2.129,0,0,0,1.984,1.156,1.954,1.954,0,0,0,1.652-.824A4.077,4.077,0,0,0,259.4,12.7Zm8.5,3.461a3.07,3.07,0,0,1-2.477.992,2.628,2.628,0,0,1-2.059-.785,3.4,3.4,0,0,1-.715-2.324v-5.5h1.445v5.461q0,1.922,1.563,1.922a2.163,2.163,0,0,0,2.2-1.234V8.547H269.3V17H267.93Zm7.109.992a3.693,3.693,0,0,1-2.8-1.129,4.19,4.19,0,0,1-1.078-3.02v-.266a5.073,5.073,0,0,1,.48-2.246,3.748,3.748,0,0,1,1.344-1.547,3.379,3.379,0,0,1,1.871-.559,3.166,3.166,0,0,1,2.563,1.086,4.7,4.7,0,0,1,.914,3.109v.6h-5.727a3,3,0,0,0,.73,2.02,2.3,2.3,0,0,0,1.777.77,2.517,2.517,0,0,0,1.3-.312,3.259,3.259,0,0,0,.93-.828l.883.688A3.55,3.55,0,0,1,275.008,17.156Zm-.18-7.578a1.928,1.928,0,0,0-1.469.637A3.1,3.1,0,0,0,272.625,12h4.234v-.109a2.753,2.753,0,0,0-.594-1.707A1.815,1.815,0,0,0,274.828,9.578Zm4.8,3.125a4.952,4.952,0,0,1,.922-3.129,3.137,3.137,0,0,1,4.766-.168V5h1.445V17H285.43l-.07-.906a2.943,2.943,0,0,1-2.414,1.063,2.887,2.887,0,0,1-2.395-1.2,5.008,5.008,0,0,1-.926-3.141Zm1.445.164a3.749,3.749,0,0,0,.594,2.25,1.92,1.92,0,0,0,1.641.813,2.109,2.109,0,0,0,2.008-1.234V10.813a2.125,2.125,0,0,0-1.992-1.2,1.929,1.929,0,0,0-1.656.82A4.128,4.128,0,0,0,281.07,12.867ZM294.219,17a3.036,3.036,0,0,1-.2-.891,3.225,3.225,0,0,1-2.406,1.047,2.984,2.984,0,0,1-2.051-.707,2.288,2.288,0,0,1-.8-1.793,2.39,2.39,0,0,1,1-2.051,4.733,4.733,0,0,1,2.824-.73h1.406v-.664A1.623,1.623,0,0,0,293.539,10a1.821,1.821,0,0,0-1.336-.449,2.108,2.108,0,0,0-1.3.391,1.151,1.151,0,0,0-.523.945H288.93a2,2,0,0,1,.449-1.223,3.066,3.066,0,0,1,1.219-.934,4.1,4.1,0,0,1,1.691-.344,3.342,3.342,0,0,1,2.289.73,2.635,2.635,0,0,1,.859,2.012v3.891a4.757,4.757,0,0,0,.3,1.852V17Zm-2.4-1.1a2.54,2.54,0,0,0,1.289-.352,2.126,2.126,0,0,0,.883-.914V12.9h-1.133q-2.656,0-2.656,1.555a1.316,1.316,0,0,0,.453,1.063A1.742,1.742,0,0,0,291.82,15.9ZM.742,36.7a4.952,4.952,0,0,1,.922-3.129,2.915,2.915,0,0,1,2.414-1.184A2.932,2.932,0,0,1,6.43,33.406V29H7.875V41H6.547l-.07-.906a2.943,2.943,0,0,1-2.414,1.063,2.887,2.887,0,0,1-2.395-1.2,5.008,5.008,0,0,1-.926-3.141Zm1.445.164a3.749,3.749,0,0,0,.594,2.25,1.92,1.92,0,0,0,1.641.813A2.108,2.108,0,0,0,6.43,38.7V34.813a2.125,2.125,0,0,0-1.992-1.2,1.929,1.929,0,0,0-1.656.82A4.128,4.128,0,0,0,2.188,36.867ZM15.336,41a3.036,3.036,0,0,1-.2-.891,3.225,3.225,0,0,1-2.406,1.047,2.984,2.984,0,0,1-2.051-.707,2.287,2.287,0,0,1-.8-1.793,2.39,2.39,0,0,1,1-2.051,4.733,4.733,0,0,1,2.824-.73h1.406v-.664A1.623,1.623,0,0,0,14.656,34a1.821,1.821,0,0,0-1.336-.449,2.107,2.107,0,0,0-1.3.391,1.151,1.151,0,0,0-.523.945H10.047a2,2,0,0,1,.449-1.223,3.066,3.066,0,0,1,1.219-.934,4.1,4.1,0,0,1,1.691-.344,3.342,3.342,0,0,1,2.289.73,2.635,2.635,0,0,1,.859,2.012v3.891a4.757,4.757,0,0,0,.3,1.852V41Zm-2.4-1.1a2.54,2.54,0,0,0,1.289-.352,2.127,2.127,0,0,0,.883-.914V36.9H13.977q-2.656,0-2.656,1.555a1.316,1.316,0,0,0,.453,1.063A1.742,1.742,0,0,0,12.938,39.9Zm7.25-7.352.047,1.063a3.08,3.08,0,0,1,2.531-1.219q2.68,0,2.7,3.023V41H24.023V35.406a1.946,1.946,0,0,0-.418-1.352,1.675,1.675,0,0,0-1.277-.437,2.086,2.086,0,0,0-1.234.375,2.546,2.546,0,0,0-.828.984V41H18.82V32.547Zm4.781-3.3a1.942,1.942,0,0,1-.48,1.367,1.561,1.561,0,0,1-1.2.523,1.76,1.76,0,0,1-.555-.078,2.993,2.993,0,0,1-.613-.32,2.656,2.656,0,0,0-.547-.293,1.338,1.338,0,0,0-.387-.051.717.717,0,0,0-.547.246.892.892,0,0,0-.227.629l-.969-.055a2.039,2.039,0,0,1,.473-1.383,1.516,1.516,0,0,1,1.2-.547,1.457,1.457,0,0,1,.492.078,3.587,3.587,0,0,1,.594.3,3.494,3.494,0,0,0,.574.3,1.319,1.319,0,0,0,.441.07.7.7,0,0,0,.559-.266A.932.932,0,0,0,24,29.156ZM32.867,41a3.036,3.036,0,0,1-.2-.891,3.225,3.225,0,0,1-2.406,1.047,2.984,2.984,0,0,1-2.051-.707,2.287,2.287,0,0,1-.8-1.793,2.39,2.39,0,0,1,1-2.051,4.733,4.733,0,0,1,2.824-.73h1.406v-.664A1.623,1.623,0,0,0,32.188,34a1.821,1.821,0,0,0-1.336-.449,2.107,2.107,0,0,0-1.3.391,1.151,1.151,0,0,0-.523.945H27.578a2,2,0,0,1,.449-1.223,3.066,3.066,0,0,1,1.219-.934,4.1,4.1,0,0,1,1.691-.344,3.342,3.342,0,0,1,2.289.73,2.635,2.635,0,0,1,.859,2.012v3.891a4.757,4.757,0,0,0,.3,1.852V41Zm-2.4-1.1a2.54,2.54,0,0,0,1.289-.352,2.127,2.127,0,0,0,.883-.914V36.9H31.508q-2.656,0-2.656,1.555a1.316,1.316,0,0,0,.453,1.063A1.742,1.742,0,0,0,30.469,39.9Zm9.969-6.055a4.331,4.331,0,0,0-.711-.055A1.9,1.9,0,0,0,37.8,35v6H36.352V32.547h1.406l.023.977A2.251,2.251,0,0,1,39.8,32.391a1.477,1.477,0,0,1,.641.109Zm8.8,7.313a3.693,3.693,0,0,1-2.8-1.129,4.19,4.19,0,0,1-1.078-3.02v-.266a5.073,5.073,0,0,1,.48-2.246,3.748,3.748,0,0,1,1.344-1.547,3.378,3.378,0,0,1,1.871-.559,3.166,3.166,0,0,1,2.563,1.086,4.7,4.7,0,0,1,.914,3.109v.6H46.8a3,3,0,0,0,.73,2.02,2.3,2.3,0,0,0,1.777.77,2.517,2.517,0,0,0,1.3-.312,3.258,3.258,0,0,0,.93-.828l.883.688A3.55,3.55,0,0,1,49.234,41.156Zm-.18-7.578a1.928,1.928,0,0,0-1.469.637A3.1,3.1,0,0,0,46.852,36h4.234v-.109a2.753,2.753,0,0,0-.594-1.707A1.815,1.815,0,0,0,49.055,33.578ZM55.773,41H54.328V29h1.445ZM69.2,36.867a5.026,5.026,0,0,1-.891,3.113,2.846,2.846,0,0,1-2.391,1.176,2.947,2.947,0,0,1-2.477-1.133l-.07.977H62.047V29h1.445v4.477a2.93,2.93,0,0,1,2.414-1.086,2.863,2.863,0,0,1,2.418,1.164,5.177,5.177,0,0,1,.879,3.188ZM67.758,36.7a3.906,3.906,0,0,0-.57-2.281,1.888,1.888,0,0,0-1.641-.8,2.122,2.122,0,0,0-2.055,1.328V38.6a2.181,2.181,0,0,0,2.07,1.328,1.878,1.878,0,0,0,1.617-.8A4.153,4.153,0,0,0,67.758,36.7Zm8.484,3.461a3.07,3.07,0,0,1-2.477.992,2.628,2.628,0,0,1-2.059-.785,3.4,3.4,0,0,1-.715-2.324v-5.5h1.445v5.461q0,1.922,1.563,1.922A2.163,2.163,0,0,0,76.2,38.7V32.547h1.445V41H76.273Zm7.109.992a3.693,3.693,0,0,1-2.8-1.129,4.19,4.19,0,0,1-1.078-3.02v-.266a5.073,5.073,0,0,1,.48-2.246A3.748,3.748,0,0,1,81.3,32.949a3.378,3.378,0,0,1,1.871-.559,3.166,3.166,0,0,1,2.563,1.086,4.7,4.7,0,0,1,.914,3.109v.6H80.922a3,3,0,0,0,.73,2.02,2.3,2.3,0,0,0,1.777.77,2.517,2.517,0,0,0,1.3-.312,3.259,3.259,0,0,0,.93-.828l.883.688A3.55,3.55,0,0,1,83.352,41.156Zm-.18-7.578a1.928,1.928,0,0,0-1.469.637A3.1,3.1,0,0,0,80.969,36H85.2v-.109a2.753,2.753,0,0,0-.594-1.707A1.815,1.815,0,0,0,83.172,33.578Zm6.516-1.031.047,1.063a3.08,3.08,0,0,1,2.531-1.219q2.68,0,2.7,3.023V41H93.523V35.406a1.946,1.946,0,0,0-.418-1.352,1.675,1.675,0,0,0-1.277-.437,2.086,2.086,0,0,0-1.234.375,2.546,2.546,0,0,0-.828.984V41H88.32V32.547Zm12.789,0,.047,1.063a3.08,3.08,0,0,1,2.531-1.219q2.68,0,2.7,3.023V41h-1.445V35.406a1.946,1.946,0,0,0-.418-1.352,1.675,1.675,0,0,0-1.277-.437,2.086,2.086,0,0,0-1.234.375,2.546,2.546,0,0,0-.828.984V41h-1.445V32.547Zm7.078,4.148a4.993,4.993,0,0,1,.488-2.234A3.643,3.643,0,0,1,111.4,32.93a3.7,3.7,0,0,1,1.988-.539,3.565,3.565,0,0,1,2.793,1.2,4.6,4.6,0,0,1,1.066,3.18v.1a5.036,5.036,0,0,1-.473,2.215,3.589,3.589,0,0,1-1.352,1.527,3.743,3.743,0,0,1-2.02.547,3.556,3.556,0,0,1-2.785-1.2,4.575,4.575,0,0,1-1.066-3.164Zm1.453.172a3.616,3.616,0,0,0,.652,2.258,2.211,2.211,0,0,0,3.5-.012A3.955,3.955,0,0,0,115.8,36.7a3.61,3.61,0,0,0-.66-2.254,2.1,2.1,0,0,0-1.754-.863,2.075,2.075,0,0,0-1.727.852A3.925,3.925,0,0,0,111.008,36.867Zm9.414-4.32.039.938a3.122,3.122,0,0,1,2.508-1.094,2.417,2.417,0,0,1,2.414,1.359,3.2,3.2,0,0,1,1.1-.984,3.242,3.242,0,0,1,1.6-.375q2.781,0,2.828,2.945V41h-1.445V35.422a1.941,1.941,0,0,0-.414-1.355,1.823,1.823,0,0,0-1.391-.449,1.916,1.916,0,0,0-1.336.48,1.949,1.949,0,0,0-.617,1.293V41H124.25V35.461a1.613,1.613,0,0,0-1.8-1.844,1.934,1.934,0,0,0-1.945,1.211V41h-1.445V32.547Zm19.82,4.32a5.026,5.026,0,0,1-.891,3.113,2.846,2.846,0,0,1-2.391,1.176,2.947,2.947,0,0,1-2.477-1.133l-.07.977h-1.328V29h1.445v4.477a2.93,2.93,0,0,1,2.414-1.086,2.863,2.863,0,0,1,2.418,1.164,5.177,5.177,0,0,1,.879,3.188ZM138.8,36.7a3.906,3.906,0,0,0-.57-2.281,1.888,1.888,0,0,0-1.641-.8,2.122,2.122,0,0,0-2.055,1.328V38.6a2.181,2.181,0,0,0,2.07,1.328,1.878,1.878,0,0,0,1.617-.8A4.153,4.153,0,0,0,138.8,36.7Zm7.352-2.859a4.331,4.331,0,0,0-.711-.055A1.9,1.9,0,0,0,143.508,35v6h-1.445V32.547h1.406l.023.977a2.251,2.251,0,0,1,2.016-1.133,1.477,1.477,0,0,1,.641.109Zm4.836,7.313a3.693,3.693,0,0,1-2.8-1.129,4.19,4.19,0,0,1-1.078-3.02v-.266a5.073,5.073,0,0,1,.48-2.246,3.748,3.748,0,0,1,1.344-1.547,3.378,3.378,0,0,1,1.871-.559,3.166,3.166,0,0,1,2.563,1.086,4.7,4.7,0,0,1,.914,3.109v.6h-5.727a3,3,0,0,0,.73,2.02,2.3,2.3,0,0,0,1.777.77,2.517,2.517,0,0,0,1.3-.312,3.258,3.258,0,0,0,.93-.828l.883.688A3.55,3.55,0,0,1,150.984,41.156Zm-.18-7.578a1.928,1.928,0,0,0-1.469.637A3.1,3.1,0,0,0,148.6,36h4.234v-.109a2.753,2.753,0,0,0-.594-1.707A1.815,1.815,0,0,0,150.8,33.578Zm8.758,3.125a4.952,4.952,0,0,1,.922-3.129,3.137,3.137,0,0,1,4.766-.168V29H166.7V41h-1.328l-.07-.906a2.943,2.943,0,0,1-2.414,1.063,2.887,2.887,0,0,1-2.395-1.2,5.008,5.008,0,0,1-.926-3.141Zm1.445.164a3.749,3.749,0,0,0,.594,2.25,1.919,1.919,0,0,0,1.641.813A2.108,2.108,0,0,0,165.25,38.7V34.813a2.125,2.125,0,0,0-1.992-1.2,1.929,1.929,0,0,0-1.656.82A4.128,4.128,0,0,0,161.008,36.867Zm11.438,4.289a3.693,3.693,0,0,1-2.8-1.129,4.19,4.19,0,0,1-1.078-3.02v-.266a5.073,5.073,0,0,1,.48-2.246,3.748,3.748,0,0,1,1.344-1.547,3.378,3.378,0,0,1,1.871-.559,3.166,3.166,0,0,1,2.563,1.086,4.7,4.7,0,0,1,.914,3.109v.6h-5.727a3,3,0,0,0,.73,2.02,2.3,2.3,0,0,0,1.777.77,2.517,2.517,0,0,0,1.3-.312,3.258,3.258,0,0,0,.93-.828l.883.688A3.55,3.55,0,0,1,172.445,41.156Zm-.18-7.578a1.928,1.928,0,0,0-1.469.637A3.1,3.1,0,0,0,170.063,36H174.3v-.109a2.753,2.753,0,0,0-.594-1.707A1.815,1.815,0,0,0,172.266,33.578ZM186.594,41a3.036,3.036,0,0,1-.2-.891,3.225,3.225,0,0,1-2.406,1.047,2.984,2.984,0,0,1-2.051-.707,2.287,2.287,0,0,1-.8-1.793,2.39,2.39,0,0,1,1-2.051,4.733,4.733,0,0,1,2.824-.73h1.406v-.664A1.623,1.623,0,0,0,185.914,34a1.821,1.821,0,0,0-1.336-.449,2.107,2.107,0,0,0-1.3.391,1.151,1.151,0,0,0-.523.945H181.3a2,2,0,0,1,.449-1.223,3.066,3.066,0,0,1,1.219-.934,4.1,4.1,0,0,1,1.691-.344,3.342,3.342,0,0,1,2.289.73,2.635,2.635,0,0,1,.859,2.012v3.891a4.757,4.757,0,0,0,.3,1.852V41Zm-2.4-1.1a2.54,2.54,0,0,0,1.289-.352,2.127,2.127,0,0,0,.883-.914V36.9h-1.133q-2.656,0-2.656,1.555a1.316,1.316,0,0,0,.453,1.063A1.742,1.742,0,0,0,184.2,39.9Zm7.453,1.1H190.2V29h1.445Zm1.969-4.3a4.968,4.968,0,0,1,.914-3.145,3.151,3.151,0,0,1,4.836-.074l.07-.937h1.32V40.8a3.439,3.439,0,0,1-.973,2.586,3.589,3.589,0,0,1-2.613.945,4.348,4.348,0,0,1-1.789-.391,3.08,3.08,0,0,1-1.336-1.07L194.8,42a2.826,2.826,0,0,0,2.273,1.148,2.214,2.214,0,0,0,1.645-.594,2.269,2.269,0,0,0,.59-1.672v-.727a2.971,2.971,0,0,1-2.367,1,2.887,2.887,0,0,1-2.4-1.2A5.224,5.224,0,0,1,193.617,36.7Zm1.453.164a3.79,3.79,0,0,0,.586,2.246,1.9,1.9,0,0,0,1.641.816,2.117,2.117,0,0,0,2.008-1.242V34.828a2.142,2.142,0,0,0-1.992-1.211,1.921,1.921,0,0,0-1.648.82A4.128,4.128,0,0,0,195.07,36.867Zm13.086,3.3a3.07,3.07,0,0,1-2.477.992,2.628,2.628,0,0,1-2.059-.785,3.4,3.4,0,0,1-.715-2.324v-5.5h1.445v5.461q0,1.922,1.563,1.922a2.163,2.163,0,0,0,2.2-1.234V32.547h1.445V41h-1.375Zm5.172.836h-1.445V32.547h1.445Zm-1.562-10.7a.863.863,0,0,1,.215-.594.807.807,0,0,1,.637-.242.819.819,0,0,1,.641.242.854.854,0,0,1,.219.594.826.826,0,0,1-.219.586.834.834,0,0,1-.641.234.821.821,0,0,1-.637-.234A.834.834,0,0,1,211.766,30.3Zm7.383,10.852a3.693,3.693,0,0,1-2.8-1.129,4.19,4.19,0,0,1-1.078-3.02v-.266a5.073,5.073,0,0,1,.48-2.246,3.748,3.748,0,0,1,1.344-1.547,3.378,3.378,0,0,1,1.871-.559,3.166,3.166,0,0,1,2.563,1.086,4.7,4.7,0,0,1,.914,3.109v.6h-5.727a3,3,0,0,0,.73,2.02,2.3,2.3,0,0,0,1.777.77,2.517,2.517,0,0,0,1.3-.312,3.258,3.258,0,0,0,.93-.828l.883.688A3.55,3.55,0,0,1,219.148,41.156Zm-.18-7.578a1.928,1.928,0,0,0-1.469.637A3.1,3.1,0,0,0,216.766,36H221v-.109a2.753,2.753,0,0,0-.594-1.707A1.815,1.815,0,0,0,218.969,33.578Zm6.516-1.031.047,1.063a3.08,3.08,0,0,1,2.531-1.219q2.68,0,2.7,3.023V41H229.32V35.406a1.946,1.946,0,0,0-.418-1.352,1.675,1.675,0,0,0-1.277-.437,2.086,2.086,0,0,0-1.234.375,2.546,2.546,0,0,0-.828.984V41h-1.445V32.547ZM236.523,36.7a4.993,4.993,0,0,1,.488-2.234,3.642,3.642,0,0,1,1.359-1.531,3.7,3.7,0,0,1,1.988-.539,3.565,3.565,0,0,1,2.793,1.2,4.6,4.6,0,0,1,1.066,3.18v.1a5.036,5.036,0,0,1-.473,2.215,3.589,3.589,0,0,1-1.352,1.527,3.743,3.743,0,0,1-2.02.547,3.556,3.556,0,0,1-2.785-1.2,4.575,4.575,0,0,1-1.066-3.164Zm1.453.172a3.616,3.616,0,0,0,.652,2.258,2.211,2.211,0,0,0,3.5-.012,3.954,3.954,0,0,0,.648-2.418,3.61,3.61,0,0,0-.66-2.254,2.1,2.1,0,0,0-1.754-.863,2.075,2.075,0,0,0-1.727.852A3.925,3.925,0,0,0,237.977,36.867ZM4.484,63.977a2.082,2.082,0,0,0,1.352-.469,1.649,1.649,0,0,0,.641-1.172H7.844a2.621,2.621,0,0,1-.5,1.383,3.293,3.293,0,0,1-1.23,1.047,3.55,3.55,0,0,1-1.629.391A3.482,3.482,0,0,1,1.738,64a4.59,4.59,0,0,1-1.02-3.152v-.242a5.089,5.089,0,0,1,.453-2.2,3.451,3.451,0,0,1,1.3-1.492,3.7,3.7,0,0,1,2-.531,3.39,3.39,0,0,1,2.363.852,3.043,3.043,0,0,1,1,2.211H6.477a1.992,1.992,0,0,0-.621-1.348,1.932,1.932,0,0,0-1.379-.527,2.023,2.023,0,0,0-1.707.793,3.724,3.724,0,0,0-.605,2.293v.273a3.65,3.65,0,0,0,.6,2.25A2.033,2.033,0,0,0,4.484,63.977Zm4.6-3.281a4.993,4.993,0,0,1,.488-2.234,3.643,3.643,0,0,1,1.359-1.531,3.7,3.7,0,0,1,1.988-.539,3.565,3.565,0,0,1,2.793,1.2,4.6,4.6,0,0,1,1.066,3.18v.1a5.036,5.036,0,0,1-.473,2.215,3.589,3.589,0,0,1-1.352,1.527,3.743,3.743,0,0,1-2.02.547,3.556,3.556,0,0,1-2.785-1.2A4.575,4.575,0,0,1,9.086,60.8Zm1.453.172a3.616,3.616,0,0,0,.652,2.258,2.211,2.211,0,0,0,3.5-.012,3.955,3.955,0,0,0,.648-2.418,3.61,3.61,0,0,0-.66-2.254,2.1,2.1,0,0,0-1.754-.863,2.075,2.075,0,0,0-1.727.852A3.925,3.925,0,0,0,10.539,60.867Zm9.414-4.32.039.938A3.122,3.122,0,0,1,22.5,56.391a2.417,2.417,0,0,1,2.414,1.359,3.2,3.2,0,0,1,1.1-.984,3.242,3.242,0,0,1,1.6-.375q2.781,0,2.828,2.945V65H28.992V59.422a1.941,1.941,0,0,0-.414-1.355,1.823,1.823,0,0,0-1.391-.449,1.916,1.916,0,0,0-1.336.48,1.949,1.949,0,0,0-.617,1.293V65H23.781V59.461a1.613,1.613,0,0,0-1.8-1.844,1.934,1.934,0,0,0-1.945,1.211V65H18.586V56.547Zm19.8,4.32a5.062,5.062,0,0,1-.883,3.109,2.829,2.829,0,0,1-2.391,1.18,3.1,3.1,0,0,1-2.422-.977v4.07H32.617v-11.7h1.32l.07.938a2.977,2.977,0,0,1,2.453-1.094,2.882,2.882,0,0,1,2.41,1.148,5.117,5.117,0,0,1,.887,3.2ZM38.313,60.7a3.735,3.735,0,0,0-.609-2.258,1.963,1.963,0,0,0-1.672-.828,2.125,2.125,0,0,0-1.969,1.164V62.82a2.129,2.129,0,0,0,1.984,1.156,1.954,1.954,0,0,0,1.652-.824A4.077,4.077,0,0,0,38.313,60.7Zm8.5,4.3a3.036,3.036,0,0,1-.2-.891A3.225,3.225,0,0,1,44.2,65.156a2.984,2.984,0,0,1-2.051-.707,2.287,2.287,0,0,1-.8-1.793,2.39,2.39,0,0,1,1-2.051,4.733,4.733,0,0,1,2.824-.73h1.406v-.664A1.623,1.623,0,0,0,46.133,58a1.821,1.821,0,0,0-1.336-.449,2.107,2.107,0,0,0-1.3.391,1.151,1.151,0,0,0-.523.945H41.523a2,2,0,0,1,.449-1.223,3.066,3.066,0,0,1,1.219-.934,4.1,4.1,0,0,1,1.691-.344,3.342,3.342,0,0,1,2.289.73,2.635,2.635,0,0,1,.859,2.012v3.891a4.757,4.757,0,0,0,.3,1.852V65Zm-2.4-1.1a2.54,2.54,0,0,0,1.289-.352,2.127,2.127,0,0,0,.883-.914V60.9H45.453q-2.656,0-2.656,1.555a1.316,1.316,0,0,0,.453,1.063A1.742,1.742,0,0,0,44.414,63.9Zm7.25-7.352.047,1.063a3.08,3.08,0,0,1,2.531-1.219q2.68,0,2.7,3.023V65H55.5V59.406a1.946,1.946,0,0,0-.418-1.352,1.675,1.675,0,0,0-1.277-.437,2.086,2.086,0,0,0-1.234.375,2.546,2.546,0,0,0-.828.984V65H50.3V56.547Zm4.781-3.3a1.942,1.942,0,0,1-.48,1.367,1.561,1.561,0,0,1-1.2.523,1.76,1.76,0,0,1-.555-.078,2.993,2.993,0,0,1-.613-.32,2.656,2.656,0,0,0-.547-.293,1.338,1.338,0,0,0-.387-.051.717.717,0,0,0-.547.246.892.892,0,0,0-.227.629l-.969-.055a2.039,2.039,0,0,1,.473-1.383,1.516,1.516,0,0,1,1.2-.547,1.457,1.457,0,0,1,.492.078,3.587,3.587,0,0,1,.594.3,3.494,3.494,0,0,0,.574.3,1.319,1.319,0,0,0,.441.07.7.7,0,0,0,.559-.266.932.932,0,0,0,.223-.617ZM60.7,65H59.242V56.547H60.7Zm.016-11.992h1.75l-2.094,2.3-1.164,0ZM68.3,65a3.036,3.036,0,0,1-.2-.891,3.225,3.225,0,0,1-2.406,1.047,2.984,2.984,0,0,1-2.051-.707,2.287,2.287,0,0,1-.8-1.793,2.39,2.39,0,0,1,1-2.051,4.733,4.733,0,0,1,2.824-.73H68.07v-.664A1.623,1.623,0,0,0,67.617,58a1.821,1.821,0,0,0-1.336-.449,2.107,2.107,0,0,0-1.3.391,1.151,1.151,0,0,0-.523.945H63.008a2,2,0,0,1,.449-1.223,3.066,3.066,0,0,1,1.219-.934,4.1,4.1,0,0,1,1.691-.344,3.342,3.342,0,0,1,2.289.73,2.635,2.635,0,0,1,.859,2.012v3.891a4.757,4.757,0,0,0,.3,1.852V65Zm-2.4-1.1a2.54,2.54,0,0,0,1.289-.352,2.127,2.127,0,0,0,.883-.914V60.9H66.938q-2.656,0-2.656,1.555a1.316,1.316,0,0,0,.453,1.063A1.742,1.742,0,0,0,65.9,63.9Zm5.914.344a.905.905,0,0,1,.223-.625.848.848,0,0,1,.668-.25.874.874,0,0,1,.676.25.887.887,0,0,1,.23.625.839.839,0,0,1-.23.6.89.89,0,0,1-.676.242.8.8,0,0,1-.891-.844Z" transform="translate(466.8 2214.435)" fill="#fff"/>
    <path id="Trazado_224519" data-name="Trazado 224519" d="M14.962,29.554a6.6,6.6,0,0,1-4.527,1.818,7.31,7.31,0,0,1-5.826-2.486,9.8,9.8,0,0,1-2.152-6.643,9.969,9.969,0,0,1,1.206-4.824,9.05,9.05,0,0,1,3.386-3.525,9.232,9.232,0,0,1,4.815-1.3A8.962,8.962,0,0,1,16.7,13.94a9.057,9.057,0,0,1,3.368,3.8,13.066,13.066,0,0,1,1.243,5.668v2.394a16.24,16.24,0,0,1-1.753,7.756,12.1,12.1,0,0,1-5,5.047,15.625,15.625,0,0,1-7.57,1.763h-.39v-5.01l1.188-.019Q14.239,35.027,14.962,29.554Zm-2.839-2.69A3.044,3.044,0,0,0,15.055,25.1V22.5a6.754,6.754,0,0,0-.872-3.841,2.735,2.735,0,0,0-2.356-1.243,2.585,2.585,0,0,0-2.208,1.41,6.265,6.265,0,0,0-.891,3.414,5.617,5.617,0,0,0,.909,3.368A2.908,2.908,0,0,0,12.124,26.863Z" transform="translate(365.8 2208.434)" fill="#fff"/>
  </g>
</svg>
