<svg xmlns="http://www.w3.org/2000/svg" xmlns:xlink="http://www.w3.org/1999/xlink" width="145.182" height="145.184" viewBox="0 0 145.182 145.184">
  <defs>
    <clipPath id="clip-path">
      <path id="Trazado_189538" data-name="Trazado 189538" d="M2.531,72.592a70.06,70.06,0,1,1,70.061,70.061A70.141,70.141,0,0,1,2.531,72.592M72.592,0a72.592,72.592,0,1,0,72.59,72.592A72.674,72.674,0,0,0,72.592,0Z" fill="#fff"/>
    </clipPath>
    <clipPath id="clip-path-2">
      <rect id="Rect치ngulo_60518" data-name="Rect치ngulo 60518" width="88.255" height="84.32" fill="#fff" stroke="#fff" stroke-width="1"/>
    </clipPath>
  </defs>
  <g id="Grupo_199142" data-name="Grupo 199142" transform="translate(-544.939 -3808.568)">
    <g id="Grupo_199118" data-name="Grupo 199118" transform="translate(544.939 3808.568)">
      <g id="Grupo_172087" data-name="Grupo 172087" clip-path="url(#clip-path)">
        <rect id="Rect치ngulo_49153" data-name="Rect치ngulo 49153" width="180.135" height="180.136" transform="translate(-39.16 11.468) rotate(-16.323)" fill="#fff"/>
      </g>
    </g>
    <g id="Grupo_199133" data-name="Grupo 199133" transform="translate(573 3838.998)">
      <g id="Grupo_199136" data-name="Grupo 199136" transform="translate(0 0.002)" clip-path="url(#clip-path-2)">
        <path id="Trazado_208203" data-name="Trazado 208203" d="M88.253,38.085a16.794,16.794,0,0,0-.14-1.951,13.218,13.218,0,0,0-.325-1.666,10.955,10.955,0,0,0-3.782-5.841,14.521,14.521,0,0,0-3.013-1.865,8.912,8.912,0,0,0-1.277-.474,12.2,12.2,0,0,0-2.918-.451c-.532-.023-1.064-.018-1.6.009a2.282,2.282,0,0,1-.385-.014,1.073,1.073,0,0,1-.936-.867,1.924,1.924,0,0,1-.041-.435c.007-.481.016-.962.016-1.442q0-1.855,0-3.71c0-.112,0-.223-.009-.335a4.969,4.969,0,0,0-.271-1.437,4.53,4.53,0,0,0-1.814-2.367,4.956,4.956,0,0,0-2.442-.8c-.18-.012-.36-.011-.541-.011l-20.117,0a7.461,7.461,0,0,0-.823.042,2.379,2.379,0,0,1-.769-.027,1.257,1.257,0,0,1-1.012-.916,1.815,1.815,0,0,1-.07-.611c.009-.18.022-.36.047-.539a3.039,3.039,0,0,0,.027-.488c-.01-.429-.04-.857-.084-1.285a12.111,12.111,0,0,0-.322-1.8,10.653,10.653,0,0,0-2.193-4.267A12.68,12.68,0,0,0,39.839,1.6,13.1,13.1,0,0,0,34.618.068C34.114.023,33.607.005,33.1.006q-3.4,0-6.8,0L15.2,0l-4.662,0-.309,0a10.124,10.124,0,0,0-1.386.1,5.849,5.849,0,0,0-.978.219,3.7,3.7,0,0,0-1.322.725,2.979,2.979,0,0,0-.9,1.327,3.465,3.465,0,0,0-.168.883,6.4,6.4,0,0,0,.152,1.867,4.568,4.568,0,0,0,.509,1.287,3.66,3.66,0,0,0,1.5,1.414,4.37,4.37,0,0,0,1.7.475c.625.046,1.251.07,1.877.1.583.027,1.167.047,1.75.071l.077,0c.6.027,1.2.056,1.8.08.618.025,1.235.047,1.853.07l.077,0c.609.027,1.218.055,1.827.081s1.2.047,1.8.07l.077,0c.6.027,1.2.056,1.8.081.583.025,1.167.046,1.75.069l.077,0c.583.027,1.166.055,1.749.08s1.184.047,1.776.07l.077,0c.575.027,1.149.055,1.724.08.6.026,1.2.047,1.8.07l.077,0q.991.044,1.981.088.373.017.746.042a3.943,3.943,0,0,1,1.268.313,2.544,2.544,0,0,1,.618.366,2.108,2.108,0,0,1,.78,1.377,3.123,3.123,0,0,1,.031.513c-.007.369-.016.738.01,1.107a1.714,1.714,0,0,1,0,.283,1.134,1.134,0,0,1-.908,1.051,2.3,2.3,0,0,1-.511.047L31.35,14.43l-5.435,0H18.574l-2.808,0a5.5,5.5,0,0,0-.847.055,4.464,4.464,0,0,0-1.181.345,5.075,5.075,0,0,0-1.464,1.035,4.4,4.4,0,0,0-1.01,1.538,5.1,5.1,0,0,0-.336,1.528c-.014.214-.019.429-.019.644q0,3.607,0,7.214,0,6.776,0,13.551,0,1.868,0,3.736t0,3.736q0,2.576,0,5.153,0,3.027,0,6.054,0,.863,0,1.726c0,.3,0,.6,0,.9a2.062,2.062,0,0,1-.052.486,1.14,1.14,0,0,1-.786.877,1.35,1.35,0,0,1-.4.074c-.1,0-.206,0-.309,0-1.056,0-2.112-.01-3.168-.011q-2.189,0-4.379,0l-1,0a1.32,1.32,0,0,0-.381.051.546.546,0,0,0-.394.4A1.419,1.419,0,0,0,0,63.883,5.673,5.673,0,0,0,.073,64.91a7.935,7.935,0,0,0,.408,1.54,7.557,7.557,0,0,0,4.685,4.54,8.145,8.145,0,0,0,2.606.415q2.048.006,4.1.008,3.671,0,7.341,0l2.241,0,2.911-.006c.18,0,.361,0,.541,0a5.245,5.245,0,0,1,.694.022,1.2,1.2,0,0,1,.942.638,2.485,2.485,0,0,1,.159.379c.118.331.233.664.362.991a16.629,16.629,0,0,0,3.034,4.96,18.3,18.3,0,0,0,3.63,3.145,16.462,16.462,0,0,0,4,1.928,16.714,16.714,0,0,0,2.472.6c.4.065.8.12,1.2.16.462.045.923.083,1.387.091.223,0,.446.007.67.007l21.972.006q2.215,0,4.43,0c.481,0,.962,0,1.442,0a7.131,7.131,0,0,0,1.281-.11,4.953,4.953,0,0,0,1.059-.309,3.344,3.344,0,0,0,1.778-1.707c.066-.139.12-.284.173-.429a5.039,5.039,0,0,0,.241-1,4.726,4.726,0,0,0,.029-1.334,3.989,3.989,0,0,0-.29-1.064,3.609,3.609,0,0,0-1.478-1.67,4.82,4.82,0,0,0-2.218-.679c-.779-.049-1.561-.07-2.341-.1-.712-.026-1.424-.047-2.137-.07l-.129-.005c-.721-.027-1.441-.055-2.162-.079s-1.459-.047-2.188-.07l-.129-.005c-.712-.027-1.424-.055-2.136-.08s-1.442-.047-2.162-.07l-.1,0c-.738-.027-1.476-.056-2.213-.081-.7-.025-1.407-.046-2.111-.069l-.1,0c-.721-.027-1.441-.055-2.162-.08-.7-.025-1.407-.046-2.111-.069l-.1,0c-.712-.027-1.424-.055-2.136-.08-.695-.025-1.39-.047-2.085-.07l-.1,0c-.712-.027-1.424-.056-2.136-.081-.292-.01-.583-.017-.874-.046a7.785,7.785,0,0,1-.889-.142,7.483,7.483,0,0,1-2.3-.936,9.584,9.584,0,0,1-1.382-1.029l-1.424-1.267-.076-.07c-.034-.032-.042-.052-.024-.062a.1.1,0,0,1,.042-.02c.086,0,.172,0,.257,0h8.14l17.129,0c1.46,0,2.919.006,4.379.005,3.288,0,6.577.012,9.865-.025.507-.006,1.013-.012,1.52-.013a6.088,6.088,0,0,0,.9-.072,7.192,7.192,0,0,0,1.586-.428,7.7,7.7,0,0,0,4.378-4.559,7.454,7.454,0,0,0,.376-1.6,6.131,6.131,0,0,0,.045-.822,2.035,2.035,0,0,0-.029-.307.535.535,0,0,0-.472-.474,2,2,0,0,0-.331-.043l-.335,0-8.655,0c-.043,0-.086,0-.129,0a1,1,0,0,1-.929-.794,1.935,1.935,0,0,1-.042-.435q.01-2.563.015-5.127c0-.833,0-1.666,0-2.5,0-.026,0-.052,0-.077,0-.635,0-1.271-.008-1.906a1.611,1.611,0,0,1,.043-.409.978.978,0,0,1,.758-.758,1.521,1.521,0,0,1,.383-.038c.464,0,.927,0,1.391,0a11.493,11.493,0,0,0,3.227-.45,11.821,11.821,0,0,0,5.643-3.574,11.418,11.418,0,0,0,2.857-6.382,15.986,15.986,0,0,0,.112-1.825c0-.24,0-.481,0-.721M36.431,8.71a4.372,4.372,0,0,0-1.179-.5,7.531,7.531,0,0,0-1.292-.222c-.3-.027-.6-.037-.9-.049-.566-.024-1.132-.052-1.7-.079l-.077,0c-.609-.024-1.218-.045-1.827-.071-.566-.024-1.132-.053-1.7-.079l-.077,0c-.6-.023-1.2-.045-1.8-.071-.575-.024-1.149-.053-1.723-.079l-.18-.008-1.106-.048c-.592-.024-1.184-.045-1.776-.07s-1.183-.053-1.775-.08l-.077,0c-.6-.024-1.2-.045-1.8-.071-.583-.025-1.166-.053-1.749-.08l-.077,0c-.592-.023-1.184-.045-1.776-.07s-1.183-.053-1.775-.08l-.129-.006c-.6-.022-1.2-.042-1.8-.068-.283-.012-.566-.029-.848-.055a3,3,0,0,1-.8-.181,2.244,2.244,0,0,1-1.172-1,3.263,3.263,0,0,1-.345-.911A5.352,5.352,0,0,1,6.833,3.8a2.574,2.574,0,0,1,.126-.939A1.846,1.846,0,0,1,7.7,1.9a2.484,2.484,0,0,1,.776-.335,4.779,4.779,0,0,1,.71-.12c.42-.042.84-.042,1.26-.046l1.519-.011a1.493,1.493,0,0,1,.409.038,1.026,1.026,0,0,1,.767.93c.01.1,0,.206,0,.309,0,.412,0,.824,0,1.236a.759.759,0,0,0,.063.326.43.43,0,0,0,.592.187.391.391,0,0,0,.156-.167.712.712,0,0,0,.074-.323c0-.266.007-.532.007-.8,0-.2,0-.395-.011-.592a1.189,1.189,0,0,1,.056-.406A1,1,0,0,1,14.93,1.4a1.994,1.994,0,0,1,.308-.013q.8,0,1.6,0c.1,0,.206,0,.309.006a1.023,1.023,0,0,1,.957.946,2.416,2.416,0,0,1,.007.283c-.016.4-.012.807,0,1.21a.992.992,0,0,0,.033.28.709.709,0,0,0,.07.165.363.363,0,0,0,.3.175.412.412,0,0,0,.471-.372A2.679,2.679,0,0,0,19,3.8c.011-.4.015-.807-.007-1.21a1.285,1.285,0,0,1,.074-.532.989.989,0,0,1,.821-.656,1.933,1.933,0,0,1,.308-.014q.837,0,1.674,0c.077,0,.155,0,.232,0a.984.984,0,0,1,.952.822,2.042,2.042,0,0,1,.024.359c0,.343-.009.687-.011,1.03,0,.129,0,.258.01.386a.551.551,0,0,0,.065.247.434.434,0,0,0,.555.191.364.364,0,0,0,.2-.194.643.643,0,0,0,.07-.272c0-.4.03-.807-.005-1.21a2.217,2.217,0,0,1,0-.36,1.085,1.085,0,0,1,.955-.994,1.954,1.954,0,0,1,.411-.016,9.584,9.584,0,0,0,1.415,0,1.338,1.338,0,0,1,.583.072,1.047,1.047,0,0,1,.661.705,1.13,1.13,0,0,1,.055.355c0,.086,0,.172-.005.257-.019.386-.008.773,0,1.159a.628.628,0,0,0,.071.3.419.419,0,0,0,.549.2.425.425,0,0,0,.257-.3,1.1,1.1,0,0,0,.037-.306c0-.4,0-.807,0-1.21a2.578,2.578,0,0,1,.012-.334.988.988,0,0,1,.927-.88c.086-.006.172,0,.257,0h1.674c.086,0,.172,0,.257,0a.99.99,0,0,1,.921.859,2.314,2.314,0,0,1,.018.359c-.005.412,0,.824,0,1.236A1.423,1.423,0,0,0,33.007,4a.73.73,0,0,0,.027.152.4.4,0,0,0,.348.3.416.416,0,0,0,.474-.3.959.959,0,0,0,.039-.28c0-.378,0-.756,0-1.133a2.923,2.923,0,0,1,.014-.385.971.971,0,0,1,.73-.81,1.133,1.133,0,0,1,.459-.028,12.84,12.84,0,0,1,2.859.733c.239.095.476.2.709.3.381.177.758.363,1.136.546.039.019.076.04.114.06.019.01.018.045,0,.063s-.024.024-.038.035l-1.23.935c-.082.062-.165.123-.242.191a.429.429,0,0,0-.137.269.45.45,0,0,0,.475.508.48.48,0,0,0,.212-.087,1.51,1.51,0,0,0,.175-.15c.153-.15.3-.306.456-.454a3.218,3.218,0,0,1,.332-.284,1.059,1.059,0,0,1,1.23-.027,2.108,2.108,0,0,1,.283.222,9.915,9.915,0,0,1,1.759,2.143c.136.228.266.461.381.7.2.409.382.825.571,1.238.008.017-.016.054-.035.056s-.051.006-.077.006h-.206l-1.957,0c-.129,0-.258,0-.386,0a1.22,1.22,0,0,0-.229.032.38.38,0,0,0-.3.346.88.88,0,0,0,0,.154.361.361,0,0,0,.285.326,1.3,1.3,0,0,0,.255.032c.6.015,1.2.023,1.8-.012a1.687,1.687,0,0,1,.436.019.972.972,0,0,1,.783.73,1.189,1.189,0,0,1,.039.176c.022.153.045.306.057.46.03.385.059.77.057,1.157,0,.472,0,.945,0,1.417a1.156,1.156,0,0,1-.052.381.934.934,0,0,1-.682.639,1.366,1.366,0,0,1-.357.043c-.687,0-1.374,0-2.06,0h-.129v.005q-1.056,0-2.112,0a1.656,1.656,0,0,1-.383-.039.983.983,0,0,1-.773-.859,3.449,3.449,0,0,1-.012-.411c0-.326.007-.652.011-.979a6.143,6.143,0,0,0-.052-.822,3.708,3.708,0,0,0-.364-1.228A3.4,3.4,0,0,0,36.431,8.71M12.278,61.686q0-20.984,0-41.968a6.266,6.266,0,0,1,.09-1.1A3.942,3.942,0,0,1,12.6,17.8a3.026,3.026,0,0,1,1.868-1.764,4.363,4.363,0,0,1,1-.218,8.01,8.01,0,0,1,.849-.036H42.442v0H50.53q4.611,0,9.221,0,4.25,0,8.5-.017c.223,0,.447,0,.67,0a3.8,3.8,0,0,1,1.748.47,3.384,3.384,0,0,1,1.725,2.292,3.554,3.554,0,0,1,.1.868c0,.266-.008.532-.018.8-.029.738-.023,1.477-.018,2.215,0,.721.017,1.442.027,2.164a1.865,1.865,0,0,1-.037.409,1.028,1.028,0,0,1-.92.843,2.785,2.785,0,0,1-.334.012c-.678-.022-1.356-.03-2.034.011a1.429,1.429,0,0,1-.534-.065,1.029,1.029,0,0,1-.718-.8,1.937,1.937,0,0,1-.038-.487c.022-.747.019-1.494.018-2.241q0-.477-.007-.953c0-.094-.006-.189-.012-.283a.986.986,0,0,0-.02-.153.558.558,0,0,0-.456-.466,1.316,1.316,0,0,0-.28-.037H17.938c-.077,0-.155,0-.232,0a1.377,1.377,0,0,0-.356.048.548.548,0,0,0-.439.451,2.558,2.558,0,0,0-.042.357c-.007.111,0,.223,0,.335q0,16.051,0,32.1,0,1.894,0,3.787a2.789,2.789,0,0,0,.041.513.6.6,0,0,0,.193.355.568.568,0,0,0,.247.131,1.239,1.239,0,0,0,.305.041c.077,0,.155,0,.232,0q2.357,0,4.714,0c.558,0,1.116-.007,1.674-.008a4.689,4.689,0,0,1,.54.016,1.078,1.078,0,0,1,.826.507,1.235,1.235,0,0,1,.176.586,2,2,0,0,1,0,.232c-.029.644-.021,1.288,0,1.932,0,.086,0,.172,0,.258a1.248,1.248,0,0,1-.087.426.97.97,0,0,1-.666.593,1.193,1.193,0,0,1-.356.051c-.129,0-.258,0-.386,0q-3.5,0-7.006,0-1.893,0-3.786.006a1.552,1.552,0,0,1-.434-.044,1.013,1.013,0,0,1-.777-.834,1.451,1.451,0,0,1-.03-.307c0-.069,0-.137,0-.206M25,70.03c-.085.008-.172,0-.257,0H20.933q-4.6,0-9.195,0-2,0-3.992-.011a7.1,7.1,0,0,1-2.006-.282,5.758,5.758,0,0,1-2.665-1.682,7.454,7.454,0,0,1-1.291-2.034,1.78,1.78,0,0,1-.147-.829c.013-.223.021-.446.032-.669a.072.072,0,0,1,.066-.066c.077,0,.154,0,.231,0H17.7l3.194,0q1.751,0,3.5-.007c.129,0,.257.008.386.017a1.1,1.1,0,0,1,.37.1,1.041,1.041,0,0,1,.557.578,1.29,1.29,0,0,1,.1.476c0,.112,0,.223-.006.335a16.486,16.486,0,0,0,.015,1.854c.015.283.053.564.078.846.012.137.024.274.024.411A.963.963,0,0,1,25,70.03m.88-34.926a4.6,4.6,0,0,0-.075.9c0,.945,0,1.889,0,2.834q0,4.431,0,8.863,0,2.383.006,4.766,0,1.52.007,3.04c0,.129,0,.258,0,.386a1.488,1.488,0,0,1-.092.478,1.1,1.1,0,0,1-.862.729,1.809,1.809,0,0,1-.435.04c-.189-.007-.378-.013-.566-.016-1.382-.021-2.764-.025-4.146.01a2.991,2.991,0,0,1-.488-.023,1.093,1.093,0,0,1-.932-.843,1.817,1.817,0,0,1-.047-.434q0-.812,0-1.623c0-.086,0-.172,0-.258q0-3.5,0-7.007,0-11.117,0-22.233,0-.9,0-1.8a1.606,1.606,0,0,1,.047-.408,1.01,1.01,0,0,1,.861-.745,2.181,2.181,0,0,1,.283-.012c.627,0,1.253.006,1.88.006H42.334v0h5.151l5.151,0,6.439,0,4.611-.006c.472,0,.944,0,1.417,0a3.353,3.353,0,0,1,.36.016,1.225,1.225,0,0,1,.638.252,1.091,1.091,0,0,1,.411.72,1.72,1.72,0,0,1,.015.385,12.055,12.055,0,0,0-.011,1.39c0,.1,0,.206,0,.309a1,1,0,0,1-.084.375,1.021,1.021,0,0,1-.812.638,2.174,2.174,0,0,1-.385.024c-.962,0-1.923-.008-2.885-.012-.429,0-.859,0-1.288,0a12.2,12.2,0,0,0-1.618.1,11.849,11.849,0,0,0-9.6,7.71,11.559,11.559,0,0,0-.554,2.192c-.079.519-.115,1.04-.145,1.563-.036.652-.062,1.3-.061,1.957,0,.61,0,1.22.019,1.829.014.523.045,1.047.1,1.568a3.879,3.879,0,0,0,.328,1.186,4.695,4.695,0,0,0,3.6,2.682,4.13,4.13,0,0,0,.591.037A4.741,4.741,0,0,0,56.9,45.5a4.312,4.312,0,0,0,1.394-2.237,5.521,5.521,0,0,0,.134-.838,18.175,18.175,0,0,0,.059-1.956c-.006-.713-.018-1.425-.023-2.138,0-.215,0-.43.016-.644a3.321,3.321,0,0,1,.2-.979,2.208,2.208,0,0,1,1.384-1.359,3.488,3.488,0,0,1,1.111-.193c.335-.006.67,0,1,0l2.679-.006c.155,0,.309-.007.463-.007a1.279,1.279,0,0,1,.405.061,1.081,1.081,0,0,1,.735.763,1.612,1.612,0,0,1,.055.459q0,.541,0,1.082,0,1.275,0,2.55,0,4.56,0,9.12,0,2.731,0,5.462c0,.361.009.721.011,1.082a2.966,2.966,0,0,1-.01.386,1.09,1.09,0,0,1-.569.869,1.11,1.11,0,0,1-.388.13,2.909,2.909,0,0,1-.41.034q-1.288-.007-2.576-.01h-.1q-1.6,0-3.194-.005l-19.138,0c-.936,0-1.872,0-2.807,0-.275,0-.549.011-.824.019a2.284,2.284,0,0,1-.411-.023,1.091,1.091,0,0,1-.949-.974,2.18,2.18,0,0,1-.013-.257q0-1.159,0-2.319c0-.077,0-.155,0-.232q0-7.948,0-15.9c0-.489.006-.979,0-1.468a4.763,4.763,0,0,0-.894-2.747A4.513,4.513,0,0,0,31.6,31.438,4.66,4.66,0,0,0,25.882,35.1m42,22.131q0-6.208,0-12.416,0-2.048-.005-4.1,0-2.086-.01-4.173a2.325,2.325,0,0,1,.043-.486,1.084,1.084,0,0,1,.659-.83.981.981,0,0,1,.348-.086c.12,0,.24-.009.36,0,.6.031,1.2.028,1.8,0a3.25,3.25,0,0,1,.334,0,1.092,1.092,0,0,1,1.038.91,2.114,2.114,0,0,1,.038.409q0,1.275,0,2.55c0,.1,0,.206,0,.309q0,8.823,0,17.645c0,.738-.008,1.477-.006,2.215,0,.79.009,1.58.013,2.37,0,.112,0,.223,0,.335a1.424,1.424,0,0,1-.087.453,1.048,1.048,0,0,1-.606.63,1.288,1.288,0,0,1-.475.1c-.086,0-.172,0-.258,0q-3.1,0-6.207,0H53.8v0q-4.983,0-9.967,0-3.528,0-7.057.008-.232,0-.464,0a1.339,1.339,0,0,1-.5-.1,1.07,1.07,0,0,1-.679-.87,1.679,1.679,0,0,1-.018-.385,16.112,16.112,0,0,0,0-1.828,2.357,2.357,0,0,1,.009-.385,1.119,1.119,0,0,1,1-1.012,2.981,2.981,0,0,1,.36-.021c.609,0,1.219,0,1.828,0l.206,0,3.013,0,25.136,0c.112,0,.223,0,.335,0a1.937,1.937,0,0,0,.408-.05.717.717,0,0,0,.169-.06.38.38,0,0,0,.193-.2.861.861,0,0,0,.074-.272c.008-.12.017-.24.022-.36,0-.1,0-.206,0-.309M36.2,73.32a9.332,9.332,0,0,0,3.2,2.3,8.591,8.591,0,0,0,1.967.587,9.4,9.4,0,0,0,1.049.113l1.491.088.154.008q1.017.036,2.033.071l2.342.075.077,0c.772.024,1.545.046,2.317.073.686.024,1.373.053,2.059.079l.1,0c.695.023,1.39.045,2.085.07s1.39.053,2.085.079l.1,0c.678.023,1.356.044,2.033.068.721.026,1.441.054,2.162.081l.1,0c.686.023,1.373.045,2.059.069.712.026,1.424.054,2.136.081l.1,0,2.085.07c1.047.035,2.094.066,3.14.107a9.546,9.546,0,0,1,1.1.095,3.382,3.382,0,0,1,1.028.316,2.239,2.239,0,0,1,1.248,1.722,3.378,3.378,0,0,1,.01.975,6.343,6.343,0,0,1-.165.832,1.851,1.851,0,0,1-.736,1.054,2.679,2.679,0,0,1-.711.355,3.824,3.824,0,0,1-1.109.206c-.377.012-.755.015-1.133.015q-2.421,0-4.842,0c-.524,0-1.047.006-1.571.009a3.743,3.743,0,0,1-.566-.02,1.11,1.11,0,0,1-.657-.324,1.019,1.019,0,0,1-.271-.517,1.421,1.421,0,0,1-.026-.435,6.4,6.4,0,0,0,.005-.952.936.936,0,0,0-.029-.178.415.415,0,0,0-.47-.308.592.592,0,0,0-.1.024.354.354,0,0,0-.262.288,1.547,1.547,0,0,0-.029.281c0,.292,0,.584.005.876a2.171,2.171,0,0,1-.018.385,1,1,0,0,1-.893.863,2,2,0,0,1-.282.012c-.549-.015-1.1-.012-1.648,0a3.32,3.32,0,0,1-.334-.009.986.986,0,0,1-.874-.79,1.64,1.64,0,0,1-.032-.409c.011-.309.019-.618,0-.927,0-.06,0-.12-.01-.18a.633.633,0,0,0-.025-.126.416.416,0,0,0-.486-.283.428.428,0,0,0-.366.434,2.743,2.743,0,0,0,.021.642,2.257,2.257,0,0,1,.022.462,1.356,1.356,0,0,1-.087.427,1.157,1.157,0,0,1-.775.732,1.212,1.212,0,0,1-.405.066q-.309-.009-.617-.022c-.137-.006-.274-.017-.411-.021-.18-.006-.36-.007-.541-.012a1.392,1.392,0,0,1-.4-.077,1.167,1.167,0,0,1-.822-.994,3.314,3.314,0,0,1-.046-.539c0-.2,0-.4,0-.593a.619.619,0,0,0-.061-.274.426.426,0,0,0-.5-.227.4.4,0,0,0-.335.374,3.71,3.71,0,0,0-.023.411q0,.361.011.721a1.914,1.914,0,0,1-.024.41.968.968,0,0,1-.839.791,2.7,2.7,0,0,1-.308.013q-.85,0-1.7,0a3.044,3.044,0,0,1-.309-.01.969.969,0,0,1-.875-.871c-.009-.1-.008-.206-.008-.309q0-.464,0-.927a1.265,1.265,0,0,0-.03-.281.426.426,0,0,0-.508-.323.391.391,0,0,0-.327.29.864.864,0,0,0-.038.2,2.156,2.156,0,0,0,.018.462,3.2,3.2,0,0,1,.028.591,1.251,1.251,0,0,1-.079.4,1.152,1.152,0,0,1-.673.7,1.451,1.451,0,0,1-.5.112A4.741,4.741,0,0,1,45,82.951a4.75,4.75,0,0,0-.488-.024c-.154,0-.309-.005-.463-.01a1.321,1.321,0,0,1-.378-.072,1.128,1.128,0,0,1-.792-.928,2.7,2.7,0,0,1-.048-.512c0-.163,0-.326,0-.489a1.44,1.44,0,0,0-.059-.406,1,1,0,0,0-.082-.187.174.174,0,0,0-.119-.091.787.787,0,0,0-.177-.027c-.246.008-.308.07-.376.277a1.39,1.39,0,0,0-.067.431c0,.163,0,.326,0,.489a2.394,2.394,0,0,1-.045.435,1.121,1.121,0,0,1-.143.384,1,1,0,0,1-.775.491,1.871,1.871,0,0,1-.539-.02,15.836,15.836,0,0,1-1.95-.466c-.246-.075-.491-.155-.736-.232a1.457,1.457,0,0,1-.437-.214.889.889,0,0,1-.322-.423.959.959,0,0,1,.029-.727,1.5,1.5,0,0,1,.2-.326,2.156,2.156,0,0,0,.152-.208.453.453,0,0,0,.049-.395.416.416,0,0,0-.356-.294.41.41,0,0,0-.394.139c-.051.058-.1.12-.145.181-.1.121-.188.245-.286.365a1.694,1.694,0,0,1-.335.318,1.124,1.124,0,0,1-1.053.143,1.824,1.824,0,0,1-.455-.236c-.262-.179-.524-.359-.779-.548-.518-.384-1.006-.8-1.486-1.233a1.776,1.776,0,0,1-.308-.345,1.109,1.109,0,0,1-.2-.628,1.055,1.055,0,0,1,.177-.582,1.392,1.392,0,0,1,.336-.352,2.026,2.026,0,0,0,.343-.347.709.709,0,0,0,.06-.083.441.441,0,0,0-.659-.566,2.624,2.624,0,0,0-.254.255c-.25.272-.5.545-.747.818l-.1.113c-.088.093-.1.093-.172-.007-.211-.282-.424-.562-.631-.847a13.427,13.427,0,0,1-1.109-1.853c-.116-.23-.223-.463-.336-.695a1.279,1.279,0,0,1-.106-.316.926.926,0,0,1,.417-.978,1.071,1.071,0,0,1,.306-.132c.108-.028.215-.058.322-.088a1.071,1.071,0,0,0,.146-.049.438.438,0,0,0,.264-.481.443.443,0,0,0-.433-.37,1.873,1.873,0,0,0-.281.031c-.144.02-.288.045-.433.062a1.123,1.123,0,0,1-.458-.048,1.043,1.043,0,0,1-.663-.6,2.1,2.1,0,0,1-.141-.494c-.1-.549-.18-1.1-.227-1.657-.027-.317-.042-.634-.051-.951a1.194,1.194,0,0,1,.061-.457.967.967,0,0,1,.811-.664A1.568,1.568,0,0,1,28.4,66.2c.317.019.635.015.953,0a1.168,1.168,0,0,0,.254-.036.417.417,0,0,0,.308-.472.445.445,0,0,0-.436-.4,2.451,2.451,0,0,0-.591.019,2.846,2.846,0,0,1-.462.026A1.345,1.345,0,0,1,28,65.27a1.184,1.184,0,0,1-.835-1.014,2.173,2.173,0,0,1-.016-.36,4.357,4.357,0,0,1,.023-.437,6.024,6.024,0,0,0,.026-.617c0-.137.01-.275.015-.412a1.279,1.279,0,0,1,.071-.353,1.146,1.146,0,0,1,.924-.8,2.4,2.4,0,0,1,.486-.051c.215,0,.429,0,.644,0,.069,0,.137,0,.206,0a.372.372,0,0,0,.312-.2.463.463,0,0,0,.009-.467.364.364,0,0,0-.259-.194.8.8,0,0,0-.154-.013c-.257,0-.515-.007-.772-.008-.137,0-.275,0-.412,0a1.142,1.142,0,0,1-.45-.1.981.981,0,0,1-.593-.7,1.353,1.353,0,0,1-.038-.408c.029-.541.021-1.082.006-1.622a2.345,2.345,0,0,1,.013-.36,1.009,1.009,0,0,1,.924-.889c.111-.009.223-.005.334-.005.292,0,.584,0,.876,0a1.266,1.266,0,0,0,.255-.029.4.4,0,0,0,.331-.428.4.4,0,0,0-.228-.375.536.536,0,0,0-.172-.046c-.137-.012-.274-.02-.411-.021-.24,0-.481,0-.721.01a2.106,2.106,0,0,1-.359-.019.982.982,0,0,1-.826-.837,3.027,3.027,0,0,1-.014-.437q0-.7,0-1.391c0-.1-.008-.206-.008-.309a1.156,1.156,0,0,1,.078-.454.967.967,0,0,1,.747-.6,1.876,1.876,0,0,1,.41-.023c.275.006.549.007.824.007.086,0,.171-.011.257-.018a.476.476,0,0,0,.1-.018.411.411,0,0,0,.313-.469.389.389,0,0,0-.286-.359.656.656,0,0,0-.2-.04,2.63,2.63,0,0,0-.488.021,3.06,3.06,0,0,1-.565.03,1.278,1.278,0,0,1-.4-.074,1.167,1.167,0,0,1-.756-.785,1.352,1.352,0,0,1-.068-.457c.005-.223.011-.446.028-.669.011-.146.017-.291.019-.437,0-.163.009-.326.013-.489a1.255,1.255,0,0,1,.066-.353,1.13,1.13,0,0,1,.919-.8,2.392,2.392,0,0,1,.486-.049c.172,0,.343,0,.515,0a1.4,1.4,0,0,0,.406-.06c.255-.076.341-.156.313-.474,0-.009,0-.017,0-.025a.28.28,0,0,0-.178-.233.915.915,0,0,0-.295-.087c-.154-.013-.308-.024-.462-.031-.2-.009-.395-.01-.592-.018a1.324,1.324,0,0,1-.425-.095,1.106,1.106,0,0,1-.679-.725,1.26,1.26,0,0,1-.068-.353c0-.009,0-.017,0-.026-.005-.481-.038-.961-.057-1.441a1.842,1.842,0,0,1,.054-.536,1.19,1.19,0,0,1,1.011-.9,1.937,1.937,0,0,1,.513-.013c.162.02.325.032.487.05a.982.982,0,0,0,.407-.045.387.387,0,0,0,.293-.476.351.351,0,0,0-.243-.3,1.079,1.079,0,0,0-.352-.069,1.857,1.857,0,0,0-.359.017,2.835,2.835,0,0,1-.668.026,1.186,1.186,0,0,1-.8-.376,1.215,1.215,0,0,1-.282-.514,1.382,1.382,0,0,1-.06-.406c.006-.206.006-.412.021-.618.011-.154.016-.308.016-.463q0-1.03,0-2.061a3.668,3.668,0,0,1,.225-1.261,3.188,3.188,0,0,1,1.215-1.589,3.149,3.149,0,0,1,1.334-.509,3.328,3.328,0,0,1,1.575.137,3.091,3.091,0,0,1,1.9,1.767,3.628,3.628,0,0,1,.267.99,5.529,5.529,0,0,1,.036.72q0,6.995,0,13.989v1.314h0q0,3.774,0,7.549,0,2.074-.011,4.148c0,.73-.023,1.46-.02,2.19,0,.584.021,1.168.047,1.751.018.394.042.789.1,1.18a8.647,8.647,0,0,0,.375,1.575,9.288,9.288,0,0,0,1.958,3.3M81.7,64.46c.163,0,.326,0,.489.007a1.046,1.046,0,0,1,.445.115.906.906,0,0,1,.491.94,1.85,1.85,0,0,1-.1.373,6.263,6.263,0,0,1-4.275,3.913,6.336,6.336,0,0,1-1.011.185,7.231,7.231,0,0,1-.771.037c-.146,0-.292,0-.438,0h-33.1q-3.065,0-6.13.006c-.206,0-.412,0-.618,0a1.377,1.377,0,0,1-.455-.077,1.228,1.228,0,0,1-.731-.649,2.064,2.064,0,0,1-.151-.437,7.637,7.637,0,0,1-.168-1.015c-.036-.36-.044-.72-.045-1.08,0-.412,0-.824-.005-1.237a1.191,1.191,0,0,1,.057-.431.945.945,0,0,1,.844-.652,1.215,1.215,0,0,1,.129,0l5.512,0H81.7m-7.85-24.93c0-.352,0-.7,0-1.055h0c0-.369.012-.738.012-1.106,0-.317-.008-.635-.015-.952a2.272,2.272,0,0,1,.026-.41,1.024,1.024,0,0,1,.957-.857c.034,0,.069,0,.1,0,.48,0,.961,0,1.441,0a2.59,2.59,0,0,1,.71.1,2.507,2.507,0,0,1,1.8,1.986,2.716,2.716,0,0,1,.048.486c0,.489,0,.978,0,1.467a2.568,2.568,0,0,1-.38,1.319,2.477,2.477,0,0,1-1.534,1.13,3.01,3.01,0,0,1-.687.093c-.146,0-.292,0-.437,0-.292,0-.583,0-.875,0a1.43,1.43,0,0,1-.408-.043.981.981,0,0,1-.716-.706,1.121,1.121,0,0,1-.049-.381c.021-.36.008-.72.006-1.081m13.057-.449a12.657,12.657,0,0,1-.913,4.257,10.125,10.125,0,0,1-1.022,1.9,8.781,8.781,0,0,1-1.411,1.6,11.414,11.414,0,0,1-3.223,2.045,10.338,10.338,0,0,1-2.044.6,11.332,11.332,0,0,1-2.047.194l-1.288,0a1.233,1.233,0,0,1-.356-.044.984.984,0,0,1-.721-.764,1.763,1.763,0,0,1-.039-.435c.006-.653.012-1.305.011-1.958,0-.687-.007-1.374-.012-2.061a2.17,2.17,0,0,1,.034-.487,1,1,0,0,1,.75-.8,1.244,1.244,0,0,1,.356-.049q.386,0,.773,0c.266,0,.532,0,.8,0a3.9,3.9,0,0,0,3.254-2,3.672,3.672,0,0,0,.475-1.693c.011-.386.022-.772.03-1.159a8.1,8.1,0,0,0-.032-.926,3.892,3.892,0,0,0-2.771-3.371,3.332,3.332,0,0,0-.783-.14c-.137-.006-.274-.013-.412-.013H68.692v-.006H64.03c-.979,0-1.957.005-2.936,0a4.106,4.106,0,0,0-1.489.251,3.748,3.748,0,0,0-2.361,2.572,3.9,3.9,0,0,0-.156,1.092q0,1.2-.006,2.4c0,.627,0,1.254-.012,1.88a3.718,3.718,0,0,1-.073.742,3.163,3.163,0,0,1-1.429,2.057,3.351,3.351,0,0,1-1.266.48,3.233,3.233,0,0,1-2.729-.844,3.28,3.28,0,0,1-.948-1.593,2.908,2.908,0,0,1-.093-.713q0-.5-.008-1c0-.575-.016-1.15-.014-1.726,0-.653.016-1.3.025-1.957,0-.086,0-.172.006-.258a8.934,8.934,0,0,1,.288-2.061,10.725,10.725,0,0,1,5.441-6.785,9.435,9.435,0,0,1,2.093-.776c.175-.042.354-.064.532-.095.245-.042.49-.084.736-.124a.577.577,0,0,1,.127,0,.047.047,0,0,1,.034.03,1.541,1.541,0,0,1,.012.178q0,1.018,0,2.035c0,.129,0,.258,0,.386a.631.631,0,0,0,.055.25.4.4,0,0,0,.364.245.407.407,0,0,0,.391-.2.484.484,0,0,0,.077-.217c.005-.068.01-.137.013-.205.014-.386.015-.772.006-1.159,0-.129-.009-.258-.007-.386a1.208,1.208,0,0,1,.083-.453.955.955,0,0,1,.8-.61,1.988,1.988,0,0,1,.283-.011h1.751a1.369,1.369,0,0,1,.458.052.972.972,0,0,1,.68.827,2.221,2.221,0,0,1,.013.308c.008.5.014,1,.022,1.494a1.349,1.349,0,0,0,.019.231.384.384,0,0,0,.4.336.418.418,0,0,0,.427-.306,1.205,1.205,0,0,0,.037-.254c.009-.163.013-.326.014-.489a7.781,7.781,0,0,0-.027-.875,1.424,1.424,0,0,1,.04-.511,1.049,1.049,0,0,1,.816-.8,1.334,1.334,0,0,1,.357-.039c.189.005.378.009.566,0a8.7,8.7,0,0,1,.977.039,2.409,2.409,0,0,1,.381.06,1.154,1.154,0,0,1,.911,1.027,4.914,4.914,0,0,1,.035.539c.006.3,0,.6,0,.9,0,.086,0,.172.009.257a.626.626,0,0,0,.05.2.388.388,0,0,0,.411.245.384.384,0,0,0,.362-.281,1.077,1.077,0,0,0,.055-.355c0-.455,0-.91,0-1.365,0-.094,0-.189,0-.283a1,1,0,0,1,.768-.924,1.2,1.2,0,0,1,.229-.033c.094-.005.189,0,.283,0l1.571,0a2.853,2.853,0,0,1,.308.009,1,1,0,0,1,.869.8,1.818,1.818,0,0,1,.033.435q-.023.657,0,1.313,0,.116.012.231a.6.6,0,0,0,.077.244.43.43,0,0,0,.6.151.377.377,0,0,0,.147-.175.727.727,0,0,0,.063-.3c0-.172.006-.343.005-.515,0-.343,0-.687-.008-1.03a1.559,1.559,0,0,1,.046-.408.987.987,0,0,1,.884-.746,3.088,3.088,0,0,1,.565.021c.213.022.426.054.639.078.333.038.661.1.989.168a1.426,1.426,0,0,1,.365.121,1.01,1.01,0,0,1,.577.855c.009.1,0,.206,0,.309,0,.361,0,.721,0,1.082a.95.95,0,0,0,.044.3.4.4,0,0,0,.4.3.4.4,0,0,0,.4-.266.689.689,0,0,0,.058-.275c0-.069,0-.137,0-.206q0-.773,0-1.546a.888.888,0,0,1,.014-.126s.017-.008.024-.006a.27.27,0,0,1,.07.025c.453.279.91.551,1.357.839a10.811,10.811,0,0,1,3.127,3.093,9.459,9.459,0,0,1,1.23,2.622,13.069,13.069,0,0,1,.38,1.733,13.818,13.818,0,0,1,.136,2.748" transform="translate(0 -0.002)" fill="#fff" stroke="#fff" stroke-width="1"/>
        <path id="Trazado_208204" data-name="Trazado 208204" d="M929.683,989.073a7.967,7.967,0,0,1,1.812.478,9.144,9.144,0,0,1,2.041,1.136c.09.066.18.132.275.191a.57.57,0,0,0,.186.083.7.7,0,0,0,.681-.208.654.654,0,0,0,.07-.809,1.016,1.016,0,0,0-.208-.226q-.12-.1-.245-.189a9.293,9.293,0,0,0-4.42-1.827,10.018,10.018,0,0,0-1.022-.063c-.408.025-.786.031-1.162.073a10.84,10.84,0,0,0-1.717.325,8.58,8.58,0,0,0-2.411,1.075c-.093.061-.186.124-.274.192a.891.891,0,0,0-.291.354.711.711,0,0,0-.047.146.7.7,0,0,0,.413.729.536.536,0,0,0,.1.028.787.787,0,0,0,.429-.044,1.967,1.967,0,0,0,.316-.172,9.554,9.554,0,0,1,1.323-.688,8.093,8.093,0,0,1,2.562-.632,7.3,7.3,0,0,1,1.593.049" transform="translate(-898.165 -961.128)" fill="#fff" stroke="#fff" stroke-width="1"/>
        <path id="Trazado_208205" data-name="Trazado 208205" d="M2239.455,1441.827a.634.634,0,0,0,.686-.166,1.483,1.483,0,0,0,.175-.221,8.871,8.871,0,0,0,1.427-3.954c.046-.384.064-.769.077-1.155a6.84,6.84,0,0,0-.034-.822,10.2,10.2,0,0,0-.366-1.76c-.073-.237-.163-.47-.251-.7a1.018,1.018,0,0,0-.214-.349.6.6,0,0,0-.7-.174c-.016.006-.033.011-.048.018a.641.641,0,0,0-.4.728,1.712,1.712,0,0,0,.066.248c.029.09.064.177.1.266a8.285,8.285,0,0,1,.426,1.824,7.229,7.229,0,0,1,.026,1.464,7.746,7.746,0,0,1-.355,1.734,8.457,8.457,0,0,1-.827,1.766c-.058.1-.117.19-.17.288a.629.629,0,0,0-.062.448.662.662,0,0,0,.45.519" transform="translate(-2178.888 -1394.023)" fill="#fff" stroke="#fff" stroke-width="1"/>
        <path id="Trazado_208206" data-name="Trazado 208206" d="M1664.746,1438.61a8.77,8.77,0,0,0,.633,1.434,1.291,1.291,0,0,0,.243.33.608.608,0,0,0,.57.159.732.732,0,0,0,.358-.193.594.594,0,0,0,.185-.412.878.878,0,0,0-.019-.2,1.415,1.415,0,0,0-.153-.38,8.056,8.056,0,0,1-.869-2.785,7.675,7.675,0,0,1-.019-1.543,7.426,7.426,0,0,1,.336-1.662c.066-.2.138-.406.21-.608a1.1,1.1,0,0,0,.069-.4.6.6,0,0,0-.357-.552.633.633,0,0,0-.813.163,1.08,1.08,0,0,0-.182.309c-.072.184-.145.367-.209.553a8.937,8.937,0,0,0-.459,2.833,9.455,9.455,0,0,0,.09,1.309,8.676,8.676,0,0,0,.385,1.651" transform="translate(-1619.596 -1393.278)" fill="#fff" stroke="#fff" stroke-width="1"/>
        <path id="Trazado_208207" data-name="Trazado 208207" d="M1834.088,1835.361a2.4,2.4,0,0,0,.27.15,9.216,9.216,0,0,0,3.954.9,9,9,0,0,0,2.017-.222,8.707,8.707,0,0,0,1.469-.465,1.767,1.767,0,0,0,.364-.19.88.88,0,0,0,.247-.258.508.508,0,0,0,.078-.216.727.727,0,0,0-.192-.568.52.52,0,0,0-.236-.149.777.777,0,0,0-.381-.024,2.235,2.235,0,0,0-.439.142,7.868,7.868,0,0,1-2.19.539,7.516,7.516,0,0,1-1.619-.018,8.257,8.257,0,0,1-2.53-.743,1.305,1.305,0,0,0-.417-.127.6.6,0,0,0-.6.268.885.885,0,0,0-.122.282.56.56,0,0,0,.077.443.78.78,0,0,0,.251.255" transform="translate(-1784.52 -1784.875)" fill="#fff" stroke="#fff" stroke-width="1"/>
        <path id="Trazado_208208" data-name="Trazado 208208" d="M785.131,1173.5a.722.722,0,0,0-.551-.163.423.423,0,0,0-.05.014.709.709,0,0,0-.341.22,1.239,1.239,0,0,0-.2.325,8.495,8.495,0,0,0-.371.958,9.511,9.511,0,0,0-.372,1.731c-.054.443-.094.886-.1,1.2a6.821,6.821,0,0,0,.066,1.186,10.552,10.552,0,0,0,.363,1.629,2.373,2.373,0,0,0,.1.264.906.906,0,0,0,.224.31.515.515,0,0,0,.246.133.738.738,0,0,0,.607-.139.511.511,0,0,0,.2-.346,1.8,1.8,0,0,0,.012-.256,1.451,1.451,0,0,0-.087-.4,8.253,8.253,0,0,1-.326-1.74,7.927,7.927,0,0,1,.05-1.745,8.115,8.115,0,0,1,.427-1.691c.072-.192.153-.381.23-.572a1.112,1.112,0,0,0,.1-.448.572.572,0,0,0-.229-.468" transform="translate(-762.121 -1141.839)" fill="#fff" stroke="#fff" stroke-width="1"/>
        <path id="Trazado_208209" data-name="Trazado 208209" d="M1413.392,1195.7a8.056,8.056,0,0,1-.034,1.413,8.4,8.4,0,0,1-.316,1.535c-.02.066-.037.132-.056.2a.806.806,0,0,0-.019.332.6.6,0,0,0,.381.509.79.79,0,0,0,.274.061.572.572,0,0,0,.461-.187.952.952,0,0,0,.138-.185,1.431,1.431,0,0,0,.113-.258,8.845,8.845,0,0,0,.432-2.4c.006-.171,0-.343,0-.515a7.985,7.985,0,0,0-.094-1.462,9.44,9.44,0,0,0-.474-1.813,2.1,2.1,0,0,0-.114-.258.831.831,0,0,0-.232-.273.613.613,0,0,0-.28-.122.66.66,0,0,0-.767.64,1.289,1.289,0,0,0,.1.475,8.57,8.57,0,0,1,.489,2.307" transform="translate(-1374.882 -1160.264)" fill="#fff" stroke="#fff" stroke-width="1"/>
      </g>
    </g>
  </g>
</svg>
