<svg xmlns="http://www.w3.org/2000/svg" xmlns:xlink="http://www.w3.org/1999/xlink" width="145.182" height="145.184" viewBox="0 0 145.182 145.184">
  <defs>
    <clipPath id="clip-path">
      <path id="Trazado_189538" data-name="Trazado 189538" d="M2.531,72.592a70.06,70.06,0,1,1,70.061,70.061A70.141,70.141,0,0,1,2.531,72.592M72.592,0a72.592,72.592,0,1,0,72.59,72.592A72.674,72.674,0,0,0,72.592,0Z" fill="#fff"/>
    </clipPath>
    <clipPath id="clip-path-2">
      <rect id="Rect치ngulo_60515" data-name="Rect치ngulo 60515" width="85.701" height="84.32" fill="#fff"/>
    </clipPath>
  </defs>
  <g id="Grupo_199143" data-name="Grupo 199143" transform="translate(-727 -3808.568)">
    <g id="Grupo_199119" data-name="Grupo 199119" transform="translate(727 3808.568)">
      <g id="Grupo_172087" data-name="Grupo 172087" clip-path="url(#clip-path)">
        <rect id="Rect치ngulo_49153" data-name="Rect치ngulo 49153" width="180.135" height="180.136" transform="translate(-39.16 11.468) rotate(-16.323)" fill="#fff"/>
      </g>
    </g>
    <g id="Grupo_199132" data-name="Grupo 199132" transform="translate(757.149 3839)">
      <g id="Grupo_199131" data-name="Grupo 199131" clip-path="url(#clip-path-2)">
        <path id="Trazado_208183" data-name="Trazado 208183" d="M85.582,30.018c-1.209-5.571-4.911-8.574-10.58-8.574q-14.31,0-28.62.018c-.73,0-1.014-.168-1.222-.914C41.578,7.726,29.276-1.645,13.919.241,9.633.767,5.484,2.032,1.257,2.886a1.428,1.428,0,0,0-1.235,1.2A1.412,1.412,0,0,0,.741,5.571c1,.66,1.984,1.343,3,1.981a1.113,1.113,0,0,1,.57,1.088c-.029,2.2-.012,4.407-.013,6.611a3.394,3.394,0,0,0,.2,1.308q2.772,6.885,5.515,13.782a1.59,1.59,0,0,0,1.657,1.121c1.562-.02,3.125.021,4.686-.02.593-.015.829.09.791.755-.066,1.14-.032,2.287-.014,3.43a15.656,15.656,0,0,0,5.294,11.839,1.3,1.3,0,0,1,.437,1.091c-.01,5.328-.017,10.656.009,15.984a1.068,1.068,0,0,1-.659,1.085,9.947,9.947,0,0,0-4.492,5.305c-.243.638-.086,1.59-.68,1.872s-1.425.026-2.146.084a1.1,1.1,0,0,1-1.211-.716,4.228,4.228,0,0,0-4.715-2.027,4.277,4.277,0,0,0-.419,8.188,4,4,0,0,0,4.815-1.475,2.1,2.1,0,0,1,2.346-1.119,2.827,2.827,0,0,0,.752,0c.584-.093.8.141.94.719a9.535,9.535,0,0,0,7.34,7.526,9.57,9.57,0,0,0,10.172-3.426,1.293,1.293,0,0,1,1.1-.555q14.687.025,29.373,0a1.241,1.241,0,0,1,1.1.547,9.845,9.845,0,0,0,10.5,3.352,9.571,9.571,0,0,0,7.159-8.183A9.747,9.747,0,0,0,79.2,65.634a1.123,1.123,0,0,1-.668-1.161c.021-4.24.015-8.48.008-12.72,0-1.236-.492-1.716-1.723-1.721-1.562-.006-3.125-.033-4.686.014-.61.018-.718-.186-.715-.748.022-4.826.014-9.652.012-14.477a18.569,18.569,0,0,0-.3-3.243c-.089-.5-.594-1.127-.237-1.459.291-.27,1.008-.1,1.536-.094,1.365.008,1.855.5,1.858,1.875.006,2.762-.023,5.523.011,8.285A10.031,10.031,0,0,0,83.6,50.022a1.957,1.957,0,0,0,2.1-.99V30.117c-.041-.033-.11-.06-.118-.1M9.979,75.725a1.418,1.418,0,0,1-.013-2.835,1.418,1.418,0,1,1,.013,2.835m24.305-1.266a7.141,7.141,0,1,1-7.055-7.3,7.2,7.2,0,0,1,7.055,7.3M64.6,76.8c.061.223.022.383-.265.362-.111-.008-.223,0-.334,0q-13.387,0-26.775,0c-.137,0-.274-.02-.48-.036a10.2,10.2,0,0,0,.07-5.3c-.06-.227-.022-.381.264-.36.111.008.223,0,.335,0q13.387,0,26.775,0c.136,0,.273.02.47.036a10.144,10.144,0,0,0-.06,5.3m1.616-8.37c-.277.258-.571.17-.859.17q-7.363.011-14.727.006c-4.853,0-9.706-.009-14.559.013a1.261,1.261,0,0,1-1.179-.573,4.383,4.383,0,0,0-1.152-1.2,2.036,2.036,0,0,1-.921-2.031c.035-5.132.028-10.264,0-15.4,0-.627.116-.853.809-.849q10,.043,20,.005c.556,0,.723.141.812.714A14.242,14.242,0,0,0,67.969,61.416c.469.026.656.148.608.621a9.138,9.138,0,0,0-.006.92c0,3.282,0,3.277-2.355,5.471M81.4,74.3a7.133,7.133,0,1,1-7.115-7.141A7.139,7.139,0,0,1,81.4,74.3M75.128,52.873c.417-.006.573.084.57.543-.02,3.487-.013,6.974-.007,10.461,0,.35-.009.576-.488.494a7.37,7.37,0,0,0-3.147.212c-.551.145-.651-.03-.636-.547.035-1.2.017-2.4.009-3.6-.008-1.367-.5-1.89-1.884-1.842a11.779,11.779,0,0,1-7.369-1.971,11.344,11.344,0,0,1-5.047-9.161c-.069-1.3-.516-1.735-1.823-1.736q-11.758-.006-23.516,0c-1.3,0-1.805.523-1.806,1.846q-.005,8.076,0,16.151v.952a10.911,10.911,0,0,0-3.866-.305c-.572.1-.387-.347-.388-.6-.012-2.566-.008-5.133-.008-7.7,0-2.762-.019-5.523.011-8.285a2.422,2.422,0,0,0-.957-2.085,12.734,12.734,0,0,1-4.782-10.318c0-7.2-.014-14.394.019-21.591,0-.778-.215-.955-.957-.934-1.924.053-1.925.017-1.925,1.966,0,4.352-.012,8.7.014,13.055,0,.581-.138.76-.729.734-1.142-.049-2.287-.029-3.43-.007a.694.694,0,0,1-.8-.511Q9.771,21.971,7.3,15.865a2.527,2.527,0,0,1-.142-.982c0-2.26-.061-4.522.024-6.778A2.483,2.483,0,0,0,5.73,5.462,6.322,6.322,0,0,1,5.056,5c5.319-1.27,10.451-2.72,15.818-1.962,10.571,1.494,17.676,7.312,21.281,17.37.29.808.464,1.66.672,2.5.267,1.072.634,1.389,1.744,1.39,4.6.006,9.205-.01,13.808.007a10.024,10.024,0,0,1,10.008,8.173,11.874,11.874,0,0,1,.186,2.415q-.006,7.992,0,15.984c0,1.611.4,2.005,2.037,2.006,1.506,0,3.013.013,4.519-.008m7.712-6.051a.4.4,0,0,1-.058.139,6.965,6.965,0,0,1-5.614-6.5c-.062-2.872-.019-5.747-.027-8.62a4.337,4.337,0,0,0-4.538-4.68,14.1,14.1,0,0,1-3.084-.056c-.978-.239-1.271-1.461-2.059-2.07-.226-.174-.512-.327-.61-.627.026-.043.04-.088.054-.088,3.233.009,6.475-.215,9.695.094a6.885,6.885,0,0,1,6.214,6.674c.09,5.243.027,10.489.027,15.734" transform="translate(0 0)" fill="#fff"/>
        <path id="Trazado_208184" data-name="Trazado 208184" d="M105.032,142.608c-.115-.682.325-1.7-.174-2.095-.465-.372-1.438-.079-2.184-.136-.485-.037-.541.183-.532.579.023.974,0,1.95.022,2.924a10.836,10.836,0,0,0,2.186,6.275c.978,1.327.98,1.325,2.109.2.217-.217.422-.447.653-.646.252-.217.3-.373.043-.659a8.317,8.317,0,0,1-2.123-6.439" transform="translate(-79.292 -108.931)" fill="#fff"/>
        <path id="Trazado_208185" data-name="Trazado 208185" d="M262.832,121.678c-1.08-.137-1.08-.137-1.08.91a9.79,9.79,0,0,1-.009,1.166c-.065.536.148.695.667.766a4.069,4.069,0,0,1,3.509,3.4c.086.719.355.89.981.8a3.386,3.386,0,0,1,.5,0,3.289,3.289,0,0,1,.583.005c.834.152.92-.242.837-.959a7.172,7.172,0,0,0-5.988-6.085" transform="translate(-203.181 -94.409)" fill="#fff"/>
        <path id="Trazado_208186" data-name="Trazado 208186" d="M52.4,64.035c-1.4,0-1.4,0-1.4,1.38C51,66.9,51,66.9,52.471,66.9c1.391,0,1.391,0,1.391-1.39,0-1.473,0-1.473-1.458-1.473" transform="translate(-39.593 -49.71)" fill="#fff"/>
        <path id="Trazado_208187" data-name="Trazado 208187" d="M106.491,312.993a4.288,4.288,0,1,0,4.287,4.336,4.331,4.331,0,0,0-4.287-4.336m.013,5.7a1.415,1.415,0,0,1-.078-2.829,1.416,1.416,0,1,1,.078,2.829" transform="translate(-79.348 -242.975)" fill="#fff"/>
        <path id="Trazado_208188" data-name="Trazado 208188" d="M312.834,317.314a4.316,4.316,0,0,0,4.277,4.257,4.288,4.288,0,0,0,.024-8.575,4.321,4.321,0,0,0-4.3,4.318m4.274-1.446a1.417,1.417,0,1,1-.015,2.835,1.417,1.417,0,0,1,.015-2.835" transform="translate(-242.851 -242.977)" fill="#fff"/>
      </g>
    </g>
  </g>
</svg>
