<svg xmlns="http://www.w3.org/2000/svg" xmlns:xlink="http://www.w3.org/1999/xlink" width="576" height="379" viewBox="0 0 576 379">
  <defs>
    <clipPath id="clip-path">
      <rect id="Rectángulo_60227" data-name="Rectángulo 60227" width="72.994" height="62.614" fill="#e54c3c"/>
    </clipPath>
    <clipPath id="clip-path-2">
      <rect id="Rectángulo_60228" data-name="Rectángulo 60228" width="96.961" height="81.096" fill="#3c70c3"/>
    </clipPath>
    <clipPath id="clip-path-3">
      <rect id="Rectángulo_60226" data-name="Rectángulo 60226" width="93.754" height="95.532" fill="none"/>
    </clipPath>
    <clipPath id="clip-path-4">
      <rect id="Rectángulo_60229" data-name="Rectángulo 60229" width="114.245" height="112.369" fill="none"/>
    </clipPath>
    <clipPath id="clip-path-5">
      <rect id="Rectángulo_60230" data-name="Rectángulo 60230" width="87.325" height="98.958" fill="none"/>
    </clipPath>
  </defs>
  <g id="Grupo_212212" data-name="Grupo 212212" transform="translate(-822.215 -2080)">
    <g id="Grupo_198244" data-name="Grupo 198244" transform="translate(1077.215 2315.47)">
      <g id="Grupo_198243" data-name="Grupo 198243" clip-path="url(#clip-path)">
        <path id="Trazado_207016" data-name="Trazado 207016" d="M72.992,215.087a5.559,5.559,0,0,0-.368-2.019c-.871-2.266-2.815-3.49-5.568-3.49q-30.543,0-61.087,0c-.309,0-.618.006-.926.028A5.41,5.41,0,0,0,.274,213.3c-.071.21-.029.481-.274.616v12.118c.22.052.176.264.223.4a5.388,5.388,0,0,0,5.356,3.882q30.935.005,61.871,0a5.39,5.39,0,0,0,5.538-5.538c.013-3.231,0-6.463,0-9.694m-60.45,9.264a4.63,4.63,0,0,1,0-9.26,4.63,4.63,0,1,1,0,9.26m13.29,0a4.63,4.63,0,0,1,.041-9.26,4.63,4.63,0,1,1-.041,9.26" transform="translate(0 -174.968)" fill="#e54c3c"/>
        <path id="Trazado_207017" data-name="Trazado 207017" d="M95.732,348.095q-15,.031-30,.015h-30a3.539,3.539,0,0,1-.427,0c-.344-.042-.459.1-.451.442.019.807-.022,1.617.017,2.422a2.258,2.258,0,0,0,2.356,2.25q28.432.007,56.864,0a2.3,2.3,0,0,0,2.4-2.359c.021-.665-.045-1.335.019-1.994s-.161-.775-.781-.774" transform="translate(-29.098 -290.61)" fill="#e54c3c"/>
        <path id="Trazado_207018" data-name="Trazado 207018" d="M197.9,69.508a.73.73,0,0,1,.55.822c-.024,2.185-.011,4.37-.011,6.556v5.558c0,1.609,0,1.584,1.616,1.615.551.011.707-.127.7-.7-.026-4.347-.007-8.693-.025-13.04a.726.726,0,0,1,.536-.823,4.454,4.454,0,0,0,2.7-5.206,4.515,4.515,0,0,0-8.859.362,4.467,4.467,0,0,0,2.787,4.85m1.723-6.409a2.262,2.262,0,0,1,2.214,2.238,2.226,2.226,0,0,1-4.453-.02,2.271,2.271,0,0,1,2.238-2.218" transform="translate(-162.839 -50.774)" fill="#e54c3c"/>
        <path id="Trazado_207019" data-name="Trazado 207019" d="M78.772,20.749a1.143,1.143,0,0,0-.025-1.709c-.093-.108-.2-.208-.292-.312a12.07,12.07,0,0,1-.31-15.938c.247-.288.517-.558.752-.855A1.049,1.049,0,0,0,79,.731,1.1,1.1,0,0,0,77.921.112a1.225,1.225,0,0,0-.927.513,14.009,14.009,0,0,0-4,9.832,14,14,0,0,0,4.083,10.156,1.129,1.129,0,0,0,1.7.135" transform="translate(-60.936 -0.093)" fill="#e54c3c"/>
        <path id="Trazado_207020" data-name="Trazado 207020" d="M332.821,19.909a1.1,1.1,0,0,0,.72.974,1.136,1.136,0,0,0,1.342-.365,14.316,14.316,0,0,0,4.1-9.922A14.778,14.778,0,0,0,337.7,4.569,13.943,13.943,0,0,0,334.8.379a1.088,1.088,0,0,0-1.428-.2,1.1,1.1,0,0,0-.491,1.356,1.92,1.92,0,0,0,.547.732,11.751,11.751,0,0,1,3.165,7.07,11.818,11.818,0,0,1-3.3,9.5,1.354,1.354,0,0,0-.471,1.069" transform="translate(-277.855 0)" fill="#e54c3c"/>
        <path id="Trazado_207021" data-name="Trazado 207021" d="M130.722,38.442a1.15,1.15,0,0,0,1.074-1.589,2.888,2.888,0,0,0-.5-.68,6.837,6.837,0,0,1-.671-8.125c.265-.43.972-.736.748-1.284-.19-.466-.752-.77-1.112-1.179-.267-.3-.423-.226-.668.03a9.166,9.166,0,0,0,.258,12.4,1.483,1.483,0,0,0,.874.427" transform="translate(-106.279 -21.197)" fill="#e54c3c"/>
        <path id="Trazado_207022" data-name="Trazado 207022" d="M288.365,24.806a6.753,6.753,0,0,1,.675,8.113c-.267.429-.925.782-.787,1.237s.743.767,1.09,1.185.536.259.809-.06a9.207,9.207,0,0,0,2.242-5.927,9.407,9.407,0,0,0-.3-2.319,8.68,8.68,0,0,0-2.37-4.14,1.11,1.11,0,0,0-1.6-.059,1.124,1.124,0,0,0-.094,1.6c.1.132.22.249.33.373" transform="translate(-240.228 -18.805)" fill="#e54c3c"/>
        <path id="Trazado_207023" data-name="Trazado 207023" d="M64.4,261.641a2.321,2.321,0,1,1,2.269-2.327,2.292,2.292,0,0,1-2.269,2.327" transform="translate(-51.799 -214.558)" fill="#e54c3c"/>
        <path id="Trazado_207024" data-name="Trazado 207024" d="M144.755,261.628a2.324,2.324,0,0,1-2.305-2.306,2.332,2.332,0,1,1,2.305,2.306" transform="translate(-118.926 -214.545)" fill="#e54c3c"/>
        <path id="Trazado_207025" data-name="Trazado 207025" d="M64.312,257a2.321,2.321,0,1,0,2.36,2.315A2.308,2.308,0,0,0,64.312,257" transform="translate(-51.799 -214.558)" fill="#e54c3c"/>
        <path id="Trazado_207026" data-name="Trazado 207026" d="M144.8,256.984a2.348,2.348,0,0,0-2.353,2.338,2.332,2.332,0,0,0,4.665-.022,2.358,2.358,0,0,0-2.311-2.316" transform="translate(-118.926 -214.545)" fill="#e54c3c"/>
      </g>
    </g>
    <g id="Grupo_198246" data-name="Grupo 198246" transform="translate(1066 2080.453)">
      <g id="Grupo_198245" data-name="Grupo 198245" clip-path="url(#clip-path-2)">
        <path id="Trazado_207027" data-name="Trazado 207027" d="M26.987,5.415A21.361,21.361,0,0,1,32.435,9.28a1.594,1.594,0,0,0,2.14.3,1.549,1.549,0,0,0,.652-1.822,2.131,2.131,0,0,0-.711-.978A24.344,24.344,0,0,0,6.086,2.931,18.847,18.847,0,0,0,0,7.769v.947c.984,1.463,1.868,1.536,3.209.263A21.064,21.064,0,0,1,26.987,5.415" transform="translate(0.001 0)" fill="#3c70c3"/>
        <path id="Trazado_207028" data-name="Trazado 207028" d="M105.78,289.306c0-1.666-.541-2.206-2.215-2.206q-43.216,0-86.432,0c-1.675,0-2.213.539-2.214,2.206,0,4.324.021,8.647-.02,12.97-.008.823.151,1.094,1.051,1.092q22.2-.049,44.4-.023,22.2,0,44.4.023c.9,0,1.058-.27,1.051-1.092-.04-4.323-.017-8.647-.019-12.97m-82.8,4.312c-1.58,0-1.58,0-1.58-1.673,0-1.6,0-1.6,1.649-1.6,1.628,0,1.628,0,1.628,1.626,0,1.652,0,1.652-1.7,1.652m6.553-.005c-1.613,0-1.613,0-1.613-1.643,0-1.625,0-1.625,1.631-1.625,1.613,0,1.613,0,1.613,1.643,0,1.625,0,1.625-1.631,1.625m8.1-1.669c0,1.668,0,1.668-1.653,1.668-1.581,0-1.581,0-1.581-1.55,0-1.716,0-1.716,1.7-1.716,1.535,0,1.535,0,1.535,1.5Zm4.893,1.669c-1.659,0-1.659,0-1.659-1.693,0-1.575,0-1.575,1.588-1.575,1.659,0,1.659,0,1.659,1.693,0,1.574,0,1.574-1.588,1.574m6.432,0c-1.59,0-1.59,0-1.59-1.576,0-1.687,0-1.687,1.669-1.687,1.591,0,1.591,0,1.591,1.577,0,1.686,0,1.686-1.67,1.686m6.495,0c-1.578,0-1.578,0-1.578-1.581,0-1.686,0-1.686,1.664-1.686,1.578,0,1.578,0,1.578,1.582,0,1.686,0,1.686-1.663,1.686" transform="translate(-11.87 -228.728)" fill="#3c70c3"/>
        <path id="Trazado_207029" data-name="Trazado 207029" d="M175.483,80.488c4.006-.046,8.013-.021,12.019-.021,4.07,0,8.139-.013,12.208.014.611,0,.8-.146.8-.776q-.032-10.6,0-21.2c0-.645-.2-.865-.8-.752-.747.142-.847-.208-.857-.875a59.316,59.316,0,0,0-.157-7.464,11.336,11.336,0,0,0-22.367-.026,61.043,61.043,0,0,0-.161,7.653c-.01.586-.154.818-.734.709-.759-.143-.923.195-.92.92q.041,10.411,0,20.822c0,.766.155,1.007.967,1m14.481-10.476a1.36,1.36,0,0,0-.834,1.452c.051,1.64-.012,3.283.03,4.923.016.643-.139.863-.826.859-2.451-.014-2.451.014-2.451-2.439V73.67c0-.284-.013-.569,0-.852.074-1.353.051-2.447-1.456-3.338-1.821-1.077-2.226-3.545-1.416-5.5a4.867,4.867,0,0,1,9.225.69,4.782,4.782,0,0,1-2.273,5.346M179.553,49.838a8.084,8.084,0,0,1,15.916-.032c.381,2.475.08,4.977.175,7.464.022.579-.352.476-.684.476q-3.739,0-7.477,0c-2.429,0-4.859-.027-7.287.017-.68.012-.848-.189-.818-.842.11-2.36-.189-4.735.175-7.085" transform="translate(-139.034 -31.804)" fill="#3c70c3"/>
        <path id="Trazado_207030" data-name="Trazado 207030" d="M337.788,6.888A24.383,24.383,0,0,0,304.3,6.562c-1.18,1.114-1.387,2.018-.648,2.822s1.666.674,2.842-.433a21.117,21.117,0,0,1,28.758,0,5.851,5.851,0,0,0,.862.731,1.461,1.461,0,0,0,1.614-.009,1.625,1.625,0,0,0,.805-1.43,2.034,2.034,0,0,0-.741-1.358" transform="translate(-241.568 -0.051)" fill="#3c70c3"/>
        <path id="Trazado_207031" data-name="Trazado 207031" d="M78.7,144.01c.456.378,1.441.077,2.185.159s.922-.2.921-.926c-.025-9.776-.016-19.552-.021-29.327a3.505,3.505,0,0,0-.1-1.025,1.489,1.489,0,0,0-1.729-1.131,1.469,1.469,0,0,0-1.384,1.427,9.093,9.093,0,0,0-.021.945q0,7.143,0,14.285c0,4.478-.007,8.956.007,13.434,0,.745-.335,1.762.146,2.16" transform="translate(-62.491 -89.024)" fill="#3c70c3"/>
        <path id="Trazado_207032" data-name="Trazado 207032" d="M381.726,143.994c.457.475,1.438.055,2.176.163.84.123.95-.244.945-.988-.034-4.919-.018-9.839-.018-14.758q0-5.25,0-10.5c0-1.545.02-3.091-.019-4.635a1.519,1.519,0,0,0-1.475-1.541,1.61,1.61,0,0,0-1.721,1.411,6.323,6.323,0,0,0-.025.944q0,13.859,0,27.719c0,.748-.319,1.717.132,2.187" transform="translate(-303.924 -89.014)" fill="#3c70c3"/>
        <path id="Trazado_207033" data-name="Trazado 207033" d="M351.518,39.294c.706-.747.6-1.659-.345-2.552a17.786,17.786,0,0,0-24.567-.027c-.908.851-1.037,1.832-.355,2.556s1.653.656,2.577-.193a14.556,14.556,0,0,1,20.115.015c.915.848,1.892.925,2.576.2" transform="translate(-259.574 -25.339)" fill="#3c70c3"/>
        <path id="Trazado_207034" data-name="Trazado 207034" d="M46.245,39.515a1.518,1.518,0,0,0,1.988-.219,1.605,1.605,0,0,0,.161-2.075,4.338,4.338,0,0,0-.585-.616,18.152,18.152,0,0,0-12.446-4.828c-.4.035-1.155.079-1.906.17A17.426,17.426,0,0,0,23.176,36.87a1.584,1.584,0,0,0,.246,2.689,1.786,1.786,0,0,0,2.2-.539A14.578,14.578,0,0,1,45.171,38.6a8.9,8.9,0,0,0,1.075.92" transform="translate(-17.964 -25.316)" fill="#3c70c3"/>
        <path id="Trazado_207035" data-name="Trazado 207035" d="M61.7,69.318c.679-.742.552-1.7-.383-2.55a11.249,11.249,0,0,0-7.549-2.983,11.4,11.4,0,0,0-7.823,3.007c-.874.82-1.017,1.752-.38,2.489.664.768,1.634.736,2.575-.083a8.046,8.046,0,0,1,10.98-.035c.945.827,1.911.886,2.579.156" transform="translate(-35.986 -50.814)" fill="#3c70c3"/>
        <path id="Trazado_207036" data-name="Trazado 207036" d="M362.521,69.419a1.568,1.568,0,0,0,1.839.293,1.517,1.517,0,0,0,.9-1.44,1.885,1.885,0,0,0-.765-1.453A11.388,11.388,0,0,0,348.911,67a1.607,1.607,0,0,0-.532,1.7,1.519,1.519,0,0,0,1.168,1.116,1.9,1.9,0,0,0,1.781-.621,8.121,8.121,0,0,1,11.193.219" transform="translate(-277.493 -50.852)" fill="#3c70c3"/>
        <path id="Trazado_207037" data-name="Trazado 207037" d="M42.819,382.49h-.851c-.252,0-.505-.013-.756,0-.808.05-1.913-.359-2.342.163-.407.494-.122,1.558-.14,2.371,0,.094.009.19,0,.283-.039.34.128.424.442.423q2.789-.015,5.578,0c.3,0,.417-.074.461-.411.351-2.667.221-2.831-2.39-2.831" transform="translate(-30.792 -304.642)" fill="#3c70c3"/>
        <path id="Trazado_207038" data-name="Trazado 207038" d="M412.221,383.03c.024-.46-.133-.59-.584-.578-1.133.03-2.269-.01-3.4.016-.809.019-1.913-.361-2.344.154-.408.489-.125,1.555-.146,2.368a1.5,1.5,0,0,1,0,.189c-.063.419.12.541.529.528.881-.027,1.764-.008,2.646-.008s1.765-.021,2.647.009c.455.015.7-.056.659-.6a17.081,17.081,0,0,1,0-2.078" transform="translate(-323.19 -304.614)" fill="#3c70c3"/>
        <path id="Trazado_207039" data-name="Trazado 207039" d="M232.151,162.711a1.589,1.589,0,0,1-1.636-1.575,1.613,1.613,0,1,1,3.226-.048,1.6,1.6,0,0,1-1.591,1.623" transform="translate(-183.649 -127.062)" fill="#3c70c3"/>
        <path id="Trazado_207040" data-name="Trazado 207040" d="M232.1,159.488a1.644,1.644,0,0,0-1.588,1.648,1.613,1.613,0,0,0,3.226-.048,1.65,1.65,0,0,0-1.638-1.6" transform="translate(-183.649 -127.062)" fill="#3c70c3"/>
      </g>
    </g>
    <path id="Trazado_224502" data-name="Trazado 224502" d="M26.625,13.211A4.025,4.025,0,0,1,25.27,16.1a4.76,4.76,0,0,1-3.223,1.055,4.28,4.28,0,0,1-3.441-1.473,6.038,6.038,0,0,1-1.254-4.043v-.7a6.819,6.819,0,0,1,.578-2.891,4.332,4.332,0,0,1,1.652-1.918,4.629,4.629,0,0,1,2.5-.668A4.637,4.637,0,0,1,25.25,6.523a4.326,4.326,0,0,1,1.391,2.961H24.3a2.376,2.376,0,0,0-.613-1.6,2.271,2.271,0,0,0-1.605-.5,1.991,1.991,0,0,0-1.754.84,4.707,4.707,0,0,0-.6,2.605V11.7a5.038,5.038,0,0,0,.559,2.7,1.954,1.954,0,0,0,1.762.852,2.314,2.314,0,0,0,1.621-.5,2.241,2.241,0,0,0,.613-1.535Zm1.039-.516a5.013,5.013,0,0,1,.484-2.242A3.546,3.546,0,0,1,29.543,8.93a4.069,4.069,0,0,1,2.113-.539,3.849,3.849,0,0,1,2.793,1.047,4.2,4.2,0,0,1,1.207,2.844l.016.578a4.418,4.418,0,0,1-1.086,3.121,3.775,3.775,0,0,1-2.914,1.176,3.793,3.793,0,0,1-2.918-1.172,4.5,4.5,0,0,1-1.09-3.187Zm2.258.16a3.16,3.16,0,0,0,.453,1.843,1.628,1.628,0,0,0,2.578.008,3.457,3.457,0,0,0,.461-2.015,3.128,3.128,0,0,0-.461-1.831,1.5,1.5,0,0,0-1.3-.649,1.474,1.474,0,0,0-1.281.646A3.516,3.516,0,0,0,29.922,12.856Zm9.219-4.309.07.977a2.951,2.951,0,0,1,2.43-1.133,2.453,2.453,0,0,1,2,.789,3.682,3.682,0,0,1,.672,2.359V17H42.055V11.594a1.465,1.465,0,0,0-.312-1.043,1.4,1.4,0,0,0-1.039-.324,1.553,1.553,0,0,0-1.43.813V17H37.016V8.547Zm10.773,8.609a4.15,4.15,0,0,1-3.027-1.141,4.054,4.054,0,0,1-1.168-3.039v-.219a5.106,5.106,0,0,1,.492-2.277,3.612,3.612,0,0,1,1.395-1.547,3.914,3.914,0,0,1,2.059-.543,3.508,3.508,0,0,1,2.73,1.094,4.444,4.444,0,0,1,1,3.1v.922H48.008a2.1,2.1,0,0,0,.66,1.328,2,2,0,0,0,1.395.5,2.437,2.437,0,0,0,2.039-.945l1.109,1.242a3.389,3.389,0,0,1-1.375,1.121A4.511,4.511,0,0,1,49.914,17.156Zm-.258-6.945a1.411,1.411,0,0,0-1.09.455,2.357,2.357,0,0,0-.535,1.3h3.141v-.181a1.681,1.681,0,0,0-.406-1.165A1.456,1.456,0,0,0,49.656,10.211Zm8.234.859,1.422-2.523h2.414L59.32,12.688,61.828,17H59.406L57.9,14.344,56.4,17h-2.43l2.508-4.312-2.4-4.141H56.5ZM65.2,17H62.93V8.547H65.2ZM62.8,6.359a1.112,1.112,0,0,1,.34-.836,1.465,1.465,0,0,1,1.848,0,1.105,1.105,0,0,1,.344.836,1.108,1.108,0,0,1-.348.844,1.448,1.448,0,0,1-1.836,0A1.108,1.108,0,0,1,62.8,6.359ZM66.7,12.7a5.013,5.013,0,0,1,.484-2.242A3.546,3.546,0,0,1,68.582,8.93,4.069,4.069,0,0,1,70.7,8.391a3.849,3.849,0,0,1,2.793,1.047A4.2,4.2,0,0,1,74.7,12.281l.016.578a4.418,4.418,0,0,1-1.086,3.121,4.209,4.209,0,0,1-5.832,0A4.5,4.5,0,0,1,66.7,12.8Zm2.258.16a3.16,3.16,0,0,0,.453,1.843,1.628,1.628,0,0,0,2.578.008,3.457,3.457,0,0,0,.461-2.015,3.128,3.128,0,0,0-.461-1.831,1.5,1.5,0,0,0-1.3-.649,1.474,1.474,0,0,0-1.281.646A3.516,3.516,0,0,0,68.961,12.856ZM71.141,5H73.6L71.438,7.422H69.6ZM78.18,8.547l.07.977a2.951,2.951,0,0,1,2.43-1.133,2.453,2.453,0,0,1,2,.789,3.682,3.682,0,0,1,.672,2.359V17H81.094V11.594a1.465,1.465,0,0,0-.312-1.043,1.4,1.4,0,0,0-1.039-.324,1.553,1.553,0,0,0-1.43.813V17H76.055V8.547Zm15.445,6.117a.727.727,0,0,0-.41-.652,4.659,4.659,0,0,0-1.316-.426q-3.016-.633-3.016-2.562a2.323,2.323,0,0,1,.934-1.879,3.766,3.766,0,0,1,2.441-.754,4.053,4.053,0,0,1,2.574.758,2.388,2.388,0,0,1,.965,1.969H93.539a1.092,1.092,0,0,0-.312-.8A1.322,1.322,0,0,0,92.25,10a1.351,1.351,0,0,0-.883.258.814.814,0,0,0-.312.656.7.7,0,0,0,.355.605,3.657,3.657,0,0,0,1.2.4,9.8,9.8,0,0,1,1.422.379A2.336,2.336,0,0,1,95.82,14.57a2.2,2.2,0,0,1-.992,1.871,4.28,4.28,0,0,1-2.562.715,4.47,4.47,0,0,1-1.887-.379,3.166,3.166,0,0,1-1.293-1.039,2.414,2.414,0,0,1-.469-1.426h2.141a1.179,1.179,0,0,0,.445.922,1.766,1.766,0,0,0,1.109.32,1.635,1.635,0,0,0,.98-.246A.766.766,0,0,0,93.625,14.664Zm7.539,2.492a4.15,4.15,0,0,1-3.027-1.141,4.054,4.054,0,0,1-1.168-3.039v-.219a5.106,5.106,0,0,1,.492-2.277,3.612,3.612,0,0,1,1.395-1.547,3.914,3.914,0,0,1,2.059-.543,3.508,3.508,0,0,1,2.73,1.094,4.444,4.444,0,0,1,1,3.1v.922H99.258a2.1,2.1,0,0,0,.66,1.328,2,2,0,0,0,1.395.5,2.437,2.437,0,0,0,2.039-.945l1.109,1.242a3.389,3.389,0,0,1-1.375,1.121A4.511,4.511,0,0,1,101.164,17.156Zm-.258-6.945a1.411,1.411,0,0,0-1.09.455,2.357,2.357,0,0,0-.535,1.3h3.141v-.181a1.681,1.681,0,0,0-.406-1.165A1.456,1.456,0,0,0,100.906,10.211Zm4.688,2.5a4.954,4.954,0,0,1,.926-3.133,3,3,0,0,1,2.5-1.187,2.631,2.631,0,0,1,2.164.953l.094-.8h2.047v8.172a3.613,3.613,0,0,1-.5,1.93A3.236,3.236,0,0,1,111.4,19.9a4.985,4.985,0,0,1-2.141.43,4.635,4.635,0,0,1-1.812-.371A3.217,3.217,0,0,1,106.109,19l1-1.375a2.645,2.645,0,0,0,2.047.945,1.936,1.936,0,0,0,1.4-.48,1.8,1.8,0,0,0,.5-1.363v-.453a2.612,2.612,0,0,1-2.055.883,2.992,2.992,0,0,1-2.465-1.191,4.953,4.953,0,0,1-.941-3.16Zm2.258.168a3.085,3.085,0,0,0,.461,1.8,1.466,1.466,0,0,0,1.266.653,1.568,1.568,0,0,0,1.477-.775V11a1.564,1.564,0,0,0-1.461-.775,1.476,1.476,0,0,0-1.277.665A3.477,3.477,0,0,0,107.852,12.879Zm12.266,3.262a2.831,2.831,0,0,1-2.312,1.016,2.67,2.67,0,0,1-2.074-.781,3.335,3.335,0,0,1-.73-2.289V8.547h2.258v5.467q0,1.322,1.2,1.322a1.63,1.63,0,0,0,1.578-.8V8.547H122.3V17H120.18Zm8.641-5.477a6.134,6.134,0,0,0-.812-.062,1.654,1.654,0,0,0-1.68.867V17h-2.258V8.547h2.133l.063,1.008a2.092,2.092,0,0,1,1.883-1.164,2.366,2.366,0,0,1,.7.1ZM134.508,17a2.507,2.507,0,0,1-.227-.758,2.732,2.732,0,0,1-2.133.914,3,3,0,0,1-2.059-.719,2.312,2.312,0,0,1-.816-1.812,2.389,2.389,0,0,1,1-2.062,4.915,4.915,0,0,1,2.879-.727h1.039v-.484a1.393,1.393,0,0,0-.3-.937,1.183,1.183,0,0,0-.949-.352,1.345,1.345,0,0,0-.895.273.929.929,0,0,0-.324.75h-2.258a2.268,2.268,0,0,1,.453-1.359,3,3,0,0,1,1.281-.98,4.669,4.669,0,0,1,1.859-.355,3.689,3.689,0,0,1,2.48.785,2.747,2.747,0,0,1,.918,2.207v3.664a4.041,4.041,0,0,0,.336,1.82V17Zm-1.867-1.57a1.945,1.945,0,0,0,.922-.223,1.462,1.462,0,0,0,.625-.6V13.156h-.844q-1.7,0-1.8,1.172l-.008.133a.9.9,0,0,0,.3.7A1.153,1.153,0,0,0,132.641,15.43Z" transform="translate(1037 2166)" fill="#12263f"/>
    <path id="Trazado_224492" data-name="Trazado 224492" d="M7.675,10.4H3.361v3.527H8.372V15H2.049V5.047H8.3V6.12H3.361V9.326H7.675ZM11,7.6l.041.93A2.7,2.7,0,0,1,13.26,7.467q2.345,0,2.365,2.646V15H14.36V10.105a1.7,1.7,0,0,0-.366-1.183,1.466,1.466,0,0,0-1.118-.383,1.825,1.825,0,0,0-1.08.328,2.228,2.228,0,0,0-.725.861V15H9.808V7.6Zm8.969,5.681L21.8,7.6H23.1L20.444,15H19.48L16.8,7.6h1.292ZM25.688,15H24.423V7.6h1.265ZM24.32,5.642a.755.755,0,0,1,.188-.52.706.706,0,0,1,.557-.212.717.717,0,0,1,.561.212.747.747,0,0,1,.191.52.722.722,0,0,1-.191.513.73.73,0,0,1-.561.205.718.718,0,0,1-.557-.205A.73.73,0,0,1,24.32,5.642ZM32.277,15a2.657,2.657,0,0,1-.178-.779,2.822,2.822,0,0,1-2.105.916,2.611,2.611,0,0,1-1.794-.619,2,2,0,0,1-.7-1.569,2.091,2.091,0,0,1,.878-1.794,4.142,4.142,0,0,1,2.471-.639h1.23V9.935a1.42,1.42,0,0,0-.4-1.056,1.593,1.593,0,0,0-1.169-.393,1.844,1.844,0,0,0-1.135.342,1.007,1.007,0,0,0-.458.827H27.649a1.745,1.745,0,0,1,.393-1.07,2.683,2.683,0,0,1,1.066-.817,3.588,3.588,0,0,1,1.48-.3,2.924,2.924,0,0,1,2,.639,2.306,2.306,0,0,1,.752,1.76v3.4a4.162,4.162,0,0,0,.26,1.62V15Zm-2.1-.964a2.223,2.223,0,0,0,1.128-.308,1.861,1.861,0,0,0,.772-.8V11.411h-.991q-2.324,0-2.324,1.36a1.151,1.151,0,0,0,.4.93A1.524,1.524,0,0,0,30.179,14.036Zm8.723-5.3a3.79,3.79,0,0,0-.622-.048,1.667,1.667,0,0,0-1.688,1.06V15H35.326V7.6h1.23l.021.854a1.969,1.969,0,0,1,1.764-.991,1.292,1.292,0,0,1,.561.1Z" transform="translate(991.952 2184.221) rotate(-30)" fill="#12263f"/>
    <path id="Trazado_224496" data-name="Trazado 224496" d="M7.675,10.4H3.361v3.527H8.372V15H2.049V5.047H8.3V6.12H3.361V9.326H7.675ZM11,7.6l.041.93A2.7,2.7,0,0,1,13.26,7.467q2.345,0,2.365,2.646V15H14.36V10.105a1.7,1.7,0,0,0-.366-1.183,1.466,1.466,0,0,0-1.118-.383,1.825,1.825,0,0,0-1.08.328,2.228,2.228,0,0,0-.725.861V15H9.808V7.6Zm8.969,5.681L21.8,7.6H23.1L20.444,15H19.48L16.8,7.6h1.292ZM25.688,15H24.423V7.6h1.265ZM24.32,5.642a.755.755,0,0,1,.188-.52.706.706,0,0,1,.557-.212.717.717,0,0,1,.561.212.747.747,0,0,1,.191.52.722.722,0,0,1-.191.513.73.73,0,0,1-.561.205.718.718,0,0,1-.557-.205A.73.73,0,0,1,24.32,5.642ZM32.277,15a2.657,2.657,0,0,1-.178-.779,2.822,2.822,0,0,1-2.105.916,2.611,2.611,0,0,1-1.794-.619,2,2,0,0,1-.7-1.569,2.091,2.091,0,0,1,.878-1.794,4.142,4.142,0,0,1,2.471-.639h1.23V9.935a1.42,1.42,0,0,0-.4-1.056,1.593,1.593,0,0,0-1.169-.393,1.844,1.844,0,0,0-1.135.342,1.007,1.007,0,0,0-.458.827H27.649a1.745,1.745,0,0,1,.393-1.07,2.683,2.683,0,0,1,1.066-.817,3.588,3.588,0,0,1,1.48-.3,2.924,2.924,0,0,1,2,.639,2.306,2.306,0,0,1,.752,1.76v3.4a4.162,4.162,0,0,0,.26,1.62V15Zm-2.1-.964a2.223,2.223,0,0,0,1.128-.308,1.861,1.861,0,0,0,.772-.8V11.411h-.991q-2.324,0-2.324,1.36a1.151,1.151,0,0,0,.4.93A1.524,1.524,0,0,0,30.179,14.036Zm8.723-5.3a3.79,3.79,0,0,0-.622-.048,1.667,1.667,0,0,0-1.688,1.06V15H35.326V7.6h1.23l.021.854a1.969,1.969,0,0,1,1.764-.991,1.292,1.292,0,0,1,.561.1Z" transform="translate(1186 2318.542) rotate(-30)" fill="#12263f"/>
    <path id="Trazado_224494" data-name="Trazado 224494" d="M7.675,10.4H3.361v3.527H8.372V15H2.049V5.047H8.3V6.12H3.361V9.326H7.675ZM11,7.6l.041.93A2.7,2.7,0,0,1,13.26,7.467q2.345,0,2.365,2.646V15H14.36V10.105a1.7,1.7,0,0,0-.366-1.183,1.466,1.466,0,0,0-1.118-.383,1.825,1.825,0,0,0-1.08.328,2.228,2.228,0,0,0-.725.861V15H9.808V7.6Zm8.969,5.681L21.8,7.6H23.1L20.444,15H19.48L16.8,7.6h1.292ZM25.688,15H24.423V7.6h1.265ZM24.32,5.642a.755.755,0,0,1,.188-.52.706.706,0,0,1,.557-.212.717.717,0,0,1,.561.212.747.747,0,0,1,.191.52.722.722,0,0,1-.191.513.73.73,0,0,1-.561.205.718.718,0,0,1-.557-.205A.73.73,0,0,1,24.32,5.642ZM32.277,15a2.657,2.657,0,0,1-.178-.779,2.822,2.822,0,0,1-2.105.916,2.611,2.611,0,0,1-1.794-.619,2,2,0,0,1-.7-1.569,2.091,2.091,0,0,1,.878-1.794,4.142,4.142,0,0,1,2.471-.639h1.23V9.935a1.42,1.42,0,0,0-.4-1.056,1.593,1.593,0,0,0-1.169-.393,1.844,1.844,0,0,0-1.135.342,1.007,1.007,0,0,0-.458.827H27.649a1.745,1.745,0,0,1,.393-1.07,2.683,2.683,0,0,1,1.066-.817,3.588,3.588,0,0,1,1.48-.3,2.924,2.924,0,0,1,2,.639,2.306,2.306,0,0,1,.752,1.76v3.4a4.162,4.162,0,0,0,.26,1.62V15Zm-2.1-.964a2.223,2.223,0,0,0,1.128-.308,1.861,1.861,0,0,0,.772-.8V11.411h-.991q-2.324,0-2.324,1.36a1.151,1.151,0,0,0,.4.93A1.524,1.524,0,0,0,30.179,14.036Zm8.723-5.3a3.79,3.79,0,0,0-.622-.048,1.667,1.667,0,0,0-1.688,1.06V15H35.326V7.6h1.23l.021.854a1.969,1.969,0,0,1,1.764-.991,1.292,1.292,0,0,1,.561.1Z" transform="translate(1008.198 2298.541) rotate(30)" fill="#12263f"/>
    <path id="Trazado_224493" data-name="Trazado 224493" d="M7.3,10.974H4.965V15H3.646V5.047H6.941a3.9,3.9,0,0,1,2.587.766,2.755,2.755,0,0,1,.906,2.229,2.68,2.68,0,0,1-.5,1.62,3,3,0,0,1-1.4,1.032l2.338,4.225V15H9.464ZM4.965,9.9H6.982a2.275,2.275,0,0,0,1.555-.507,1.714,1.714,0,0,0,.578-1.356,1.8,1.8,0,0,0-.55-1.418,2.33,2.33,0,0,0-1.589-.5H4.965Zm10.179,5.236a3.232,3.232,0,0,1-2.447-.988,3.666,3.666,0,0,1-.943-2.642v-.232a4.438,4.438,0,0,1,.42-1.965A3.28,3.28,0,0,1,13.35,7.956a2.956,2.956,0,0,1,1.637-.489,2.77,2.77,0,0,1,2.242.95,4.114,4.114,0,0,1,.8,2.721v.526H13.018a2.629,2.629,0,0,0,.639,1.767,2.009,2.009,0,0,0,1.555.673,2.2,2.2,0,0,0,1.135-.273,2.851,2.851,0,0,0,.813-.725l.772.6A3.106,3.106,0,0,1,15.144,15.137Zm-.157-6.631a1.687,1.687,0,0,0-1.285.557,2.708,2.708,0,0,0-.643,1.562h3.705v-.1a2.409,2.409,0,0,0-.52-1.494A1.588,1.588,0,0,0,14.987,8.506Zm7.472,5.6a1.822,1.822,0,0,0,1.183-.41,1.443,1.443,0,0,0,.561-1.025h1.2a2.293,2.293,0,0,1-.437,1.21,2.881,2.881,0,0,1-1.077.916,3.107,3.107,0,0,1-1.425.342,3.047,3.047,0,0,1-2.4-1.008,4.016,4.016,0,0,1-.892-2.758v-.212a4.453,4.453,0,0,1,.4-1.921A3.02,3.02,0,0,1,20.7,7.932a3.233,3.233,0,0,1,1.753-.465,2.966,2.966,0,0,1,2.068.745,2.663,2.663,0,0,1,.878,1.935H24.2a1.743,1.743,0,0,0-.543-1.179,1.691,1.691,0,0,0-1.207-.461,1.77,1.77,0,0,0-1.494.694,3.259,3.259,0,0,0-.53,2.006v.239a3.194,3.194,0,0,0,.526,1.969A1.779,1.779,0,0,0,22.459,14.1Zm5.735.9H26.929V7.6h1.265ZM26.827,5.642a.755.755,0,0,1,.188-.52.706.706,0,0,1,.557-.212.717.717,0,0,1,.561.212.747.747,0,0,1,.191.52.722.722,0,0,1-.191.513.73.73,0,0,1-.561.205.718.718,0,0,1-.557-.205A.73.73,0,0,1,26.827,5.642Zm9.652,5.742a4.4,4.4,0,0,1-.779,2.724,2.49,2.49,0,0,1-2.092,1.029,2.578,2.578,0,0,1-2.167-.991L31.38,15H30.217V4.5h1.265V8.417a2.564,2.564,0,0,1,2.112-.95A2.505,2.505,0,0,1,35.71,8.485a4.53,4.53,0,0,1,.769,2.789Zm-1.265-.144a3.417,3.417,0,0,0-.5-2,1.652,1.652,0,0,0-1.436-.7,1.857,1.857,0,0,0-1.8,1.162v3.2a1.909,1.909,0,0,0,1.812,1.162,1.643,1.643,0,0,0,1.415-.7A3.634,3.634,0,0,0,35.215,11.24ZM39.446,15H38.181V7.6h1.265ZM38.079,5.642a.755.755,0,0,1,.188-.52.706.706,0,0,1,.557-.212.717.717,0,0,1,.561.212.747.747,0,0,1,.191.52.722.722,0,0,1-.191.513.73.73,0,0,1-.561.205.718.718,0,0,1-.557-.205A.73.73,0,0,1,38.079,5.642Zm6.966,3.1a3.79,3.79,0,0,0-.622-.048,1.667,1.667,0,0,0-1.688,1.06V15H41.469V7.6H42.7l.021.854a1.969,1.969,0,0,1,1.764-.991,1.292,1.292,0,0,1,.561.1Z" transform="translate(987.093 2219.47) rotate(-30)" fill="#12263f"/>
    <path id="Trazado_224497" data-name="Trazado 224497" d="M6.915,10.974H4.577V15H3.257V5.047H6.552a3.9,3.9,0,0,1,2.587.766,2.755,2.755,0,0,1,.906,2.229,2.68,2.68,0,0,1-.5,1.62,3,3,0,0,1-1.4,1.032l2.338,4.225V15H9.075ZM4.577,9.9H6.593a2.275,2.275,0,0,0,1.555-.507,1.714,1.714,0,0,0,.578-1.356,1.8,1.8,0,0,0-.55-1.418,2.33,2.33,0,0,0-1.589-.5H4.577Zm10.179,5.236a3.232,3.232,0,0,1-2.447-.988,3.666,3.666,0,0,1-.943-2.642v-.232a4.438,4.438,0,0,1,.42-1.965,3.28,3.28,0,0,1,1.176-1.354A2.956,2.956,0,0,1,14.6,7.467a2.77,2.77,0,0,1,2.242.95,4.114,4.114,0,0,1,.8,2.721v.526H12.629a2.629,2.629,0,0,0,.639,1.767,2.009,2.009,0,0,0,1.555.673,2.2,2.2,0,0,0,1.135-.273,2.851,2.851,0,0,0,.813-.725l.772.6A3.106,3.106,0,0,1,14.755,15.137ZM14.6,8.506a1.687,1.687,0,0,0-1.285.557,2.708,2.708,0,0,0-.643,1.562h3.705v-.1a2.409,2.409,0,0,0-.52-1.494A1.588,1.588,0,0,0,14.6,8.506Zm7.472,5.6a1.822,1.822,0,0,0,1.183-.41,1.443,1.443,0,0,0,.561-1.025h1.2a2.293,2.293,0,0,1-.437,1.21,2.881,2.881,0,0,1-1.077.916,3.107,3.107,0,0,1-1.425.342,3.047,3.047,0,0,1-2.4-1.008,4.016,4.016,0,0,1-.892-2.758v-.212a4.453,4.453,0,0,1,.4-1.921A3.02,3.02,0,0,1,20.31,7.932a3.233,3.233,0,0,1,1.753-.465,2.966,2.966,0,0,1,2.068.745,2.663,2.663,0,0,1,.878,1.935h-1.2a1.743,1.743,0,0,0-.543-1.179,1.691,1.691,0,0,0-1.207-.461,1.77,1.77,0,0,0-1.494.694,3.259,3.259,0,0,0-.53,2.006v.239a3.194,3.194,0,0,0,.526,1.969A1.779,1.779,0,0,0,22.07,14.1Zm5.735.9H26.541V7.6h1.265ZM26.438,5.642a.755.755,0,0,1,.188-.52.706.706,0,0,1,.557-.212.717.717,0,0,1,.561.212.747.747,0,0,1,.191.52.722.722,0,0,1-.191.513.73.73,0,0,1-.561.205.718.718,0,0,1-.557-.205A.73.73,0,0,1,26.438,5.642Zm9.652,5.742a4.4,4.4,0,0,1-.779,2.724,2.49,2.49,0,0,1-2.092,1.029,2.578,2.578,0,0,1-2.167-.991L30.991,15H29.829V4.5h1.265V8.417a2.564,2.564,0,0,1,2.112-.95,2.505,2.505,0,0,1,2.116,1.019,4.53,4.53,0,0,1,.769,2.789Zm-1.265-.144a3.417,3.417,0,0,0-.5-2,1.652,1.652,0,0,0-1.436-.7,1.857,1.857,0,0,0-1.8,1.162v3.2A1.909,1.909,0,0,0,32.9,14.063a1.643,1.643,0,0,0,1.415-.7A3.634,3.634,0,0,0,34.826,11.24ZM39.057,15H37.793V7.6h1.265ZM37.69,5.642a.755.755,0,0,1,.188-.52.706.706,0,0,1,.557-.212A.717.717,0,0,1,39,5.122a.747.747,0,0,1,.191.52A.722.722,0,0,1,39,6.154a.73.73,0,0,1-.561.205.718.718,0,0,1-.557-.205A.73.73,0,0,1,37.69,5.642Zm6.966,3.1a3.79,3.79,0,0,0-.622-.048,1.667,1.667,0,0,0-1.688,1.06V15H41.081V7.6h1.23l.021.854A1.969,1.969,0,0,1,44.1,7.467a1.292,1.292,0,0,1,.561.1Z" transform="translate(1183.093 2351.346) rotate(-30)" fill="#12263f"/>
    <path id="Trazado_224495" data-name="Trazado 224495" d="M6.858,10.974H4.52V15H3.2V5.047H6.5a3.9,3.9,0,0,1,2.587.766,2.755,2.755,0,0,1,.906,2.229,2.68,2.68,0,0,1-.5,1.62,3,3,0,0,1-1.4,1.032l2.338,4.225V15H9.018ZM4.52,9.9H6.536a2.275,2.275,0,0,0,1.555-.507,1.714,1.714,0,0,0,.578-1.356,1.8,1.8,0,0,0-.55-1.418,2.33,2.33,0,0,0-1.589-.5H4.52ZM14.7,15.137a3.232,3.232,0,0,1-2.447-.988,3.666,3.666,0,0,1-.943-2.642v-.232a4.438,4.438,0,0,1,.42-1.965A3.28,3.28,0,0,1,12.9,7.956a2.956,2.956,0,0,1,1.637-.489,2.77,2.77,0,0,1,2.242.95,4.114,4.114,0,0,1,.8,2.721v.526H12.572a2.629,2.629,0,0,0,.639,1.767,2.009,2.009,0,0,0,1.555.673,2.2,2.2,0,0,0,1.135-.273,2.851,2.851,0,0,0,.813-.725l.772.6A3.106,3.106,0,0,1,14.7,15.137Zm-.157-6.631a1.687,1.687,0,0,0-1.285.557,2.708,2.708,0,0,0-.643,1.562h3.705v-.1a2.409,2.409,0,0,0-.52-1.494A1.588,1.588,0,0,0,14.541,8.506Zm7.472,5.6a1.822,1.822,0,0,0,1.183-.41,1.443,1.443,0,0,0,.561-1.025h1.2a2.293,2.293,0,0,1-.437,1.21,2.881,2.881,0,0,1-1.077.916,3.107,3.107,0,0,1-1.425.342,3.047,3.047,0,0,1-2.4-1.008,4.016,4.016,0,0,1-.892-2.758v-.212a4.453,4.453,0,0,1,.4-1.921,3.02,3.02,0,0,1,1.138-1.306,3.233,3.233,0,0,1,1.753-.465,2.966,2.966,0,0,1,2.068.745,2.663,2.663,0,0,1,.878,1.935h-1.2a1.743,1.743,0,0,0-.543-1.179,1.691,1.691,0,0,0-1.207-.461,1.77,1.77,0,0,0-1.494.694,3.259,3.259,0,0,0-.53,2.006v.239a3.194,3.194,0,0,0,.526,1.969A1.779,1.779,0,0,0,22.013,14.1Zm5.735.9H26.484V7.6h1.265ZM26.381,5.642a.755.755,0,0,1,.188-.52.706.706,0,0,1,.557-.212.717.717,0,0,1,.561.212.747.747,0,0,1,.191.52.722.722,0,0,1-.191.513.73.73,0,0,1-.561.205.718.718,0,0,1-.557-.205A.73.73,0,0,1,26.381,5.642Zm9.652,5.742a4.4,4.4,0,0,1-.779,2.724,2.49,2.49,0,0,1-2.092,1.029A2.578,2.578,0,0,1,31,14.146L30.934,15H29.772V4.5h1.265V8.417a2.564,2.564,0,0,1,2.112-.95,2.505,2.505,0,0,1,2.116,1.019,4.53,4.53,0,0,1,.769,2.789Zm-1.265-.144a3.417,3.417,0,0,0-.5-2,1.652,1.652,0,0,0-1.436-.7,1.857,1.857,0,0,0-1.8,1.162v3.2a1.909,1.909,0,0,0,1.812,1.162,1.643,1.643,0,0,0,1.415-.7A3.634,3.634,0,0,0,34.769,11.24ZM39,15H37.736V7.6H39ZM37.633,5.642a.755.755,0,0,1,.188-.52.706.706,0,0,1,.557-.212.717.717,0,0,1,.561.212.747.747,0,0,1,.191.52.722.722,0,0,1-.191.513.73.73,0,0,1-.561.205.718.718,0,0,1-.557-.205A.73.73,0,0,1,37.633,5.642Zm6.966,3.1a3.79,3.79,0,0,0-.622-.048,1.667,1.667,0,0,0-1.688,1.06V15H41.024V7.6h1.23l.021.854a1.969,1.969,0,0,1,1.764-.991,1.292,1.292,0,0,1,.561.1Z" transform="translate(1001.093 2327.516) rotate(30)" fill="#12263f"/>
    <path id="Trazado_224498" data-name="Trazado 224498" d="M15.629,13.211A4.025,4.025,0,0,1,14.273,16.1a4.76,4.76,0,0,1-3.223,1.055,4.28,4.28,0,0,1-3.441-1.473,6.038,6.038,0,0,1-1.254-4.043v-.7a6.819,6.819,0,0,1,.578-2.891A4.332,4.332,0,0,1,8.586,6.137a4.629,4.629,0,0,1,2.5-.668,4.637,4.637,0,0,1,3.172,1.055,4.326,4.326,0,0,1,1.391,2.961H13.3a2.376,2.376,0,0,0-.613-1.6,2.271,2.271,0,0,0-1.605-.5,1.991,1.991,0,0,0-1.754.84,4.707,4.707,0,0,0-.6,2.605V11.7a5.038,5.038,0,0,0,.559,2.7,1.954,1.954,0,0,0,1.762.852,2.314,2.314,0,0,0,1.621-.5,2.241,2.241,0,0,0,.613-1.535Zm1.039-.516a5.013,5.013,0,0,1,.484-2.242A3.546,3.546,0,0,1,18.547,8.93a4.069,4.069,0,0,1,2.113-.539,3.849,3.849,0,0,1,2.793,1.047,4.2,4.2,0,0,1,1.207,2.844l.016.578A4.418,4.418,0,0,1,23.59,15.98a3.775,3.775,0,0,1-2.914,1.176,3.793,3.793,0,0,1-2.918-1.172,4.5,4.5,0,0,1-1.09-3.187Zm2.258.16a3.16,3.16,0,0,0,.453,1.843,1.628,1.628,0,0,0,2.578.008,3.457,3.457,0,0,0,.461-2.015,3.128,3.128,0,0,0-.461-1.831,1.5,1.5,0,0,0-1.3-.649,1.474,1.474,0,0,0-1.281.646A3.516,3.516,0,0,0,18.926,12.856Zm9.219-4.309.07.977a2.951,2.951,0,0,1,2.43-1.133,2.453,2.453,0,0,1,2,.789,3.682,3.682,0,0,1,.672,2.359V17H31.059V11.594a1.465,1.465,0,0,0-.312-1.043,1.4,1.4,0,0,0-1.039-.324,1.553,1.553,0,0,0-1.43.813V17H26.02V8.547Zm10.773,8.609a4.15,4.15,0,0,1-3.027-1.141,4.054,4.054,0,0,1-1.168-3.039v-.219a5.106,5.106,0,0,1,.492-2.277,3.612,3.612,0,0,1,1.395-1.547,3.914,3.914,0,0,1,2.059-.543A3.508,3.508,0,0,1,41.4,9.484a4.444,4.444,0,0,1,1,3.1v.922H37.012a2.1,2.1,0,0,0,.66,1.328,2,2,0,0,0,1.395.5,2.437,2.437,0,0,0,2.039-.945l1.109,1.242a3.389,3.389,0,0,1-1.375,1.121A4.511,4.511,0,0,1,38.918,17.156Zm-.258-6.945a1.411,1.411,0,0,0-1.09.455,2.357,2.357,0,0,0-.535,1.3h3.141v-.181a1.681,1.681,0,0,0-.406-1.165A1.456,1.456,0,0,0,38.66,10.211Zm8.234.859,1.422-2.523H50.73l-2.406,4.141L50.832,17H48.41L46.9,14.344,45.4,17h-2.43l2.508-4.312-2.4-4.141H45.5ZM54.2,17H51.934V8.547H54.2ZM51.8,6.359a1.112,1.112,0,0,1,.34-.836,1.465,1.465,0,0,1,1.848,0,1.105,1.105,0,0,1,.344.836,1.108,1.108,0,0,1-.348.844,1.448,1.448,0,0,1-1.836,0A1.108,1.108,0,0,1,51.8,6.359ZM55.707,12.7a5.013,5.013,0,0,1,.484-2.242A3.546,3.546,0,0,1,57.586,8.93,4.069,4.069,0,0,1,59.7,8.391a3.849,3.849,0,0,1,2.793,1.047A4.2,4.2,0,0,1,63.7,12.281l.016.578a4.418,4.418,0,0,1-1.086,3.121,4.209,4.209,0,0,1-5.832,0,4.5,4.5,0,0,1-1.09-3.187Zm2.258.16a3.16,3.16,0,0,0,.453,1.843A1.628,1.628,0,0,0,61,14.706a3.457,3.457,0,0,0,.461-2.015A3.128,3.128,0,0,0,61,10.86a1.5,1.5,0,0,0-1.3-.649,1.474,1.474,0,0,0-1.281.646A3.516,3.516,0,0,0,57.965,12.856ZM60.145,5h2.461L60.441,7.422H58.605Zm7.039,3.547.07.977a2.951,2.951,0,0,1,2.43-1.133,2.453,2.453,0,0,1,2,.789,3.682,3.682,0,0,1,.672,2.359V17H70.1V11.594a1.465,1.465,0,0,0-.312-1.043,1.4,1.4,0,0,0-1.039-.324,1.553,1.553,0,0,0-1.43.813V17H65.059V8.547Zm12.945,0,.07.977a2.951,2.951,0,0,1,2.43-1.133,2.453,2.453,0,0,1,2,.789,3.682,3.682,0,0,1,.672,2.359V17H83.043V11.594a1.465,1.465,0,0,0-.312-1.043,1.4,1.4,0,0,0-1.039-.324,1.553,1.553,0,0,0-1.43.813V17H78V8.547ZM86.66,12.7a5.013,5.013,0,0,1,.484-2.242A3.546,3.546,0,0,1,88.539,8.93a4.069,4.069,0,0,1,2.113-.539,3.849,3.849,0,0,1,2.793,1.047,4.2,4.2,0,0,1,1.207,2.844l.016.578a4.418,4.418,0,0,1-1.086,3.121,4.209,4.209,0,0,1-5.832,0A4.5,4.5,0,0,1,86.66,12.8Zm2.258.16a3.16,3.16,0,0,0,.453,1.843,1.628,1.628,0,0,0,2.578.008,3.457,3.457,0,0,0,.461-2.015,3.128,3.128,0,0,0-.461-1.831,1.5,1.5,0,0,0-1.3-.649,1.474,1.474,0,0,0-1.281.646A3.516,3.516,0,0,0,88.918,12.856Zm15.7,1.808a.727.727,0,0,0-.41-.652,4.659,4.659,0,0,0-1.316-.426q-3.016-.633-3.016-2.562a2.323,2.323,0,0,1,.934-1.879,3.766,3.766,0,0,1,2.441-.754,4.053,4.053,0,0,1,2.574.758,2.388,2.388,0,0,1,.965,1.969h-2.258a1.092,1.092,0,0,0-.312-.8,1.322,1.322,0,0,0-.977-.316,1.351,1.351,0,0,0-.883.258.814.814,0,0,0-.312.656.7.7,0,0,0,.355.605,3.657,3.657,0,0,0,1.2.4,9.8,9.8,0,0,1,1.422.379,2.336,2.336,0,0,1,1.789,2.273,2.2,2.2,0,0,1-.992,1.871,4.28,4.28,0,0,1-2.562.715,4.47,4.47,0,0,1-1.887-.379,3.166,3.166,0,0,1-1.293-1.039,2.414,2.414,0,0,1-.469-1.426h2.141a1.179,1.179,0,0,0,.445.922,1.766,1.766,0,0,0,1.109.32,1.635,1.635,0,0,0,.98-.246A.766.766,0,0,0,104.621,14.664Zm7.539,2.492a4.15,4.15,0,0,1-3.027-1.141,4.054,4.054,0,0,1-1.168-3.039v-.219a5.106,5.106,0,0,1,.492-2.277,3.612,3.612,0,0,1,1.395-1.547,3.914,3.914,0,0,1,2.059-.543,3.508,3.508,0,0,1,2.73,1.094,4.444,4.444,0,0,1,1,3.1v.922h-5.383a2.1,2.1,0,0,0,.66,1.328,2,2,0,0,0,1.395.5,2.437,2.437,0,0,0,2.039-.945l1.109,1.242a3.389,3.389,0,0,1-1.375,1.121A4.511,4.511,0,0,1,112.16,17.156Zm-.258-6.945a1.411,1.411,0,0,0-1.09.455,2.357,2.357,0,0,0-.535,1.3h3.141v-.181a1.681,1.681,0,0,0-.406-1.165A1.456,1.456,0,0,0,111.9,10.211Zm4.688,2.5a4.954,4.954,0,0,1,.926-3.133,3,3,0,0,1,2.5-1.187,2.631,2.631,0,0,1,2.164.953l.094-.8h2.047v8.172a3.613,3.613,0,0,1-.5,1.93,3.236,3.236,0,0,1-1.418,1.25,4.985,4.985,0,0,1-2.141.43,4.635,4.635,0,0,1-1.812-.371A3.217,3.217,0,0,1,117.105,19l1-1.375a2.645,2.645,0,0,0,2.047.945,1.936,1.936,0,0,0,1.4-.48,1.8,1.8,0,0,0,.5-1.363v-.453a2.612,2.612,0,0,1-2.055.883,2.992,2.992,0,0,1-2.465-1.191,4.953,4.953,0,0,1-.941-3.16Zm2.258.168a3.085,3.085,0,0,0,.461,1.8,1.466,1.466,0,0,0,1.266.653,1.568,1.568,0,0,0,1.477-.775V11a1.564,1.564,0,0,0-1.461-.775,1.476,1.476,0,0,0-1.277.665A3.477,3.477,0,0,0,118.848,12.879Zm12.266,3.262a2.831,2.831,0,0,1-2.312,1.016,2.67,2.67,0,0,1-2.074-.781,3.335,3.335,0,0,1-.73-2.289V8.547h2.258v5.467q0,1.322,1.2,1.322a1.63,1.63,0,0,0,1.578-.8V8.547H133.3V17h-2.125Zm8.641-5.477a6.134,6.134,0,0,0-.812-.062,1.654,1.654,0,0,0-1.68.867V17H135V8.547h2.133l.063,1.008a2.092,2.092,0,0,1,1.883-1.164,2.366,2.366,0,0,1,.7.1ZM145.5,17a2.507,2.507,0,0,1-.227-.758,2.732,2.732,0,0,1-2.133.914,3,3,0,0,1-2.059-.719,2.312,2.312,0,0,1-.816-1.812,2.389,2.389,0,0,1,1-2.062,4.915,4.915,0,0,1,2.879-.727h1.039v-.484a1.393,1.393,0,0,0-.3-.937,1.183,1.183,0,0,0-.949-.352,1.345,1.345,0,0,0-.895.273.929.929,0,0,0-.324.75h-2.258a2.268,2.268,0,0,1,.453-1.359,3,3,0,0,1,1.281-.98,4.669,4.669,0,0,1,1.859-.355,3.689,3.689,0,0,1,2.48.785,2.747,2.747,0,0,1,.918,2.207v3.664a4.041,4.041,0,0,0,.336,1.82V17Zm-1.867-1.57a1.945,1.945,0,0,0,.922-.223,1.462,1.462,0,0,0,.625-.6V13.156h-.844q-1.7,0-1.8,1.172l-.008.133a.9.9,0,0,0,.3.7A1.153,1.153,0,0,0,143.637,15.43Z" transform="translate(1037.215 2393)" fill="#12263f"/>
    <g id="Grupo_198251" data-name="Grupo 198251" transform="translate(-1046.168 843.678) rotate(-30)">
      <path id="Trazado_207076" data-name="Trazado 207076" d="M-6878.732-9457.326l41.9-41.9" transform="translate(-755.342 13775.528) rotate(45)" fill="none" stroke="#e05cbe" stroke-width="2"/>
      <path id="Polígono_2" data-name="Polígono 2" d="M4.5,0,9,8H0Z" transform="translate(1064.286 2217.103) rotate(30)" fill="#f24dc3"/>
    </g>
    <g id="Grupo_198257" data-name="Grupo 198257" transform="translate(-851.168 978.554) rotate(-30)">
      <path id="Trazado_207076-2" data-name="Trazado 207076" d="M-6878.732-9457.326l41.9-41.9" transform="translate(-755.342 13775.528) rotate(45)" fill="none" stroke="#e05cbe" stroke-width="2"/>
      <path id="Polígono_2-2" data-name="Polígono 2" d="M4.5,0,9,8H0Z" transform="translate(1064.286 2217.103) rotate(30)" fill="#f24dc3"/>
    </g>
    <g id="Grupo_198254" data-name="Grupo 198254" transform="translate(1032.389 2400.277) rotate(-150)">
      <path id="Trazado_207076-3" data-name="Trazado 207076" d="M0,0,41.9,41.9" transform="translate(7.713 29.631) rotate(-45)" fill="none" stroke="#e05cbe" stroke-width="2"/>
      <path id="Polígono_2-3" data-name="Polígono 2" d="M4.5,0,9,8H0Z" transform="translate(11.794 32.219) rotate(150)" fill="#f24dc3"/>
    </g>
    <g id="Grupo_198252" data-name="Grupo 198252" transform="translate(-1046.168 810.678) rotate(-30)">
      <path id="Trazado_207076-4" data-name="Trazado 207076" d="M-6878.732-9457.326l41.9-41.9" transform="translate(-755.342 13775.528) rotate(45)" fill="none" stroke="#e05cbe" stroke-width="2"/>
      <path id="Polígono_1" data-name="Polígono 1" d="M4.5,0,9,8H0Z" transform="translate(1121.286 2221.604) rotate(-30)" fill="#f24dc3"/>
    </g>
    <g id="Grupo_198256" data-name="Grupo 198256" transform="translate(-851.168 945.554) rotate(-30)">
      <path id="Trazado_207076-5" data-name="Trazado 207076" d="M-6878.732-9457.326l41.9-41.9" transform="translate(-755.342 13775.528) rotate(45)" fill="none" stroke="#e05cbe" stroke-width="2"/>
      <path id="Polígono_1-2" data-name="Polígono 1" d="M4.5,0,9,8H0Z" transform="translate(1121.286 2221.604) rotate(-30)" fill="#f24dc3"/>
    </g>
    <g id="Grupo_198255" data-name="Grupo 198255" transform="translate(1025.708 2363.421) rotate(-150)">
      <path id="Trazado_207076-6" data-name="Trazado 207076" d="M0,0,41.9,41.9" transform="translate(0 29.631) rotate(-45)" fill="none" stroke="#e05cbe" stroke-width="2"/>
      <path id="Polígono_1-3" data-name="Polígono 1" d="M4.5,0,9,8H0Z" transform="translate(61.081 36.718) rotate(-150)" fill="#f24dc3"/>
    </g>
    <g id="Rectángulo_61205" data-name="Rectángulo 61205" transform="translate(822.215 2080)" fill="#fff" stroke="#21338e" stroke-width="1">
      <rect width="149" height="379" rx="9" stroke="none"/>
      <rect x="0.5" y="0.5" width="148" height="378" rx="8.5" fill="none"/>
    </g>
    <g id="Rectángulo_61206" data-name="Rectángulo 61206" transform="translate(1249.215 2164)" fill="#fff" stroke="#21338e" stroke-width="1">
      <rect width="149" height="211" rx="9" stroke="none"/>
      <rect x="0.5" y="0.5" width="148" height="210" rx="8.5" fill="none"/>
    </g>
    <g id="Grupo_207271" data-name="Grupo 207271" transform="translate(-0.661 8.451)">
      <g id="Grupo_207270" data-name="Grupo 207270" transform="translate(0 -49.865)">
        <g id="Grupo_198242" data-name="Grupo 198242" transform="translate(849.234 2324.423)">
          <g id="Grupo_198241" data-name="Grupo 198241" clip-path="url(#clip-path-3)">
            <path id="Trazado_206987" data-name="Trazado 206987" d="M93.682,440.511a6.339,6.339,0,0,1-5.095,6.368,1.614,1.614,0,0,0-.322.157H5.4a9.7,9.7,0,0,1-2.827-1.313A6.33,6.33,0,0,1,.027,440.5a2.073,2.073,0,0,1,1.515-.282q8.332-.013,16.665-.006a8.828,8.828,0,0,0,1.209-.038,1.32,1.32,0,0,0,1.231-1.2c.08-.559-.451-1.122-1.14-1.277a5.467,5.467,0,0,0-1.206-.07q-8.379,0-16.758-.006a2.07,2.07,0,0,1-1.515-.281c-.01-.957-.029-1.914-.028-2.87,0-1.4.566-1.978,1.944-2,.4-.006.8,0,1.2,0a1.543,1.543,0,0,1,1.054-.285c1.828,0,3.657-.034,5.485.017,6.713-.053,13.426-.02,20.139-.017a2.364,2.364,0,0,1,.732.1,1.65,1.65,0,0,1,.835.952c.569,1.1,1.132,2.21,1.666,3.331a3.519,3.519,0,0,0,3.4,2.165q10.365.023,20.73,0a3.573,3.573,0,0,0,3.55-2.224c.492-1.1,1.067-2.173,1.618-3.25a1.778,1.778,0,0,1,.721-.942,2.153,2.153,0,0,1,.822-.13c6.689,0,13.378-.039,20.068.018,1.84-.051,3.681-.016,5.521-.018a1.611,1.611,0,0,1,1.047.278c3.11.036,3.169.094,3.167,3.19,0,.558-.014,1.117-.021,1.675a2.14,2.14,0,0,1-1.513.3q-8.363.009-16.726,0a5.566,5.566,0,0,0-1.3.075,1.193,1.193,0,0,0-1,1.273,1.124,1.124,0,0,0,1,1.157,5.514,5.514,0,0,0,1.3.074q8.363,0,16.726,0a2.139,2.139,0,0,1,1.513.3" transform="translate(-0.001 -351.503)" fill="#7e8b8c"/>
            <path id="Trazado_206988" data-name="Trazado 206988" d="M244.434,0a1.951,1.951,0,0,1,1.17,2.106c-.057.9,0,1.8-.02,2.7a1.6,1.6,0,1,1-3.19.043c-.031-1.054.005-2.109-.012-3.164A1.968,1.968,0,0,1,243.5,0Z" transform="translate(-197.137)" fill="#894b9d"/>
            <path id="Trazado_206989" data-name="Trazado 206989" d="M23.4,165.406l-6.551,0c.016-.4.046-.806.046-1.209q0-28.122-.024-56.244c-.006-2.506,1.308-4.176,4.156-4.135,7.414.105,14.831.047,22.247.055.113.317-.152.435-.321.6-.739.706-1.543,1.338-2.308,2.014-.721.637-.726.606-.034,1.216.813.716,1.656,1.4,2.449,2.136.358.334.432.617-.154.77a25.936,25.936,0,0,1-3.163.064q-6.746.013-13.493,0c-2.4,0-2.565.167-2.565,2.614q0,18.881,0,37.761c0,.87-.015,1.74-.015,2.61.032,3.533.012,7.066.01,10.6a1.567,1.567,0,0,1-.281,1.144" transform="translate(-13.707 -84.442)" fill="#94a4a4"/>
            <path id="Trazado_206990" data-name="Trazado 206990" d="M370.276,165.585l-6.563.006a1.436,1.436,0,0,1-.284-1.051c0-11.85-.031-23.7.014-35.551,0-.124,0,.031.007-.092-.045-4-.008-8.007-.02-12.011,0-1.4.015-2.794-.006-4.19-.022-1.432-.411-1.829-1.836-1.832-5.236-.012-10.471,0-15.706-.006a8.755,8.755,0,0,1-1.481-.056c-.655-.161-.5-.521-.173-.858a25.637,25.637,0,0,1,2.11-1.809c.9-.751.914-.956-.013-1.684-.609-.477-1.147-1.035-1.768-1.5-.287-.213-.616-.439-.585-.883,7.694-.009,15.389-.035,23.083-.014a3.21,3.21,0,0,1,3.185,3.333c.019,2.642.005,5.285.005,7.928q0,24.576,0,49.152c0,.373.021.745.031,1.118" transform="translate(-279.745 -84.625)" fill="#94a4a4"/>
            <path id="Trazado_206991" data-name="Trazado 206991" d="M177.859,74.531c1.036.924,2.059,1.863,3.114,2.765.416.355.379.573-.007.933a40.153,40.153,0,0,0-3.121,2.758,15.908,15.908,0,0,1-5.282,4.171,22.338,22.338,0,0,1-10.58,2.465,10.754,10.754,0,0,1-3.02,0c-4.931-.069-9.518-1.24-13.443-4.374A6.555,6.555,0,0,1,143.229,81c-1-.872-1.972-1.786-3.019-2.6-.631-.491-.688-.768-.022-1.284,1.048-.811,2.015-1.727,3.016-2.6.854-.718,1.69-1.457,2.565-2.149a19.831,19.831,0,0,1,10.33-4.045c.922-.105,1.85-.164,2.775-.244a4.487,4.487,0,0,1,3.214-.112c1.34.177,2.682.337,4.018.535a19.551,19.551,0,0,1,10.607,5.1,3.849,3.849,0,0,0,1.145.927" transform="translate(-113.634 -55.087)" fill="#fa7b76"/>
            <path id="Trazado_206992" data-name="Trazado 206992" d="M.143,459.79q9.572,0,19.143-.014a1.745,1.745,0,0,1,1.789,1.2c.279.732-.187,1.222-.66,1.7a1.281,1.281,0,0,1-1.037.277L.142,462.949q0-1.579,0-3.159" transform="translate(-0.115 -373.953)" fill="#547580"/>
            <path id="Trazado_206993" data-name="Trazado 206993" d="M410.67,462.958q-9.577,0-19.155-.007c-1.392,0-2.106-.974-1.632-2.206a1.583,1.583,0,0,1,1.72-.972q9.531.018,19.062,0a17.025,17.025,0,0,1,0,3.181" transform="translate(-316.988 -373.951)" fill="#547580"/>
            <path id="Trazado_206994" data-name="Trazado 206994" d="M245.567,55.207l-3.214.112c0-.558-.015-1.117.014-1.674a1.641,1.641,0,0,1,1.6-1.61,1.591,1.591,0,0,1,1.595,1.591c.028.525.008,1.053.01,1.58" transform="translate(-197.112 -42.323)" fill="#8a4c9c"/>
            <path id="Trazado_206995" data-name="Trazado 206995" d="M126.227,235.522q-.005,18.374-.01,36.747l-21.035.022a1.746,1.746,0,0,1-1.236.292q-14.86.008-29.719,0a2.188,2.188,0,0,1-1.246-.294l-21.036-.024q0-5.877,0-11.754a7.919,7.919,0,0,1,2.319-2.109,105.439,105.439,0,0,1,22.51-13.32c2.075-.905,4.176-1.74,6.289-2.548.421-.161.847-.436,1.323-.136.4,2.409,2.518,3.469,3.991,5.024a1.061,1.061,0,0,0,1.587-.092c1.115-1.073,2.223-2.156,3.274-3.291a1.247,1.247,0,0,0,.087-1.767,1.336,1.336,0,0,0-1.767-.221c-1.02.541-1.114.5-1.13-.648q-.028-2.092,0-4.183c0-.35-.1-.763.317-.992.568.41.342,1.02.35,1.546.032,2.083.016,2.083,2.007,1.579.992-.251,1.982-.506,2.977-.748a1.614,1.614,0,0,1,1-.041c.43.313.416.811.493,1.257a9.562,9.562,0,0,0,9.139,7.938,8.923,8.923,0,0,0,4.884-1.3,1.276,1.276,0,0,1,1.857.259c1.507,1.563,3.059,3.083,4.593,4.62.153.154.305.309.461.46.9.871,1.543.983,2.163.379.658-.643.584-1.41-.256-2.262-1.612-1.634-3.242-3.251-4.861-4.878-1.022-1.028-1.031-1.039-.359-2.3a9.352,9.352,0,0,0,.958-6.227c-.066-.365-.394-.869.259-1.1,2.8.1,5.6-.312,8.4-.179a2.091,2.091,0,0,1,1.413.288" transform="translate(-42.249 -191.303)" fill="#8fb9e0"/>
            <path id="Trazado_206996" data-name="Trazado 206996" d="M164.641,433.777q9.632-.013,19.265-.023c4.312,0,8.624.014,12.936.022a33.884,33.884,0,0,1-2.624,5.218,3.153,3.153,0,0,1-2.843,1.281q-10.645.055-21.291,0a3.429,3.429,0,0,1-3.248-2.085c-.71-1.482-1.462-2.944-2.2-4.415" transform="translate(-133.909 -352.788)" fill="#54757f"/>
            <path id="Trazado_206997" data-name="Trazado 206997" d="M132,462.961c-.576-.052-1.248.181-1.759-.442-.393-.479-.737-.946-.468-1.583a1.667,1.667,0,0,1,1.541-1.143c.494-.015.989-.009,1.484,0,1.141.014,1.724.556,1.721,1.592s-.584,1.565-1.731,1.579c-.247,0-.494,0-.788,0" transform="translate(-105.47 -373.959)" fill="#547580"/>
            <path id="Trazado_206998" data-name="Trazado 206998" d="M348.553,462.81c-.608-.023-1.326.149-1.87-.546a1.441,1.441,0,0,1,.154-2.2,3.684,3.684,0,0,1,3.792.14,1.438,1.438,0,0,1,.357,1.617,1.359,1.359,0,0,1-1.324.99c-.34.016-.682,0-1.109,0" transform="translate(-281.613 -373.81)" fill="#547580"/>
            <path id="Trazado_206999" data-name="Trazado 206999" d="M97.114,160.239a43.918,43.918,0,0,0-5.468,1.331c-.7.2-.847.058-.861-.631a10.26,10.26,0,0,0-.142-3.123,1.5,1.5,0,0,1-.577-.451,1.291,1.291,0,0,0-1.513-.375,1.4,1.4,0,0,0-.837,1.339c-.04,1.238-.007,2.477-.018,3.715a8.009,8.009,0,0,1-.041,1.3c-.049.286-.2.661-.522.427-1.031-.754-1.906-.186-2.815.223a24.146,24.146,0,0,0-4.691,1.673,107.384,107.384,0,0,0-19.337,10.171c-2.912,1.917-5.671,4.051-8.395,6.227q-.007-20.8-.011-41.609c0-1.136.567-1.666,1.755-1.668q9.078-.015,18.156-.017c1.163.923,2.219,1.974,3.45,2.818a20.549,20.549,0,0,0,9.336,3.355c.95.116,1.908.175,2.862.26.356.35.272.807.276,1.23.015,1.521,0,3.043.007,4.564a2.646,2.646,0,0,0,.147,1.1,1.23,1.23,0,0,0,1.289.869,1.2,1.2,0,0,0,1.142-1.149,15.194,15.194,0,0,0,.033-1.675c0-1.273-.009-2.546.008-3.819.005-.393-.063-.821.314-1.116a29.08,29.08,0,0,0,7.123-1.154,19.556,19.556,0,0,0,7.345-4.244,4.82,4.82,0,0,1,1.284-1.058l17.585.031c1.81,0,2.2.38,2.2,2.159q0,8.065-.015,16.129c-2.988-.124-5.966.181-8.951.189a1.623,1.623,0,0,1-1.069-.19c-.377-.181-.468-.561-.612-.9a9.378,9.378,0,0,0-9.891-5.74A9.535,9.535,0,0,0,97.572,158c-.16.746,0,1.558-.457,2.242" transform="translate(-42.202 -112.851)" fill="#afd2ef"/>
            <path id="Trazado_207000" data-name="Trazado 207000" d="M213.629,78.141h2.229c4.409.27,7.177,4.409,7.176,8.094,0,3.4-2.48,7.787-7.295,8.073h-2.1a8,8,0,0,1-7.256-7.479c-.086-.855.127-1.062.986-.994.279.022.556.049.836.05a2.782,2.782,0,0,0,2.781-1.778,3.027,3.027,0,0,0-.827-3.4c-.811-.715-.786-.981.136-1.541a7.431,7.431,0,0,1,3.335-1.022" transform="translate(-167.844 -63.555)" fill="#4482c2"/>
            <path id="Trazado_207001" data-name="Trazado 207001" d="M185.948,78.141a8.472,8.472,0,0,0-4.011,1.866,3.262,3.262,0,0,1,1.713,3.86,3.1,3.1,0,0,1-3.922,2.215c-.91-.242-.84.164-.778.746a8.1,8.1,0,0,0,6.759,7.367,1.147,1.147,0,0,1,.248.113,26.168,26.168,0,0,1-4.637-.509,14.978,14.978,0,0,1-6.893-3.192,5.626,5.626,0,0,1,0-8.764,15.109,15.109,0,0,1,6.881-3.2,24.7,24.7,0,0,1,4.639-.5" transform="translate(-140.162 -63.555)" fill="#eaebec"/>
            <path id="Trazado_207002" data-name="Trazado 207002" d="M256.589,94.312a8.438,8.438,0,0,0,5.755-3.714,8.1,8.1,0,0,0-5.3-12.325,2.1,2.1,0,0,1-.341-.128,20.3,20.3,0,0,1,3.566.34,16.094,16.094,0,0,1,6.8,2.5,9.317,9.317,0,0,1,1.359,1.125c2.582,2.6,2.547,5.837-.137,8.351a13.44,13.44,0,0,1-6.407,3.2c-.534.121-1.077.194-1.612.309a23.115,23.115,0,0,1-3.684.341" transform="translate(-208.694 -63.558)" fill="#eaebec"/>
            <path id="Trazado_207003" data-name="Trazado 207003" d="M276.325,95.454a24.14,24.14,0,0,0,5.617-2.066c1.878-1.1,3.535-2.386,4.08-4.678a4.84,4.84,0,0,0-1.386-4.588c-2.1-2.283-4.879-3.294-7.813-3.961-.18-.041-.374-.016-.5-.193,4.284.544,8.437,1.445,11.651,4.649a4.125,4.125,0,0,1,.008,6.194c-2.244,2.348-5.169,3.32-8.2,4.073a13.768,13.768,0,0,1-3.465.57" transform="translate(-224.746 -65.042)" fill="#d0d3d0"/>
            <path id="Trazado_207004" data-name="Trazado 207004" d="M167.822,80.825c-.962.562-2.089.668-3.089,1.142-2.115,1-4.129,2.113-5.214,4.341a5.229,5.229,0,0,0,1.538,6.259,14.729,14.729,0,0,0,6.217,3.131c.2.05.441.057.56.284a19.258,19.258,0,0,1-9.711-3.555c-3.194-2.4-3.157-5.744.062-8.1a19.686,19.686,0,0,1,9.638-3.5" transform="translate(-126.675 -65.738)" fill="#d0d3d0"/>
            <path id="Trazado_207005" data-name="Trazado 207005" d="M245.594,173.315c-.006,2.08-.006,4.16-.018,6.24-.007,1.172-.611,1.881-1.582,1.888a1.709,1.709,0,0,1-1.607-1.892c-.009-2.08-.006-4.16-.007-6.24l3.215,0" transform="translate(-197.136 -140.96)" fill="#894b9c"/>
            <path id="Trazado_207006" data-name="Trazado 207006" d="M294.18,209.619c.048-4.063,1.729-7.212,5.371-9.089a9.639,9.639,0,0,1,13.385,5.134c.1.259.193.523.29.784a9.693,9.693,0,0,1-1.122,7.866c-.3.476-.109.705.2,1.014q2.709,2.691,5.4,5.4c.872.878.964,1.82.267,2.529-.73.742-1.611.67-2.515-.23q-2.738-2.728-5.458-5.474c-.289-.292-.492-.449-.926-.174a9.706,9.706,0,0,1-14.871-7.674.706.706,0,0,0-.019-.091" transform="translate(-239.268 -162.23)" fill="#3d324c"/>
            <path id="Trazado_207007" data-name="Trazado 207007" d="M159.633,390.677q9.541,0,19.083,0c1.235,0,1.82.54,1.79,1.612a1.514,1.514,0,0,1-1.422,1.564,4.931,4.931,0,0,1-.743.02q-18.8,0-37.608,0a2.127,2.127,0,0,1-1.57-.421,1.552,1.552,0,0,1-.494-1.766,1.412,1.412,0,0,1,1.416-1.009c1.086-.007,2.172-.005,3.258-.005h16.291" transform="translate(-112.703 -317.752)" fill="#884b9d"/>
            <path id="Trazado_207008" data-name="Trazado 207008" d="M148.261,322.575a2.5,2.5,0,0,1-.654,1.322c-.565.646-1.652,1.118-1.637,1.9.014.716,1.051,1.21,1.612,1.826.775.85.893,1.626.341,2.331a1.586,1.586,0,0,1-2.44.18c-.571-.524-1.115-1.079-1.645-1.645-.306-.327-.534-.321-.836,0-.508.544-1.036,1.071-1.578,1.581a1.679,1.679,0,0,1-2.41.081,1.7,1.7,0,0,1,.139-2.414c.491-.517.99-1.03,1.514-1.514.351-.323.382-.568.012-.906-.549-.5-1.072-1.034-1.579-1.58a1.555,1.555,0,0,1-.078-2.249,1.5,1.5,0,0,1,2.238-.142,16.6,16.6,0,0,1,1.664,1.622c.351.377.611.423.977.017a20,20,0,0,1,1.584-1.574,1.568,1.568,0,0,1,1.889-.277,1.774,1.774,0,0,1,.886,1.435" transform="translate(-112.707 -261.016)" fill="#884b9c"/>
            <path id="Trazado_207009" data-name="Trazado 207009" d="M234.792,322.608a1.716,1.716,0,0,1-.529,1.326c-.6.66-1.774,1.211-1.7,1.95.072.7,1.126,1.308,1.751,1.954a1.6,1.6,0,1,1-2.13,2.374c-.579-.515-1.12-1.076-1.648-1.644-.323-.348-.566-.384-.905-.013a21.061,21.061,0,0,1-1.585,1.575,1.658,1.658,0,0,1-2.408.03,1.749,1.749,0,0,1,.2-2.422c.595-.661,1.745-1.18,1.686-1.961-.051-.67-1.076-1.266-1.67-1.895a1.567,1.567,0,0,1-.148-2.38c.755-.769,1.514-.71,2.425.13.65.6,1.175,1.749,1.943,1.682.671-.058,1.261-1.089,1.879-1.7a1.59,1.59,0,0,1,1.832-.521,1.419,1.419,0,0,1,1.007,1.513" transform="translate(-183.184 -261.05)" fill="#884b9c"/>
            <path id="Trazado_207010" data-name="Trazado 207010" d="M321.2,322.586c.1.575-.3.933-.665,1.323-.569.607-1.594,1.1-1.61,1.823s1.02,1.224,1.591,1.823a1.977,1.977,0,0,1,.7,1.549,1.545,1.545,0,0,1-2.586,1.086,19.47,19.47,0,0,1-1.578-1.58c-.474-.553-.821-.485-1.263.028a18.741,18.741,0,0,1-1.444,1.452,1.562,1.562,0,0,1-2.315,0,1.523,1.523,0,0,1,.051-2.239c.508-.544,1.027-1.082,1.58-1.578.412-.369.483-.64.026-1.037-.538-.466-1.024-.994-1.517-1.51a1.7,1.7,0,0,1-.1-2.339,1.593,1.593,0,0,1,2.328.066,13.927,13.927,0,0,1,1.439,1.455c.47.591.783.466,1.214-.033a17.869,17.869,0,0,1,1.582-1.576,1.322,1.322,0,0,1,1.631-.229,1.507,1.507,0,0,1,.929,1.512" transform="translate(-253.413 -260.99)" fill="#884b9c"/>
            <path id="Trazado_207011" data-name="Trazado 207011" d="M225.439,241.626c1.134-1.169,1.574-1.218,3.128-.222v-3.561c0-.559,0-1.118,0-1.678.007-1.094.4-1.686,1.261-1.908.81-.209,1.422.169,1.933,1.193q0,2.974,0,5.949c.335.115.422-.2.6-.326a1.612,1.612,0,0,1,2.188.127,1.577,1.577,0,0,1-.062,2.246c-1.054,1.091-2.123,2.168-3.216,3.22a1.429,1.429,0,0,1-2.217,0c-1.1-1.049-2.148-2.143-3.223-3.214a2.01,2.01,0,0,1-.4-1.829" transform="translate(-183.319 -190.485)" fill="#884b9c"/>
            <path id="Trazado_207012" data-name="Trazado 207012" d="M141.761,206.074c0,1.583.011,3.167,0,4.75a1.605,1.605,0,1,1-3.19.031q-.019-4.7,0-9.408a1.6,1.6,0,1,1,3.188-.031c.02,1.552.005,3.1.005,4.657" transform="translate(-112.694 -162.438)" fill="#f19b1f"/>
            <path id="Trazado_207013" data-name="Trazado 207013" d="M140.214,289.484a1.625,1.625,0,0,1-.04-3.247,1.612,1.612,0,0,1,1.635,1.647,1.632,1.632,0,0,1-1.594,1.6" transform="translate(-112.749 -232.806)" fill="#f19c20"/>
            <path id="Trazado_207014" data-name="Trazado 207014" d="M240.044,107.291a3.306,3.306,0,0,1-3.3,3.22,3.257,3.257,0,0,1,.074-6.513,3.305,3.305,0,0,1,3.223,3.294" transform="translate(-189.955 -84.585)" fill="#35495e"/>
            <path id="Trazado_207015" data-name="Trazado 207015" d="M318.038,229.815a6.45,6.45,0,1,1,6.453-6.439,6.461,6.461,0,0,1-6.453,6.439" transform="translate(-253.378 -176.424)" fill="#2fa7cb"/>
          </g>
        </g>
        <path id="Trazado_224499" data-name="Trazado 224499" d="M7.078,14.016A1.2,1.2,0,0,0,6.609,13a6.148,6.148,0,0,0-1.687-.75,11.963,11.963,0,0,1-1.93-.777,3.153,3.153,0,0,1-1.937-2.82A2.747,2.747,0,0,1,1.574,7,3.389,3.389,0,0,1,3.066,5.875,5.616,5.616,0,0,1,5.25,5.469a5.112,5.112,0,0,1,2.172.441A3.458,3.458,0,0,1,8.9,7.156,3.261,3.261,0,0,1,9.43,8.984H7.086A1.534,1.534,0,0,0,6.594,7.77a2.023,2.023,0,0,0-1.383-.434A2.162,2.162,0,0,0,3.875,7.7a1.146,1.146,0,0,0-.477.957,1.1,1.1,0,0,0,.559.93,6.311,6.311,0,0,0,1.645.7,7.106,7.106,0,0,1,2.914,1.492A2.972,2.972,0,0,1,9.43,14a2.737,2.737,0,0,1-1.117,2.316,4.891,4.891,0,0,1-3.008.84,5.808,5.808,0,0,1-2.391-.48A3.783,3.783,0,0,1,1.27,15.359,3.371,3.371,0,0,1,.7,13.422H3.055q0,1.883,2.25,1.883a2.189,2.189,0,0,0,1.3-.34A1.106,1.106,0,0,0,7.078,14.016Zm3.438-1.32A5.013,5.013,0,0,1,11,10.453,3.546,3.546,0,0,1,12.395,8.93a4.069,4.069,0,0,1,2.113-.539A3.849,3.849,0,0,1,17.3,9.438a4.2,4.2,0,0,1,1.207,2.844l.016.578a4.418,4.418,0,0,1-1.086,3.121,3.775,3.775,0,0,1-2.914,1.176,3.793,3.793,0,0,1-2.918-1.172,4.5,4.5,0,0,1-1.09-3.187Zm2.258.16a3.16,3.16,0,0,0,.453,1.843,1.628,1.628,0,0,0,2.578.008,3.457,3.457,0,0,0,.461-2.015A3.128,3.128,0,0,0,15.8,10.86a1.5,1.5,0,0,0-1.3-.649,1.474,1.474,0,0,0-1.281.646A3.516,3.516,0,0,0,12.773,12.856ZM20.531,17V10.2H19.273V8.547h1.258V7.828a2.918,2.918,0,0,1,.816-2.207,3.162,3.162,0,0,1,2.285-.785,5.278,5.278,0,0,1,1.148.156l-.023,1.75a2.878,2.878,0,0,0-.687-.07q-1.273,0-1.273,1.2v.68h1.68V10.2H22.8V17Zm7.82-10.531V8.547H29.8V10.2H28.352v4.219a1.007,1.007,0,0,0,.18.672.9.9,0,0,0,.688.2,3.6,3.6,0,0,0,.664-.055v1.711a4.648,4.648,0,0,1-1.367.2,2.156,2.156,0,0,1-2.422-2.4V10.2H24.859V8.547h1.234V6.469ZM38.406,13.93l1.109-5.383H41.7L39.539,17H37.648l-1.6-5.32L34.445,17H32.563L30.406,8.547h2.18l1.1,5.375,1.547-5.375h1.633Zm9.3,3.07a2.507,2.507,0,0,1-.227-.758,2.732,2.732,0,0,1-2.133.914,3,3,0,0,1-2.059-.719,2.312,2.312,0,0,1-.816-1.812,2.389,2.389,0,0,1,1-2.062,4.915,4.915,0,0,1,2.879-.727h1.039v-.484a1.393,1.393,0,0,0-.3-.937,1.183,1.183,0,0,0-.949-.352,1.345,1.345,0,0,0-.895.273.929.929,0,0,0-.324.75H42.664a2.268,2.268,0,0,1,.453-1.359,3,3,0,0,1,1.281-.98,4.669,4.669,0,0,1,1.859-.355,3.689,3.689,0,0,1,2.48.785,2.747,2.747,0,0,1,.918,2.207v3.664a4.041,4.041,0,0,0,.336,1.82V17Zm-1.867-1.57a1.945,1.945,0,0,0,.922-.223,1.462,1.462,0,0,0,.625-.6V13.156h-.844q-1.7,0-1.8,1.172l-.008.133a.9.9,0,0,0,.3.7A1.153,1.153,0,0,0,45.844,15.43Zm10.3-4.766a6.134,6.134,0,0,0-.812-.062,1.654,1.654,0,0,0-1.68.867V17H51.391V8.547h2.133l.063,1.008a2.092,2.092,0,0,1,1.883-1.164,2.366,2.366,0,0,1,.7.1Zm4.977,6.492a4.15,4.15,0,0,1-3.027-1.141,4.054,4.054,0,0,1-1.168-3.039v-.219a5.106,5.106,0,0,1,.492-2.277,3.612,3.612,0,0,1,1.395-1.547,3.914,3.914,0,0,1,2.059-.543A3.508,3.508,0,0,1,63.6,9.484a4.444,4.444,0,0,1,1,3.1v.922H59.211a2.1,2.1,0,0,0,.66,1.328,2,2,0,0,0,1.395.5,2.437,2.437,0,0,0,2.039-.945l1.109,1.242a3.389,3.389,0,0,1-1.375,1.121A4.511,4.511,0,0,1,61.117,17.156Zm-.258-6.945a1.411,1.411,0,0,0-1.09.455,2.357,2.357,0,0,0-.535,1.3h3.141v-.181a1.681,1.681,0,0,0-.406-1.165A1.456,1.456,0,0,0,60.859,10.211ZM73.75,17.156a4.15,4.15,0,0,1-3.027-1.141,4.054,4.054,0,0,1-1.168-3.039v-.219a5.106,5.106,0,0,1,.492-2.277,3.612,3.612,0,0,1,1.395-1.547A3.914,3.914,0,0,1,73.5,8.391a3.508,3.508,0,0,1,2.73,1.094,4.444,4.444,0,0,1,1,3.1v.922H71.844a2.1,2.1,0,0,0,.66,1.328,2,2,0,0,0,1.395.5,2.437,2.437,0,0,0,2.039-.945l1.109,1.242a3.389,3.389,0,0,1-1.375,1.121A4.511,4.511,0,0,1,73.75,17.156Zm-.258-6.945a1.411,1.411,0,0,0-1.09.455,2.357,2.357,0,0,0-.535,1.3h3.141v-.181a1.681,1.681,0,0,0-.406-1.165A1.456,1.456,0,0,0,73.492,10.211Zm9.594,4.453a.727.727,0,0,0-.41-.652,4.659,4.659,0,0,0-1.316-.426q-3.016-.633-3.016-2.562a2.323,2.323,0,0,1,.934-1.879,3.766,3.766,0,0,1,2.441-.754,4.053,4.053,0,0,1,2.574.758,2.388,2.388,0,0,1,.965,1.969H83a1.092,1.092,0,0,0-.312-.8A1.322,1.322,0,0,0,81.711,10a1.351,1.351,0,0,0-.883.258.814.814,0,0,0-.312.656.7.7,0,0,0,.355.605,3.657,3.657,0,0,0,1.2.4,9.8,9.8,0,0,1,1.422.379,2.336,2.336,0,0,1,1.789,2.273,2.2,2.2,0,0,1-.992,1.871,4.28,4.28,0,0,1-2.562.715,4.47,4.47,0,0,1-1.887-.379,3.166,3.166,0,0,1-1.293-1.039,2.414,2.414,0,0,1-.469-1.426h2.141a1.179,1.179,0,0,0,.445.922,1.766,1.766,0,0,0,1.109.32,1.635,1.635,0,0,0,.98-.246A.766.766,0,0,0,83.086,14.664Zm11.258-1.812a5.07,5.07,0,0,1-.887,3.129,2.843,2.843,0,0,1-2.395,1.176,2.633,2.633,0,0,1-2.07-.891V20.25H86.734V8.547h2.094l.078.828a2.654,2.654,0,0,1,2.141-.984,2.862,2.862,0,0,1,2.43,1.156,5.207,5.207,0,0,1,.867,3.188Zm-2.258-.164a3.327,3.327,0,0,0-.418-1.82,1.361,1.361,0,0,0-1.215-.641,1.478,1.478,0,0,0-1.461.813V14.5a1.5,1.5,0,0,0,1.477.836Q92.086,15.336,92.086,12.688ZM98.18,17H95.922V8.547H98.18ZM97.516,5.117h2.461L97.813,7.539H95.977ZM105.023,17a2.507,2.507,0,0,1-.227-.758,2.732,2.732,0,0,1-2.133.914,3,3,0,0,1-2.059-.719,2.312,2.312,0,0,1-.816-1.812,2.389,2.389,0,0,1,1-2.062,4.915,4.915,0,0,1,2.879-.727H104.7v-.484a1.393,1.393,0,0,0-.3-.937,1.183,1.183,0,0,0-.949-.352,1.345,1.345,0,0,0-.895.273.929.929,0,0,0-.324.75H99.977a2.268,2.268,0,0,1,.453-1.359,3,3,0,0,1,1.281-.98,4.669,4.669,0,0,1,1.859-.355,3.689,3.689,0,0,1,2.48.785,2.747,2.747,0,0,1,.918,2.207v3.664a4.041,4.041,0,0,0,.336,1.82V17Zm-1.867-1.57a1.945,1.945,0,0,0,.922-.223,1.462,1.462,0,0,0,.625-.6V13.156h-.844q-1.7,0-1.8,1.172l-.008.133a.9.9,0,0,0,.3.7A1.153,1.153,0,0,0,103.156,15.43Z" transform="translate(842 2427)" fill="#12263f"/>
      </g>
      <g id="Grupo_207269" data-name="Grupo 207269" transform="translate(0 -36)">
        <g id="Grupo_198248" data-name="Grupo 198248" transform="translate(839.876 2161.549)">
          <g id="Grupo_198247" data-name="Grupo 198247" clip-path="url(#clip-path-4)">
            <path id="Trazado_207041" data-name="Trazado 207041" d="M7.844,29.184c-1.5,1.2-2.746,2.662-4.118,3.994-1.448,1.4-2.467,1.37-3.726-.188V31.651Q2.1,29.5,4.19,27.346c.3-.313.717-.559.73-1.073,4.818-4.877,9.687-9.7,14.533-14.553C21.731,9.441,23.991,7.142,26.3,4.9c.468-.006.708-.367.992-.649C28.427,3.124,29.549,1.991,30.68.868c1.008-1,2.131-1.145,2.942-.388a2.168,2.168,0,0,1-.235,3.039C32,4.961,30.474,6.261,29.213,7.821a2.978,2.978,0,0,1-.888,1.122Q18.649,18.624,8.967,28.3a2.959,2.959,0,0,1-1.123.887" transform="translate(0 0.001)" fill="#eaebec"/>
            <path id="Trazado_207042" data-name="Trazado 207042" d="M94.456,270.5a31.707,31.707,0,0,0-1.292-6.953,7.787,7.787,0,0,1,6.005-9.663,7.1,7.1,0,0,1,1.324-.107c2.526-.01,5.053,0,7.579-.011.39,0,.83.141,1.145-.245,2.46-.228,4.926-.039,7.388-.09.22,0,.441.02.662-.006q11.969-.036,23.935-.008c2.707,0,5.415.071,8.121-.084.113.62.608.43.976.432,2.523.013,5.046,0,7.569.008a7.676,7.676,0,0,1,7.722,7.323c.081,1.821-.619,3.55-.906,5.331-.211,1.308-.555,2.594-.84,3.89a1.5,1.5,0,0,1,.07,1.289q-2.745,13.3-5.544,26.589c-.106.507-.2,1.034-.751,1.292a5.292,5.292,0,0,1-1.769.152q-26.58,0-53.161,0a5.757,5.757,0,0,1-1.769-.136c-.75-.368-.788-1.125-.923-1.8-1.167-5.774-2.407-11.532-3.61-17.3-.567-2.72-1.108-5.445-1.707-8.158a4.585,4.585,0,0,1-.224-1.752" transform="translate(-72.137 -196.695)" fill="#d0d3d0"/>
            <path id="Trazado_207043" data-name="Trazado 207043" d="M164.117,109.827q-3.529.014-7.057.031a1.2,1.2,0,0,1-.925-.251,43.007,43.007,0,0,1-2.588-10.9c-.593-7-.033-13.826,3.378-20.136,3.5-6.48,9.126-9.739,16.353-10.433a24.953,24.953,0,0,1,13.38,2.012c5.885,2.8,9.22,7.706,10.91,13.792a40.112,40.112,0,0,1-1.021,24.529c-.111.314-.2.634-.306.952a.992.992,0,0,1-.93.447c-2.363-.031-4.728-.031-7.092-.042a1.577,1.577,0,0,1,.252-1.166,33.261,33.261,0,0,0,2.541-15.478c-.312-4.56-1.435-8.882-4.478-12.48a13.013,13.013,0,0,0-8.943-4.684c-7.283-.745-12.318,3.814-14.427,8.954a27.039,27.039,0,0,0-1.887,9.559A33.451,33.451,0,0,0,164,108.971a1.053,1.053,0,0,1,.119.855" transform="translate(-119.057 -52.777)" fill="#4481c2"/>
            <path id="Trazado_207044" data-name="Trazado 207044" d="M383.115,358.271q1.9-9.057,3.8-18.115,1.134-5.424,2.247-10.852c2.964,1.761,5.936,3.519,8.717,5.554a15.3,15.3,0,0,1,5.8,8.225c1.535,5.335,2.9,10.721,4.044,16.154a7.377,7.377,0,0,1-6.79,8.609c-5.565.124-11.135.022-16.7.017-.03-.5.417-.569.705-.748a3.185,3.185,0,0,0,1.456-1.9,7.62,7.62,0,0,0,.013-4.061,3.24,3.24,0,0,0-2.357-2.3c-.349-.109-.866-.009-.934-.586" transform="translate(-297.457 -255.677)" fill="#4481c2"/>
            <path id="Trazado_207045" data-name="Trazado 207045" d="M36.265,330.118a25.86,25.86,0,0,1,1.319,5.449c1.665,7.775,3.287,15.56,4.924,23.34-.035.539-.51.454-.827.557a3.483,3.483,0,0,0-2.674,3.636,18.2,18.2,0,0,0,.016,1.891,3.54,3.54,0,0,0,1.573,2.689c.307.214.812.267.8.81-5.494.006-10.99.111-16.481-.012a7.4,7.4,0,0,1-6.794-8.709c1.208-5.345,2.517-10.674,4-15.95a15.751,15.751,0,0,1,6.833-9.04c2.421-1.582,4.878-3.11,7.319-4.662" transform="translate(-13.946 -256.309)" fill="#4481c2"/>
            <path id="Trazado_207046" data-name="Trazado 207046" d="M113.135,468.448c-3.268-1.222-3.13-5.251-2.184-7.48.605-1.427,1.994-1.722,3.3-2.1l57.1-.005c.183.246.46.184.709.226a3.673,3.673,0,0,1,2.022,1.065c2.054,2.069,1.253,6.821-1.357,8.1a1.583,1.583,0,0,0-.257.2,5.241,5.241,0,0,1-1.652.184q-28.013,0-56.027,0a5.1,5.1,0,0,1-1.65-.188" transform="translate(-85.689 -356.266)" fill="#a4a4a3"/>
            <path id="Trazado_207047" data-name="Trazado 207047" d="M35.082,56.346a6.121,6.121,0,0,1,.413-.509Q45.714,45.612,55.941,35.394a5.959,5.959,0,0,1,.51-.411A15.208,15.208,0,0,1,49.32,58.644a14.931,14.931,0,0,1-14.238-2.3" transform="translate(-27.238 -27.161)" fill="#e54c3c"/>
            <path id="Trazado_207048" data-name="Trazado 207048" d="M32.78,11.439c.095.468-.3.647-.551.893q-9.961,9.976-19.938,19.935c-.246.246-.425.647-.893.55-3.292-4.8-4.024-9.941-1.7-15.313A15.2,15.2,0,0,1,32.03,10.965c.246.163.5.316.75.473" transform="translate(-6.477 -6.542)" fill="#e54c3c"/>
            <path id="Trazado_207049" data-name="Trazado 207049" d="M392.259,33.5a10.114,10.114,0,0,1-.825-4.33c.012-5.16.023-10.321-.016-15.481a1.162,1.162,0,0,1,.954-1.333q4.868-1.557,9.7-3.214a2.514,2.514,0,0,1,1.719.013c2.81.939,5.632,1.843,8.45,2.759.453.443,0,.714-.23.959-1.866,2.012-3.715,4.041-5.588,6.046-3.67,3.93-7.357,7.843-10.96,11.835-.747.827-1.555,1.6-2.357,2.369-.228.22-.449.523-.853.377" transform="translate(-303.903 -6.982)" fill="#e54c3c"/>
            <path id="Trazado_207050" data-name="Trazado 207050" d="M426.684,38.948c0,4.719.02,9.438,0,14.157a7.607,7.607,0,0,1-2.73,5.984c-1.549,1.332-3.114,2.648-4.717,3.912a6.174,6.174,0,0,1-8.084-.089q-1.9-1.541-3.8-3.094c-.021-.886.679-1.362,1.185-1.884,3.554-3.671,6.959-7.481,10.455-11.206,2.253-2.4,4.547-4.767,6.695-7.266.243-.284.471-.707.988-.515" transform="translate(-316.282 -30.202)" fill="#e54c3c"/>
            <path id="Trazado_207051" data-name="Trazado 207051" d="M407.768,15.361c-2.036,2.152-4.087,4.291-6.106,6.458q-6.3,6.755-12.56,13.538c-.246.266-.577.48-.656.875a15.621,15.621,0,0,0-2.094,1.965c-.926.867-1.7,1-2.437.386a1.792,1.792,0,0,1-.364-2.859,21.538,21.538,0,0,1,1.519-1.609c.274-.29.645-.519.652-.986.388-.022.548-.354.765-.588q9.427-10.128,18.842-20.267c.189-.2.5-.36.38-.731,1.126-.546,1.687-1.688,2.6-2.464a1.941,1.941,0,0,1,3.024.352,1.874,1.874,0,0,1-.4,2.407c-1.077,1.154-2.113,2.347-3.167,3.523" transform="translate(-297.366 -6.615)" fill="#eaebec"/>
            <path id="Trazado_207052" data-name="Trazado 207052" d="M190.494,136.292a28.92,28.92,0,0,1-2.9-9.955,31,31,0,0,1,.908-12.971c1.812-5.671,5.226-9.849,11.341-11.009a13.258,13.258,0,0,1,13.472,4.847,20.22,20.22,0,0,1,4.225,11.141,33.185,33.185,0,0,1-2.731,17.552c-.061.135-.141.261-.212.391l-24.1,0" transform="translate(-145.434 -79.242)" fill="#28567f"/>
            <path id="Trazado_207053" data-name="Trazado 207053" d="M222.329,329.193a8.8,8.8,0,0,1-2.805-.27,3.65,3.65,0,0,1-2.87-3.738,4.505,4.505,0,0,0-1.4-3.254,9.423,9.423,0,0,1,1.291-13.669c5.789-4.21,13.324-1.6,15.094,5.35a8.437,8.437,0,0,1-2.1,8.315,5.228,5.228,0,0,0-1.464,3.578c-.128,2.394-2.114,3.586-4.348,3.684-.408.018-.817,0-1.4,0" transform="translate(-165.304 -237.765)" fill="#eaebec"/>
            <path id="Trazado_207054" data-name="Trazado 207054" d="M231.718,352.793a1.961,1.961,0,0,1-1.88-1.955,1.912,1.912,0,0,1,1.982-1.825,1.81,1.81,0,0,1,1.785,1.87,1.881,1.881,0,0,1-1.888,1.909" transform="translate(-178.449 -270.979)" fill="#5f6063"/>
            <path id="Trazado_207055" data-name="Trazado 207055" d="M265.94,352.79a1.878,1.878,0,0,1-1.844-1.947,1.861,1.861,0,0,1,3.722.033,1.877,1.877,0,0,1-1.878,1.915" transform="translate(-205.049 -270.977)" fill="#5e5f62"/>
          </g>
        </g>
        <path id="Trazado_224500" data-name="Trazado 224500" d="M29.16,14.656H25.051L24.27,17H21.777L26.012,5.625h2.172L32.441,17H29.949Zm-3.477-1.9h2.844L27.1,8.5ZM35.926,6.469V8.547h1.445V10.2H35.926v4.219a1.007,1.007,0,0,0,.18.672.9.9,0,0,0,.688.2,3.6,3.6,0,0,0,.664-.055v1.711a4.648,4.648,0,0,1-1.367.2,2.156,2.156,0,0,1-2.422-2.4V10.2H32.434V8.547h1.234V6.469ZM43.527,17a2.507,2.507,0,0,1-.227-.758,2.732,2.732,0,0,1-2.133.914,3,3,0,0,1-2.059-.719,2.312,2.312,0,0,1-.816-1.812,2.389,2.389,0,0,1,1-2.062,4.915,4.915,0,0,1,2.879-.727h1.039v-.484a1.393,1.393,0,0,0-.3-.937,1.183,1.183,0,0,0-.949-.352,1.345,1.345,0,0,0-.895.273.929.929,0,0,0-.324.75H38.48a2.268,2.268,0,0,1,.453-1.359,3,3,0,0,1,1.281-.98,4.669,4.669,0,0,1,1.859-.355,3.689,3.689,0,0,1,2.48.785,2.747,2.747,0,0,1,.918,2.207v3.664a4.041,4.041,0,0,0,.336,1.82V17ZM41.66,15.43a1.945,1.945,0,0,0,.922-.223,1.462,1.462,0,0,0,.625-.6V13.156h-.844q-1.7,0-1.8,1.172l-.008.133a.9.9,0,0,0,.3.7A1.153,1.153,0,0,0,41.66,15.43Zm9.063-.094a1.481,1.481,0,0,0,1.016-.344,1.2,1.2,0,0,0,.406-.914h2.117a2.9,2.9,0,0,1-.469,1.574,3.093,3.093,0,0,1-1.262,1.109,3.949,3.949,0,0,1-1.77.395A3.67,3.67,0,0,1,47.9,16a4.56,4.56,0,0,1-1.047-3.184v-.148a4.508,4.508,0,0,1,1.039-3.117,3.627,3.627,0,0,1,2.852-1.164,3.555,3.555,0,0,1,2.543.9,3.2,3.2,0,0,1,.973,2.4H52.145a1.551,1.551,0,0,0-.406-1.072,1.51,1.51,0,0,0-2.223.163,3.333,3.333,0,0,0-.4,1.866v.235a3.375,3.375,0,0,0,.4,1.878A1.377,1.377,0,0,0,50.723,15.336ZM60.449,17a2.507,2.507,0,0,1-.227-.758,2.732,2.732,0,0,1-2.133.914,3,3,0,0,1-2.059-.719,2.312,2.312,0,0,1-.816-1.812,2.389,2.389,0,0,1,1-2.062,4.915,4.915,0,0,1,2.879-.727h1.039v-.484a1.393,1.393,0,0,0-.3-.937,1.183,1.183,0,0,0-.949-.352,1.345,1.345,0,0,0-.895.273.929.929,0,0,0-.324.75H55.4a2.268,2.268,0,0,1,.453-1.359,3,3,0,0,1,1.281-.98A4.669,4.669,0,0,1,59,8.391a3.689,3.689,0,0,1,2.48.785,2.747,2.747,0,0,1,.918,2.207v3.664a4.041,4.041,0,0,0,.336,1.82V17Zm-1.867-1.57a1.945,1.945,0,0,0,.922-.223,1.462,1.462,0,0,0,.625-.6V13.156h-.844q-1.7,0-1.8,1.172l-.008.133a.9.9,0,0,0,.3.7A1.153,1.153,0,0,0,58.582,15.43Zm7.625-6.883.07.977a2.951,2.951,0,0,1,2.43-1.133,2.453,2.453,0,0,1,2,.789,3.682,3.682,0,0,1,.672,2.359V17H69.121V11.594a1.465,1.465,0,0,0-.312-1.043,1.4,1.4,0,0,0-1.039-.324,1.553,1.553,0,0,0-1.43.813V17H64.082V8.547Zm9.586-2.078V8.547h1.445V10.2H75.793v4.219a1.007,1.007,0,0,0,.18.672.9.9,0,0,0,.688.2,3.6,3.6,0,0,0,.664-.055v1.711a4.648,4.648,0,0,1-1.367.2,2.156,2.156,0,0,1-2.422-2.4V10.2H72.3V8.547h1.234V6.469Zm6.594,10.688a4.15,4.15,0,0,1-3.027-1.141,4.054,4.054,0,0,1-1.168-3.039v-.219a5.106,5.106,0,0,1,.492-2.277,3.612,3.612,0,0,1,1.395-1.547,3.914,3.914,0,0,1,2.059-.543,3.508,3.508,0,0,1,2.73,1.094,4.444,4.444,0,0,1,1,3.1v.922H80.48a2.1,2.1,0,0,0,.66,1.328,2,2,0,0,0,1.395.5,2.437,2.437,0,0,0,2.039-.945l1.109,1.242a3.389,3.389,0,0,1-1.375,1.121A4.511,4.511,0,0,1,82.387,17.156Zm-.258-6.945a1.411,1.411,0,0,0-1.09.455,2.357,2.357,0,0,0-.535,1.3h3.141v-.181a1.681,1.681,0,0,0-.406-1.165A1.456,1.456,0,0,0,82.129,10.211Z" transform="translate(842 2277.699)" fill="#12263f"/>
      </g>
    </g>
    <g id="Grupo_207272" data-name="Grupo 207272" transform="translate(0 34.482)">
      <g id="Grupo_198250" data-name="Grupo 198250" transform="translate(1280.215 2173.519)">
        <g id="Grupo_198249" data-name="Grupo 198249" clip-path="url(#clip-path-5)">
          <path id="Trazado_207056" data-name="Trazado 207056" d="M89.507,0c1.151.242,2.307.466,3.454.729a21.417,21.417,0,0,1,11.554,6.707,3.119,3.119,0,0,0,.763.725c3.383,1.917,4.9,5.042,5.26,8.713.5,5.063.146,10.155.19,15.235a.34.34,0,0,1-.3-.021,4.977,4.977,0,0,0-4.549-1.886,1.2,1.2,0,0,1-.991-.239,2.193,2.193,0,0,1-.187-1.222c-.008-1.545-.018-3.09,0-4.634a1.175,1.175,0,0,0-1.037-1.375,7.686,7.686,0,0,1-5.2-3.518c-.907-1.335-1.509-1.362-2.772-.365a24.369,24.369,0,0,1-15.644,5.405c-2.093-.009-4.172-.248-6.262-.219-2.329.179-3.671,1.614-4.606,3.589-.138.292-.022.831-.622.758a1.041,1.041,0,0,1-.179-.64c-.091-4.036-.014-8.035,1.417-11.909a23.787,23.787,0,0,1,11.4-13.215A19.524,19.524,0,0,1,88.018.281C88.2.258,87.806.133,87.961,0Z" transform="translate(-51.808)" fill="#4c4846"/>
          <path id="Trazado_207057" data-name="Trazado 207057" d="M70.96,0c.112.249.411.124.621.327a27.03,27.03,0,0,0-6.448,2.1,23.658,23.658,0,0,0-12.9,16.235c-.8,3.213-.593,6.5-.588,9.767a1.321,1.321,0,0,1,.234,1.092.657.657,0,0,1-.8.722c-.384-.027-.772-.006-1.157-.018a3.908,3.908,0,0,0-3.148,1.4c-.4.437-.418.416-.838.263.023-3-.048-6.007.038-9.01A23.967,23.967,0,0,1,66.766.2c.248-.034.522.031.715-.2Z" transform="translate(-34.807)" fill="#3d3938"/>
          <path id="Trazado_207058" data-name="Trazado 207058" d="M175.437,251.862a5.622,5.622,0,0,0,1.71.193q15.114-.009,30.228,0a2.531,2.531,0,0,1,2.861,2.824c0,8.434-.031,16.869.029,25.3.011,1.55-.2,2.856-1.571,3.757a2.473,2.473,0,0,1-1.819.492c-3.089-.034-6.182.19-9.266-.147a12.465,12.465,0,0,0-1.352-.026q-12.318,0-24.637,0a5.535,5.535,0,0,1-1.726-.131,3.417,3.417,0,0,1-1.9-3.5q0-6.851,0-13.7c0-3.827-.012-7.655.007-11.482.007-1.444.3-2.766,1.745-3.5a2.367,2.367,0,0,1,1.084-.163c1.537-.078,3.072.018,4.606.089" transform="translate(-127.313 -190.785)" fill="#ececec"/>
          <path id="Trazado_207059" data-name="Trazado 207059" d="M89.371,79.517a16.358,16.358,0,0,1,3.169.118c6.956.551,13.35-.891,18.862-5.411,1.28-1.049,2.049-.956,2.931.433a7.271,7.271,0,0,0,5.335,3.571,1.116,1.116,0,0,1,1.063,1.32c-.04,2.026-.026,4.054-.034,6.081a2.6,2.6,0,0,1,.281,1.648c0,.979.028,1.958-.022,2.935a20.52,20.52,0,0,1-.086,3.36,27.06,27.06,0,0,0-.491,3.2,18.39,18.39,0,0,1-8.513,12.005,1.222,1.222,0,0,0-.7,1.21c.032,1.285-.015,2.572-.029,3.858-.5-.175-.374-.619-.388-.972-.033-.836-.027-1.674,0-2.51.014-.545-.19-.617-.629-.373-.337.188-.707.313-1.054.479-2.916,1.395-5.762.929-8.576-.315A18.244,18.244,0,0,1,89.136,95a8,8,0,0,1-.041-1.061q0-6.519,0-13.037c0-.472-.1-.977.272-1.381" transform="translate(-67.515 -55.714)" fill="#ecad6b"/>
          <path id="Trazado_207060" data-name="Trazado 207060" d="M32.154,247.87q6.071-2.132,12.144-4.26a2.782,2.782,0,0,0,2.057-1.7c.424.182.341.577.356.909.031.7-.008,1.408.016,2.111a4.134,4.134,0,0,0,2.689,3.953,8.72,8.72,0,0,0,3.17.7,11.046,11.046,0,0,0,1.889.153,1.237,1.237,0,0,1,.969.3,3.071,3.071,0,0,1,.206,1.6q.009,10.6-.005,21.208a4.031,4.031,0,0,0,1.2,3.226c.269.643-.264.613-.6.649-.732.079-1.471.027-2.207.032-1.54.011-2.3.408-2.585,1.35a3.258,3.258,0,0,0,1.334,3.36c.343.236.9.226.984.79l-19.1,0a2,2,0,0,1-.284-1.475c-.009-4.18,0-8.361-.006-12.541a5.527,5.527,0,0,0-.127-1.533c-.172-.6-.48-1.077-1.19-1.048s-1.006.5-1.117,1.125a15.229,15.229,0,0,0-.072,2.118,1.893,1.893,0,0,1-.282,1.289,2.915,2.915,0,0,1-1.7.22,19.683,19.683,0,0,1-3.94-.139c-.615-.461-.287-1.072-.2-1.6.589-3.388,1.24-6.765,1.856-10.149.323-1.771.626-3.545.978-5.31a9.8,9.8,0,0,1,1.234-3.124,4.9,4.9,0,0,1,2.332-2.213" transform="translate(-19.389 -183.329)" fill="#6c7d86"/>
          <path id="Trazado_207061" data-name="Trazado 207061" d="M70.905,141.09A10.953,10.953,0,0,1,68,140.908a3.527,3.527,0,0,1-1.229-3.091c-.06-2.152-.012-4.306-.021-6.459-.005-1.242-.027-1.231-1.208-1.57A9.417,9.417,0,0,1,62,128.331a22.35,22.35,0,0,0-2.638-1.729,17.831,17.831,0,0,1-7.6-13.639c-.019-.243.078-.526-.2-.7a9.9,9.9,0,0,1-.062-2.3c-.01-.623-.213-.815-.865-.786a4.927,4.927,0,0,1-4.13-1.679c-.247-.283-.551-.556-.353-1a4.6,4.6,0,0,1,4.6-2.151c.888.12,1.143-.1,1.011-.936a3.465,3.465,0,0,1,0-.574,6.3,6.3,0,0,1,3.723-4.359,2.2,2.2,0,0,1,1.3-.265c0,4.956-.129,9.916.034,14.867a16.734,16.734,0,0,0,4.359,10.651A18.708,18.708,0,0,0,72.077,129.8a6.673,6.673,0,0,0,2.909-.427,12.837,12.837,0,0,0,3.367-1.4c.23,1.608-.116,3.113.208,4.578l.029.433c-.028.878.4,1.778-.124,2.633l-1,.068a5.973,5.973,0,0,1-2.65.278c-.288.016-.578,0-.867,0-1.873.022-2.649.8-2.774,2.689-.054.815.23,1.673-.271,2.439" transform="translate(-34.935 -74.412)" fill="#dc995e"/>
          <path id="Trazado_207062" data-name="Trazado 207062" d="M162.467,383.646c7.72,0,15.439.043,23.158-.013,3.022-.022,6.031.27,9.05.2a53.353,53.353,0,0,0,6.637-.189c1.062,0,2.125.021,3.187.011a2.462,2.462,0,0,1,2.513,1.263,2.891,2.891,0,0,1-.448,2.993,3.45,3.45,0,0,1-2.875,1.527q-20.042.006-40.084-.015a3.483,3.483,0,0,1-2.223-5.271c-.858-.1-1.686.022-2.5-.085-.245-.032-.914.112-.507-.577a8.4,8.4,0,0,1,4.086.152" transform="translate(-119.932 -290.498)" fill="#c5c5c5"/>
          <path id="Trazado_207063" data-name="Trazado 207063" d="M17.55,266.534c-2.765,2.068-3.323,5.152-3.864,8.271-.807,4.652-1.678,9.293-2.521,13.938l-.127.137a9.423,9.423,0,0,1-4.724-.114q.932-4.809,1.867-9.617c.345-1.759.706-3.515,1.07-5.27a8.387,8.387,0,0,1,5.4-6.407,15.187,15.187,0,0,1,2.9-.939" transform="translate(-4.784 -201.993)" fill="#566a75"/>
          <path id="Trazado_207064" data-name="Trazado 207064" d="M21.435,358.251l5.8.036a1.344,1.344,0,0,1,.31,1.072q.024,4.989,0,9.978a1.453,1.453,0,0,1-.284,1.085H22.981a4.08,4.08,0,0,1-3.025-5.028c.331-2,.658-3.994,1-5.989a1.482,1.482,0,0,1,.5-1.105Z" transform="translate(-15.055 -271.501)" fill="#dc995e"/>
          <path id="Trazado_207065" data-name="Trazado 207065" d="M6.4,358.373c-.453,2.636-.969,5.263-1.334,7.91a3.729,3.729,0,0,0,2.429,3.86.746.746,0,0,1,.433.352c-1.38.01-2.76.061-4.139.022a3.923,3.923,0,0,1-3.741-4.711,59.874,59.874,0,0,1,1.483-7.46l4.868.028" transform="translate(0 -271.573)" fill="#d08b54"/>
          <path id="Trazado_207066" data-name="Trazado 207066" d="M111.463,222.674c1.332.328,2.537,1.1,3.9,1.246.984.108,1.164.558,1.14,1.442-.059,2.179,0,4.361-.027,6.542a6.145,6.145,0,0,0,.975,3.347,7.177,7.177,0,0,1-4.593-1.618,4.314,4.314,0,0,1-1.411-3.24,17.525,17.525,0,0,0-.092-3.061q.052-2.329.1-4.657" transform="translate(-84.395 -168.754)" fill="#d08b54"/>
          <path id="Trazado_207067" data-name="Trazado 207067" d="M137.482,383.9c.853.4,1.755.1,2.631.181.346.033.7.005,1.145.005-.3.625-.854,1-.887,1.7a3.423,3.423,0,0,0,2.04,3.565,3.988,3.988,0,0,1,.471.314l-9.3-.011a3.608,3.608,0,0,1-2.678-3.474,2.091,2.091,0,0,1,2.176-2.282c.9-.031,1.8.006,2.7-.014.3-.006.651.136.9-.172a.6.6,0,0,1,.791.186" transform="translate(-99.208 -290.741)" fill="#b6b6b6"/>
          <path id="Trazado_207068" data-name="Trazado 207068" d="M50.322,355.376q-.014-6.068-.027-12.135c0-1.03-.018-2.06.012-3.089.032-1.087.536-1.682,1.41-1.748s1.349.352,1.6,1.437a3.827,3.827,0,0,1,.069.86q0,7.337,0,14.675H50.322" transform="translate(-38.112 -256.455)" fill="#566a75"/>
          <path id="Trazado_207069" data-name="Trazado 207069" d="M44.944,103.691a4.461,4.461,0,0,0,4.587,2.4c.787-.117,1.1-.006,1.015.808a7.654,7.654,0,0,1-.191,2.559,4.43,4.43,0,0,1-4.556-1.042,3.77,3.77,0,0,1-1.111-4.124,3.205,3.205,0,0,0,.058-.861c.007-2.541,0-5.082.017-7.623a2.837,2.837,0,0,1,.12-1.323q.008,4.031.019,8.06c0,.383.027.767.042,1.15" transform="translate(-33.718 -71.603)" fill="#d08c54"/>
          <path id="Trazado_207070" data-name="Trazado 207070" d="M219.663,138.23c-.4-1.067-.1-2.176-.189-3.261a.693.693,0,0,1,.7-.419,5.97,5.97,0,0,0,4.913-2.107.622.622,0,0,1,.144.038,3.849,3.849,0,0,1-.807,4.573,4.579,4.579,0,0,1-4.758,1.177" transform="translate(-166.308 -100.372)" fill="#d08c54"/>
          <path id="Trazado_207071" data-name="Trazado 207071" d="M179.675,244.5a9.786,9.786,0,0,1,.124-2.633,2.416,2.416,0,0,0,1.678,1.556c.936.3,1.862.635,2.792.954a18.974,18.974,0,0,1-4.594.123" transform="translate(-136.144 -183.298)" fill="#738189"/>
          <path id="Trazado_207072" data-name="Trazado 207072" d="M225.168,125.652a4.491,4.491,0,0,1-3.914,2.328c-.566.063-1.16-.125-1.7.2q.008-2.341.016-4.682c.41,0,.821.013,1.23-.006a4.536,4.536,0,0,1,4.363,2.162" transform="translate(-166.393 -93.582)" fill="#dc995e"/>
          <path id="Trazado_207073" data-name="Trazado 207073" d="M150.85,284.84l-.791-.186a2.8,2.8,0,0,1-1.484-2.883q0-11.131,0-22.261c0-.385-.019-.77-.029-1.155a25.117,25.117,0,0,1,.147-3.457,2.318,2.318,0,0,1,2.364-1.969c1.35-.021,2.7.009,4.051.017-1.348.92-1.561,2.277-1.557,3.781q.035,12.161-.007,24.321c-.008,1.527.234,2.853,1.567,3.777l-4.261.015" transform="translate(-112.576 -191.677)" fill="#d9d9d9"/>
          <path id="Trazado_207074" data-name="Trazado 207074" d="M237.846,309.933a3.236,3.236,0,0,1-3.763,1.724,3.531,3.531,0,0,1-2.606-2.977,3.333,3.333,0,0,1,3.278-3.768c.241.244.146.532.109.815-.293,2.279.37,3.3,2.574,3.976a.751.751,0,0,1,.408.231" transform="translate(-175.415 -231.078)" fill="#c5c5c5"/>
          <path id="Trazado_207075" data-name="Trazado 207075" d="M247.3,309.912a3.263,3.263,0,0,1-3.286-3.9c.089-.367.131-.745.2-1.118a3.341,3.341,0,0,1,3.091,5.021" transform="translate(-184.866 -231.057)" fill="#d9d9d9"/>
        </g>
      </g>
      <path id="Trazado_224501" data-name="Trazado 224501" d="M18.606,14.18l2.578-8.555h2.609L19.833,17H17.388L13.442,5.625h2.6ZM27.153,17H24.9V8.547h2.258ZM26.489,5.117H28.95L26.786,7.539H24.95Zm6.125,10.219a1.481,1.481,0,0,0,1.016-.344,1.2,1.2,0,0,0,.406-.914h2.117a2.9,2.9,0,0,1-.469,1.574,3.093,3.093,0,0,1-1.262,1.109,3.949,3.949,0,0,1-1.77.395A3.67,3.67,0,0,1,29.794,16a4.56,4.56,0,0,1-1.047-3.184v-.148a4.508,4.508,0,0,1,1.039-3.117,3.627,3.627,0,0,1,2.852-1.164,3.555,3.555,0,0,1,2.543.9,3.2,3.2,0,0,1,.973,2.4H34.036a1.551,1.551,0,0,0-.406-1.072,1.51,1.51,0,0,0-2.223.163,3.333,3.333,0,0,0-.4,1.866v.235a3.375,3.375,0,0,0,.4,1.878A1.377,1.377,0,0,0,32.614,15.336Zm7.531-8.867V8.547h1.445V10.2H40.146v4.219a1.007,1.007,0,0,0,.18.672.9.9,0,0,0,.688.2,3.6,3.6,0,0,0,.664-.055v1.711a4.648,4.648,0,0,1-1.367.2,2.156,2.156,0,0,1-2.422-2.4V10.2H36.653V8.547h1.234V6.469ZM45.231,17H42.966V8.547h2.266Zm-2.4-10.641a1.112,1.112,0,0,1,.34-.836,1.465,1.465,0,0,1,1.848,0,1.105,1.105,0,0,1,.344.836,1.108,1.108,0,0,1-.348.844,1.448,1.448,0,0,1-1.836,0A1.108,1.108,0,0,1,42.833,6.359Zm6.375,2.188.07.945a2.971,2.971,0,0,1,2.43-1.1A2.255,2.255,0,0,1,53.95,9.68a2.9,2.9,0,0,1,2.539-1.289,2.521,2.521,0,0,1,2.047.8,3.681,3.681,0,0,1,.672,2.41V17H56.942V11.609a1.61,1.61,0,0,0-.281-1.051,1.246,1.246,0,0,0-.992-.332,1.409,1.409,0,0,0-1.406.969l.008,5.8H52.013V11.617a1.59,1.59,0,0,0-.289-1.062,1.259,1.259,0,0,0-.984-.328,1.463,1.463,0,0,0-1.391.8V17H47.091V8.547ZM65.841,17a2.507,2.507,0,0,1-.227-.758,2.732,2.732,0,0,1-2.133.914,3,3,0,0,1-2.059-.719,2.312,2.312,0,0,1-.816-1.812,2.389,2.389,0,0,1,1-2.062,4.915,4.915,0,0,1,2.879-.727h1.039v-.484a1.393,1.393,0,0,0-.3-.937,1.183,1.183,0,0,0-.949-.352,1.345,1.345,0,0,0-.895.273.929.929,0,0,0-.324.75H60.794a2.268,2.268,0,0,1,.453-1.359,3,3,0,0,1,1.281-.98,4.669,4.669,0,0,1,1.859-.355,3.689,3.689,0,0,1,2.48.785,2.747,2.747,0,0,1,.918,2.207v3.664a4.041,4.041,0,0,0,.336,1.82V17Zm-1.867-1.57a1.945,1.945,0,0,0,.922-.223,1.462,1.462,0,0,0,.625-.6V13.156h-.844q-1.7,0-1.8,1.172l-.008.133a.9.9,0,0,0,.3.7A1.153,1.153,0,0,0,63.974,15.43Z" transform="translate(1283.215 2277.699)" fill="#12263f"/>
    </g>
  </g>
</svg>
