<svg xmlns="http://www.w3.org/2000/svg" xmlns:xlink="http://www.w3.org/1999/xlink" width="620" height="331.673" viewBox="0 0 620 331.673">
  <defs>
    <linearGradient id="linear-gradient" x1="0.5" x2="0.5" y2="1" gradientUnits="objectBoundingBox">
      <stop offset="0" stop-color="#210557"/>
      <stop offset="1" stop-color="#51186d"/>
    </linearGradient>
    <clipPath id="clip-path">
      <rect id="Rectángulo_60251" data-name="Rectángulo 60251" width="297.913" height="281.229" fill="none"/>
    </clipPath>
    <clipPath id="clip-path-2">
      <path id="Trazado_207661" data-name="Trazado 207661" d="M307.883,218.421h0Z" transform="translate(-307.883 -218.421)" fill="none"/>
    </clipPath>
    <clipPath id="clip-path-4">
      <path id="Trazado_207713" data-name="Trazado 207713" d="M195.236,270.021h0Z" transform="translate(-195.236 -270.021)" fill="none"/>
    </clipPath>
    <clipPath id="clip-path-6">
      <path id="Trazado_207765" data-name="Trazado 207765" d="M195.236,321.622h0Z" transform="translate(-195.236 -321.622)" fill="none"/>
    </clipPath>
    <clipPath id="clip-path-8">
      <path id="Trazado_207817" data-name="Trazado 207817" d="M195.236,373.223h0Z" transform="translate(-195.236 -373.223)" fill="none"/>
    </clipPath>
    <clipPath id="clip-path-10">
      <path id="Trazado_207873" data-name="Trazado 207873" d="M69.291,536.539h0Z" transform="translate(-69.291 -536.539)" fill="none"/>
    </clipPath>
  </defs>
  <g id="Grupo_212228" data-name="Grupo 212228" transform="translate(-180 -3041)">
    <rect id="Image_Place_Holder" data-name="Image Place Holder" width="620" height="331.673" transform="translate(180 3041)" fill="url(#linear-gradient)"/>
    <g id="Grupo_198341" data-name="Grupo 198341" transform="translate(248.813 3065.918)">
      <g id="Grupo_198320" data-name="Grupo 198320">
        <g id="Grupo_198319" data-name="Grupo 198319" clip-path="url(#clip-path)">
          <path id="Trazado_207578" data-name="Trazado 207578" d="M673.342,0h167.09a10.592,10.592,0,0,1,10.592,10.592V100.2a10.592,10.592,0,0,1-10.592,10.592H743.071a.672.672,0,0,0-.452.175L729.625,124a.672.672,0,0,1-1.124-.5V111.463a.672.672,0,0,0-.672-.671H673.342A10.592,10.592,0,0,1,662.75,100.2V10.592A10.592,10.592,0,0,1,673.342,0" transform="translate(-553.112)" fill="#4b3c7c"/>
          <path id="Trazado_207579" data-name="Trazado 207579" d="M662.751,10.592v4.929a15.807,15.807,0,0,1,4.426,4.333c3.294,4.7,1.887,4.45,8.526,15.925.949,1.641,1.622,4.258,4.25,6.305a90.748,90.748,0,0,0,12.09,7.959c1.071.626,3.945,1.345,4.934-.7.054-.111,4.518,3.215,7.254-.744a14.975,14.975,0,0,0,2.251.7,4.032,4.032,0,0,0,3.908-1.394c.031-.008.053,0,.066.013,1.2,1.561,3.2,2.924,4.766,4.549,1.011,1.051,2.8,3.656,6.4,7.38,1.881,1.946,2.731,2.5,3.456,2.631a2.933,2.933,0,0,0,2.742-1.089c.586-.772.675-1.834.333-3.342-.644-2.839-2.159-4.369-4.81-8.018-1.8-2.475-3.065-4.473-4.214-6.285-1.779-2.807-1.969-3.356-3.327-5.562-3.5-5.677-4.882-6.329-7.438-10.568a66.024,66.024,0,0,1-4.273-8.194C700,10.845,697.956,6.556,693.984,3.169,691.3.879,689.846,1.354,686.232,0H673.343a10.592,10.592,0,0,0-10.592,10.592" transform="translate(-553.113)" fill="#ec7d40"/>
          <path id="Trazado_207580" data-name="Trazado 207580" d="M1158.582,0h-22.061c-1.859,2.391-3.018,2.648-3.872,5.255-1.256,3.831-.878,7.48-.123,14.779a50.918,50.918,0,0,1,.48,7.121c.02,3.822-.632,4.81-.652,9.958-.008,2,.088,2.439.045,5-.028,1.656-.059,3.483-.249,5.838-.28,3.472-.663,5.09.055,7.22a3,3,0,0,0,1.564,2.069,2.266,2.266,0,0,0,2.246-.385c.423-.381.762-1.085,1.219-3.124.875-3.9,1.005-6.339,1.249-7.439.377-1.7,1.147-3.4,1.311-4.916,0-.017.015-.028.038-.035a3.114,3.114,0,0,0,3.137-.653c.91-.773,1.107-1.411,1.2-1.368,3.4,1.51,5-2.479,5.081-2.427,1.474.95,3.079-.68,3.534-1.524a70.079,70.079,0,0,0,4.768-10.11c.909-2.406.3-4.4.265-5.866-.24-10.234-1.068-9.506-.786-13.927a13.461,13.461,0,0,1,1.55-5.47" transform="translate(-944.562)" fill="#f79556"/>
          <path id="Trazado_207581" data-name="Trazado 207581" d="M1511.644,423.216V395.3c-3.012-.483-3.982-1.347-6.877-.73-4.479.954-7.848,3.409-14.585,8.318a57.936,57.936,0,0,1-6.72,4.537c-3.743,2.2-5.085,2.126-10.153,5.046-1.969,1.134-2.345,1.479-4.89,2.9-1.643.918-3.455,1.93-5.876,3.088-3.57,1.707-5.377,2.255-7.06,4.176a3.411,3.411,0,0,0-1.139,2.717,2.573,2.573,0,0,0,1.66,1.986c.616.2,1.5.129,3.765-.586,4.333-1.369,6.8-2.632,8.02-3.02,1.886-.6,4-.816,5.577-1.519.018-.008.036,0,.056.018a3.537,3.537,0,0,0,2.433,2.708,13.12,13.12,0,0,0,2.03.4c.456,4.2,5.29,3.5,5.285,3.6-.091,1.99,2.426,2.636,3.514,2.6a79.587,79.587,0,0,0,12.652-1.089c2.882-.481,4.495-2.219,5.913-3.089,2.987-1.832,4.966-3.147,6.4-4.153" transform="translate(-1213.731 -329.122)" fill="#f79556"/>
          <path id="Trazado_207582" data-name="Trazado 207582" d="M1333.672,0H1314.2c-8.744,4.753-10.607,2.586-15.167,6.476-5.232,4.462-7.925,10.112-13.311,21.41-3.193,6.7-3.253,6.855-5.629,10.794-3.368,5.583-5.194,6.443-9.8,13.921-1.789,2.906-2.039,3.63-4.383,7.327-1.512,2.386-3.182,5.019-5.55,8.279-3.493,4.807-5.488,6.822-6.336,10.562-.451,1.986-.334,3.385.438,4.4a3.865,3.865,0,0,0,3.612,1.435c.955-.179,2.073-.9,4.552-3.466,4.743-4.905,7.1-8.337,8.43-9.721,2.061-2.141,4.694-3.936,6.278-5.992.018-.023.047-.028.087-.017.411.11,1.5,2.411,5.148,1.836a19.79,19.79,0,0,0,2.966-.924c3.6,5.216,9.484.834,9.555.98,1.3,2.693,5.088,1.746,6.5.921a119.576,119.576,0,0,0,15.927-10.484c3.462-2.7,4.348-6.144,5.6-8.306,8.745-15.115,6.892-14.79,11.231-20.978,3.2-4.567,5.721-5.41,9.921-8.569V10.592A10.592,10.592,0,0,0,1333.672,0" transform="translate(-1046.352)" fill="#ec7d40"/>
          <path id="Trazado_207583" data-name="Trazado 207583" d="M1138.675,322.62c-.563-.8.1-3.169.552-3.378.681-.317,2.811-.225,3.006.222a4.143,4.143,0,0,1-.465,3.1,1.5,1.5,0,0,1-.753.65,2.268,2.268,0,0,1-1.319.129,1.769,1.769,0,0,1-1.021-.725" transform="translate(-950.125 -266.273)" fill="#f49e6e"/>
          <path id="Trazado_207584" data-name="Trazado 207584" d="M1080.479,40.03a14.19,14.19,0,0,1-3.525,6.554,4.308,4.308,0,0,1-2.792,1.4,1.716,1.716,0,0,1-1.4-.484,1.269,1.269,0,0,1-.2-.861c.11-1.661,1.352-2.205,1.631-3.908.361-2.2-.248-2.691.275-5.71a4.944,4.944,0,0,1,.516-1.541c1.28-2.508,1.683-7.529,1.683-7.529.295-5.068,6.722-15.1,9.409-14.38,2.709.725,2.224,13.6-1.842,17.88a7.557,7.557,0,0,0-2.3,2.565c-1.006,1.946-.644,3.153-1.461,6.015" transform="translate(-895.13 -11.295)" fill="#f79556"/>
          <path id="Trazado_207585" data-name="Trazado 207585" d="M1072.583,194.406c0,.018,0,.038,0,.057a1.841,1.841,0,0,1,.685.323c.242.168.794-.76,1.185-2.212a2.926,2.926,0,0,0,.089-1.448,1.088,1.088,0,0,0-.343-.534c-.308,1.629-1.506,2.185-1.614,3.815" transform="translate(-895.144 -159.062)" fill="#f49e6e"/>
          <path id="Trazado_207586" data-name="Trazado 207586" d="M1180.07,194.97c-.013-.237-.024-.475-.023-.713s.006-.474.015-.711.025-.473.042-.709.041-.471.064-.706c.1-.939.241-1.871.415-2.8s.382-1.845.627-2.755c.123-.455.255-.908.4-1.358.074-.225.149-.449.231-.672.04-.111.083-.223.125-.333s.089-.221.138-.329c-.071.949-.188,1.881-.323,2.811s-.295,1.853-.469,2.774-.364,1.838-.57,2.753-.423,1.827-.672,2.745" transform="translate(-984.833 -153.466)" fill="#ec7d40"/>
          <path id="Trazado_207587" data-name="Trazado 207587" d="M1206.409,191.516c.032-.206.071-.411.12-.614s.108-.405.17-.6l.371-1.17q.38-1.169.816-2.318t.943-2.272a20.959,20.959,0,0,1,1.135-2.2,21.085,21.085,0,0,1-.589,2.407q-.355,1.181-.8,2.332c-.294.767-.613,1.525-.97,2.269-.178.371-.369.744-.579,1.1-.105.178-.208.352-.31.531s-.2.359-.311.538" transform="translate(-1006.834 -152.173)" fill="#ec7d40"/>
          <path id="Trazado_207588" data-name="Trazado 207588" d="M1237.308,187.982a14.547,14.547,0,0,1,.649-1.856c.251-.6.524-1.186.815-1.764s.6-1.145.927-1.7.672-1.109,1.063-1.648c-.026.164-.057.328-.095.489s-.082.32-.126.479-.1.314-.149.47-.109.309-.166.462a18.7,18.7,0,0,1-.791,1.787q-.44.871-.961,1.7a12.592,12.592,0,0,1-1.165,1.587" transform="translate(-1032.621 -151.065)" fill="#ec7d40"/>
          <path id="Trazado_207589" data-name="Trazado 207589" d="M1456.51,567.344c.462-1.008,3.172-1.708,3.634-1.386.7.488,1.826,2.632,1.5,3.078a4.7,4.7,0,0,1-3.312,1.315,1.7,1.7,0,0,1-1.069-.368,2.577,2.577,0,0,1-.88-1.222,2.01,2.01,0,0,1,.129-1.417" transform="translate(-1215.392 -472.266)" fill="#f49e6e"/>
          <path id="Trazado_207590" data-name="Trazado 207590" d="M1550.734,398.474c-4.291,1.089-6.941.7-8.45.28a4.893,4.893,0,0,1-2.968-1.943,1.95,1.95,0,0,1-.323-1.649,1.44,1.44,0,0,1,.734-.683c1.694-.841,2.938.069,4.77-.63,2.371-.9,2.5-1.78,5.765-2.99a5.612,5.612,0,0,1,1.808-.373c3.194-.175,8.356-2.646,8.356-2.646,5.146-2.6,18.669-2.02,19.5,1.031.834,3.074-12.083,9.946-18.612,8.4a8.582,8.582,0,0,0-3.832-.795c-2.486.123-3.464,1.167-6.742,2" transform="translate(-1284.325 -322.304)" fill="#f79556"/>
          <path id="Trazado_207591" data-name="Trazado 207591" d="M1543.587,433.291l-.058.029a2.1,2.1,0,0,1,.074.857c-.027.334,1.2.346,2.849-.1a3.327,3.327,0,0,0,1.473-.74,1.236,1.236,0,0,0,.329-.642c-1.776.628-3.006-.232-4.668.593" transform="translate(-1288.184 -361.117)" fill="#f49e6e"/>
          <path id="Trazado_207592" data-name="Trazado 207592" d="M1568.737,541.368c.225-.148.454-.294.687-.43s.469-.265.707-.391.479-.246.72-.363.485-.229.729-.341c.979-.439,1.976-.832,2.984-1.19s2.03-.678,3.064-.958c.517-.139,1.038-.268,1.563-.382.263-.056.526-.11.792-.157.133-.024.266-.046.4-.067s.268-.038.4-.053c-.973.472-1.955.889-2.946,1.288s-1.989.769-2.993,1.123-2.014.691-3.029,1.012-2.036.628-3.08.907" transform="translate(-1309.222 -448.196)" fill="#ec7d40"/>
          <path id="Trazado_207593" data-name="Trazado 207593" d="M1596.541,572.667c.221-.087.444-.165.671-.233s.46-.125.688-.177l1.36-.3q1.365-.294,2.742-.521t2.77-.371a23.83,23.83,0,0,1,2.812-.143,23.947,23.947,0,0,1-2.7.8q-1.363.326-2.745.55c-.921.15-1.848.268-2.782.343-.466.037-.941.062-1.411.059-.235,0-.465,0-.7,0s-.469,0-.707,0" transform="translate(-1332.427 -476.469)" fill="#ec7d40"/>
          <path id="Trazado_207594" data-name="Trazado 207594" d="M1628.582,599.992a16.475,16.475,0,0,1,2.193-.422c.732-.1,1.464-.163,2.2-.207s1.467-.066,2.2-.063,1.473.027,2.226.1c-.177.068-.355.131-.535.186s-.361.1-.542.149-.363.084-.546.122-.365.07-.549.1a21.307,21.307,0,0,1-2.207.244q-1.107.065-2.217.026a14.278,14.278,0,0,1-2.224-.238" transform="translate(-1359.167 -500.158)" fill="#ec7d40"/>
          <path id="Trazado_207595" data-name="Trazado 207595" d="M1257.029,468.976c-.11-1.662,2.967-4.523,3.807-4.428,1.273.144,4.292,2.17,4.179,2.993-.178,1.3-1.653,3.049-3.434,4.1a2.552,2.552,0,0,1-1.674.278,3.87,3.87,0,0,1-2.036-.984,3.018,3.018,0,0,1-.842-1.963" transform="translate(-1049.078 -387.696)" fill="#f79556"/>
          <path id="Trazado_207596" data-name="Trazado 207596" d="M1287,58.018c-4.887,4.505-8.667,5.88-10.957,6.411a7.346,7.346,0,0,1-5.308-.444c-.383-.226-1.51-.892-1.605-1.946a2.165,2.165,0,0,1,.48-1.427c1.635-2.321,3.929-2.009,5.848-4.242,2.484-2.889,2.03-4.139,5.474-8.07a8.4,8.4,0,0,1,2.12-1.785c4.092-2.515,9.141-9.467,9.141-9.467,4.932-7.117,23.205-16.014,26.479-12.578,3.3,3.463-8.844,21.771-18.57,24.4-.912.246-2.874.018-5.629,1.691-3.194,1.94-3.74,4.018-7.473,7.46" transform="translate(-1059.176 -19.787)" fill="#ec7d40"/>
          <path id="Trazado_207597" data-name="Trazado 207597" d="M1271.789,226l-.055.08a3.138,3.138,0,0,1,.711,1.079c.2.46,1.832-.4,3.692-2.168a4.994,4.994,0,0,0,1.417-2.03,1.852,1.852,0,0,0-.025-1.082c-1.9,2.1-4.135,1.843-5.74,4.121" transform="translate(-1061.352 -185.171)" fill="#f79556"/>
          <path id="Trazado_207598" data-name="Trazado 207598" d="M1395.636,324.308c.191-.357.388-.713.6-1.058s.43-.686.654-1.022.456-.666.691-.994.477-.649.72-.971c.979-1.279,2.014-2.511,3.09-3.7s2.2-2.346,3.361-3.455c.584-.553,1.179-1.1,1.79-1.622.308-.261.616-.521.933-.773.158-.126.318-.25.479-.374s.326-.242.493-.357c-.947,1.318-1.945,2.572-2.969,3.806s-2.077,2.437-3.149,3.623-2.164,2.352-3.276,3.5-2.239,2.284-3.418,3.4" transform="translate(-1164.757 -258.699)" fill="#f79556"/>
          <path id="Trazado_207599" data-name="Trazado 207599" d="M1445.428,349.4c.23-.272.468-.536.72-.788s.518-.495.782-.726l1.58-1.373q1.592-1.365,3.248-2.649t3.392-2.471a35.779,35.779,0,0,1,3.611-2.2,35.957,35.957,0,0,1-3,2.982q-1.567,1.4-3.231,2.689c-1.11.856-2.248,1.676-3.428,2.442-.588.382-1.2.755-1.821,1.087-.311.166-.616.328-.923.5s-.616.342-.932.508" transform="translate(-1206.312 -283.078)" fill="#f79556"/>
          <path id="Trazado_207600" data-name="Trazado 207600" d="M1503.447,371.253a24.8,24.8,0,0,1,2.594-2.125c.9-.65,1.817-1.262,2.754-1.845s1.891-1.135,2.864-1.658,1.963-1.017,3.012-1.455c-.184.216-.374.427-.573.628s-.4.393-.61.584-.42.371-.634.552-.432.354-.652.526a31.949,31.949,0,0,1-2.74,1.9q-1.415.877-2.909,1.619a21.449,21.449,0,0,1-3.107,1.275" transform="translate(-1254.733 -303.925)" fill="#f79556"/>
          <path id="Trazado_207601" data-name="Trazado 207601" d="M1026.208,345.457c.084-1.261-2.252-3.434-2.89-3.362-.966.109-3.259,1.647-3.173,2.272a5.363,5.363,0,0,0,2.607,3.116,1.937,1.937,0,0,0,1.271.211,2.938,2.938,0,0,0,1.546-.747,2.292,2.292,0,0,0,.639-1.49" transform="translate(-851.382 -285.501)" fill="#f79556"/>
          <path id="Trazado_207602" data-name="Trazado 207602" d="M842.183,33.482c3.71,3.42,6.58,4.464,8.318,4.867a5.579,5.579,0,0,0,4.03-.337c.29-.172,1.146-.678,1.218-1.477a1.641,1.641,0,0,0-.365-1.083c-1.241-1.762-2.983-1.525-4.439-3.22-1.886-2.193-1.541-3.142-4.155-6.126a6.393,6.393,0,0,0-1.609-1.355c-3.106-1.909-6.939-7.187-6.939-7.187-3.744-5.4-17.616-12.157-20.1-9.548-2.5,2.629,6.713,16.528,14.1,18.521a9.783,9.783,0,0,1,4.273,1.283c2.425,1.473,2.839,3.05,5.673,5.663" transform="translate(-682.445 -6.206)" fill="#ec7d40"/>
          <path id="Trazado_207603" data-name="Trazado 207603" d="M1023.054,161l.042.061a2.38,2.38,0,0,0-.54.819c-.154.349-1.391-.3-2.8-1.646a3.794,3.794,0,0,1-1.075-1.541,1.409,1.409,0,0,1,.019-.822c1.44,1.593,3.139,1.4,4.357,3.128" transform="translate(-850.115 -131.756)" fill="#f79556"/>
          <path id="Trazado_207604" data-name="Trazado 207604" d="M902.526,235.635c-.145-.271-.295-.541-.455-.8s-.326-.521-.5-.776-.346-.506-.525-.755-.362-.493-.547-.737c-.743-.971-1.529-1.906-2.346-2.812s-1.667-1.781-2.552-2.623c-.443-.42-.895-.832-1.359-1.231-.234-.2-.468-.4-.708-.587-.12-.1-.242-.19-.363-.284s-.247-.184-.375-.271c.719,1,1.477,1.952,2.254,2.889s1.577,1.85,2.39,2.75,1.643,1.786,2.487,2.659,1.7,1.734,2.595,2.581" transform="translate(-745.105 -187.575)" fill="#f79556"/>
          <path id="Trazado_207605" data-name="Trazado 207605" d="M862.733,254.68c-.175-.207-.356-.407-.547-.6s-.393-.375-.594-.551l-1.2-1.043q-1.209-1.036-2.466-2.011t-2.575-1.876a27.152,27.152,0,0,0-2.741-1.669,27.383,27.383,0,0,0,2.275,2.264q1.19,1.066,2.453,2.041c.842.65,1.707,1.272,2.6,1.854.447.29.909.573,1.383.825.236.126.467.249.7.378s.468.26.707.385" transform="translate(-711.565 -206.082)" fill="#f79556"/>
          <path id="Trazado_207606" data-name="Trazado 207606" d="M826.761,271.273a18.878,18.878,0,0,0-1.97-1.613c-.681-.494-1.38-.958-2.09-1.4s-1.435-.862-2.175-1.259-1.49-.772-2.286-1.1c.14.164.284.324.435.477s.306.3.463.444.318.282.481.419.329.268.495.4a24.183,24.183,0,0,0,2.08,1.442q1.074.666,2.208,1.229a16.276,16.276,0,0,0,2.359.968" transform="translate(-682.879 -221.908)" fill="#f79556"/>
          <path id="Trazado_207607" data-name="Trazado 207607" d="M199.936,145.742H131.508a8.082,8.082,0,0,0-8.082,8.082v32.157a8.082,8.082,0,0,0,8.082,8.082h49.987l9.215,8.421v-8.421h9.227a8.082,8.082,0,0,0,8.082-8.082V153.824a8.082,8.082,0,0,0-8.082-8.082" transform="translate(-103.008 -121.632)" fill="#4b3c7c"/>
          <path id="Trazado_207608" data-name="Trazado 207608" d="M449.008,364.182a1.779,1.779,0,1,1-1.779-1.779,1.779,1.779,0,0,1,1.779,1.779" transform="translate(-371.76 -302.451)" fill="#ada995"/>
          <path id="Trazado_207609" data-name="Trazado 207609" d="M493.606,364.182a1.779,1.779,0,1,1-1.779-1.779,1.779,1.779,0,0,1,1.779,1.779" transform="translate(-408.98 -302.451)" fill="#ada995"/>
          <path id="Trazado_207610" data-name="Trazado 207610" d="M538.2,364.182a1.779,1.779,0,1,1-1.779-1.779,1.779,1.779,0,0,1,1.779,1.779" transform="translate(-446.2 -302.451)" fill="#ada995"/>
          <line id="Línea_158" data-name="Línea 158" x2="40.985" transform="translate(50.933 36.133)" fill="#ada995"/>
        </g>
      </g>
      <g id="Grupo_198322" data-name="Grupo 198322" transform="translate(50.933 36.133)">
        <g id="Grupo_198321" data-name="Grupo 198321" clip-path="url(#clip-path-2)">
          <path id="Trazado_207611" data-name="Trazado 207611" d="M434.99,218.421" transform="translate(-413.963 -218.421)" fill="#ada995"/>
          <path id="Trazado_207612" data-name="Trazado 207612" d="M437.466,218.421" transform="translate(-416.029 -218.421)" fill="#ada995"/>
          <path id="Trazado_207613" data-name="Trazado 207613" d="M439.943,218.421" transform="translate(-418.096 -218.421)" fill="#ada995"/>
          <path id="Trazado_207614" data-name="Trazado 207614" d="M442.42,218.421" transform="translate(-420.164 -218.421)" fill="#ada995"/>
          <path id="Trazado_207615" data-name="Trazado 207615" d="M444.9,218.421" transform="translate(-422.231 -218.421)" fill="#ada995"/>
          <path id="Trazado_207616" data-name="Trazado 207616" d="M447.374,218.421" transform="translate(-424.298 -218.421)" fill="#ada995"/>
          <path id="Trazado_207617" data-name="Trazado 207617" d="M449.85,218.421" transform="translate(-426.365 -218.421)" fill="#ada995"/>
          <path id="Trazado_207618" data-name="Trazado 207618" d="M452.327,218.421" transform="translate(-428.432 -218.421)" fill="#ada995"/>
          <path id="Trazado_207619" data-name="Trazado 207619" d="M454.8,218.421" transform="translate(-430.499 -218.421)" fill="#ada995"/>
          <path id="Trazado_207620" data-name="Trazado 207620" d="M457.281,218.421" transform="translate(-432.566 -218.421)" fill="#ada995"/>
          <path id="Trazado_207621" data-name="Trazado 207621" d="M459.758,218.421" transform="translate(-434.633 -218.421)" fill="#ada995"/>
          <path id="Trazado_207622" data-name="Trazado 207622" d="M462.234,218.421" transform="translate(-436.7 -218.421)" fill="#ada995"/>
          <path id="Trazado_207623" data-name="Trazado 207623" d="M464.711,218.421" transform="translate(-438.767 -218.421)" fill="#ada995"/>
          <path id="Trazado_207624" data-name="Trazado 207624" d="M467.188,218.421" transform="translate(-440.834 -218.421)" fill="#ada995"/>
          <path id="Trazado_207625" data-name="Trazado 207625" d="M469.665,218.421" transform="translate(-442.902 -218.421)" fill="#ada995"/>
          <path id="Trazado_207626" data-name="Trazado 207626" d="M472.142,218.421" transform="translate(-444.969 -218.421)" fill="#ada995"/>
          <path id="Trazado_207627" data-name="Trazado 207627" d="M474.618,218.421" transform="translate(-447.035 -218.421)" fill="#ada995"/>
          <path id="Trazado_207628" data-name="Trazado 207628" d="M477.1,218.421" transform="translate(-449.102 -218.421)" fill="#ada995"/>
          <path id="Trazado_207629" data-name="Trazado 207629" d="M479.572,218.421" transform="translate(-451.17 -218.421)" fill="#ada995"/>
          <path id="Trazado_207630" data-name="Trazado 207630" d="M482.049,218.421" transform="translate(-453.237 -218.421)" fill="#ada995"/>
          <path id="Trazado_207631" data-name="Trazado 207631" d="M484.526,218.421" transform="translate(-455.304 -218.421)" fill="#ada995"/>
          <path id="Trazado_207632" data-name="Trazado 207632" d="M487,218.421" transform="translate(-457.371 -218.421)" fill="#ada995"/>
          <path id="Trazado_207633" data-name="Trazado 207633" d="M489.479,218.421" transform="translate(-459.438 -218.421)" fill="#ada995"/>
          <path id="Trazado_207634" data-name="Trazado 207634" d="M491.956,218.421" transform="translate(-461.505 -218.421)" fill="#ada995"/>
          <path id="Trazado_207635" data-name="Trazado 207635" d="M494.433,218.421" transform="translate(-463.572 -218.421)" fill="#ada995"/>
          <path id="Trazado_207636" data-name="Trazado 207636" d="M496.91,218.421" transform="translate(-465.639 -218.421)" fill="#ada995"/>
          <path id="Trazado_207637" data-name="Trazado 207637" d="M499.387,218.421" transform="translate(-467.707 -218.421)" fill="#ada995"/>
          <path id="Trazado_207638" data-name="Trazado 207638" d="M501.863,218.421" transform="translate(-469.773 -218.421)" fill="#ada995"/>
          <path id="Trazado_207639" data-name="Trazado 207639" d="M504.34,218.421" transform="translate(-471.84 -218.421)" fill="#ada995"/>
          <path id="Trazado_207640" data-name="Trazado 207640" d="M506.817,218.421" transform="translate(-473.908 -218.421)" fill="#ada995"/>
          <path id="Trazado_207641" data-name="Trazado 207641" d="M509.294,218.421" transform="translate(-475.975 -218.421)" fill="#ada995"/>
          <path id="Trazado_207642" data-name="Trazado 207642" d="M511.77,218.421" transform="translate(-478.041 -218.421)" fill="#ada995"/>
          <path id="Trazado_207643" data-name="Trazado 207643" d="M514.247,218.421" transform="translate(-480.108 -218.421)" fill="#ada995"/>
          <path id="Trazado_207644" data-name="Trazado 207644" d="M516.724,218.421" transform="translate(-482.176 -218.421)" fill="#ada995"/>
          <path id="Trazado_207645" data-name="Trazado 207645" d="M519.2,218.421" transform="translate(-484.243 -218.421)" fill="#ada995"/>
          <path id="Trazado_207646" data-name="Trazado 207646" d="M521.678,218.421" transform="translate(-486.31 -218.421)" fill="#ada995"/>
          <path id="Trazado_207647" data-name="Trazado 207647" d="M524.154,218.421" transform="translate(-488.376 -218.421)" fill="#ada995"/>
          <path id="Trazado_207648" data-name="Trazado 207648" d="M526.631,218.421" transform="translate(-490.444 -218.421)" fill="#ada995"/>
          <path id="Trazado_207649" data-name="Trazado 207649" d="M529.108,218.421" transform="translate(-492.511 -218.421)" fill="#ada995"/>
          <path id="Trazado_207650" data-name="Trazado 207650" d="M531.585,218.421" transform="translate(-494.578 -218.421)" fill="#ada995"/>
          <path id="Trazado_207651" data-name="Trazado 207651" d="M534.062,218.421" transform="translate(-496.645 -218.421)" fill="#ada995"/>
          <path id="Trazado_207652" data-name="Trazado 207652" d="M536.539,218.421" transform="translate(-498.713 -218.421)" fill="#ada995"/>
          <path id="Trazado_207653" data-name="Trazado 207653" d="M539.015,218.421" transform="translate(-500.779 -218.421)" fill="#ada995"/>
          <path id="Trazado_207654" data-name="Trazado 207654" d="M541.492,218.421" transform="translate(-502.846 -218.421)" fill="#ada995"/>
          <path id="Trazado_207655" data-name="Trazado 207655" d="M543.969,218.421" transform="translate(-504.914 -218.421)" fill="#ada995"/>
          <path id="Trazado_207656" data-name="Trazado 207656" d="M546.446,218.421" transform="translate(-506.981 -218.421)" fill="#ada995"/>
          <path id="Trazado_207657" data-name="Trazado 207657" d="M548.922,218.421" transform="translate(-509.047 -218.421)" fill="#ada995"/>
          <path id="Trazado_207658" data-name="Trazado 207658" d="M551.4,218.421" transform="translate(-511.114 -218.421)" fill="#ada995"/>
          <path id="Trazado_207659" data-name="Trazado 207659" d="M553.876,218.421" transform="translate(-513.182 -218.421)" fill="#ada995"/>
          <path id="Trazado_207660" data-name="Trazado 207660" d="M553.876,218.421" transform="translate(-513.182 -218.421)" fill="#ada995"/>
        </g>
      </g>
      <g id="Grupo_198324" data-name="Grupo 198324">
        <g id="Grupo_198323" data-name="Grupo 198323" clip-path="url(#clip-path)">
          <path id="Trazado_207662" data-name="Trazado 207662" d="M339.854,211.193H298.869a1.787,1.787,0,1,1,0-3.574h40.985a1.787,1.787,0,0,1,0,3.574" transform="translate(-247.936 -173.273)" fill="#ada995"/>
          <line id="Línea_159" data-name="Línea 159" x2="59.62" transform="translate(32.298 44.669)" fill="#ada995"/>
        </g>
      </g>
      <g id="Grupo_198326" data-name="Grupo 198326" transform="translate(32.298 44.669)">
        <g id="Grupo_198325" data-name="Grupo 198325" clip-path="url(#clip-path-4)">
          <path id="Trazado_207663" data-name="Trazado 207663" d="M380.136,270.022" transform="translate(-349.548 -270.021)" fill="#ada995"/>
          <path id="Trazado_207664" data-name="Trazado 207664" d="M383.739,270.022" transform="translate(-352.555 -270.021)" fill="#ada995"/>
          <path id="Trazado_207665" data-name="Trazado 207665" d="M387.341,270.022" transform="translate(-355.561 -270.021)" fill="#ada995"/>
          <path id="Trazado_207666" data-name="Trazado 207666" d="M390.944,270.022" transform="translate(-358.568 -270.021)" fill="#ada995"/>
          <path id="Trazado_207667" data-name="Trazado 207667" d="M394.547,270.022" transform="translate(-361.575 -270.021)" fill="#ada995"/>
          <path id="Trazado_207668" data-name="Trazado 207668" d="M398.15,270.022" transform="translate(-364.582 -270.021)" fill="#ada995"/>
          <path id="Trazado_207669" data-name="Trazado 207669" d="M401.753,270.022" transform="translate(-367.589 -270.021)" fill="#ada995"/>
          <path id="Trazado_207670" data-name="Trazado 207670" d="M405.356,270.022" transform="translate(-370.596 -270.021)" fill="#ada995"/>
          <path id="Trazado_207671" data-name="Trazado 207671" d="M408.959,270.022" transform="translate(-373.603 -270.021)" fill="#ada995"/>
          <path id="Trazado_207672" data-name="Trazado 207672" d="M412.562,270.022" transform="translate(-376.61 -270.021)" fill="#ada995"/>
          <path id="Trazado_207673" data-name="Trazado 207673" d="M416.165,270.022" transform="translate(-379.617 -270.021)" fill="#ada995"/>
          <path id="Trazado_207674" data-name="Trazado 207674" d="M419.768,270.022" transform="translate(-382.624 -270.021)" fill="#ada995"/>
          <path id="Trazado_207675" data-name="Trazado 207675" d="M423.371,270.022" transform="translate(-385.631 -270.021)" fill="#ada995"/>
          <path id="Trazado_207676" data-name="Trazado 207676" d="M426.974,270.022" transform="translate(-388.638 -270.021)" fill="#ada995"/>
          <path id="Trazado_207677" data-name="Trazado 207677" d="M430.577,270.022" transform="translate(-391.645 -270.021)" fill="#ada995"/>
          <path id="Trazado_207678" data-name="Trazado 207678" d="M434.18,270.022" transform="translate(-394.652 -270.021)" fill="#ada995"/>
          <path id="Trazado_207679" data-name="Trazado 207679" d="M437.783,270.022" transform="translate(-397.659 -270.021)" fill="#ada995"/>
          <path id="Trazado_207680" data-name="Trazado 207680" d="M441.386,270.022" transform="translate(-400.666 -270.021)" fill="#ada995"/>
          <path id="Trazado_207681" data-name="Trazado 207681" d="M444.989,270.022" transform="translate(-403.673 -270.021)" fill="#ada995"/>
          <path id="Trazado_207682" data-name="Trazado 207682" d="M448.592,270.022" transform="translate(-406.68 -270.021)" fill="#ada995"/>
          <path id="Trazado_207683" data-name="Trazado 207683" d="M452.2,270.022" transform="translate(-409.686 -270.021)" fill="#ada995"/>
          <path id="Trazado_207684" data-name="Trazado 207684" d="M455.8,270.022" transform="translate(-412.693 -270.021)" fill="#ada995"/>
          <path id="Trazado_207685" data-name="Trazado 207685" d="M459.4,270.022" transform="translate(-415.7 -270.021)" fill="#ada995"/>
          <path id="Trazado_207686" data-name="Trazado 207686" d="M463,270.022" transform="translate(-418.707 -270.021)" fill="#ada995"/>
          <path id="Trazado_207687" data-name="Trazado 207687" d="M466.607,270.022" transform="translate(-421.714 -270.021)" fill="#ada995"/>
          <path id="Trazado_207688" data-name="Trazado 207688" d="M470.21,270.022" transform="translate(-424.721 -270.021)" fill="#ada995"/>
          <path id="Trazado_207689" data-name="Trazado 207689" d="M473.813,270.022" transform="translate(-427.728 -270.021)" fill="#ada995"/>
          <path id="Trazado_207690" data-name="Trazado 207690" d="M477.415,270.022" transform="translate(-430.734 -270.021)" fill="#ada995"/>
          <path id="Trazado_207691" data-name="Trazado 207691" d="M481.018,270.022" transform="translate(-433.741 -270.021)" fill="#ada995"/>
          <path id="Trazado_207692" data-name="Trazado 207692" d="M484.621,270.022" transform="translate(-436.748 -270.021)" fill="#ada995"/>
          <path id="Trazado_207693" data-name="Trazado 207693" d="M488.224,270.022" transform="translate(-439.755 -270.021)" fill="#ada995"/>
          <path id="Trazado_207694" data-name="Trazado 207694" d="M491.827,270.022" transform="translate(-442.762 -270.021)" fill="#ada995"/>
          <path id="Trazado_207695" data-name="Trazado 207695" d="M495.43,270.022" transform="translate(-445.769 -270.021)" fill="#ada995"/>
          <path id="Trazado_207696" data-name="Trazado 207696" d="M499.033,270.022" transform="translate(-448.776 -270.021)" fill="#ada995"/>
          <path id="Trazado_207697" data-name="Trazado 207697" d="M502.636,270.022" transform="translate(-451.783 -270.021)" fill="#ada995"/>
          <path id="Trazado_207698" data-name="Trazado 207698" d="M506.239,270.022" transform="translate(-454.79 -270.021)" fill="#ada995"/>
          <path id="Trazado_207699" data-name="Trazado 207699" d="M509.842,270.022" transform="translate(-457.797 -270.021)" fill="#ada995"/>
          <path id="Trazado_207700" data-name="Trazado 207700" d="M513.445,270.022" transform="translate(-460.804 -270.021)" fill="#ada995"/>
          <path id="Trazado_207701" data-name="Trazado 207701" d="M517.048,270.022" transform="translate(-463.811 -270.021)" fill="#ada995"/>
          <path id="Trazado_207702" data-name="Trazado 207702" d="M520.651,270.022" transform="translate(-466.818 -270.021)" fill="#ada995"/>
          <path id="Trazado_207703" data-name="Trazado 207703" d="M524.254,270.022" transform="translate(-469.825 -270.021)" fill="#ada995"/>
          <path id="Trazado_207704" data-name="Trazado 207704" d="M527.857,270.022" transform="translate(-472.832 -270.021)" fill="#ada995"/>
          <path id="Trazado_207705" data-name="Trazado 207705" d="M531.46,270.022" transform="translate(-475.839 -270.021)" fill="#ada995"/>
          <path id="Trazado_207706" data-name="Trazado 207706" d="M535.063,270.022" transform="translate(-478.846 -270.021)" fill="#ada995"/>
          <path id="Trazado_207707" data-name="Trazado 207707" d="M538.666,270.022" transform="translate(-481.853 -270.021)" fill="#ada995"/>
          <path id="Trazado_207708" data-name="Trazado 207708" d="M542.269,270.022" transform="translate(-484.86 -270.021)" fill="#ada995"/>
          <path id="Trazado_207709" data-name="Trazado 207709" d="M545.872,270.022" transform="translate(-487.867 -270.021)" fill="#ada995"/>
          <path id="Trazado_207710" data-name="Trazado 207710" d="M549.475,270.022" transform="translate(-490.874 -270.021)" fill="#ada995"/>
          <path id="Trazado_207711" data-name="Trazado 207711" d="M553.078,270.022" transform="translate(-493.88 -270.021)" fill="#ada995"/>
          <path id="Trazado_207712" data-name="Trazado 207712" d="M553.078,270.022" transform="translate(-493.88 -270.021)" fill="#ada995"/>
        </g>
      </g>
      <g id="Grupo_198328" data-name="Grupo 198328">
        <g id="Grupo_198327" data-name="Grupo 198327" clip-path="url(#clip-path)">
          <path id="Trazado_207714" data-name="Trazado 207714" d="M245.841,262.794h-59.62a1.787,1.787,0,1,1,0-3.574h59.62a1.787,1.787,0,0,1,0,3.574" transform="translate(-153.923 -216.337)" fill="#ada995"/>
          <line id="Línea_160" data-name="Línea 160" x2="59.62" transform="translate(32.298 53.206)" fill="#ada995"/>
        </g>
      </g>
      <g id="Grupo_198330" data-name="Grupo 198330" transform="translate(32.298 53.206)">
        <g id="Grupo_198329" data-name="Grupo 198329" clip-path="url(#clip-path-6)">
          <path id="Trazado_207715" data-name="Trazado 207715" d="M380.136,321.622" transform="translate(-349.548 -321.622)" fill="#ada995"/>
          <path id="Trazado_207716" data-name="Trazado 207716" d="M383.739,321.622" transform="translate(-352.555 -321.622)" fill="#ada995"/>
          <path id="Trazado_207717" data-name="Trazado 207717" d="M387.341,321.622" transform="translate(-355.561 -321.622)" fill="#ada995"/>
          <path id="Trazado_207718" data-name="Trazado 207718" d="M390.944,321.622" transform="translate(-358.568 -321.622)" fill="#ada995"/>
          <path id="Trazado_207719" data-name="Trazado 207719" d="M394.547,321.622" transform="translate(-361.575 -321.622)" fill="#ada995"/>
          <path id="Trazado_207720" data-name="Trazado 207720" d="M398.15,321.622" transform="translate(-364.582 -321.622)" fill="#ada995"/>
          <path id="Trazado_207721" data-name="Trazado 207721" d="M401.753,321.622" transform="translate(-367.589 -321.622)" fill="#ada995"/>
          <path id="Trazado_207722" data-name="Trazado 207722" d="M405.356,321.622" transform="translate(-370.596 -321.622)" fill="#ada995"/>
          <path id="Trazado_207723" data-name="Trazado 207723" d="M408.959,321.622" transform="translate(-373.603 -321.622)" fill="#ada995"/>
          <path id="Trazado_207724" data-name="Trazado 207724" d="M412.562,321.622" transform="translate(-376.61 -321.622)" fill="#ada995"/>
          <path id="Trazado_207725" data-name="Trazado 207725" d="M416.165,321.622" transform="translate(-379.617 -321.622)" fill="#ada995"/>
          <path id="Trazado_207726" data-name="Trazado 207726" d="M419.768,321.622" transform="translate(-382.624 -321.622)" fill="#ada995"/>
          <path id="Trazado_207727" data-name="Trazado 207727" d="M423.371,321.622" transform="translate(-385.631 -321.622)" fill="#ada995"/>
          <path id="Trazado_207728" data-name="Trazado 207728" d="M426.974,321.622" transform="translate(-388.638 -321.622)" fill="#ada995"/>
          <path id="Trazado_207729" data-name="Trazado 207729" d="M430.577,321.622" transform="translate(-391.645 -321.622)" fill="#ada995"/>
          <path id="Trazado_207730" data-name="Trazado 207730" d="M434.18,321.622" transform="translate(-394.652 -321.622)" fill="#ada995"/>
          <path id="Trazado_207731" data-name="Trazado 207731" d="M437.783,321.622" transform="translate(-397.659 -321.622)" fill="#ada995"/>
          <path id="Trazado_207732" data-name="Trazado 207732" d="M441.386,321.622" transform="translate(-400.666 -321.622)" fill="#ada995"/>
          <path id="Trazado_207733" data-name="Trazado 207733" d="M444.989,321.622" transform="translate(-403.673 -321.622)" fill="#ada995"/>
          <path id="Trazado_207734" data-name="Trazado 207734" d="M448.592,321.622" transform="translate(-406.68 -321.622)" fill="#ada995"/>
          <path id="Trazado_207735" data-name="Trazado 207735" d="M452.2,321.622" transform="translate(-409.686 -321.622)" fill="#ada995"/>
          <path id="Trazado_207736" data-name="Trazado 207736" d="M455.8,321.622" transform="translate(-412.693 -321.622)" fill="#ada995"/>
          <path id="Trazado_207737" data-name="Trazado 207737" d="M459.4,321.622" transform="translate(-415.7 -321.622)" fill="#ada995"/>
          <path id="Trazado_207738" data-name="Trazado 207738" d="M463,321.622" transform="translate(-418.707 -321.622)" fill="#ada995"/>
          <path id="Trazado_207739" data-name="Trazado 207739" d="M466.607,321.622" transform="translate(-421.714 -321.622)" fill="#ada995"/>
          <path id="Trazado_207740" data-name="Trazado 207740" d="M470.21,321.622" transform="translate(-424.721 -321.622)" fill="#ada995"/>
          <path id="Trazado_207741" data-name="Trazado 207741" d="M473.813,321.622" transform="translate(-427.728 -321.622)" fill="#ada995"/>
          <path id="Trazado_207742" data-name="Trazado 207742" d="M477.415,321.622" transform="translate(-430.734 -321.622)" fill="#ada995"/>
          <path id="Trazado_207743" data-name="Trazado 207743" d="M481.018,321.622" transform="translate(-433.741 -321.622)" fill="#ada995"/>
          <path id="Trazado_207744" data-name="Trazado 207744" d="M484.621,321.622" transform="translate(-436.748 -321.622)" fill="#ada995"/>
          <path id="Trazado_207745" data-name="Trazado 207745" d="M488.224,321.622" transform="translate(-439.755 -321.622)" fill="#ada995"/>
          <path id="Trazado_207746" data-name="Trazado 207746" d="M491.827,321.622" transform="translate(-442.762 -321.622)" fill="#ada995"/>
          <path id="Trazado_207747" data-name="Trazado 207747" d="M495.43,321.622" transform="translate(-445.769 -321.622)" fill="#ada995"/>
          <path id="Trazado_207748" data-name="Trazado 207748" d="M499.033,321.622" transform="translate(-448.776 -321.622)" fill="#ada995"/>
          <path id="Trazado_207749" data-name="Trazado 207749" d="M502.636,321.622" transform="translate(-451.783 -321.622)" fill="#ada995"/>
          <path id="Trazado_207750" data-name="Trazado 207750" d="M506.239,321.622" transform="translate(-454.79 -321.622)" fill="#ada995"/>
          <path id="Trazado_207751" data-name="Trazado 207751" d="M509.842,321.622" transform="translate(-457.797 -321.622)" fill="#ada995"/>
          <path id="Trazado_207752" data-name="Trazado 207752" d="M513.445,321.622" transform="translate(-460.804 -321.622)" fill="#ada995"/>
          <path id="Trazado_207753" data-name="Trazado 207753" d="M517.048,321.622" transform="translate(-463.811 -321.622)" fill="#ada995"/>
          <path id="Trazado_207754" data-name="Trazado 207754" d="M520.651,321.622" transform="translate(-466.818 -321.622)" fill="#ada995"/>
          <path id="Trazado_207755" data-name="Trazado 207755" d="M524.254,321.622" transform="translate(-469.825 -321.622)" fill="#ada995"/>
          <path id="Trazado_207756" data-name="Trazado 207756" d="M527.857,321.622" transform="translate(-472.832 -321.622)" fill="#ada995"/>
          <path id="Trazado_207757" data-name="Trazado 207757" d="M531.46,321.622" transform="translate(-475.839 -321.622)" fill="#ada995"/>
          <path id="Trazado_207758" data-name="Trazado 207758" d="M535.063,321.622" transform="translate(-478.846 -321.622)" fill="#ada995"/>
          <path id="Trazado_207759" data-name="Trazado 207759" d="M538.666,321.622" transform="translate(-481.853 -321.622)" fill="#ada995"/>
          <path id="Trazado_207760" data-name="Trazado 207760" d="M542.269,321.622" transform="translate(-484.86 -321.622)" fill="#ada995"/>
          <path id="Trazado_207761" data-name="Trazado 207761" d="M545.872,321.622" transform="translate(-487.867 -321.622)" fill="#ada995"/>
          <path id="Trazado_207762" data-name="Trazado 207762" d="M549.475,321.622" transform="translate(-490.874 -321.622)" fill="#ada995"/>
          <path id="Trazado_207763" data-name="Trazado 207763" d="M553.078,321.622" transform="translate(-493.88 -321.622)" fill="#ada995"/>
          <path id="Trazado_207764" data-name="Trazado 207764" d="M553.078,321.622" transform="translate(-493.88 -321.622)" fill="#ada995"/>
        </g>
      </g>
      <g id="Grupo_198332" data-name="Grupo 198332">
        <g id="Grupo_198331" data-name="Grupo 198331" clip-path="url(#clip-path)">
          <path id="Trazado_207766" data-name="Trazado 207766" d="M245.841,314.394h-59.62a1.787,1.787,0,0,1,0-3.574h59.62a1.787,1.787,0,0,1,0,3.574" transform="translate(-153.923 -259.401)" fill="#ada995"/>
          <line id="Línea_161" data-name="Línea 161" x2="36.135" transform="translate(32.298 61.742)" fill="#ada995"/>
        </g>
      </g>
      <g id="Grupo_198334" data-name="Grupo 198334" transform="translate(32.298 61.742)">
        <g id="Grupo_198333" data-name="Grupo 198333" clip-path="url(#clip-path-8)">
          <path id="Trazado_207767" data-name="Trazado 207767" d="M307.3,373.222" transform="translate(-288.761 -373.223)" fill="#ada995"/>
          <path id="Trazado_207768" data-name="Trazado 207768" d="M309.484,373.222" transform="translate(-290.584 -373.223)" fill="#ada995"/>
          <path id="Trazado_207769" data-name="Trazado 207769" d="M311.668,373.222" transform="translate(-292.407 -373.223)" fill="#ada995"/>
          <path id="Trazado_207770" data-name="Trazado 207770" d="M313.852,373.222" transform="translate(-294.229 -373.223)" fill="#ada995"/>
          <path id="Trazado_207771" data-name="Trazado 207771" d="M316.035,373.222" transform="translate(-296.051 -373.223)" fill="#ada995"/>
          <path id="Trazado_207772" data-name="Trazado 207772" d="M318.219,373.222" transform="translate(-297.874 -373.223)" fill="#ada995"/>
          <path id="Trazado_207773" data-name="Trazado 207773" d="M320.4,373.222" transform="translate(-299.697 -373.223)" fill="#ada995"/>
          <path id="Trazado_207774" data-name="Trazado 207774" d="M322.586,373.222" transform="translate(-301.519 -373.223)" fill="#ada995"/>
          <path id="Trazado_207775" data-name="Trazado 207775" d="M324.77,373.222" transform="translate(-303.341 -373.223)" fill="#ada995"/>
          <path id="Trazado_207776" data-name="Trazado 207776" d="M326.954,373.222" transform="translate(-305.164 -373.223)" fill="#ada995"/>
          <path id="Trazado_207777" data-name="Trazado 207777" d="M329.137,373.222" transform="translate(-306.986 -373.223)" fill="#ada995"/>
          <path id="Trazado_207778" data-name="Trazado 207778" d="M331.321,373.222" transform="translate(-308.809 -373.223)" fill="#ada995"/>
          <path id="Trazado_207779" data-name="Trazado 207779" d="M333.505,373.222" transform="translate(-310.631 -373.223)" fill="#ada995"/>
          <path id="Trazado_207780" data-name="Trazado 207780" d="M335.689,373.222" transform="translate(-312.454 -373.223)" fill="#ada995"/>
          <path id="Trazado_207781" data-name="Trazado 207781" d="M337.872,373.222" transform="translate(-314.276 -373.223)" fill="#ada995"/>
          <path id="Trazado_207782" data-name="Trazado 207782" d="M340.056,373.222" transform="translate(-316.099 -373.223)" fill="#ada995"/>
          <path id="Trazado_207783" data-name="Trazado 207783" d="M342.24,373.222" transform="translate(-317.921 -373.223)" fill="#ada995"/>
          <path id="Trazado_207784" data-name="Trazado 207784" d="M344.423,373.222" transform="translate(-319.743 -373.223)" fill="#ada995"/>
          <path id="Trazado_207785" data-name="Trazado 207785" d="M346.607,373.222" transform="translate(-321.566 -373.223)" fill="#ada995"/>
          <path id="Trazado_207786" data-name="Trazado 207786" d="M348.791,373.222" transform="translate(-323.389 -373.223)" fill="#ada995"/>
          <path id="Trazado_207787" data-name="Trazado 207787" d="M350.974,373.222" transform="translate(-325.21 -373.223)" fill="#ada995"/>
          <path id="Trazado_207788" data-name="Trazado 207788" d="M353.158,373.222" transform="translate(-327.033 -373.223)" fill="#ada995"/>
          <path id="Trazado_207789" data-name="Trazado 207789" d="M355.342,373.222" transform="translate(-328.856 -373.223)" fill="#ada995"/>
          <path id="Trazado_207790" data-name="Trazado 207790" d="M357.525,373.222" transform="translate(-330.678 -373.223)" fill="#ada995"/>
          <path id="Trazado_207791" data-name="Trazado 207791" d="M359.709,373.222" transform="translate(-332.5 -373.223)" fill="#ada995"/>
          <path id="Trazado_207792" data-name="Trazado 207792" d="M361.893,373.222" transform="translate(-334.323 -373.223)" fill="#ada995"/>
          <path id="Trazado_207793" data-name="Trazado 207793" d="M364.077,373.222" transform="translate(-336.146 -373.223)" fill="#ada995"/>
          <path id="Trazado_207794" data-name="Trazado 207794" d="M366.26,373.222" transform="translate(-337.968 -373.223)" fill="#ada995"/>
          <path id="Trazado_207795" data-name="Trazado 207795" d="M368.444,373.222" transform="translate(-339.79 -373.223)" fill="#ada995"/>
          <path id="Trazado_207796" data-name="Trazado 207796" d="M370.627,373.222" transform="translate(-341.612 -373.223)" fill="#ada995"/>
          <path id="Trazado_207797" data-name="Trazado 207797" d="M372.811,373.222" transform="translate(-343.435 -373.223)" fill="#ada995"/>
          <path id="Trazado_207798" data-name="Trazado 207798" d="M374.995,373.222" transform="translate(-345.258 -373.223)" fill="#ada995"/>
          <path id="Trazado_207799" data-name="Trazado 207799" d="M377.179,373.222" transform="translate(-347.08 -373.223)" fill="#ada995"/>
          <path id="Trazado_207800" data-name="Trazado 207800" d="M379.362,373.222" transform="translate(-348.902 -373.223)" fill="#ada995"/>
          <path id="Trazado_207801" data-name="Trazado 207801" d="M381.546,373.222" transform="translate(-350.725 -373.223)" fill="#ada995"/>
          <path id="Trazado_207802" data-name="Trazado 207802" d="M383.73,373.222" transform="translate(-352.548 -373.223)" fill="#ada995"/>
          <path id="Trazado_207803" data-name="Trazado 207803" d="M385.913,373.222" transform="translate(-354.369 -373.223)" fill="#ada995"/>
          <path id="Trazado_207804" data-name="Trazado 207804" d="M388.1,373.222" transform="translate(-356.192 -373.223)" fill="#ada995"/>
          <path id="Trazado_207805" data-name="Trazado 207805" d="M390.281,373.222" transform="translate(-358.015 -373.223)" fill="#ada995"/>
          <path id="Trazado_207806" data-name="Trazado 207806" d="M392.464,373.222" transform="translate(-359.837 -373.223)" fill="#ada995"/>
          <path id="Trazado_207807" data-name="Trazado 207807" d="M394.648,373.222" transform="translate(-361.659 -373.223)" fill="#ada995"/>
          <path id="Trazado_207808" data-name="Trazado 207808" d="M396.832,373.222" transform="translate(-363.482 -373.223)" fill="#ada995"/>
          <path id="Trazado_207809" data-name="Trazado 207809" d="M399.016,373.222" transform="translate(-365.305 -373.223)" fill="#ada995"/>
          <path id="Trazado_207810" data-name="Trazado 207810" d="M401.2,373.222" transform="translate(-367.127 -373.223)" fill="#ada995"/>
          <path id="Trazado_207811" data-name="Trazado 207811" d="M403.383,373.222" transform="translate(-368.949 -373.223)" fill="#ada995"/>
          <path id="Trazado_207812" data-name="Trazado 207812" d="M405.567,373.222" transform="translate(-370.772 -373.223)" fill="#ada995"/>
          <path id="Trazado_207813" data-name="Trazado 207813" d="M407.75,373.222" transform="translate(-372.594 -373.223)" fill="#ada995"/>
          <path id="Trazado_207814" data-name="Trazado 207814" d="M409.934,373.222" transform="translate(-374.417 -373.223)" fill="#ada995"/>
          <path id="Trazado_207815" data-name="Trazado 207815" d="M412.118,373.222" transform="translate(-376.239 -373.223)" fill="#ada995"/>
          <path id="Trazado_207816" data-name="Trazado 207816" d="M412.118,373.222" transform="translate(-376.239 -373.223)" fill="#ada995"/>
        </g>
      </g>
      <g id="Grupo_198336" data-name="Grupo 198336">
        <g id="Grupo_198335" data-name="Grupo 198335" clip-path="url(#clip-path)">
          <path id="Trazado_207818" data-name="Trazado 207818" d="M222.355,365.995H186.22a1.787,1.787,0,1,1,0-3.574h36.135a1.787,1.787,0,1,1,0,3.574" transform="translate(-153.922 -302.466)" fill="#ada995"/>
          <path id="Trazado_207819" data-name="Trazado 207819" d="M66.987,471.913H7.076A7.076,7.076,0,0,0,0,478.989v5.9a7.076,7.076,0,0,0,7.076,7.076H50.84l8.068,7.372v-7.372h8.078a7.076,7.076,0,0,0,7.076-7.076v-5.9a7.076,7.076,0,0,0-7.076-7.076" transform="translate(0 -393.845)" fill="#4b3c7c"/>
          <path id="Trazado_207820" data-name="Trazado 207820" d="M291.475,528.623a1.558,1.558,0,1,1-1.558-1.558,1.558,1.558,0,0,1,1.558,1.558" transform="translate(-240.657 -439.873)" fill="#d6d0a9"/>
          <path id="Trazado_207821" data-name="Trazado 207821" d="M330.521,528.623a1.558,1.558,0,1,1-1.557-1.558,1.557,1.557,0,0,1,1.557,1.558" transform="translate(-273.243 -439.873)" fill="#d6d0a9"/>
          <path id="Trazado_207822" data-name="Trazado 207822" d="M369.568,528.623a1.558,1.558,0,1,1-1.558-1.558,1.557,1.557,0,0,1,1.558,1.558" transform="translate(-305.831 -439.873)" fill="#d6d0a9"/>
          <line id="Línea_162" data-name="Línea 162" x2="31.637" transform="translate(11.463 88.759)" fill="#d6d0a9"/>
        </g>
      </g>
      <g id="Grupo_198338" data-name="Grupo 198338" transform="translate(11.463 88.759)">
        <g id="Grupo_198337" data-name="Grupo 198337" clip-path="url(#clip-path-10)">
          <path id="Trazado_207823" data-name="Trazado 207823" d="M167.406,536.538" transform="translate(-151.175 -536.539)" fill="#d6d0a9"/>
          <path id="Trazado_207824" data-name="Trazado 207824" d="M169.318,536.538" transform="translate(-152.771 -536.539)" fill="#d6d0a9"/>
          <path id="Trazado_207825" data-name="Trazado 207825" d="M171.23,536.538" transform="translate(-154.366 -536.539)" fill="#d6d0a9"/>
          <path id="Trazado_207826" data-name="Trazado 207826" d="M173.142,536.538" transform="translate(-155.962 -536.539)" fill="#d6d0a9"/>
          <path id="Trazado_207827" data-name="Trazado 207827" d="M175.054,536.538" transform="translate(-157.558 -536.539)" fill="#d6d0a9"/>
          <path id="Trazado_207828" data-name="Trazado 207828" d="M176.966,536.538" transform="translate(-159.153 -536.539)" fill="#d6d0a9"/>
          <path id="Trazado_207829" data-name="Trazado 207829" d="M178.878,536.538" transform="translate(-160.749 -536.539)" fill="#d6d0a9"/>
          <path id="Trazado_207830" data-name="Trazado 207830" d="M180.79,536.538" transform="translate(-162.345 -536.539)" fill="#d6d0a9"/>
          <path id="Trazado_207831" data-name="Trazado 207831" d="M182.7,536.538" transform="translate(-163.941 -536.539)" fill="#d6d0a9"/>
          <path id="Trazado_207832" data-name="Trazado 207832" d="M184.613,536.538" transform="translate(-165.535 -536.539)" fill="#d6d0a9"/>
          <path id="Trazado_207833" data-name="Trazado 207833" d="M186.525,536.538" transform="translate(-167.131 -536.539)" fill="#d6d0a9"/>
          <path id="Trazado_207834" data-name="Trazado 207834" d="M188.437,536.538" transform="translate(-168.727 -536.539)" fill="#d6d0a9"/>
          <path id="Trazado_207835" data-name="Trazado 207835" d="M190.349,536.538" transform="translate(-170.322 -536.539)" fill="#d6d0a9"/>
          <path id="Trazado_207836" data-name="Trazado 207836" d="M192.261,536.538" transform="translate(-171.918 -536.539)" fill="#d6d0a9"/>
          <path id="Trazado_207837" data-name="Trazado 207837" d="M194.173,536.538" transform="translate(-173.514 -536.539)" fill="#d6d0a9"/>
          <path id="Trazado_207838" data-name="Trazado 207838" d="M196.085,536.538" transform="translate(-175.11 -536.539)" fill="#d6d0a9"/>
          <path id="Trazado_207839" data-name="Trazado 207839" d="M198,536.538" transform="translate(-176.705 -536.539)" fill="#d6d0a9"/>
          <path id="Trazado_207840" data-name="Trazado 207840" d="M199.908,536.538" transform="translate(-178.3 -536.539)" fill="#d6d0a9"/>
          <path id="Trazado_207841" data-name="Trazado 207841" d="M201.82,536.538" transform="translate(-179.896 -536.539)" fill="#d6d0a9"/>
          <path id="Trazado_207842" data-name="Trazado 207842" d="M203.732,536.538" transform="translate(-181.492 -536.539)" fill="#d6d0a9"/>
          <path id="Trazado_207843" data-name="Trazado 207843" d="M205.644,536.538" transform="translate(-183.087 -536.539)" fill="#d6d0a9"/>
          <path id="Trazado_207844" data-name="Trazado 207844" d="M207.556,536.538" transform="translate(-184.683 -536.539)" fill="#d6d0a9"/>
          <path id="Trazado_207845" data-name="Trazado 207845" d="M209.468,536.538" transform="translate(-186.279 -536.539)" fill="#d6d0a9"/>
          <path id="Trazado_207846" data-name="Trazado 207846" d="M211.38,536.538" transform="translate(-187.874 -536.539)" fill="#d6d0a9"/>
          <path id="Trazado_207847" data-name="Trazado 207847" d="M213.292,536.538" transform="translate(-189.47 -536.539)" fill="#d6d0a9"/>
          <path id="Trazado_207848" data-name="Trazado 207848" d="M215.2,536.538" transform="translate(-191.065 -536.539)" fill="#d6d0a9"/>
          <path id="Trazado_207849" data-name="Trazado 207849" d="M217.115,536.538" transform="translate(-192.661 -536.539)" fill="#d6d0a9"/>
          <path id="Trazado_207850" data-name="Trazado 207850" d="M219.027,536.538" transform="translate(-194.256 -536.539)" fill="#d6d0a9"/>
          <path id="Trazado_207851" data-name="Trazado 207851" d="M220.939,536.538" transform="translate(-195.852 -536.539)" fill="#d6d0a9"/>
          <path id="Trazado_207852" data-name="Trazado 207852" d="M222.851,536.538" transform="translate(-197.448 -536.539)" fill="#d6d0a9"/>
          <path id="Trazado_207853" data-name="Trazado 207853" d="M224.763,536.538" transform="translate(-199.043 -536.539)" fill="#d6d0a9"/>
          <path id="Trazado_207854" data-name="Trazado 207854" d="M226.675,536.538" transform="translate(-200.639 -536.539)" fill="#d6d0a9"/>
          <path id="Trazado_207855" data-name="Trazado 207855" d="M228.587,536.538" transform="translate(-202.235 -536.539)" fill="#d6d0a9"/>
          <path id="Trazado_207856" data-name="Trazado 207856" d="M230.5,536.538" transform="translate(-203.83 -536.539)" fill="#d6d0a9"/>
          <path id="Trazado_207857" data-name="Trazado 207857" d="M232.41,536.538" transform="translate(-205.425 -536.539)" fill="#d6d0a9"/>
          <path id="Trazado_207858" data-name="Trazado 207858" d="M234.322,536.538" transform="translate(-207.021 -536.539)" fill="#d6d0a9"/>
          <path id="Trazado_207859" data-name="Trazado 207859" d="M236.234,536.538" transform="translate(-208.617 -536.539)" fill="#d6d0a9"/>
          <path id="Trazado_207860" data-name="Trazado 207860" d="M238.146,536.538" transform="translate(-210.212 -536.539)" fill="#d6d0a9"/>
          <path id="Trazado_207861" data-name="Trazado 207861" d="M240.058,536.538" transform="translate(-211.808 -536.539)" fill="#d6d0a9"/>
          <path id="Trazado_207862" data-name="Trazado 207862" d="M241.97,536.538" transform="translate(-213.404 -536.539)" fill="#d6d0a9"/>
          <path id="Trazado_207863" data-name="Trazado 207863" d="M243.881,536.538" transform="translate(-214.999 -536.539)" fill="#d6d0a9"/>
          <path id="Trazado_207864" data-name="Trazado 207864" d="M245.793,536.538" transform="translate(-216.594 -536.539)" fill="#d6d0a9"/>
          <path id="Trazado_207865" data-name="Trazado 207865" d="M247.705,536.538" transform="translate(-218.19 -536.539)" fill="#d6d0a9"/>
          <path id="Trazado_207866" data-name="Trazado 207866" d="M249.617,536.538" transform="translate(-219.786 -536.539)" fill="#d6d0a9"/>
          <path id="Trazado_207867" data-name="Trazado 207867" d="M251.529,536.538" transform="translate(-221.382 -536.539)" fill="#d6d0a9"/>
          <path id="Trazado_207868" data-name="Trazado 207868" d="M253.441,536.538" transform="translate(-222.977 -536.539)" fill="#d6d0a9"/>
          <path id="Trazado_207869" data-name="Trazado 207869" d="M255.353,536.538" transform="translate(-224.573 -536.539)" fill="#d6d0a9"/>
          <path id="Trazado_207870" data-name="Trazado 207870" d="M257.265,536.538" transform="translate(-226.169 -536.539)" fill="#d6d0a9"/>
          <path id="Trazado_207871" data-name="Trazado 207871" d="M259.177,536.538" transform="translate(-227.764 -536.539)" fill="#d6d0a9"/>
          <path id="Trazado_207872" data-name="Trazado 207872" d="M259.177,536.538" transform="translate(-227.764 -536.539)" fill="#d6d0a9"/>
        </g>
      </g>
      <g id="Grupo_198340" data-name="Grupo 198340">
        <g id="Grupo_198339" data-name="Grupo 198339" clip-path="url(#clip-path)">
          <path id="Trazado_207874" data-name="Trazado 207874" d="M93.035,530.21H61.4a1.565,1.565,0,0,1,0-3.129H93.035a1.565,1.565,0,0,1,0,3.129" transform="translate(-49.936 -439.886)" fill="#d6d0a9"/>
          <path id="Trazado_207875" data-name="Trazado 207875" d="M477.636,1398.335c0-6.751-39.4-12.223-88.013-12.223s-88.012,5.472-88.012,12.223,39.4,12.223,88.012,12.223,88.013-5.472,88.013-12.223" transform="translate(-251.716 -1156.809)" fill="#d6d0a9"/>
          <path id="Trazado_207876" data-name="Trazado 207876" d="M373.383,1267.372l-1.9,28.51a.352.352,0,0,0,.269.367,7.056,7.056,0,0,0,1.632.152,4.519,4.519,0,0,0,1.674-.231.349.349,0,0,0,.2-.245l6.412-27.708Z" transform="translate(-310.028 -1057.712)" fill="#ada995"/>
          <path id="Trazado_207877" data-name="Trazado 207877" d="M629.831,1333.335l2.747,36.925a.455.455,0,0,0,.243.372,5.028,5.028,0,0,0,2.254.37,4.354,4.354,0,0,0,2.279-.451.451.451,0,0,0,.209-.349c.235-2.919,3.005-37.4,2.785-37.4s-10.516.537-10.516.537" transform="translate(-525.639 -1112.314)" fill="#ada995"/>
          <path id="Trazado_207878" data-name="Trazado 207878" d="M719.313,1332.445c0,.075.7,8.3.811,9.383a.221.221,0,0,0,.172.194,7.9,7.9,0,0,0,1.68.154,9.391,9.391,0,0,0,1.69-.158.22.22,0,0,0,.179-.212l.111-9.525Z" transform="translate(-600.318 -1111.883)" fill="#ada995"/>
          <path id="Trazado_207879" data-name="Trazado 207879" d="M1001.359,1279.709c.051.2,9.458,27.548,10.131,29.505a.278.278,0,0,0,.153.166,5.843,5.843,0,0,0,2.278.368,5.2,5.2,0,0,0,2.138-.3.279.279,0,0,0,.151-.3l-6.2-32.109Z" transform="translate(-835.705 -1065.777)" fill="#ada995"/>
          <path id="Trazado_207880" data-name="Trazado 207880" d="M262.239,827.181c-2.371-5.1-8.067-16.168-9.914-39.17-1.688-21.013-1.515-28.368-1.45-29.777.359-7.8,5.721-9.424,7.463-9.734,30.75-5.476,68.215-2.087,68.215-2.087,7.132.228,11.966,5.049,14.888,8.3,3.117,3.472,6.893,9.251,7.9,10.072,3.031,2.478,15.407,3.129,36.174,4.756,5.219.409,8.7.386,11.961,1.887,4.569,2.1,4.628,6.663,4.873,8.744,1.709,14.521-3.763,40.078-8.093,49.257a10.771,10.771,0,0,1-5.448,4.389c-22.8,6.343-42.044,9.325-67.132,12.349-1.494.18-6.9.591-9.646-.036-20.616-4.716-32.452-9.164-43.474-12.91a11.1,11.1,0,0,1-6.312-6.042" transform="translate(-209.341 -622.069)" fill="#ada995"/>
          <path id="Trazado_207881" data-name="Trazado 207881" d="M404.577,879.335c-.088-.747-.57-4.16-.713-4.686a7.5,7.5,0,0,0-4.055-4.372c-3.261-1.5-6.742-1.478-11.961-1.887-20.14-1.578-32.388-2.238-35.874-4.537,0,.044.005.089.008.133a18.367,18.367,0,0,0,6.087,3.288c5.6,1.856,11.306,1.647,19.375,2.645,8,.99,11.522,1.454,13.684,4.459,1.475,2.051,1.47,4.573,1.17,7.133,0,.03-.006.061-.009.092-.389,1.785-.6,3.686-.9,5.523-2.132,13.216-4.945,25.876-5.406,26.128-16.441,9-39.052,10.043-56.727,9.552a6.676,6.676,0,0,1-4.5-1.976c-3.34-3.366-6.421-11.031-10.328-19.686-2.448-5.422-5.17-14.443-9.113-19.7-1.821-2.426-6.246-3.354-10.73-3.765-6.487-.594-9.383-1.064-19.71-1.542-6.138-.284-18.846-1.323-21.354-3.738.224,3.94.553,8.8,1.033,14.769,1.847,23,7.543,34.075,9.914,39.171a11.1,11.1,0,0,0,6.311,6.042c11.022,3.746,22.858,8.194,43.474,12.91,2.741.627,8.152.216,9.646.036,25.088-3.025,44.329-6.007,67.132-12.35a10.771,10.771,0,0,0,5.448-4.389c4.33-9.178,9.8-34.736,8.093-49.257" transform="translate(-211.585 -720.947)" fill="#d6d0a9"/>
          <path id="Trazado_207882" data-name="Trazado 207882" d="M845.3,659.818c-2.483,1.646-3.335,4.243-3.937,6.171A29.306,29.306,0,0,0,840.1,677.6c.156,1.344,2.341,18.745,10.859,28.451a4.752,4.752,0,0,0,3.8,1.832,3.5,3.5,0,0,0,2.32-1.279c2.242-2.453,1.621-7.144.449-12.759-1.952-9.351-2.964-9.447-4.181-16.66-.971-5.758-1.457-8.637-1.411-11.018.074-3.825.718-6.211-.7-7.3-1.514-1.169-4.376-.081-5.943.958" transform="translate(-701 -549.444)" fill="#ec7d40"/>
          <path id="Trazado_207883" data-name="Trazado 207883" d="M838.529,684.818a73.339,73.339,0,0,1-1.518-8.173,30.492,30.492,0,0,1,1.287-11.893c.58-1.856,1.456-4.66,4.12-6.426a9.027,9.027,0,0,1,4.478-1.536,3.066,3.066,0,0,1,1.922.58c1.212.936,1.11,2.569.955,5.04-.049.778-.1,1.66-.123,2.623-.046,2.381.445,5.295,1.425,11.1.211,1.251.427,2.354.659,3.37l.052.227-.2.123a40.659,40.659,0,0,1-12.676,5.208l-.31.064Z" transform="translate(-698.418 -548.138)" fill="#4b3c7c"/>
          <path id="Trazado_207884" data-name="Trazado 207884" d="M795.7,1589.291c0-5.513-25.906-9.983-57.863-9.983s-57.863,4.469-57.863,9.983,25.906,9.983,57.863,9.983,57.863-4.47,57.863-9.983" transform="translate(-567.486 -1318.045)" fill="#d6d0a9"/>
          <path id="Trazado_207885" data-name="Trazado 207885" d="M818.269,1369.3c-2.156,7.026-3.637,10.193-5.4,12.108-8.3,9,1.055,12.268,3.636,13.172,3.264,1.143,9.192-1.512,10.393-2.982.593-.725.3-1.437.258-5.68-.009-.925,1.789-7.527,4.663-16.619Z" transform="translate(-675.587 -1142.78)" fill="#d1652f"/>
          <path id="Trazado_207886" data-name="Trazado 207886" d="M790.538,1441.483c.505.308-1.083,1.989.207,4.358a7.315,7.315,0,0,0,2.66,2.413,8.314,8.314,0,0,0,6.391-.164c1.908-.742,3.057-1.485,5.042-1.812a1.7,1.7,0,0,1,1.038.109c1.031.5,1.147,2.2,1.2,2.84a36.185,36.185,0,0,0,1.638,7.155c.562,1.752,1.988,6.2,5.189,7.319a10.683,10.683,0,0,1,3.277,1.365,6.1,6.1,0,0,1,1.857,1.8c.207.325,1.464,2.375.655,3.988-.391.78-1.141,1.212-2.512,1.693a21.318,21.318,0,0,1-6.991,1.2c-3.221-.061-6.124-.116-9.285-1.529-1.705-.762-4.395-4.091-8.684-8.426-6.545-6.616-8.562-9.38-9-10.613-.132-.371-1.239-2.447,1.244-6.032a23.828,23.828,0,0,1,4-4.686c.585-.572,1.582-1.284,2.076-.983" transform="translate(-653.352 -1202.96)" fill="#1e1735"/>
          <path id="Trazado_207887" data-name="Trazado 207887" d="M850.845,1423.343c2.924,6.046,5.4,8.129,6.662,13.324,2.061,8.476-.844,8.561,1.538,12.3a12.39,12.39,0,0,0,9.4,5.3c1.37.094,1.271-.162,11.274-4.612.513-.228,1.575-.7,1.708-1.537.207-1.3-1.966-2.628-2.392-2.9-4.574-2.969-8.382-12.139-10.606-18.352a59.7,59.7,0,0,1-1.7-5.792H849.558c.722,1.3,1.2,2.09,1.287,2.278" transform="translate(-709.016 -1185.979)" fill="#f79556"/>
          <path id="Trazado_207888" data-name="Trazado 207888" d="M623.224,1057.847s5.611-.293,16.569-.962c31.683-1.935,45.593-4.387,48.744-5.148,1.181-.285,7.454-1.881,9.8,1.206a4.021,4.021,0,0,1,.8,2.472c-.058,2.776-1.255,9.3-2.111,11.018-1.97,3.953-7.427,6.049-14.511,8.037-17.2,4.829-38.762,5.33-44.316,4.686a10.55,10.55,0,0,1-3.978-1.146c-4.447-3.3-10.99-20.162-10.99-20.162" transform="translate(-520.125 -877.193)" fill="#ada995"/>
          <path id="Trazado_207889" data-name="Trazado 207889" d="M559.85,986.763a50.239,50.239,0,0,0-1.026-7.688,10.584,10.584,0,0,0-4.925-5.994c-4.042-2.181-7.6-2.265-12.393-2.453-5.186-.2-10.323-1.076-15.491-1.549-10.842-.992-27.707-5.751-32.454-1.74-4.844,4.092-5.67,14.918-2.916,20.781,1.713,3.646,5.929,6.019,7.015,6.438,8.327,3.216,21.1,1.49,33.261,1.759,1.922.043,3.6.084,5.108.1-.353,4.37.4,9.587,1.5,15.162a96.6,96.6,0,0,0,6.308,19.648l7.235,18.333a47.257,47.257,0,0,0,11.714-1.955,45.452,45.452,0,0,0,5.595-2.4s-8.221-53.831-8.533-58.447" transform="translate(-408.172 -805.992)" fill="#1e1735"/>
          <path id="Trazado_207890" data-name="Trazado 207890" d="M677.808,967.205c-9.669-4.03-33.557-4.526-46.849-2.421-8.7,1.378-19.9,3.068-21.2,9.084-1.045,4.839,4.013,9.666,5.147,10.749,1.971,1.881,5.506,4.511,33.307,6.964a65.285,65.285,0,0,0,7.51.363c-.063.477-.119.946-.167,1.4-.29,2.767-.324,13.828-.792,21.422a110.379,110.379,0,0,1-2.383,12.732c-.325,1.165-.635,2.221-.93,3.184H665c2.928-9.266,6.974-21.116,11.362-32.177.465-1.171,4.025-11.6,6.046-17.983.267-.843,2.81-10.229-4.6-13.318" transform="translate(-508.773 -804.161)" fill="#1e1735"/>
          <path id="Trazado_207891" data-name="Trazado 207891" d="M828.53,1039.1c-.877-4.639-1.629-9.3-2.353-13.958s-1.389-9.33-2.074-13.991c-.171-1.165-.344-2.33-.529-3.49q-.135-.872-.284-1.737c-.1-.575-.206-1.153-.331-1.708a8.518,8.518,0,0,0-.534-1.587,10.28,10.28,0,0,0-.808-1.482,9.828,9.828,0,0,0-1.046-1.327q-.289-.309-.6-.594t-.655-.538c-.225-.172-.461-.329-.7-.481l-.181-.112-.184-.107c-.124-.071-.252-.14-.378-.21-.509-.275-1.031-.523-1.563-.749A17.9,17.9,0,0,0,812.988,996q-.854-.185-1.725-.308c-.58-.084-1.164-.148-1.749-.21s-1.172-.111-1.76-.159l-1.764-.149c.59-.007,1.18-.007,1.771-.007s1.181.012,1.772.03a29.05,29.05,0,0,1,3.548.305,18.274,18.274,0,0,1,3.475.9,16.932,16.932,0,0,1,1.656.712c.134.068.269.133.4.2l.2.108.2.113c.265.154.524.317.774.5a10.419,10.419,0,0,1,2.581,2.607,10.581,10.581,0,0,1,.917,1.6q.195.419.352.855c.052.146.1.29.148.442l.066.229.056.223c.146.593.254,1.175.364,1.76s.208,1.167.3,1.751c.191,1.167.369,2.335.543,3.5.685,4.671,1.284,9.349,1.855,14.032s1.1,9.369,1.552,14.068" transform="translate(-672.656 -830.534)" fill="#4b3c7c"/>
          <path id="Trazado_207892" data-name="Trazado 207892" d="M315.827,989.707c-2.542-3.557-7.545-8.494-12.447-19.841-3.628-8.4-6.78-24.832-7.821-35.317-.113-1.135-.87-5.165-2.369-7.249-2.2-3.054-5.774-3.526-13.906-4.532-8.2-1.014-14-.8-19.689-2.688a18.661,18.661,0,0,1-6.186-3.341c.224,3.91.551,8.72,1.023,14.6,1.848,23,7.543,34.075,9.914,39.171a11.1,11.1,0,0,0,6.312,6.042c11.022,3.746,22.858,8.194,43.474,12.91a12.521,12.521,0,0,0,1.7.244" transform="translate(-211.487 -765.085)" fill="#ada995"/>
          <path id="Trazado_207893" data-name="Trazado 207893" d="M573.616,607.283a2.61,2.61,0,0,1-.274,1.073c-1.017,2.034-3.365,7.656-5.7,18.268a17.463,17.463,0,0,1-2.027,5.8c-1.775,2.8-3.549,3.385-5.306,4.725-7.052,5.379-11.093,13.344-12.232,14.972-6.627,9.481-24.432,10.588-38.364,6.518-1.7-.5-3.864-1.595-3.279-4.832,4.441-24.545,9.944-52.243,19.941-60.141a17,17,0,0,1,7.524-2.931,86.711,86.711,0,0,1,18.378.431c9.814,1.468,14.337,4.071,17,5.777a29.667,29.667,0,0,1,4.611,4.543Z" transform="translate(-422.573 -492.763)" fill="#4b3c7c"/>
          <path id="Trazado_207894" data-name="Trazado 207894" d="M949.056,623.04a15.581,15.581,0,0,0,.707,4.033,14.231,14.231,0,0,0,.915,2.7c.514,1.12.771,1.68,1.247,1.954,1.2.692,3.235-.259,4.366-1.455,1.641-1.735,1.516-4.128,1.455-5.28-.153-2.926-1.621-7.455-4.075-7.609-2.115-.133-4.456,3.015-4.615,5.655" transform="translate(-792.048 -515.248)" fill="#ec7d40"/>
          <path id="Trazado_207895" data-name="Trazado 207895" d="M908.481,657.08c-.784,2-.086,2.942-.393,6.574-.8,9.435-8.024,16.8-10.424,26.69-1.083,4.462.223,10.642,3.592,12.07a4.66,4.66,0,0,0,3.042.1c1.344-.374,3.883-1.662,6.084-8.537,1.622-5.07,1.282-7.623,2.06-18.153.438-5.924.657-8.886,1.079-11.579,1.061-6.754,1.863-10.437,2.19-11.805a.737.737,0,0,0-.424-.755c-1.388-.9-5.365,1.715-6.807,5.4" transform="translate(-748.854 -543.727)" fill="#ec7d40"/>
          <path id="Trazado_207896" data-name="Trazado 207896" d="M825.112,537.008a17.3,17.3,0,0,0-2.781,7.684,16.645,16.645,0,0,0,.732,6.659,14.563,14.563,0,0,0,4.537,7.172c.823.655,2.3,1.8,4.034,1.551a3.855,3.855,0,0,0,1.352-.48c2.533-1.368,4.185-3.64,5.5-3.969a.876.876,0,0,1,.567.064c.712.357,1.365,1.537,2.645,1.2a1.151,1.151,0,0,0,.762-.654,31.649,31.649,0,0,0,1.844-5.406,5.8,5.8,0,0,1,1.6-2.49c2.475-2.789,3.954-2.514,6.236-5.015,1.129-1.237,2.52-2.762,2.355-4.579-.193-2.12-2.4-3.5-3.532-4.187-6.421-3.9-20.239-5.32-25.842,2.447" transform="translate(-686.232 -443.493)" fill="#d1652f"/>
          <path id="Trazado_207897" data-name="Trazado 207897" d="M907.5,624.694a1.649,1.649,0,0,1-.226.334,2.328,2.328,0,0,1-.291.285,2.485,2.485,0,0,1-.725.411,2.459,2.459,0,0,1-.851.148c-.073,0-.146,0-.219-.01l-.109-.011-.1-.015a3.4,3.4,0,0,1-.411-.092,2.856,2.856,0,0,1-.78-.362,2.518,2.518,0,0,1-1-1.332,2.519,2.519,0,0,1-.093-.394,2.118,2.118,0,0,1-.026-.4c.179.2.336.4.505.573a4.274,4.274,0,0,0,.51.47,3.42,3.42,0,0,0,1.145.579c.1.032.212.058.32.083l.082.018.077.015c.051.009.1.019.155.025a3.091,3.091,0,0,0,.643.017,5.079,5.079,0,0,0,1.4-.343" transform="translate(-753.333 -520.151)" fill="#1d1d1b"/>
          <path id="Trazado_207898" data-name="Trazado 207898" d="M912.126,613.048a8.126,8.126,0,0,1-1.079-.358c-.336-.134-.658-.275-.972-.422a6.88,6.88,0,0,1-.9-.507c-.144-.1-.292-.191-.44-.285s-.3-.178-.459-.254a15.5,15.5,0,0,0-4.046-1.342l.007-.129a11.2,11.2,0,0,1,2.222.037q.557.064,1.11.181c.368.08.732.18,1.092.295s.728.22,1.087.355a3.923,3.923,0,0,1,1,.548,5.21,5.21,0,0,1,.838.787,3.774,3.774,0,0,1,.625,1Z" transform="translate(-754.642 -508.848)" fill="#1d1d1b"/>
          <path id="Trazado_207899" data-name="Trazado 207899" d="M764.231,547.1a13.968,13.968,0,0,1-4.147,2.578,7.652,7.652,0,0,1-6.3-.246c-4.522-2.171-5.621-7.218-5.73-7.661-.249-1.015-.718-3.386.41-5.025a7.3,7.3,0,0,1,2.027-1.854c7.606-4.418,7.851-9.27,12.4-11.5,4.043-1.982,8.739.315,10.964,4.314,3.1,5.568-3.955,12.7-9.618,19.393" transform="translate(-624.042 -436.203)" fill="#d1652f"/>
          <path id="Trazado_207900" data-name="Trazado 207900" d="M836.148,457.8a21.456,21.456,0,0,1-20.353-3.412c-1.048-.793-2.421-1.462-3.287-3.555a7.949,7.949,0,0,1-.365-5.483c.522-2.5,1.978-3.759,3.323-5.663a14.185,14.185,0,0,1,4.668-4.205,13.718,13.718,0,0,1,5.114-1.735,19.821,19.821,0,0,1,8.417.145,19.17,19.17,0,0,1,5.717,2.215,16.357,16.357,0,0,1,5.022,5.387,15.622,15.622,0,0,1,2.348,6.69,24.683,24.683,0,0,1,.091,5.388c-.118,1.5-.32,2.483-1,2.831-.575.292-1.017-1.42-9.689,1.4" transform="translate(-677.52 -361.681)" fill="#1e1735"/>
          <path id="Trazado_207901" data-name="Trazado 207901" d="M772.888,531.451a.414.414,0,0,0,0-.827.414.414,0,0,0,0,.827" transform="translate(-644.696 -442.843)" fill="#1e1735"/>
          <path id="Trazado_207902" data-name="Trazado 207902" d="M743.927,496.334c-2.727,7.547,8.979,14.415,13.654,5.073s-9.276-17.192-13.654-5.073" transform="translate(-620.52 -409.059)" fill="#1e1735"/>
          <path id="Trazado_207903" data-name="Trazado 207903" d="M818.7,547.453c-.694,1.113-1.007,1.644-1.668,1.822a1.839,1.839,0,0,1-1.565-.308c-.416-.324-.6-.811-.744-1.95a10.344,10.344,0,0,1,.077-4.336,4.432,4.432,0,0,1,1.991-3.1,2.586,2.586,0,0,1,2.962.539c1.576,1.382.916,3.916.77,4.413-.1.33-.072.117-1.822,2.925" transform="translate(-679.788 -450.096)" fill="#d1652f"/>
          <path id="Trazado_207904" data-name="Trazado 207904" d="M821.82,599.71a30.635,30.635,0,0,0-.056,4.22,20,20,0,0,0,.65,4.115,17.93,17.93,0,0,0,1.51,3.879,14.011,14.011,0,0,0,1.124,1.762c.209.281.435.548.666.814s.482.514.737.763a9.177,9.177,0,0,1-.854-.643,10.528,10.528,0,0,1-.777-.742,11.257,11.257,0,0,1-1.315-1.708,14.747,14.747,0,0,1-1.708-3.955,15.2,15.2,0,0,1-.558-4.27,17.025,17.025,0,0,1,.149-2.141,14.027,14.027,0,0,1,.433-2.093" transform="translate(-685.381 -500.501)" fill="#1d1d1b"/>
          <path id="Trazado_207905" data-name="Trazado 207905" d="M1045.346,976.413q.17.075.335.164c.055.03.111.059.163.092l.154.1c.1.072.207.141.3.222s.188.163.281.247a5.811,5.811,0,0,1,.93,1.17,5.975,5.975,0,0,1,.6,1.364c.02.059.034.119.049.18s.031.12.044.181c.027.121.048.244.067.366a3.442,3.442,0,0,1,.032.746c-.231-.442-.441-.866-.663-1.283s-.444-.824-.681-1.223-.493-.784-.759-1.169-.562-.752-.853-1.161" transform="translate(-872.415 -814.886)" fill="#d1652f"/>
          <path id="Trazado_207906" data-name="Trazado 207906" d="M1052.076,966.064a4.652,4.652,0,0,1,1.013.7,6,6,0,0,1,.827.906,5.324,5.324,0,0,1,.615,1.07,4.074,4.074,0,0,1,.318,1.191c-.265-.323-.488-.651-.717-.97s-.453-.632-.682-.946l-.7-.944c-.116-.16-.232-.321-.346-.487s-.227-.334-.33-.517" transform="translate(-878.032 -806.249)" fill="#d1652f"/>
          <path id="Trazado_207907" data-name="Trazado 207907" d="M1057.771,956.951c-.185-.173-.338-.333-.492-.5s-.3-.335-.433-.509-.27-.353-.4-.542a4,4,0,0,1-.347-.619,1.987,1.987,0,0,1,.642.341,2.9,2.9,0,0,1,.505.5,2.831,2.831,0,0,1,.37.611,2.143,2.143,0,0,1,.116.346,1.227,1.227,0,0,1,.036.372" transform="translate(-881.392 -796.832)" fill="#d1652f"/>
          <path id="Trazado_207908" data-name="Trazado 207908" d="M869.094,568.165a.377.377,0,0,1-.239.064,2.388,2.388,0,0,1-.248-.027,4.748,4.748,0,0,0-.484-.047,5.4,5.4,0,0,0-.963.044,13.034,13.034,0,0,0-1.891.407c-.623.176-1.238.381-1.849.6-.305.109-.609.224-.913.338s-.605.235-.907.357l-.452.182-.45.188c-.3.123-.6.254-.9.381-.607.264-1.233.507-1.864.721s-1.276.4-1.925.563-1.309.283-1.972.383a20.054,20.054,0,0,1-4.013.187l-.251-.013-.251-.021c-.167-.015-.334-.027-.5-.045-.333-.039-.666-.077-1-.134s-.659-.116-.988-.18c-.164-.034-.326-.076-.489-.114s-.325-.076-.486-.123l-.483-.134c-.16-.048-.318-.1-.477-.151-.319-.1-.63-.217-.943-.33-.156-.058-.309-.124-.463-.186s-.309-.121-.459-.193c-.3-.139-.607-.27-.9-.424l-.443-.225-.434-.241c-.291-.158-.572-.333-.852-.506-.141-.085-.278-.177-.415-.269l-.411-.275c-.136-.093-.267-.194-.4-.29s-.265-.2-.4-.294c.295.147.582.3.875.45l.441.216c.146.072.292.145.442.21.3.132.591.274.894.395l.449.19.455.174c.3.122.609.223.913.331.152.056.307.1.461.15s.307.1.462.144c.312.083.619.181.933.253.156.038.312.078.469.114l.471.1c.157.036.315.064.473.092s.315.059.474.083c.317.046.633.1.952.131s.637.062.956.091c.159.012.319.018.479.028l.239.013.24.005c.639.02,1.279.007,1.917-.033.16-.012.319-.016.478-.032l.478-.043c.318-.037.635-.072.951-.122a24.362,24.362,0,0,0,3.745-.853c.615-.188,1.218-.4,1.824-.633s1.236-.461,1.863-.67,1.257-.408,1.9-.581,1.285-.328,1.939-.446a11.171,11.171,0,0,1,1.987-.2,5.491,5.491,0,0,1,1,.086,4.845,4.845,0,0,1,.483.123c.079.023.156.048.235.063a.357.357,0,0,0,.235-.022" transform="translate(-700.192 -473.966)" fill="#1e1735"/>
          <path id="Trazado_207909" data-name="Trazado 207909" d="M804.142,445.852c0-.174,0-.35,0-.526l.017-.263.008-.132c0-.044.01-.087.015-.131l.034-.263c.01-.088.031-.174.046-.261s.031-.175.052-.261l.063-.259c.02-.087.045-.172.071-.257l.078-.255.089-.251.045-.126.049-.124.1-.248.106-.243c.069-.164.147-.322.22-.483.3-.636.629-1.253.924-1.874l.216-.47c.076-.161.149-.323.231-.483.157-.321.33-.635.515-.944s.385-.609.6-.9.436-.575.672-.847a17.556,17.556,0,0,1,1.5-1.531c.13-.121.263-.238.4-.355s.276-.235.417-.349q.427-.341.883-.644c.306-.2.62-.385.942-.554s.649-.325.979-.468.665-.27,1-.393l.5-.18c.166-.058.328-.117.5-.172l.508-.166c.169-.056.342-.1.513-.152.341-.1.688-.186,1.034-.272.7-.156,1.4-.289,2.1-.377a18.942,18.942,0,0,1,2.132-.15c.178,0,.357,0,.535,0s.357.008.535.02q.534.025,1.068.092c.7.092,1.393.2,2.084.341s1.376.3,2.049.509c.336.106.67.217,1,.344a7.056,7.056,0,0,1,.953.448,8.152,8.152,0,0,0-1-.3c-.337-.083-.677-.152-1.018-.214q-1.025-.179-2.059-.286c-.688-.074-1.38-.126-2.069-.167a17.2,17.2,0,0,0-2.044.023c-.17.014-.34.024-.51.041s-.34.033-.509.055l-.508.065-.506.078q-1.009.174-2,.427c-.328.094-.659.175-.984.281-.163.052-.327.1-.488.154l-.484.167c-.16.054-.325.114-.488.172l-.485.178q-.482.18-.947.379t-.91.429c-.3.153-.583.324-.865.5s-.553.371-.818.574c-.132.1-.26.207-.391.316s-.264.22-.392.333a19.054,19.054,0,0,0-1.475,1.406,13.04,13.04,0,0,0-1.262,1.579c-.187.282-.371.566-.54.863-.087.146-.168.3-.25.447l-.255.464c-.349.617-.725,1.206-1.079,1.8-.086.149-.177.3-.259.448l-.125.226-.119.228-.06.114-.055.116-.111.232-.1.236c-.035.079-.069.157-.1.238l-.092.241c-.031.081-.053.163-.081.245s-.056.164-.076.247l-.065.251c-.011.042-.023.084-.033.126l-.027.127-.053.255c-.018.085-.027.172-.041.258Z" transform="translate(-671.112 -359.271)" fill="#1e1735"/>
          <path id="Trazado_207910" data-name="Trazado 207910" d="M960.542,573.338c.156-.708.551-.787.825-1.237.331-.543.148-.988.082-3.218-.058-1.952.057-2.61-.385-2.86a1.215,1.215,0,0,0-1.045.11,1.967,1.967,0,0,0-.982,1.43,14.027,14.027,0,0,0-.256,3.448,20.422,20.422,0,0,0-2.824-2.219,1.684,1.684,0,0,0-1.714.091,1.625,1.625,0,0,0-.66,1.072c-.05.4.228.646.11.77-.146.153-.526-.215-1.072-.11a1.29,1.29,0,0,0-.715.44,1.685,1.685,0,0,0-.33,1.21,3.263,3.263,0,0,0,.715,1.787c.561.8.725.631,1.375,1.43.6.732.421.827,1.485,2.53.319.511.51.782.44.852-.154.154-1.392-.847-1.567-.99a24.856,24.856,0,0,1-2.365-2.035,1.425,1.425,0,0,0-.8-.495,1.223,1.223,0,0,0-.852.192,1.375,1.375,0,0,0-.522.99,2.606,2.606,0,0,0,.715,1.843,12.739,12.739,0,0,0,1.567,1.512,8.236,8.236,0,0,1,1.678,1.98c.244.441.266.613.687,1.375a4.847,4.847,0,0,0,.8,1.21,1.733,1.733,0,0,0,3.025-.385c.442-.662.23-.831.66-1.622.5-.92.825-1.133.943-1.834a6.924,6.924,0,0,0-.008-1.745c-.086-.609.1-.612.467-2.141a8.768,8.768,0,0,0,.495-2.42,3.242,3.242,0,0,1,.028-.962" transform="translate(-792.408 -472.315)" fill="#f79556"/>
          <path id="Trazado_207911" data-name="Trazado 207911" d="M977.125,596.214a8.205,8.205,0,0,1,.865.585c.275.209.538.43.795.658a15.733,15.733,0,0,1,1.439,1.468,9.943,9.943,0,0,1,.643.826,5.572,5.572,0,0,1,.524.936,6.154,6.154,0,0,1,.346,1,4.7,4.7,0,0,1,.146,1.044c-.38-.593-.728-1.16-1.11-1.7-.191-.271-.381-.519-.59-.769s-.427-.5-.644-.755c-.436-.509-.867-1.032-1.274-1.576a14.709,14.709,0,0,1-1.139-1.721" transform="translate(-815.48 -497.583)" fill="#d1652f"/>
          <path id="Trazado_207912" data-name="Trazado 207912" d="M907.394,779.474a41.517,41.517,0,0,1-1.871,4.486c-.695,1.461-1.427,2.9-2.143,4.339s-1.418,2.883-2.064,4.352-1.236,2.963-1.774,4.493a24,24,0,0,1,1.209-4.718,41.342,41.342,0,0,1,1.937-4.472c.723-1.452,1.5-2.868,2.3-4.274s1.6-2.8,2.41-4.207" transform="translate(-750.731 -650.526)" fill="#d1652f"/>
          <path id="Trazado_207913" data-name="Trazado 207913" d="M381.573,960.428c-2.448-5.422-5.17-14.443-9.113-19.7-1.821-2.426-6.246-3.354-10.73-3.765-6.487-.594-9.383-1.064-19.71-1.542-2.081-.1-4.918-.28-7.856-.573q-.077,1.258-.078,2.536a41.043,41.043,0,0,0,54.848,38.625c-2.3-3.953-4.627-9.526-7.362-15.584" transform="translate(-278.819 -780.199)" fill="#d6d0a9"/>
          <path id="Trazado_207914" data-name="Trazado 207914" d="M368.231,987.066a175.055,175.055,0,0,1-5.34-28.165c-.113-1.135-.87-5.165-2.369-7.249-2.2-3.054-5.774-3.526-13.906-4.532-4.858-.6-8.873-.771-12.522-1.2,0,.235-.007.47-.007.705a41.028,41.028,0,0,0,34.144,40.443" transform="translate(-278.819 -789.436)" fill="#ada995"/>
          <path id="Trazado_207915" data-name="Trazado 207915" d="M609.013,608.314c-3.238.817-4.793,4.006-5.315,5.079a13.12,13.12,0,0,0-1.181,6.614,51.483,51.483,0,0,0,2.716,14.579c4.646,17.6,8.649,29.3,13.7,34.844,1.215,1.333,2.647,2.665,4.252,2.48,3.257-.374,4.839-6.715,5.079-7.677a13.815,13.815,0,0,0,.236-8.032c-1.144-4.287-2.04-5.669-3.9-11.812a70.862,70.862,0,0,1-2.362-11.811c-.828-6.082-.224-3.794-.945-8.319-.952-5.975-1.939-12.178-6.5-14.883a7.943,7.943,0,0,0-5.788-1.063" transform="translate(-502.816 -507.522)" fill="#f79556"/>
          <path id="Trazado_207916" data-name="Trazado 207916" d="M608.375,647.953h0c-.248,0-.5,0-.744-.012l-.229-.008-.068-.219c-1.221-3.9-2.527-8.5-3.994-14.057-.005-.019-.033-.1-.063-.184a54.037,54.037,0,0,1-2.672-14.5,13.435,13.435,0,0,1,1.217-6.792c.532-1.091,2.149-4.41,5.542-5.265a6.694,6.694,0,0,1,1.636-.2,8.65,8.65,0,0,1,4.412,1.3c4.7,2.79,5.7,9.074,6.669,15.151a29.508,29.508,0,0,1,.436,3.595c.042.751.1,1.686.513,4.755a70.88,70.88,0,0,0,2.358,11.795l.131.432-.239.124c-3.6,1.864-9.111,4.085-14.9,4.085" transform="translate(-501.218 -506.347)" fill="#4b3c7c"/>
          <path id="Trazado_207917" data-name="Trazado 207917" d="M613.256,754.268a44.69,44.69,0,0,1-2-4.869q-.867-2.477-1.554-5.007l-.336-1.266c-.105-.424-.215-.846-.316-1.271s-.2-.849-.294-1.274l-.07-.319-.018-.08-.009-.04c0-.012-.006-.022-.009-.032-.013-.042-.025-.083-.037-.128q-.092-.319-.18-.639-.343-1.282-.562-2.588c-.071-.435-.134-.871-.183-1.309s-.089-.877-.107-1.318c.16.412.309.825.458,1.236l.447,1.23c.3.817.6,1.629.914,2.431q.117.3.239.6c.023.058.046.121.069.182l.016.045.012.039.024.078.1.313c.131.418.253.837.378,1.254l.364,1.255.351,1.258q.688,2.52,1.28,5.066c.2.85.383,1.7.557,2.559.087.429.171.858.249,1.29s.155.864.216,1.3" transform="translate(-507.073 -612.681)" fill="#1e1735"/>
          <path id="Trazado_207918" data-name="Trazado 207918" d="M709.625,661.7c.231.55.434,1.111.616,1.679s.347,1.142.5,1.718c.3,1.154.554,2.318.79,3.48l.173.874c.056.292.108.586.159.881.1.588.192,1.188.248,1.8.029.305.046.6.068.889s.05.576.081.866c.059.579.128,1.162.2,1.745l.439,3.512.218,1.753q.056.438.115.875c.037.292.077.583.118.874q.24,1.748.542,3.49c.049.291.1.582.153.872l.078.437.081.436.08.437.084.437.08.439c.029.146.055.292.081.439a36.856,36.856,0,0,1-2.179-6.805q-.2-.873-.359-1.752c-.113-.585-.209-1.172-.306-1.758s-.18-1.173-.269-1.759-.164-1.177-.239-1.767-.138-1.185-.19-1.784c-.024-.3-.046-.6-.061-.9l-.039-.883c-.026-.569-.09-1.143-.153-1.727l-.207-1.755c-.276-2.353-.515-4.688-.9-7.037" transform="translate(-592.232 -552.236)" fill="#1e1735"/>
          <path id="Trazado_207919" data-name="Trazado 207919" d="M818.478,728.289l-.52,2.09-.509,2.086q-.5,2.086-.969,4.174l-.464,2.09-.451,2.092-.221,1.047-.109.52-.1.527c-.072.356-.154.713-.241,1.071s-.184.715-.3,1.069a14.585,14.585,0,0,1-.82,2.087l-.127.253-.137.249c-.047.083-.089.167-.14.248l-.149.243c-.1.165-.207.315-.311.471-.053.077-.1.156-.16.231l-.171.225a10.615,10.615,0,0,1-1.552,1.652A13.548,13.548,0,0,1,809.2,752c-.307.189-.617.369-.916.553-.152.091-.3.186-.444.28s-.288.19-.433.291c-.579.406-1.15.825-1.708,1.265-1.122.872-2.2,1.812-3.268,2.775.43-.576.881-1.139,1.358-1.681.236-.273.482-.537.727-.8s.5-.521.759-.775q.774-.762,1.609-1.464c.139-.117.285-.234.43-.348s.293-.224.441-.329c.3-.216.589-.421.88-.625.143-.1.289-.2.427-.308l.209-.155.2-.159c.138-.1.265-.216.4-.323l.19-.169c.063-.057.128-.111.187-.171a10.345,10.345,0,0,0,1.323-1.529l.147-.208c.049-.07.094-.143.14-.214.091-.143.191-.285.271-.431l.127-.217c.043-.072.079-.148.119-.222l.117-.224.109-.23a13.677,13.677,0,0,0,.735-1.913c.105-.328.2-.663.284-1s.163-.678.24-1.023l.116-.524c.04-.181.081-.355.123-.53.083-.35.162-.7.252-1.049.174-.7.35-1.395.539-2.088.1-.347.188-.694.287-1.04s.2-.691.3-1.036c.412-1.378.857-2.747,1.348-4.1s1.027-2.689,1.641-3.991" transform="translate(-669.69 -607.809)" fill="#1e1735"/>
          <path id="Trazado_207920" data-name="Trazado 207920" d="M829.067,1510a28.648,28.648,0,0,1-4.858.777q-1.222.091-2.444.061-.3-.013-.609-.021l-.608-.034c-.409-.026-.816-.058-1.219-.1s-.8-.094-1.2-.159-.792-.14-1.183-.231a14.913,14.913,0,0,1-6.362-3.2c-.624-.509-1.219-1.063-1.809-1.626q-.441-.424-.877-.858c-.286-.29-.575-.578-.858-.874-1.131-1.181-2.229-2.4-3.312-3.638-2.158-2.48-4.245-5.028-6.327-7.592a89.573,89.573,0,0,0,5.742,8.079c.517.646,1.035,1.292,1.573,1.922s1.083,1.256,1.645,1.868q.42.46.856.909t.878.884c.593.585,1.208,1.154,1.857,1.692a17.468,17.468,0,0,0,2.067,1.478,14.464,14.464,0,0,0,2.295,1.121,16.145,16.145,0,0,0,4.955,1.008c.419.023.834.036,1.249.042l.627.005q.314-.005.627-.015a24.874,24.874,0,0,0,2.492-.228,22.25,22.25,0,0,0,4.8-1.269" transform="translate(-665.486 -1245.604)" fill="#ada995"/>
          <path id="Trazado_207921" data-name="Trazado 207921" d="M891.973,1551.417c2.233-.17,1.9-3.231,5.923-5.782,2.692-1.707,4.183-1.277,4.567-1.144a3.771,3.771,0,0,1,1.746,1.389,40.254,40.254,0,0,0,8.76,7.81c3.084,2.006,4.626,3.009,6.481,3.408a4.356,4.356,0,0,1,2.6,1.266,3.553,3.553,0,0,1-.065,4.586c-2.236,2.214-6.888,4.246-13.211,4.217a36.36,36.36,0,0,1-8.828-.943c-4.051-.963-5.493-2.3-11.264-4.478-5.227-1.968-9.08-1.937-10.348-4.491-.286-.576-.424-1.757-.3-4.109.25-4.966.775-6.662,1.385-8.2s1.62-3.093,2.122-2.927c.373.123.219.838.346,2.018.341,3.171,8.085,7.537,10.093,7.384" transform="translate(-732.74 -1286.911)" fill="#1e1735"/>
          <path id="Trazado_207922" data-name="Trazado 207922" d="M928.485,1622.739a23.349,23.349,0,0,1-4.784,2.36,27.966,27.966,0,0,1-5.206,1.293c-.221.034-.443.062-.665.093l-.333.045-.333.038c-.223.025-.444.051-.668.073l-.338.029-.338.023c-.9.058-1.8.058-2.7.031s-1.792-.1-2.683-.194-1.778-.228-2.66-.381c-.221-.036-.44-.08-.66-.122l-.33-.064c-.109-.02-.224-.048-.335-.072l-.169-.037-.166-.042-.331-.084c-.218-.062-.438-.12-.652-.187-.862-.266-1.7-.562-2.539-.875-1.667-.626-3.308-1.3-4.943-1.98l-2.443-1.029c-.815-.328-1.643-.644-2.468-.964s-1.652-.642-2.474-.974q-.616-.249-1.231-.5c-.408-.176-.817-.347-1.218-.537q.635.2,1.271.389l1.273.38,2.546.764c.848.26,1.694.521,2.54.807.43.146.838.3,1.256.452l1.247.457,2.49.918c.83.3,1.658.608,2.49.9s1.662.575,2.5.818c.208.065.417.117.625.177l.312.078.156.039.156.033c.1.022.2.047.314.066l.323.061c.215.041.43.082.646.118q1.292.232,2.6.386t2.611.23c.871.047,1.744.063,2.612.039l.325-.011.324-.018c.217-.013.436-.033.654-.048l.328-.024.327-.031c.218-.022.436-.04.654-.065a32.043,32.043,0,0,0,5.159-.971,29.327,29.327,0,0,0,4.936-1.881" transform="translate(-740.948 -1350.902)" fill="#fff"/>
          <path id="Trazado_207923" data-name="Trazado 207923" d="M832.1,947.955l-35.522,5.068c-1,.015-.963,1.451-.078,1.642l24.889,5.682a3.452,3.452,0,0,0,2.274.12l36.711-7.416c.494-.133.552-1.521.054-1.641l-26.35-3.4a4.813,4.813,0,0,0-1.979-.059" transform="translate(-664.177 -791.073)" fill="#f24dc3"/>
          <path id="Trazado_207924" data-name="Trazado 207924" d="M838.148,943.355l-35.521,5.068a.494.494,0,0,0-.078.953l24.889,5.543a4.814,4.814,0,0,0,2.86.109l36.125-7.351a.494.494,0,0,0-.013-.958l-26.283-3.3a4.813,4.813,0,0,0-1.979-.059" transform="translate(-669.509 -787.234)" fill="#4b3c7c"/>
          <path id="Trazado_207925" data-name="Trazado 207925" d="M713.232,903.117c.834-.126,1.418-.2,5.87.583,3.883.679,4.435.839,5.742,1.029a32.878,32.878,0,0,0,7.849.266c9.682-.55,14.446-.639,16.848-.3a3.458,3.458,0,0,1,1.531.449c1.748,1.2,1.875,4.831.182,6.44-.494.469-.831.594-3.256,1.015-3.718.645-8.492,2.279-11.364,2.991-4.032,1-21.523,4.521-27.007,2.329-3.115-1.245-3.491-7.116-1.714-10.474,1.035-1.955,2.728-3.941,5.318-4.332" transform="translate(-589.918 -753.65)" fill="#f79556"/>
          <path id="Trazado_207926" data-name="Trazado 207926" d="M996.136,754.2l-36.254,1.381a2.083,2.083,0,0,0-1.964,1.662l-10.334,40.33c-.251,1.247,1.266,1.378,1.784,1.238l37.013-6.838a2.083,2.083,0,0,0,1.46-1.437l9.8-34.717c.242-.6.194-1.745-1.5-1.619" transform="translate(-790.803 -629.426)" fill="#1e1735"/>
          <path id="Trazado_207927" data-name="Trazado 207927" d="M1003.677,759.83l-36.454,1.388a2.094,2.094,0,0,0-1.974,1.671L955.11,802.962a.725.725,0,0,0,.9.846l37.072-6.8a2.094,2.094,0,0,0,1.468-1.445l9.852-34.811a.725.725,0,0,0-.724-.925" transform="translate(-797.094 -634.132)" fill="#f24dc3"/>
        </g>
      </g>
    </g>
  </g>
</svg>
