<svg xmlns="http://www.w3.org/2000/svg" xmlns:xlink="http://www.w3.org/1999/xlink" width="93.089" height="93.09" viewBox="0 0 93.089 93.09">
  <defs>
    <clipPath id="clip-path">
      <path id="Trazado_189538" data-name="Trazado 189538" d="M1.623,46.545A44.922,44.922,0,1,1,46.545,91.467,44.974,44.974,0,0,1,1.623,46.545M46.545,0A46.545,46.545,0,1,0,93.089,46.545,46.6,46.6,0,0,0,46.545,0Z" fill="#4e1993"/>
    </clipPath>
    <clipPath id="clip-path-2">
      <rect id="Rect치ngulo_60618" data-name="Rect치ngulo 60618" width="51.381" height="47.332" fill="#4e1993" stroke="#4e1993" stroke-width="1"/>
    </clipPath>
  </defs>
  <g id="Grupo_209897" data-name="Grupo 209897" transform="translate(-390.217 -3727.216)">
    <g id="Grupo_172088" data-name="Grupo 172088" transform="translate(390.217 3727.216)">
      <g id="Grupo_172087" data-name="Grupo 172087" clip-path="url(#clip-path)">
        <rect id="Rect치ngulo_49153" data-name="Rect치ngulo 49153" width="115.5" height="115.501" transform="translate(-25.109 7.353) rotate(-16.323)" fill="#4e1993"/>
      </g>
    </g>
    <g id="Grupo_199770" data-name="Grupo 199770" transform="translate(409.742 3750.036)">
      <g id="Grupo_199770-2" data-name="Grupo 199770" clip-path="url(#clip-path-2)">
        <path id="Trazado_208696" data-name="Trazado 208696" d="M.358,20.091a2.662,2.662,0,0,0,2.561,1.6c1.689-.012,3.378,0,5.067,0,.167,0,.335-.006.5.006.49.034.595.163.475.639-.212.843-.483,1.67-.729,2.5a2.765,2.765,0,0,0-.1.335c-.089.551-.351.873-.966.845a.507.507,0,0,0-.564.516.574.574,0,0,0,.484.611,2.52,2.52,0,0,0,.747.061q3.913,0,7.826,0c.838,0,.836.018,1.167.8a9.477,9.477,0,0,0,7.254,5.914c.049.01.1.016.148.024.747.134.8.193.8.936,0,1.221.016,2.441,0,3.661a14.86,14.86,0,0,0,.131,1.9,2.515,2.515,0,0,0,2.5,2.107c1.806.019,3.612,0,5.418.006.986,0,1.015.036.731.991-.272.913-.533,1.83-.81,2.742a.693.693,0,0,1-.714.573,1.072,1.072,0,0,0-.394.068.532.532,0,0,0-.377.485.55.55,0,0,0,.349.557,1.64,1.64,0,0,0,.69.1q5.619,0,11.237,0a1.37,1.37,0,0,0,.638-.1.567.567,0,0,0,.34-.613.511.511,0,0,0-.451-.468,1.75,1.75,0,0,0-.349-.034.625.625,0,0,1-.648-.514c-.3-1.027-.614-2.05-.907-3.079-.155-.545-.029-.7.552-.7,1.823-.014,3.645,0,5.468-.006a2.626,2.626,0,0,0,2.79-2.8c0-1.17,0-2.341,0-3.511,0-.117,0-.234-.007-.351-.038-.457-.269-.724-.613-.713-.324.01-.551.267-.578.7-.033.517,0,1.036-.015,1.555-.016.589-.116.685-.718.7-.117,0-.234,0-.351,0H27.422c-1.072,0-1.079-.008-1.08-1.1,0-.736,0-1.471,0-2.207.005-.671.065-.761.707-.862a9.407,9.407,0,0,0,5.008-2.364,9.212,9.212,0,0,0,3.11-6.573c.021-.451,0-.9.007-1.354a.515.515,0,0,1,.589-.579c.15,0,.3,0,.451,0H47.9c.167,0,.335,0,.5.008a1.517,1.517,0,0,1,1.6,1.666c.015,2.307,0,4.615.006,6.922a2.038,2.038,0,0,0,.053.647.566.566,0,0,0,1.1.006,1.957,1.957,0,0,0,.056-.647q0-3.436,0-6.872a2.727,2.727,0,0,0-2.906-2.936c-1.488-.021-2.976,0-4.465,0q-4.089,0-8.177,0c-.786,0-.813-.032-1.1-.746a10.045,10.045,0,0,0-1.826-2.978,1.257,1.257,0,0,0-.386-.314.544.544,0,0,0-.689.1.533.533,0,0,0-.088.648,2.655,2.655,0,0,0,.413.565A8.3,8.3,0,0,1,20.859,31.293a8.13,8.13,0,0,1-3.46-6.732,8.3,8.3,0,0,1,5.368-7.791,8.381,8.381,0,0,1,5.75-.037,3.973,3.973,0,0,0,.474.161.553.553,0,0,0,.7-.342.572.572,0,0,0-.262-.735,1.879,1.879,0,0,0-.41-.186,10.486,10.486,0,0,0-1.742-.468c-.92-.16-.931-.171-.931-1.131,0-3.026-.006-6.052,0-9.079A13.1,13.1,0,0,0,26.214,3.2a2.614,2.614,0,0,0-2.421-2.174,5,5,0,0,0-.5-.015q-10.058,0-20.116,0a3.39,3.39,0,0,0-1.6.335A2.584,2.584,0,0,0,.322,2.73C.254,2.9.266,3.144,0,3.176V6.587c.266.305.532.606,1,.423s.511-.559.5-.984c-.012-.7,0-1.4,0-2.106A1.335,1.335,0,0,1,3.034,2.387q9.9,0,19.806,0c.217,0,.435,0,.652,0a1.3,1.3,0,0,1,1.436,1.424c.013,1.688,0,3.376,0,5.064,0,1.872-.006,3.744.006,5.615,0,.3-.053.416-.391.457a9.438,9.438,0,0,0-4.792,1.977.887.887,0,0,1-.6.188q-8.625-.006-17.249,0c-.327,0-.416-.083-.414-.412.015-2.206,0-4.412.012-6.618,0-.435-.066-.822-.526-.97S.223,9.222,0,9.6V19.73c.244,0,.279.206.358.361M41.708,46.71c-2.454-.01-4.908-.005-7.415-.005.381-1.282.756-2.523,1.114-3.769.057-.2.169-.215.331-.215,1.6,0,3.208.008,4.812-.006.241,0,.318.106.374.3q.493,1.677.992,3.353c.055.187.107.344-.209.343M26.817,39.482c1.655.017,3.311.008,4.966.008h6.371c3.746,0,7.491.009,11.237-.012.453,0,.521.154.477.539a1.284,1.284,0,0,1-1.2,1.192c-.1.008-.2.007-.3.007q-10.208,0-20.417,0a1.312,1.312,0,0,1-1.514-1.345c-.015-.307.07-.392.383-.389M16.135,22.747a24.846,24.846,0,0,0-.069,2.9c.02.285-.229.181-.368.182-1,.009-2,0-3.007,0-.986,0-1.971-.012-2.956.007-.324.006-.359-.1-.276-.376.334-1.1.665-2.2.978-3.3.074-.262.2-.322.458-.32,1.42.012,2.84.006,4.259.006.781,0,1.016.137.981.9M1.816,18.613a.735.735,0,0,0,.1,0h16.09c-.314.51-.6.921-.828,1.364a.582.582,0,0,1-.612.369c-2.157-.014-4.314-.008-6.471-.008-2.408,0-4.815,0-7.223,0A1.3,1.3,0,0,1,1.5,18.906c0-.254.092-.324.319-.293" transform="translate(0 -0.879)" fill="#4e1993" stroke="#4e1993" stroke-width="1"/>
        <path id="Trazado_208697" data-name="Trazado 208697" d="M.114,18.993a2.785,2.785,0,0,0,2.918,1.973c1.84,0,3.679.008,5.518-.007.353,0,.417.065.3.412-.3.935-.584,1.879-.829,2.83-.133.516-.283.869-.94.773-.391-.057-.643.246-.68.65a.679.679,0,0,0,.547.784,2.408,2.408,0,0,0,.6.048q4.239,0,8.478,0c.251,0,.413.024.52.313a9.491,9.491,0,0,0,7.936,6.479c.4.063.46.212.457.56-.014,1.672-.012,3.344,0,5.016a2.781,2.781,0,0,0,3.027,3.022c1.839,0,3.679.01,5.518-.007.349,0,.42.081.316.409-.3.937-.6,1.875-.843,2.826-.134.518-.278.871-.935.776-.4-.057-.648.264-.69.651a.694.694,0,0,0,.551.787,1.846,1.846,0,0,0,.5.043q5.769,0,11.539,0a2.555,2.555,0,0,0,.4-.012.73.73,0,0,0,.654-.807c-.042-.428-.3-.718-.721-.668-.587.071-.757-.214-.885-.707-.286-1.092-.624-2.17-.953-3.293h.608c1.89,0,3.78.018,5.669-.012a2.717,2.717,0,0,0,2.677-2.65c.03-1.421.014-2.842.006-4.264a.753.753,0,1,0-1.5,0c-.01.568-.029,1.139.007,1.7.025.4-.1.489-.488.488q-9.181-.02-18.362-.009c-1.388,0-2.776-.012-4.164.009-.356.005-.441-.1-.432-.445.024-.969.027-1.94,0-2.909-.011-.366.087-.488.457-.505a5.952,5.952,0,0,0,1.13-.208,9.651,9.651,0,0,0,7.3-10.168c-.032-.392.051-.5.461-.5,4.181.016,8.361.009,12.542.01,1.08,0,1.551.477,1.551,1.562q0,3.411,0,6.822c0,.1,0,.2,0,.3,0,.659.279,1.025.767,1.014.473-.011.737-.363.737-.994q0-3.562,0-7.123A2.814,2.814,0,0,0,48.3,20.884q-6.422,0-12.843.008c-.366,0-.539-.075-.667-.458a9.12,9.12,0,0,0-2.069-3.392.778.778,0,0,0-1.147-.164c-.36.314-.344.743.044,1.187.033.038.069.073.1.111a7.981,7.981,0,0,1,2,6.867,8.16,8.16,0,1,1-4.99-8.95c.551.206.977.078,1.143-.344.174-.442-.032-.815-.576-1.046a8.237,8.237,0,0,0-2.462-.631c-.376-.035-.408-.187-.4-.5.014-1.371.006-2.742.006-4.113,0-2.174.011-4.347,0-6.521A2.767,2.767,0,0,0,23.614.008q-10.385-.017-20.77,0A2.727,2.727,0,0,0,.314,1.519,6.87,6.87,0,0,0,0,2.3c.267-.033.254-.275.322-.446A2.584,2.584,0,0,1,1.572.472a3.391,3.391,0,0,1,1.6-.335q10.058,0,20.116,0a5,5,0,0,1,.5.015,2.613,2.613,0,0,1,2.421,2.174,13.051,13.051,0,0,1,.133,1.748c-.011,3.026-.005,6.052,0,9.079,0,.96.011.971.931,1.131a10.483,10.483,0,0,1,1.742.468,1.885,1.885,0,0,1,.41.186.572.572,0,0,1,.262.735.553.553,0,0,1-.7.342,3.982,3.982,0,0,1-.474-.161,8.38,8.38,0,0,0-5.75.037A8.3,8.3,0,0,0,17.4,23.683a8.13,8.13,0,0,0,3.46,6.732A8.3,8.3,0,0,0,32,18.279a2.66,2.66,0,0,1-.413-.565.533.533,0,0,1,.088-.648.544.544,0,0,1,.689-.1,1.256,1.256,0,0,1,.386.314,10.046,10.046,0,0,1,1.826,2.978c.291.714.318.745,1.1.746q4.089,0,8.177,0c1.488,0,2.977-.016,4.465,0a2.727,2.727,0,0,1,2.906,2.936q.007,3.436,0,6.872a1.957,1.957,0,0,1-.056.647.566.566,0,0,1-1.1-.006,2.038,2.038,0,0,1-.053-.647c0-2.307.009-4.615-.006-6.922a1.517,1.517,0,0,0-1.6-1.666c-.167-.01-.334-.008-.5-.008H36.216c-.15,0-.3.005-.451,0a.514.514,0,0,0-.589.579c0,.451.014.9-.007,1.354a9.212,9.212,0,0,1-3.11,6.573,9.408,9.408,0,0,1-5.009,2.364c-.642.1-.7.191-.707.862-.006.736,0,1.471,0,2.207,0,1.089.008,1.1,1.08,1.1H48.943c.117,0,.234,0,.351,0,.6-.02.7-.115.718-.7.014-.518-.018-1.037.015-1.555.027-.431.254-.687.578-.7.344-.011.575.256.613.713.01.117.007.234.007.351,0,1.17,0,2.341,0,3.511a2.626,2.626,0,0,1-2.79,2.8c-1.823,0-3.645-.008-5.468.006-.581,0-.708.16-.552.7.293,1.029.609,2.051.907,3.079a.624.624,0,0,0,.648.514,1.75,1.75,0,0,1,.349.034.511.511,0,0,1,.451.468.567.567,0,0,1-.34.613,1.368,1.368,0,0,1-.638.1q-5.619,0-11.237,0a1.642,1.642,0,0,1-.689-.1.55.55,0,0,1-.35-.557.532.532,0,0,1,.377-.485,1.072,1.072,0,0,1,.394-.068A.693.693,0,0,0,33,45.412c.277-.912.538-1.828.81-2.742.284-.955.255-.99-.731-.991-1.806,0-3.612.013-5.418-.006a2.515,2.515,0,0,1-2.505-2.107,14.909,14.909,0,0,1-.131-1.9c.02-1.22.009-2.441,0-3.662,0-.743-.057-.8-.8-.936-.049-.009-.1-.015-.148-.025a9.477,9.477,0,0,1-7.254-5.914c-.331-.784-.328-.8-1.167-.8q-3.913,0-7.826,0a2.521,2.521,0,0,1-.747-.061.574.574,0,0,1-.484-.611.507.507,0,0,1,.564-.516c.615.028.877-.294.966-.845a2.772,2.772,0,0,1,.1-.335c.246-.834.517-1.661.729-2.5.12-.476.015-.6-.475-.639-.167-.012-.334-.006-.5-.006-1.689,0-3.378-.009-5.067,0a2.662,2.662,0,0,1-2.561-1.6c-.079-.156-.115-.365-.358-.361.08.014.089.079.114.141" transform="translate(0 -0.001)" fill="#4e1993" stroke="#4e1993" stroke-width="1"/>
        <path id="Trazado_208698" data-name="Trazado 208698" d="M59.275,222.847a2.246,2.246,0,0,0-2.616-.3,2.346,2.346,0,0,0-1.259,2.367,7.276,7.276,0,0,0,.26.952c-1.2,0-2.363-.018-3.526.01-.4.01-.536-.071-.527-.506.03-1.537.02-3.075.009-4.613a2.357,2.357,0,0,0-2.352-2.416,2.32,2.32,0,0,0-2.383,2.372q-.028,3.761,0,7.521a2.315,2.315,0,0,0,2.39,2.364c.919.009,1.839,0,2.758,0h3.584c.059.2-.062.325-.107.462a2.372,2.372,0,0,0,.929,2.733,2.281,2.281,0,0,0,2.869-.2c1.3-1.249,2.584-2.522,3.827-3.83a2.247,2.247,0,0,0,.006-3.063c-1.254-1.321-2.549-2.6-3.864-3.864m2.667,6.012q-1.777,1.8-3.581,3.579a.833.833,0,0,1-1.214.008.867.867,0,0,1,.021-1.255c.227-.245.466-.479.709-.709a.777.777,0,0,0-.57-1.383q-2.005,0-4.01,0c-1.3,0-2.607,0-3.91,0-.7,0-1-.3-1-1.01q-.008-3.609,0-7.218c0-.649.313-1.013.844-1.019.551-.006.885.376.886,1.036,0,1.838,0,3.676,0,5.514,0,.713.253.971.957.972,2.056,0,4.111,0,6.166,0a.792.792,0,0,0,.581-1.439,9.467,9.467,0,0,1-.7-.714.846.846,0,0,1,.019-1.176.805.805,0,0,1,1.172-.05q1.866,1.819,3.687,3.685a.814.814,0,0,1-.053,1.176" transform="translate(-40.583 -189.068)" fill="#4e1993" stroke="#4e1993" stroke-width="1"/>
        <path id="Trazado_208699" data-name="Trazado 208699" d="M224.992,19.934c-1.922-.014-3.844,0-5.766,0H218.6c-.062-.2.06-.325.1-.462a2.391,2.391,0,0,0-.927-2.737,2.313,2.313,0,0,0-2.911.228c-1.272,1.232-2.53,2.482-3.756,3.76a2.277,2.277,0,0,0-.009,3.141q1.855,1.937,3.8,3.789a2.163,2.163,0,0,0,2.422.433,2.275,2.275,0,0,0,1.492-1.963,3.071,3.071,0,0,0-.27-1.454c1.208,0,2.372.018,3.535-.01.4-.01.536.07.527.505-.03,1.57-.028,3.142,0,4.712a2.345,2.345,0,0,0,2.346,2.316,2.3,2.3,0,0,0,2.376-2.272q.044-3.86,0-7.72a2.284,2.284,0,0,0-2.331-2.263m.743,10.284a.812.812,0,0,1-.967.441.858.858,0,0,1-.669-.933q0-2.481,0-4.962c0-1.579-.024-1.6-1.58-1.6h-2.456c-1.036,0-2.072.007-3.108,0a.784.784,0,0,0-.581,1.415,9.826,9.826,0,0,1,.7.713.852.852,0,0,1-.014,1.214.825.825,0,0,1-1.212-.009q-1.806-1.774-3.58-3.579a.835.835,0,0,1,.014-1.251q1.761-1.784,3.546-3.543a.839.839,0,0,1,1.248-.015.863.863,0,0,1-.015,1.219,8.565,8.565,0,0,1-.636.639.847.847,0,0,0-.321,1.018c.169.394.527.46.92.459q3.559-.008,7.118,0c1.635,0,1.688.053,1.688,1.683q0,3.208,0,6.416a1.337,1.337,0,0,1-.1.685" transform="translate(-182.257 -14.134)" fill="#4e1993" stroke="#4e1993" stroke-width="1"/>
        <path id="Trazado_208700" data-name="Trazado 208700" d="M188.091,135.2a.755.755,0,1,0-1.052-1.068q-1.162,1.141-2.3,2.3a.759.759,0,0,0,0,1.185c.76.775,1.533,1.537,2.3,2.306a.815.815,0,0,0,.621.273.708.708,0,0,0,.665-.447.731.731,0,0,0-.2-.865c-.541-.545-1.078-1.1-1.633-1.626-.192-.184-.183-.289.006-.469.544-.518,1.074-1.052,1.6-1.591" transform="translate(-159.717 -115.894)" fill="#4e1993" stroke="#4e1993" stroke-width="1"/>
        <path id="Trazado_208701" data-name="Trazado 208701" d="M170.665,171.988a.768.768,0,0,0-1.151-.07c-.325.337-.294.74.1,1.145.515.525,1.028,1.051,1.563,1.556.213.2.193.313-.008.505-.557.529-1.1,1.078-1.633,1.627a.719.719,0,0,0-.163.872.728.728,0,0,0,.628.431.875.875,0,0,0,.661-.3c.756-.756,1.518-1.506,2.267-2.269a.774.774,0,0,0,0-1.224q-1.124-1.143-2.268-2.267" transform="translate(-146.593 -148.67)" fill="#4e1993" stroke="#4e1993" stroke-width="1"/>
      </g>
    </g>
  </g>
</svg>
