<svg xmlns="http://www.w3.org/2000/svg" xmlns:xlink="http://www.w3.org/1999/xlink" width="93.089" height="93.09" viewBox="0 0 93.089 93.09">
  <defs>
    <clipPath id="clip-path">
      <path id="Trazado_189538" data-name="Trazado 189538" d="M1.623,46.545A44.922,44.922,0,1,1,46.545,91.467,44.974,44.974,0,0,1,1.623,46.545M46.545,0A46.545,46.545,0,1,0,93.089,46.545,46.6,46.6,0,0,0,46.545,0Z" fill="#4e1993"/>
    </clipPath>
    <clipPath id="clip-path-2">
      <rect id="Rect치ngulo_60621" data-name="Rect치ngulo 60621" width="58.135" height="38.766" fill="#4e1993"/>
    </clipPath>
  </defs>
  <g id="Grupo_209899" data-name="Grupo 209899" transform="translate(-390 -3823.216)">
    <g id="Grupo_172088" data-name="Grupo 172088" transform="translate(390 3823.216)">
      <g id="Grupo_172087" data-name="Grupo 172087" clip-path="url(#clip-path)">
        <rect id="Rect치ngulo_49153" data-name="Rect치ngulo 49153" width="115.5" height="115.501" transform="translate(-25.109 7.353) rotate(-16.323)" fill="#4e1993"/>
      </g>
    </g>
    <g id="Grupo_199774" data-name="Grupo 199774" transform="translate(407.624 3851.013)">
      <g id="Grupo_199773" data-name="Grupo 199773" clip-path="url(#clip-path-2)">
        <path id="Trazado_208730" data-name="Trazado 208730" d="M206.013,42.2q7.886,0,15.772,0c.547,0,.6-.055.6-.6,0-.651,0-1.3,0-1.954,0-.28.022-.306.278-.408.3-.118.594-.24.891-.357.133-.052.223-.175.367-.2v-6.6c-.146-.231-.229-.261-.489-.16a46.754,46.754,0,0,1-4.656,1.51,45.828,45.828,0,0,1-7.8,1.483c-1.846.171-3.695.287-5.549.3a.435.435,0,0,0-.429.219v6.6a1.562,1.562,0,0,0,1.009.162m15.656-.558c-.11-.01-.221,0-.332,0h-7.831a49.59,49.59,0,0,0,8.312-2.032v.281c0,.535,0,1.069,0,1.6,0,.122-.032.161-.152.15m-13.592-5.629c0-.257,0-.259.266-.274.873-.049,1.743-.127,2.612-.219q1.808-.19,3.6-.494a45.978,45.978,0,0,0,6.772-1.666q.917-.3,1.816-.659a.293.293,0,0,1,.171-.039v.18q0,2.682,0,5.364a.23.23,0,0,1-.171.254,40.865,40.865,0,0,1-6.5,1.955,54.276,54.276,0,0,1-6.082.949c-.765.078-1.533.123-2.3.192-.151.014-.2-.019-.195-.179.007-1.788,0-3.576,0-5.364m-2.465-.007c0-.139.035-.171.171-.172q.766-.005,1.531-.038c.134-.006.162.036.161.161,0,.915,0,1.83,0,2.745s0,1.818,0,2.727c0,.141-.038.172-.173.173-.51,0-1.021.018-1.531.038-.132.005-.16-.036-.16-.162q.006-2.736,0-5.471" transform="translate(-175.846 -27.335)" fill="#4e1993"/>
        <path id="Trazado_208731" data-name="Trazado 208731" d="M206.013,42.2q7.886,0,15.772,0c.547,0,.6-.055.6-.6,0-.651,0-1.3,0-1.954,0-.28.022-.306.278-.408.3-.118.594-.24.891-.357.133-.052.223-.175.367-.2v-6.6c-.146-.231-.229-.261-.489-.16a46.754,46.754,0,0,1-4.656,1.51,45.828,45.828,0,0,1-7.8,1.483c-1.846.171-3.695.287-5.549.3a.435.435,0,0,0-.429.219v6.6A1.562,1.562,0,0,0,206.013,42.2Zm15.656-.558c-.11-.01-.221,0-.332,0h-7.831a49.59,49.59,0,0,0,8.312-2.032v.281c0,.535,0,1.069,0,1.6C221.822,41.615,221.789,41.654,221.669,41.643Zm-13.592-5.629c0-.257,0-.259.266-.274.873-.049,1.743-.127,2.612-.219q1.808-.19,3.6-.494a45.978,45.978,0,0,0,6.772-1.666q.917-.3,1.816-.659a.293.293,0,0,1,.171-.039v.18q0,2.682,0,5.364a.23.23,0,0,1-.171.254,40.865,40.865,0,0,1-6.5,1.955,54.276,54.276,0,0,1-6.082.949c-.765.078-1.533.123-2.3.192-.151.014-.2-.019-.195-.179C208.079,39.591,208.076,37.8,208.076,36.014Zm-2.465-.007c0-.139.035-.171.171-.172q.766-.005,1.531-.038c.134-.006.162.036.161.161,0,.915,0,1.83,0,2.745s0,1.818,0,2.727c0,.141-.038.172-.173.173-.51,0-1.021.018-1.531.038-.132.005-.16-.036-.16-.162Q205.618,38.743,205.611,36.008Z" transform="translate(-175.846 -27.335)" fill="#4e1993" stroke="#4e1993" stroke-linecap="round" stroke-linejoin="round" stroke-width="1.22"/>
        <path id="Trazado_208732" data-name="Trazado 208732" d="M205.432,83.363q8.282-.005,16.564,0c.338,0,.431-.091.432-.423,0-.762,0-1.523,0-2.285a.187.187,0,0,1,.144-.212c.357-.131.705-.284,1.06-.419a.582.582,0,0,0,.294-.231c-.144.025-.234.148-.367.2-.3.117-.594.238-.891.357-.256.1-.277.128-.278.408,0,.651,0,1.3,0,1.954,0,.545-.056.6-.6.6q-7.886,0-15.772,0A1.563,1.563,0,0,1,205,83.146a.429.429,0,0,0,.428.217" transform="translate(-175.846 -68.441)" fill="#4e1993"/>
        <path id="Trazado_208733" data-name="Trazado 208733" d="M205.432,83.363q8.282-.005,16.564,0c.338,0,.431-.091.432-.423,0-.762,0-1.523,0-2.285a.187.187,0,0,1,.144-.212c.357-.131.705-.284,1.06-.419a.582.582,0,0,0,.294-.231c-.144.025-.234.148-.367.2-.3.117-.594.238-.891.357-.256.1-.277.128-.278.408,0,.651,0,1.3,0,1.954,0,.545-.056.6-.6.6q-7.886,0-15.772,0A1.563,1.563,0,0,1,205,83.146.429.429,0,0,0,205.432,83.363Z" transform="translate(-175.846 -68.441)" fill="#4e1993" stroke="#4e1993" stroke-linecap="round" stroke-linejoin="round" stroke-width="1.22"/>
        <path id="Trazado_208734" data-name="Trazado 208734" d="M206.013,115.916q7.886,0,15.772,0c.547,0,.6-.055.6-.6,0-.651,0-1.3,0-1.954,0-.28.022-.306.278-.408.3-.118.594-.24.891-.357.133-.052.223-.175.367-.2v-6.6c-.146-.231-.229-.261-.489-.16a46.756,46.756,0,0,1-4.656,1.51,45.828,45.828,0,0,1-7.8,1.483c-1.846.171-3.695.287-5.549.3a.435.435,0,0,0-.429.219v6.6a1.562,1.562,0,0,0,1.009.162m15.656-.558c-.11-.01-.221,0-.332,0h-7.831a49.587,49.587,0,0,0,8.312-2.032v.281c0,.535,0,1.069,0,1.6,0,.122-.032.161-.152.15m-13.592-5.629c0-.257,0-.259.266-.274.873-.049,1.743-.127,2.612-.219q1.808-.19,3.6-.494a45.978,45.978,0,0,0,6.772-1.666q.917-.3,1.816-.659a.293.293,0,0,1,.171-.039v.18q0,2.682,0,5.364a.23.23,0,0,1-.171.254,40.866,40.866,0,0,1-6.5,1.955,54.279,54.279,0,0,1-6.082.949c-.765.078-1.533.123-2.3.192-.151.014-.2-.019-.195-.179.007-1.788,0-3.576,0-5.364m-2.465-.007c0-.139.035-.171.171-.172q.766-.005,1.531-.038c.134-.006.162.036.161.161,0,.915,0,1.83,0,2.745s0,1.818,0,2.727c0,.141-.038.172-.173.173-.51,0-1.021.018-1.531.038-.132.005-.16-.036-.16-.162q.006-2.736,0-5.471" transform="translate(-175.846 -90.566)" fill="#4e1993"/>
        <path id="Trazado_208735" data-name="Trazado 208735" d="M206.013,115.916q7.886,0,15.772,0c.547,0,.6-.055.6-.6,0-.651,0-1.3,0-1.954,0-.28.022-.306.278-.408.3-.118.594-.24.891-.357.133-.052.223-.175.367-.2v-6.6c-.146-.231-.229-.261-.489-.16a46.756,46.756,0,0,1-4.656,1.51,45.828,45.828,0,0,1-7.8,1.483c-1.846.171-3.695.287-5.549.3a.435.435,0,0,0-.429.219v6.6A1.562,1.562,0,0,0,206.013,115.916Zm15.656-.558c-.11-.01-.221,0-.332,0h-7.831a49.587,49.587,0,0,0,8.312-2.032v.281c0,.535,0,1.069,0,1.6C221.822,115.33,221.789,115.369,221.669,115.358Zm-13.592-5.629c0-.257,0-.259.266-.274.873-.049,1.743-.127,2.612-.219q1.808-.19,3.6-.494a45.978,45.978,0,0,0,6.772-1.666q.917-.3,1.816-.659a.293.293,0,0,1,.171-.039v.18q0,2.682,0,5.364a.23.23,0,0,1-.171.254,40.866,40.866,0,0,1-6.5,1.955,54.279,54.279,0,0,1-6.082.949c-.765.078-1.533.123-2.3.192-.151.014-.2-.019-.195-.179C208.079,113.306,208.076,111.517,208.076,109.729Zm-2.465-.007c0-.139.035-.171.171-.172q.766-.005,1.531-.038c.134-.006.162.036.161.161,0,.915,0,1.83,0,2.745s0,1.818,0,2.727c0,.141-.038.172-.173.173-.51,0-1.021.018-1.531.038-.132.005-.16-.036-.16-.162Q205.618,112.458,205.611,109.723Z" transform="translate(-175.846 -90.566)" fill="#4e1993" stroke="#4e1993" stroke-linecap="round" stroke-linejoin="round" stroke-width="1.22"/>
        <path id="Trazado_208736" data-name="Trazado 208736" d="M205.432,157.079q8.282-.005,16.564,0c.338,0,.431-.091.432-.423,0-.762,0-1.523,0-2.285a.187.187,0,0,1,.144-.212c.357-.131.705-.284,1.06-.419a.582.582,0,0,0,.294-.231c-.144.025-.234.148-.367.2-.3.117-.594.238-.891.357-.256.1-.277.128-.278.408,0,.651,0,1.3,0,1.954,0,.545-.056.6-.6.6q-7.886,0-15.772,0a1.562,1.562,0,0,1-1.009-.162.429.429,0,0,0,.428.217" transform="translate(-175.846 -131.673)" fill="#4e1993"/>
        <path id="Trazado_208737" data-name="Trazado 208737" d="M205.432,157.079q8.282-.005,16.564,0c.338,0,.431-.091.432-.423,0-.762,0-1.523,0-2.285a.187.187,0,0,1,.144-.212c.357-.131.705-.284,1.06-.419a.582.582,0,0,0,.294-.231c-.144.025-.234.148-.367.2-.3.117-.594.238-.891.357-.256.1-.277.128-.278.408,0,.651,0,1.3,0,1.954,0,.545-.056.6-.6.6q-7.886,0-15.772,0a1.562,1.562,0,0,1-1.009-.162A.429.429,0,0,0,205.432,157.079Z" transform="translate(-175.846 -131.673)" fill="#4e1993" stroke="#4e1993" stroke-linecap="round" stroke-linejoin="round" stroke-width="1.22"/>
        <path id="Trazado_208738" data-name="Trazado 208738" d="M57.147,32.595c-.718.026-1.438.024-2.156,0-.624-.024-.789-.2-.821-.837-.011-.227,0-.454,0-.681,0-8.267-.061-16.535.036-24.8a4.914,4.914,0,0,0-5.08-5.226c-.17,0-.341,0-.511,0q-18.447,0-36.894,0a5.872,5.872,0,0,0-3.284.706,4.536,4.536,0,0,0-2.275,4q0,12.713,0,25.426c0,1.36-.057,1.416-1.395,1.419-.738,0-1.476-.014-2.214.006a1.12,1.12,0,0,0-1.263,1.211,5.7,5.7,0,0,0,.624,3.3A4.944,4.944,0,0,0,6.283,39.5c.189.008.378.006.567.006q23.328,0,46.656,0a5.948,5.948,0,0,0,3.469-.864,4.743,4.743,0,0,0,1.792-2.284c.1-.246.1-.58.456-.647V33.332c-.055,0-.123.014-.159-.038a1.952,1.952,0,0,0-1.918-.7M8.364,6.044a2.442,2.442,0,0,1,2.7-2.709q19.1,0,38.2,0a2.442,2.442,0,0,1,2.7,2.709q0,12.884.011,25.768c0,.462-.094.595-.579.594q-10.643-.027-21.286-.012-10.586,0-21.173.012c-.485,0-.579-.133-.579-.594q.022-12.884.012-25.768M54.4,37.216c-.151.007-.3,0-.454,0q-23.783,0-47.567,0a2.857,2.857,0,0,1-1.923-.518,2.4,2.4,0,0,1-.919-1.9h.58q9.479,0,18.958-.009a1.034,1.034,0,0,1,.926.4,2.238,2.238,0,0,0,1.989.841q4.2-.048,8.4,0a2.147,2.147,0,0,0,1.892-.8A1.149,1.149,0,0,1,37.3,34.8q9.422.021,18.845.01h.619A2.365,2.365,0,0,1,54.4,37.216" transform="translate(-1.089 -0.894)" fill="#4e1993"/>
        <path id="Trazado_208739" data-name="Trazado 208739" d="M56.578,31.491c-.888.036-1.78-.029-2.666.022-.545.031-.64-.163-.639-.662q.022-12.712.009-25.424c0-.378-.01-.757-.041-1.133A4.837,4.837,0,0,0,49.015.067C48.449.016,47.884,0,47.317,0H10.141a5.231,5.231,0,0,0-3.35,1A5.036,5.036,0,0,0,4.853,5.26c.016,8.55,0,17.1.017,25.651,0,.462-.1.619-.585.6-.982-.04-1.967-.025-2.951-.007a1.215,1.215,0,0,0-1.323,1.3c-.015.4-.017.8,0,1.191a4.842,4.842,0,0,0,1.96,3.79,5.171,5.171,0,0,0,3.243.977q5.42,0,10.84,0,18.417,0,36.835,0a4.959,4.959,0,0,0,4.786-2.818c.187-.364.176-.8.455-1.126-.361.067-.36.4-.456.647a4.743,4.743,0,0,1-1.792,2.284,5.948,5.948,0,0,1-3.469.864q-23.328,0-46.656,0c-.189,0-.378,0-.567-.006A4.944,4.944,0,0,1,.819,36.219a5.7,5.7,0,0,1-.624-3.3,1.12,1.12,0,0,1,1.263-1.211c.738-.019,1.476,0,2.214-.006,1.338,0,1.395-.059,1.395-1.419q0-12.713,0-25.426a4.536,4.536,0,0,1,2.275-4A5.872,5.872,0,0,1,10.627.152Q29.074.144,47.52.149c.17,0,.341,0,.511,0a4.914,4.914,0,0,1,5.08,5.226c-.1,8.266-.037,16.534-.036,24.8,0,.227-.006.454,0,.681.032.632.2.813.821.837.718.027,1.439.029,2.156,0a1.952,1.952,0,0,1,1.918.7c.036.052.1.034.159.038a1.447,1.447,0,0,0-1.557-.946" transform="translate(0 0)" fill="#4e1993"/>
      </g>
    </g>
  </g>
</svg>
