<svg xmlns="http://www.w3.org/2000/svg" xmlns:xlink="http://www.w3.org/1999/xlink" width="93.088" height="93.089" viewBox="0 0 93.088 93.089">
  <defs>
    <clipPath id="clip-path">
      <path id="Trazado_189538" data-name="Trazado 189538" d="M1.623,46.545A44.922,44.922,0,1,1,46.545,91.467,44.973,44.973,0,0,1,1.623,46.545M46.545,0A46.545,46.545,0,1,0,93.088,46.545,46.6,46.6,0,0,0,46.545,0Z" fill="#4e1993"/>
    </clipPath>
    <clipPath id="clip-path-2">
      <rect id="Rect치ngulo_60625" data-name="Rect치ngulo 60625" width="46.916" height="46.815" fill="#4e1993"/>
    </clipPath>
  </defs>
  <g id="Grupo_209911" data-name="Grupo 209911" transform="translate(-1125.217 -3535.216)">
    <g id="Grupo_172088" data-name="Grupo 172088" transform="translate(1125.217 3535.216)">
      <g id="Grupo_172087" data-name="Grupo 172087" clip-path="url(#clip-path)">
        <rect id="Rect치ngulo_49153" data-name="Rect치ngulo 49153" width="115.499" height="115.5" transform="translate(-25.108 7.353) rotate(-16.323)" fill="#4e1993"/>
      </g>
    </g>
    <g id="Grupo_199779" data-name="Grupo 199779" transform="translate(1148.065 3558.299)">
      <g id="Grupo_199779-2" data-name="Grupo 199779" clip-path="url(#clip-path-2)">
        <path id="Trazado_208913" data-name="Trazado 208913" d="M.024,16.262a4.511,4.511,0,0,0,.053.749,2.773,2.773,0,0,0,1.214,1.975A3.5,3.5,0,0,0,3.26,19.5q10.113,0,20.226,0H43.61c.137,0,.274,0,.41-.012A2.888,2.888,0,0,0,46.912,16.5q.011-4.192.013-8.384a1.3,1.3,0,0,0-.384-.957q-1.022-1.023-2.048-2.041Q42.257,2.892,40.024.661A1.98,1.98,0,0,0,39,.047,4.014,4.014,0,0,0,38.235,0q-6.04.009-12.08.012c-2.11,0-4.22-.009-6.331-.01Q16.41,0,13,.005,10.721,0,8.445,0a1.836,1.836,0,0,0-1.37.509l-.6.6q-3.013,3-6.028,6a1.377,1.377,0,0,0-.43,1.04c.006.433.011.866.011,1.3q0,3.405,0,6.811M4.365,6.634,7.776,3.221c.129-.129.258-.258.381-.393a1.221,1.221,0,0,1,.959-.4q13.3,0,26.592,0c.684,0,1.369,0,2.053-.007a1.394,1.394,0,0,1,1.042.431q.795.8,1.592,1.6,1.1,1.095,2.2,2.184a1.3,1.3,0,0,0,.136.1L42.7,6.78H4.224c.055-.058.1-.1.141-.147M2.439,10.115A.8.8,0,0,1,3.3,9.249c.576-.011,1.152,0,1.728,0H9.84q13.346.005,26.691.01c2.059,0,4.117-.007,6.176-.011a7.073,7.073,0,0,1,1.042.017.807.807,0,0,1,.754.86c.01.45,0,.9,0,1.351q0,2.284,0,4.568a1.763,1.763,0,0,1-.031.442.732.732,0,0,1-.7.594c-.8.037-1.607.016-2.411.011-.068,0-.137,0-.205,0H5.928c-.821,0-1.642.008-2.463.01-.1,0-.205-.006-.307-.015a.77.77,0,0,1-.72-.823c0-.952,0-1.9,0-2.857,0-1.095-.013-2.19,0-3.284" transform="translate(-0.01 0)" fill="#4e1993"/>
        <path id="Trazado_208914" data-name="Trazado 208914" d="M46.5,198.662q-.33-.323-.657-.649l-4.425-4.407q-.758-.755-1.512-1.513a1.664,1.664,0,0,0-.882-.523,4.114,4.114,0,0,0-.732-.027q-3.012.007-6.023,0a2.259,2.259,0,0,0-.526.054,1.173,1.173,0,0,0-.085,2.28,1.62,1.62,0,0,0,.471.078q2.875,0,5.749-.006a1.032,1.032,0,0,1,.783.308q1.807,1.81,3.625,3.61c.151.15.3.3.478.471H4.148c.076-.072.123-.113.166-.156,1.232-1.228,2.467-2.453,3.691-3.688a1.75,1.75,0,0,1,1.328-.547c1.779.013,3.559.008,5.339.011a2.068,2.068,0,0,0,.557-.073,1.143,1.143,0,0,0,.888-1.133,1.129,1.129,0,0,0-.868-1.127,1.936,1.936,0,0,0-.556-.08q-3.183-.008-6.365-.012a1.754,1.754,0,0,0-1.291.53q-3.3,3.286-6.6,6.568A1.414,1.414,0,0,0,0,199.7c.011.827.012,1.653.013,2.48,0,1.939,0,3.879,0,5.818A3.018,3.018,0,0,0,.6,209.874a2.928,2.928,0,0,0,2.474,1.155q20.295.006,40.589,0c.182,0,.364-.007.546-.023a2.852,2.852,0,0,0,2.676-2.73c.031-.534.025-1.071.026-1.607,0-.958-.01-1.916-.01-2.874q0-2.061.012-4.123a1.345,1.345,0,0,0-.413-1.013m-2.024,9.28a.787.787,0,0,1-.851.681c-1.825.006-3.65,0-5.475,0-.159,0-.319-.011-.478-.011h-14.2q-6.682,0-13.363,0-3.156,0-6.313.012a4.764,4.764,0,0,1-.579-.011.812.812,0,0,1-.788-.846c-.012-.461,0-.923,0-1.385q0-2.344-.005-4.688a.8.8,0,0,1,.879-.917c1.363-.009,2.726,0,4.089.007H39.408c1.363,0,2.726-.007,4.088-.01a2.177,2.177,0,0,1,.289.021.751.751,0,0,1,.7.765c.008.171,0,.342,0,.513q0,2.78.005,5.56a1.789,1.789,0,0,1-.016.307" transform="translate(-0.001 -164.217)" fill="#4e1993"/>
        <path id="Trazado_208915" data-name="Trazado 208915" d="M134.728,160.147a.111.111,0,0,0-.016.006c-.076.058-.127.033-.181-.039-.144-.191-.285-.385-.444-.564a1.172,1.172,0,0,0-1.2-.4,1.19,1.19,0,0,0-.6,1.991c.277.288.558.571.837.855.888.9,1.784,1.8,2.7,2.668a1.058,1.058,0,0,0,1.445.048q1.9-1.785,3.693-3.681a.957.957,0,0,0,.236-.92,1.2,1.2,0,0,0-.933-.961,1.171,1.171,0,0,0-1.205.425c-.147.167-.295.333-.437.5-.059.071-.108.1-.2.046a5.4,5.4,0,0,0-.506-.244.188.188,0,0,1-.125-.208c0-.787,0-1.574,0-2.361a3.388,3.388,0,0,0-.034-.545,1.2,1.2,0,0,0-.859-1.023,1.177,1.177,0,0,0-1.5,1.039c-.069.522-.008,1.048-.029,1.474,0,.348,0,.6,0,.85s.09.526-.034.7-.4.234-.615.344" transform="translate(-113.13 -133.492)" fill="#4e1993"/>
        <path id="Trazado_208916" data-name="Trazado 208916" d="M73.337,86.279q1.856.007,3.712.006c.433,0,.867,0,1.3-.006a1.221,1.221,0,0,0,1.265-1.172,1.183,1.183,0,0,0-1.185-1.223c-.86-.027-1.721-.006-2.582-.006v-.011H73.555c-.12,0-.239,0-.358.013a1.188,1.188,0,0,0-1.115,1.391,1.216,1.216,0,0,0,1.256,1.008" transform="translate(-61.788 -71.905)" fill="#4e1993"/>
        <path id="Trazado_208917" data-name="Trazado 208917" d="M37.682,86.192A1.22,1.22,0,0,0,38.8,84.936a1.216,1.216,0,0,0-2.419-.13q0,.181,0,.363a1.228,1.228,0,0,0,1.3,1.023" transform="translate(-31.19 -71.813)" fill="#4e1993"/>
        <path id="Trazado_208918" data-name="Trazado 208918" d="M36.2,91.1a.549.549,0,0,0,0,.363,1.709,1.709,0,0,1,0-.363" transform="translate(-31.014 -78.105)" fill="#4e1993"/>
        <path id="Trazado_208919" data-name="Trazado 208919" d="M36.334,91.461q0-.182,0-.363a1.709,1.709,0,0,0,0,.363" transform="translate(-31.142 -78.105)" fill="#4e1993"/>
        <path id="Trazado_208920" data-name="Trazado 208920" d="M78.317,275.431c-.844-.009-1.687,0-2.531,0s-1.7-.006-2.548,0a1.2,1.2,0,1,0-.011,2.4q2.557.013,5.115,0a1.186,1.186,0,0,0,.944-.441,1.125,1.125,0,0,0,.16-1.264,1.175,1.175,0,0,0-1.129-.691" transform="translate(-61.737 -236.143)" fill="#4e1993"/>
        <path id="Trazado_208921" data-name="Trazado 208921" d="M37.546,275.441a1.209,1.209,0,0,0-1.214,1.2,1.24,1.24,0,0,0,1.212,1.211,1.2,1.2,0,1,0,0-2.407" transform="translate(-31.15 -236.156)" fill="#4e1993"/>
      </g>
    </g>
  </g>
</svg>
