<svg xmlns="http://www.w3.org/2000/svg" xmlns:xlink="http://www.w3.org/1999/xlink" width="93.088" height="93.089" viewBox="0 0 93.088 93.089">
  <defs>
    <clipPath id="clip-path">
      <path id="Trazado_189538" data-name="Trazado 189538" d="M1.623,46.545A44.922,44.922,0,1,1,46.545,91.467,44.973,44.973,0,0,1,1.623,46.545M46.545,0A46.545,46.545,0,1,0,93.088,46.545,46.6,46.6,0,0,0,46.545,0Z" fill="#4e1993"/>
    </clipPath>
    <clipPath id="clip-path-2">
      <rect id="Rect치ngulo_60626" data-name="Rect치ngulo 60626" width="43.704" height="53.455" fill="#4e1993" stroke="#4e1993" stroke-width="1"/>
    </clipPath>
  </defs>
  <g id="Grupo_209912" data-name="Grupo 209912" transform="translate(-1125.217 -3631.216)">
    <g id="Grupo_172088" data-name="Grupo 172088" transform="translate(1125.217 3631.216)">
      <g id="Grupo_172087" data-name="Grupo 172087" clip-path="url(#clip-path)">
        <rect id="Rect치ngulo_49153" data-name="Rect치ngulo 49153" width="115.499" height="115.5" transform="translate(-25.108 7.353) rotate(-16.323)" fill="#4e1993"/>
      </g>
    </g>
    <g id="Grupo_199780" data-name="Grupo 199780" transform="translate(1149.222 3649.854)">
      <g id="Grupo_199780-2" data-name="Grupo 199780" transform="translate(0 0)" clip-path="url(#clip-path-2)">
        <path id="Trazado_208922" data-name="Trazado 208922" d="M38.542,352.959a2.847,2.847,0,0,0,1.964-2.869c0-3.528-.052-7.057.023-10.583a2.959,2.959,0,0,0-3.355-3.048,2.8,2.8,0,0,0-2.8,3.061c0,2.2,0,4.406,0,6.609,0,.767-.085.851-.854.851q-12.478,0-24.955,0c-.819,0-.931-.117-.933-.953,0-2.187-.042-4.375.012-6.56a2.854,2.854,0,0,0-3.185-3.014A2.839,2.839,0,0,0,1.5,339.509c0,3.464.011,6.928-.006,10.392a2.976,2.976,0,0,0,1.934,3.052c.139.057.319.09.322.3H38.16c.019-.238.231-.237.382-.3m-1.051-1.142q-8.24,0-16.479,0H4.629a1.613,1.613,0,0,1-1.836-1.854c0-3.5.006-6.993-.005-10.489a1.458,1.458,0,0,1,.919-1.571,2.121,2.121,0,0,1,2.174.258,1.5,1.5,0,0,1,.483,1.247c-.008,2.475,0,4.949,0,7.424,0,1.043.37,1.416,1.405,1.416H34.258c1.04,0,1.4-.367,1.4-1.415q0-3.76,0-7.52a1.464,1.464,0,0,1,1.286-1.531c1.144-.179,1.934.191,2.212,1.027a1.748,1.748,0,0,1,.063.567q0,5.364,0,10.729a1.565,1.565,0,0,1-1.732,1.712" transform="translate(0.844 -301.996)" fill="#4e1993" stroke="#4e1993" stroke-width="1"/>
        <path id="Trazado_208923" data-name="Trazado 208923" d="M36.868,351.9a2.954,2.954,0,0,0,2.441-3.09q.007-5.39,0-10.78a2.887,2.887,0,0,0-2.7-2.982,3.1,3.1,0,0,0-3.755,3.346c.1,2.2.011,4.407.033,6.611,0,.412-.082.529-.516.528q-12.7-.023-25.4,0c-.409,0-.538-.077-.534-.516.025-2.331.015-4.663.01-6.995a2.82,2.82,0,0,0-1.743-2.73,3.812,3.812,0,0,0-2.117-.216,2.866,2.866,0,0,0-2.578,2.9q-.012,5.486,0,10.972a2.994,2.994,0,0,0,2.063,2.871c.111.04.266,0,.33.151,0-.211-.183-.244-.322-.3a2.976,2.976,0,0,1-1.934-3.052c.017-3.464,0-6.928.006-10.392a2.839,2.839,0,0,1,2.959-3.058,2.854,2.854,0,0,1,3.185,3.014c-.054,2.186-.016,4.374-.012,6.56,0,.837.114.953.933.953q12.478,0,24.955,0c.769,0,.853-.084.854-.851,0-2.2,0-4.406,0-6.609a2.8,2.8,0,0,1,2.8-3.061,2.96,2.96,0,0,1,3.355,3.048c-.075,3.526-.021,7.055-.023,10.583a2.847,2.847,0,0,1-1.964,2.869c-.151.059-.363.059-.382.3.02-.023.036-.06.06-.066" transform="translate(2.196 -300.71)" fill="#4e1993" stroke="#4e1993" stroke-width="1"/>
        <path id="Trazado_208924" data-name="Trazado 208924" d="M88.663.251a12.036,12.036,0,0,0-4.906,1.939A11.86,11.86,0,0,0,78.448,10.9,11.688,11.688,0,0,0,82,20.956a11.637,11.637,0,0,0,8.368,3.457,11.824,11.824,0,0,0,8.92-3.74,11.6,11.6,0,0,0,3.246-6.695,11.834,11.834,0,0,0-2.494-9.21A12.048,12.048,0,0,0,92.193.232c-.167-.026-.4.042-.449-.232H89.156c-.056.293-.316.221-.494.251m1.891,1.186a10.843,10.843,0,1,1-10.89,10.834A10.845,10.845,0,0,1,90.554,1.438" transform="translate(-68.65 2.196)" fill="#4e1993" stroke="#4e1993" stroke-width="1"/>
        <path id="Trazado_208925" data-name="Trazado 208925" d="M77.267,14.415A12.278,12.278,0,1,0,92.8.494C92.075.291,91.332.163,90.6,0c.047.274.282.206.449.232A12.048,12.048,0,0,1,98.9,4.768a11.834,11.834,0,0,1,2.494,9.21,11.6,11.6,0,0,1-3.246,6.695,11.824,11.824,0,0,1-8.92,3.74,11.636,11.636,0,0,1-8.368-3.457A11.688,11.688,0,0,1,77.3,10.9a11.86,11.86,0,0,1,5.308-8.709A12.034,12.034,0,0,1,87.517.252c.178-.03.438.042.494-.252a3.2,3.2,0,0,1-1.043.231,12.279,12.279,0,0,0-9.7,14.184" transform="translate(-67.505 2.196)" fill="#4e1993" stroke="#4e1993" stroke-width="1"/>
        <path id="Trazado_208926" data-name="Trazado 208926" d="M127.7,272.807q-1.605.016-3.211,0c-.33,0-.749.144-.963-.068-.155-.154-.047-.571-.062-.871a.742.742,0,0,0-.7-.766.729.729,0,0,0-.734.775c-.011.479,0,.958,0,1.437,0,.7.235.932.954.933,1.174,0,2.349,0,3.605,0-.106.121-.151.179-.2.23-2.134,2.135-4.276,4.263-6.4,6.412-.277.281-.386.106-.556-.064q-3.116-3.119-6.232-6.237c-.092-.092-.222-.165-.25-.34,1.234,0,2.445,0,3.657,0,.551,0,.817-.246.828-.764.012-.559.014-1.118,0-1.677a.689.689,0,0,0-.7-.7.7.7,0,0,0-.716.642,2.676,2.676,0,0,0-.009.669c.031.3-.057.406-.383.4-1.278-.021-2.556,0-3.834-.012a.969.969,0,0,0-1.021.554.979.979,0,0,0,.318,1.156q3.922,3.9,7.832,7.822a1.028,1.028,0,0,0,1.628.015q3.935-3.926,7.865-7.857a.945.945,0,0,0-.71-1.69" transform="translate(-97.878 -242.917)" fill="#4e1993" stroke="#4e1993" stroke-width="1"/>
        <path id="Trazado_208927" data-name="Trazado 208927" d="M133.706,67.231c.446.021.9-.008,1.341.02.155.01.446-.159.451.162,0,.262.176.586-.236.77a3.614,3.614,0,0,0-1.828,3.432.645.645,0,0,0,.569.716.709.709,0,0,0,.818-.577,5.623,5.623,0,0,0,.129-.9,1.84,1.84,0,0,1,.648-1.188c.264-.238.443-.167.6.114a3.292,3.292,0,0,1,.295,1.052,3.392,3.392,0,0,0,6.713-.009,2.935,2.935,0,0,1,.326-1.092c.146-.231.3-.3.536-.095a1.839,1.839,0,0,1,.676,1.17,4.337,4.337,0,0,0,.153.99c.111.286.277.516.614.516a.688.688,0,0,0,.67-.518,1.089,1.089,0,0,0,.081-.417,3.507,3.507,0,0,0-1.826-3.194c-.4-.2-.242-.515-.23-.779.014-.306.3-.146.46-.156.43-.026.862,0,1.293-.015.519-.017.8-.265.805-.691s-.262-.7-.774-.725c-.43-.022-.863.008-1.293-.019-.171-.011-.444.158-.5-.17a.5.5,0,0,1,.3-.606,3.476,3.476,0,0,0,1.753-3.234.7.7,0,0,0-.69-.767c-.386-.011-.666.267-.734.736-.03.205-.051.412-.074.618a1.84,1.84,0,0,1-.786,1.311,7.375,7.375,0,0,0-1.049-1.823,3.716,3.716,0,0,0-3.791-1.5,4.606,4.606,0,0,0-3.108,2.693c-.1.192-.129.541-.3.547-.277.009-.41-.312-.547-.54a1.579,1.579,0,0,1-.23-.722,5.947,5.947,0,0,0-.081-.665.678.678,0,0,0-.705-.645.671.671,0,0,0-.676.62,2.577,2.577,0,0,0,.087,1.183,3.431,3.431,0,0,0,1.65,2.2.52.52,0,0,1,.292.621c-.056.307-.313.135-.468.145-.445.03-.895,0-1.341.025-.5.028-.776.308-.763.737.013.405.277.65.773.673m6.193,5.052a1.909,1.909,0,0,1-1.868-1.314,14.607,14.607,0,0,0,1.81.06h1.795a1.839,1.839,0,0,1-1.737,1.254m.675-10.424c1.751.735,2.52,2.757,2.133,5.48a4.342,4.342,0,0,0-1.828-.2c-.158,0-.311.033-.31-.225.009-1.672,0-3.344,0-5.06m1.131,6.719c.227,0,.418.039.487.282s-.1.373-.284.487a1.809,1.809,0,0,1-.958.243c-.731.008-1.463.005-2.194,0a2,2,0,0,1-1-.274c-.168-.1-.326-.216-.255-.452a.394.394,0,0,1,.436-.286c.636,0,1.272,0,1.908,0,.62,0,1.24,0,1.86,0M137.063,64.4a3.717,3.717,0,0,1,1.736-2.415c.254-.151.345-.126.342.2-.013,1.532-.015,3.064,0,4.6,0,.306-.094.372-.379.366a3.7,3.7,0,0,0-1.824.219,15.8,15.8,0,0,1,.123-2.965" transform="translate(-117.993 -52.297)" fill="#4e1993" stroke="#4e1993" stroke-width="1"/>
      </g>
    </g>
  </g>
</svg>
