<svg xmlns="http://www.w3.org/2000/svg" width="1030.008" height="393.626" viewBox="0 0 1030.008 393.626">
  <g id="Grupo_212213" data-name="Grupo 212213" transform="translate(-285 -1175.148)">
    <g id="Rectángulo_66090" data-name="Rectángulo 66090" transform="translate(285 1214.726)" fill="#fff" stroke="#1e3094" stroke-width="1">
      <rect width="715" height="334" rx="49" stroke="none"/>
      <rect x="0.5" y="0.5" width="714" height="333" rx="48.5" fill="none"/>
    </g>
    <g id="Grupo_209868" data-name="Grupo 209868" transform="translate(40 -15.274)">
      <rect id="Rectángulo_60599" data-name="Rectángulo 60599" width="610" height="41" rx="10" transform="translate(298 1542.549)" fill="#1e3094"/>
      <text id="Ejemplo_de_una_contraseña_aplicando_estas_características:_PerBom01_" data-name="Ejemplo de una contraseña aplicando estas características: PerBom01*" transform="translate(340 1553.549)" fill="#fff" font-size="16" font-family="Roboto-Regular, Roboto"><tspan x="0" y="19">Ejemplo de una contraseña aplicando estas características: </tspan><tspan y="19" font-size="18" font-family="Roboto-Bold, Roboto" font-weight="700">PerBom01*</tspan></text>
    </g>
    <g id="Grupo_209862" data-name="Grupo 209862" transform="translate(53 46.693)">
      <text id="No_Debe_contener:_Palabras_o_frases_que_se_utilicen_con_frecuencia_en_el_sistema_como_nombres_apellidos_o_información_que_se_proporcione_al_momento_del_registro_en_el_sistema_como_fechas_de_nacimiento_o_números_de_teléfono." data-name="No Debe contener:

Palabras o frases que se utilicen con frecuencia en el sistema como nombres, apellidos o información que se proporcione al momento del registro en el sistema como fechas de nacimiento o números de teléfono." transform="translate(600 1246.569)" fill="#12263f" font-size="18" font-family="Arial-BoldMT, Arial" font-weight="700"><tspan x="0" y="16">No Debe contener:</tspan><tspan font-size="16" font-family="Roboto-Regular, Roboto" font-weight="400"><tspan x="0" y="40"></tspan></tspan><tspan font-size="16" font-family="ArialMT, Arial" font-weight="400"><tspan x="0" y="64">Palabras o frases que se utilicen con </tspan><tspan x="0" y="88">frecuencia en el sistema como nombres, </tspan><tspan x="0" y="112">apellidos o información que se </tspan><tspan x="0" y="136">proporcione al momento del registro en </tspan><tspan x="0" y="160">el sistema como fechas de nacimiento o </tspan><tspan x="0" y="184">números de teléfono.</tspan></tspan></text>
      <path id="Trazado_210583" data-name="Trazado 210583" d="M-5199.8-10453.431v190.44" transform="translate(5758 11700)" fill="none" stroke="#1e3094" stroke-width="1"/>
      <g id="Grupo_209861" data-name="Grupo 209861">
        <text id="Debe_contener:" data-name="Debe contener:" transform="translate(285 1246.569)" fill="#12263f" font-size="18" font-family="Arial-BoldMT, Arial" font-weight="700"><tspan x="0" y="16">Debe contener:</tspan></text>
        <g id="Grupo_209860" data-name="Grupo 209860">
          <text id="Letras_mayúsculas._Letras_minúsculas._Mínimo_un_carácter_especial." data-name="Letras mayúsculas.

Letras minúsculas.

Mínimo un carácter especial." transform="translate(308 1296.569)" fill="#12263f" font-size="16" font-family="ArialMT, Arial"><tspan x="0" y="14">Letras mayúsculas.</tspan><tspan x="0" y="38"></tspan><tspan x="0" y="62">Letras minúsculas.</tspan><tspan x="0" y="86"></tspan><tspan x="0" y="110">Mínimo un carácter especial.</tspan></text>
          <path id="Icon_awesome-atom" data-name="Icon awesome-atom" d="M12.907,8c1.254-1.715,1.3-3.082.786-4-.341-.61-1.267-1.585-3.635-1.309C9.386,1.09,8.364,0,7,0S4.614,1.09,3.943,2.691C1.576,2.417.648,3.39.307,4c-.512.919-.469,2.284.786,4C-.161,9.715-.2,11.082.307,12c.913,1.636,3.178,1.362,3.635,1.309C4.614,14.91,5.636,16,7,16s2.387-1.091,3.058-2.691c.458.053,2.722.327,3.635-1.309C14.2,11.081,14.162,9.716,12.907,8ZM1.981,11c-.126-.225-.006-.775.467-1.509.218.2.444.4.683.6.053.428.125.846.211,1.253-.768.028-1.247-.137-1.362-.343ZM3.131,5.91c-.239.2-.466.4-.683.6C1.975,5.775,1.855,5.225,1.981,5c.107-.192.512-.358,1.185-.358.053,0,.121.009.178.012q-.133.624-.212,1.257ZM7,2c.3,0,.694.423,1.058,1.164-.35.116-.7.25-1.058.4-.357-.152-.708-.286-1.058-.4C6.306,2.423,6.7,2,7,2ZM7,14c-.3,0-.694-.423-1.058-1.164.35-.116.7-.25,1.058-.4.357.152.708.286,1.058.4C7.694,13.578,7.3,14,7,14ZM8.953,9.084A13.362,13.362,0,0,1,7,10.255,13.378,13.378,0,0,1,5.047,9.084a12.6,12.6,0,0,1,0-2.167A13.409,13.409,0,0,1,7,5.746,13.383,13.383,0,0,1,8.953,6.917,12.635,12.635,0,0,1,8.953,9.084ZM12.02,11c-.115.207-.594.369-1.362.342.086-.406.158-.824.211-1.252.239-.2.466-.4.683-.6C12.025,10.225,12.145,10.775,12.02,11Zm-.467-4.491c-.218-.2-.444-.4-.683-.6q-.079-.633-.212-1.257c.057,0,.124-.012.178-.012.673,0,1.078.167,1.185.358.126.226.006.775-.467,1.509ZM7,7A1,1,0,1,0,8,8,1,1,0,0,0,7,7Z" transform="translate(285 1296.569)" fill="#f24dc3"/>
          <path id="Icon_awesome-atom-2" data-name="Icon awesome-atom" d="M12.907,8c1.254-1.715,1.3-3.082.786-4-.341-.61-1.267-1.585-3.635-1.309C9.386,1.09,8.364,0,7,0S4.614,1.09,3.943,2.691C1.576,2.417.648,3.39.307,4c-.512.919-.469,2.284.786,4C-.161,9.715-.2,11.082.307,12c.913,1.636,3.178,1.362,3.635,1.309C4.614,14.91,5.636,16,7,16s2.387-1.091,3.058-2.691c.458.053,2.722.327,3.635-1.309C14.2,11.081,14.162,9.716,12.907,8ZM1.981,11c-.126-.225-.006-.775.467-1.509.218.2.444.4.683.6.053.428.125.846.211,1.253-.768.028-1.247-.137-1.362-.343ZM3.131,5.91c-.239.2-.466.4-.683.6C1.975,5.775,1.855,5.225,1.981,5c.107-.192.512-.358,1.185-.358.053,0,.121.009.178.012q-.133.624-.212,1.257ZM7,2c.3,0,.694.423,1.058,1.164-.35.116-.7.25-1.058.4-.357-.152-.708-.286-1.058-.4C6.306,2.423,6.7,2,7,2ZM7,14c-.3,0-.694-.423-1.058-1.164.35-.116.7-.25,1.058-.4.357.152.708.286,1.058.4C7.694,13.578,7.3,14,7,14ZM8.953,9.084A13.362,13.362,0,0,1,7,10.255,13.378,13.378,0,0,1,5.047,9.084a12.6,12.6,0,0,1,0-2.167A13.409,13.409,0,0,1,7,5.746,13.383,13.383,0,0,1,8.953,6.917,12.635,12.635,0,0,1,8.953,9.084ZM12.02,11c-.115.207-.594.369-1.362.342.086-.406.158-.824.211-1.252.239-.2.466-.4.683-.6C12.025,10.225,12.145,10.775,12.02,11Zm-.467-4.491c-.218-.2-.444-.4-.683-.6q-.079-.633-.212-1.257c.057,0,.124-.012.178-.012.673,0,1.078.167,1.185.358.126.226.006.775-.467,1.509ZM7,7A1,1,0,1,0,8,8,1,1,0,0,0,7,7Z" transform="translate(285 1343.569)" fill="#f24dc3"/>
          <path id="Icon_awesome-atom-3" data-name="Icon awesome-atom" d="M12.907,8c1.254-1.715,1.3-3.082.786-4-.341-.61-1.267-1.585-3.635-1.309C9.386,1.09,8.364,0,7,0S4.614,1.09,3.943,2.691C1.576,2.417.648,3.39.307,4c-.512.919-.469,2.284.786,4C-.161,9.715-.2,11.082.307,12c.913,1.636,3.178,1.362,3.635,1.309C4.614,14.91,5.636,16,7,16s2.387-1.091,3.058-2.691c.458.053,2.722.327,3.635-1.309C14.2,11.081,14.162,9.716,12.907,8ZM1.981,11c-.126-.225-.006-.775.467-1.509.218.2.444.4.683.6.053.428.125.846.211,1.253-.768.028-1.247-.137-1.362-.343ZM3.131,5.91c-.239.2-.466.4-.683.6C1.975,5.775,1.855,5.225,1.981,5c.107-.192.512-.358,1.185-.358.053,0,.121.009.178.012q-.133.624-.212,1.257ZM7,2c.3,0,.694.423,1.058,1.164-.35.116-.7.25-1.058.4-.357-.152-.708-.286-1.058-.4C6.306,2.423,6.7,2,7,2ZM7,14c-.3,0-.694-.423-1.058-1.164.35-.116.7-.25,1.058-.4.357.152.708.286,1.058.4C7.694,13.578,7.3,14,7,14ZM8.953,9.084A13.362,13.362,0,0,1,7,10.255,13.378,13.378,0,0,1,5.047,9.084a12.6,12.6,0,0,1,0-2.167A13.409,13.409,0,0,1,7,5.746,13.383,13.383,0,0,1,8.953,6.917,12.635,12.635,0,0,1,8.953,9.084ZM12.02,11c-.115.207-.594.369-1.362.342.086-.406.158-.824.211-1.252.239-.2.466-.4.683-.6C12.025,10.225,12.145,10.775,12.02,11Zm-.467-4.491c-.218-.2-.444-.4-.683-.6q-.079-.633-.212-1.257c.057,0,.124-.012.178-.012.673,0,1.078.167,1.185.358.126.226.006.775-.467,1.509ZM7,7A1,1,0,1,0,8,8,1,1,0,0,0,7,7Z" transform="translate(285 1392.569)" fill="#f24dc3"/>
        </g>
      </g>
    </g>
    <path id="Trazado_210584" data-name="Trazado 210584" d="M263.981,372.423H30.528A30.527,30.527,0,0,1,0,341.9V49.171a30.528,30.528,0,0,1,30.528-30.53H263.981a30.528,30.528,0,0,1,30.527,30.53V341.9a30.527,30.527,0,0,1-30.527,30.528" transform="translate(1020 1195.852)" fill="#fff" stroke="#1e3094" stroke-width="1"/>
    <rect id="Rectángulo_66091" data-name="Rectángulo 66091" width="252.374" height="41.613" transform="translate(1041.068 1306.214)" fill="#ccc"/>
    <path id="Trazado_210585" data-name="Trazado 210585" d="M37.383,77.414a4.26,4.26,0,0,1-1.021-3.076v-5.43h.994V74.3a3.568,3.568,0,0,0,.738,2.465,3.219,3.219,0,0,0,4.276,0,3.568,3.568,0,0,0,.738-2.465V68.908h.967v5.43a4.267,4.267,0,0,1-1.015,3.076,3.741,3.741,0,0,1-2.836,1.056,3.757,3.757,0,0,1-2.84-1.056" transform="translate(1059.409 1253.33)" fill="#12263f"/>
    <path id="Trazado_210586" data-name="Trazado 210586" d="M42.48,77.008a3.536,3.536,0,0,1-1.227-.629l.429-.758A3.56,3.56,0,0,0,42.8,76.2a4.341,4.341,0,0,0,1.394.223,2.648,2.648,0,0,0,1.427-.3.973.973,0,0,0,.465-.861.772.772,0,0,0-.256-.615,1.663,1.663,0,0,0-.644-.34,9.122,9.122,0,0,0-1.031-.223,11.854,11.854,0,0,1-1.382-.331,2.032,2.032,0,0,1-.892-.577,1.607,1.607,0,0,1-.369-1.123,1.767,1.767,0,0,1,.738-1.463,3.288,3.288,0,0,1,2.053-.569,5.325,5.325,0,0,1,1.367.181,3.8,3.8,0,0,1,1.127.481l-.417.773a3.534,3.534,0,0,0-2.078-.611,2.393,2.393,0,0,0-1.375.325,1,1,0,0,0-.463.854.845.845,0,0,0,.263.65,1.589,1.589,0,0,0,.65.358,10.29,10.29,0,0,0,1.071.238,12.156,12.156,0,0,1,1.354.325,2,2,0,0,1,.873.554,1.547,1.547,0,0,1,.363,1.084,1.728,1.728,0,0,1-.773,1.484,3.622,3.622,0,0,1-2.138.55,5.307,5.307,0,0,1-1.642-.252" transform="translate(1064.71 1254.528)" fill="#12263f"/>
    <path id="Trazado_210587" data-name="Trazado 210587" d="M51.7,73.927H45.8a2.551,2.551,0,0,0,.844,1.794,2.786,2.786,0,0,0,1.932.683,3.047,3.047,0,0,0,1.207-.235,2.674,2.674,0,0,0,.952-.7l.536.623a3.016,3.016,0,0,1-1.173.867,3.951,3.951,0,0,1-1.548.3,3.9,3.9,0,0,1-1.925-.467A3.362,3.362,0,0,1,45.319,75.5a3.722,3.722,0,0,1-.469-1.869A3.838,3.838,0,0,1,45.3,71.76a3.291,3.291,0,0,1,1.234-1.288,3.611,3.611,0,0,1,3.522,0,3.267,3.267,0,0,1,1.219,1.282,3.873,3.873,0,0,1,.444,1.875ZM46.586,71.5a2.578,2.578,0,0,0-.784,1.713h5A2.6,2.6,0,0,0,50.02,71.5a2.41,2.41,0,0,0-1.725-.656,2.384,2.384,0,0,0-1.709.656" transform="translate(1068.608 1254.529)" fill="#12263f"/>
    <path id="Trazado_210588" data-name="Trazado 210588" d="M51.311,70.379a3.363,3.363,0,0,1,1.642-.365v.934l-.227-.012a2.244,2.244,0,0,0-1.744.69,2.775,2.775,0,0,0-.629,1.936v3.632H49.4V70.068h.913v1.394a2.327,2.327,0,0,1,1-1.084" transform="translate(1073.54 1254.529)" fill="#12263f"/>
    <path id="Trazado_210589" data-name="Trazado 210589" d="M57.956,70.791a3.062,3.062,0,0,1,.784,2.269v4.13h-.95V73.154a2.373,2.373,0,0,0-.55-1.692,2.057,2.057,0,0,0-1.569-.581,2.39,2.39,0,0,0-1.8.683,2.589,2.589,0,0,0-.665,1.888v3.738h-.952V70.066h.913v1.315a2.673,2.673,0,0,1,1.079-1.011,3.44,3.44,0,0,1,1.6-.356,2.866,2.866,0,0,1,2.111.777" transform="translate(1076.629 1254.529)" fill="#12263f"/>
    <path id="Trazado_210590" data-name="Trazado 210590" d="M61.822,70.71a2.711,2.711,0,0,1,.738,2.065v4.416h-.913V76.08a2.175,2.175,0,0,1-.946.867,3.271,3.271,0,0,1-1.482.313,2.884,2.884,0,0,1-1.877-.569,1.972,1.972,0,0,1-.046-2.967,3.165,3.165,0,0,1,2.071-.554h2.24v-.433a1.837,1.837,0,0,0-.511-1.4,2.088,2.088,0,0,0-1.488-.481,3.722,3.722,0,0,0-1.288.225,3.23,3.23,0,0,0-1.059.615l-.429-.717a3.74,3.74,0,0,1,1.288-.711,4.911,4.911,0,0,1,1.582-.25,2.973,2.973,0,0,1,2.119.7m-1.073,5.418a2.228,2.228,0,0,0,.859-1.077V73.886H59.395q-1.813,0-1.811,1.273a1.165,1.165,0,0,0,.469.981,2.108,2.108,0,0,0,1.315.36,2.5,2.5,0,0,0,1.382-.373" transform="translate(1081.393 1254.529)" fill="#12263f"/>
    <path id="Trazado_210591" data-name="Trazado 210591" d="M71.929,70.784a3.116,3.116,0,0,1,.759,2.275v4.132h-.952V73.155a2.442,2.442,0,0,0-.529-1.694,1.924,1.924,0,0,0-1.5-.581,2.237,2.237,0,0,0-1.73.683,2.679,2.679,0,0,0-.629,1.89v3.738H66.4V73.155a2.442,2.442,0,0,0-.529-1.694,1.94,1.94,0,0,0-1.509-.581,2.238,2.238,0,0,0-1.723.683A2.664,2.664,0,0,0,62,73.453v3.738h-.952V70.067h.913v1.3a2.552,2.552,0,0,1,1.046-1,3.255,3.255,0,0,1,1.542-.352,2.994,2.994,0,0,1,1.534.377,2.34,2.34,0,0,1,.973,1.125,2.772,2.772,0,0,1,1.119-1.1,3.446,3.446,0,0,1,1.671-.4,2.785,2.785,0,0,1,2.084.771" transform="translate(1086.162 1254.528)" fill="#12263f"/>
    <path id="Trazado_210592" data-name="Trazado 210592" d="M74.72,73.927h-5.9a2.542,2.542,0,0,0,.844,1.794A2.786,2.786,0,0,0,71.6,76.4,3.047,3.047,0,0,0,72.8,76.17a2.655,2.655,0,0,0,.952-.7l.536.623a3.016,3.016,0,0,1-1.173.867,3.944,3.944,0,0,1-1.548.3,3.9,3.9,0,0,1-1.925-.467A3.362,3.362,0,0,1,68.338,75.5a3.722,3.722,0,0,1-.469-1.869,3.838,3.838,0,0,1,.448-1.869,3.291,3.291,0,0,1,1.234-1.288,3.611,3.611,0,0,1,3.522,0,3.267,3.267,0,0,1,1.219,1.282,3.872,3.872,0,0,1,.442,1.875ZM69.6,71.5a2.578,2.578,0,0,0-.784,1.713h5a2.6,2.6,0,0,0-.784-1.713,2.41,2.41,0,0,0-1.725-.656A2.384,2.384,0,0,0,69.6,71.5" transform="translate(1093.556 1254.529)" fill="#12263f"/>
    <rect id="Rectángulo_66092" data-name="Rectángulo 66092" width="41.613" height="41.613" transform="translate(1041.07 1306.214)" fill="#e6e6e6"/>
    <path id="Trazado_210593" data-name="Trazado 210593" d="M24.711,74.416a3.64,3.64,0,1,0-3.242,0A5.821,5.821,0,0,0,17.251,80v2.749H28.929V80a5.821,5.821,0,0,0-4.218-5.582" transform="translate(1038.696 1251.841)" fill="#1e3094"/>
    <rect id="Rectángulo_66093" data-name="Rectángulo 66093" width="252.374" height="41.613" transform="translate(1041.068 1379.005)" fill="#ccc"/>
    <path id="Trazado_210594" data-name="Trazado 210594" d="M38.732,97.976l1.663.948-.308.569-1.675-.99v1.923h-.619l.015-1.923-1.677.99-.321-.569,1.675-.948-1.675-.948.321-.581,1.677,1-.015-1.925h.619v1.925l1.675-1,.308.581Z" transform="translate(1058.81 1302.176)" fill="#12263f"/>
    <path id="Trazado_210595" data-name="Trazado 210595" d="M41.667,97.976l1.663.948-.308.569-1.675-.99v1.923h-.619l.015-1.923-1.677.99-.321-.569,1.675-.948-1.675-.948.321-.581,1.677,1-.015-1.925h.619v1.925l1.675-1,.308.581Z" transform="translate(1061.989 1302.176)" fill="#12263f"/>
    <path id="Trazado_210596" data-name="Trazado 210596" d="M44.6,97.976l1.663.948-.308.569L44.28,98.5v1.923h-.619l.015-1.923L42,99.493l-.321-.569,1.675-.948-1.675-.948L42,96.446l1.677,1-.015-1.925h.619v1.925l1.675-1,.308.581Z" transform="translate(1065.169 1302.176)" fill="#12263f"/>
    <path id="Trazado_210597" data-name="Trazado 210597" d="M47.535,97.976l1.663.948-.308.569-1.675-.99v1.923H46.6L46.61,98.5l-1.677.99-.321-.569,1.675-.948-1.675-.948.321-.581,1.677,1L46.6,95.523h.619v1.925l1.675-1,.308.581Z" transform="translate(1068.35 1302.176)" fill="#12263f"/>
    <path id="Trazado_210598" data-name="Trazado 210598" d="M50.47,97.976l1.663.948-.308.569-1.675-.99v1.923H49.53l.015-1.923-1.677.99-.321-.569,1.675-.948-1.675-.948.321-.581,1.677,1-.015-1.925h.619v1.925l1.675-1,.308.581Z" transform="translate(1071.53 1302.176)" fill="#12263f"/>
    <path id="Trazado_210599" data-name="Trazado 210599" d="M53.4,97.976l1.663.948-.308.569-1.675-.99v1.923h-.619l.015-1.923-1.677.99-.321-.569,1.675-.948-1.675-.948.321-.581,1.677,1-.015-1.925h.619v1.925l1.675-1,.308.581Z" transform="translate(1074.71 1302.176)" fill="#12263f"/>
    <path id="Trazado_210600" data-name="Trazado 210600" d="M56.338,97.976,58,98.924l-.308.569-1.675-.99v1.923H55.4l.015-1.923-1.677.99-.321-.569,1.675-.948-1.675-.948.321-.581,1.677,1L55.4,95.523h.619v1.925l1.675-1,.308.581Z" transform="translate(1077.89 1302.176)" fill="#12263f"/>
    <path id="Trazado_210601" data-name="Trazado 210601" d="M59.272,97.976l1.663.948-.308.569-1.675-.99v1.923h-.619l.015-1.923-1.677.99-.321-.569,1.675-.948-1.675-.948.321-.581,1.677,1-.015-1.925h.619v1.925l1.675-1,.308.581Z" transform="translate(1081.07 1302.176)" fill="#12263f"/>
    <path id="Trazado_210602" data-name="Trazado 210602" d="M62.207,97.976l1.663.948-.308.569-1.675-.99v1.923h-.619l.015-1.923-1.677.99-.321-.569,1.675-.948-1.675-.948.321-.581,1.677,1-.015-1.925h.619v1.925l1.675-1,.308.581Z" transform="translate(1084.25 1302.176)" fill="#12263f"/>
    <path id="Trazado_210603" data-name="Trazado 210603" d="M65.141,97.976l1.663.948-.308.569L64.82,98.5v1.923H64.2l.015-1.923-1.677.99-.321-.569,1.675-.948-1.675-.948.321-.581,1.677,1L64.2,95.523h.619v1.925l1.675-1,.308.581Z" transform="translate(1087.43 1302.176)" fill="#12263f"/>
    <path id="Trazado_210604" data-name="Trazado 210604" d="M68.075,97.976l1.663.948-.308.569-1.675-.99v1.923h-.619L67.15,98.5l-1.677.99-.321-.569,1.675-.948-1.675-.948.321-.581,1.677,1-.015-1.925h.619v1.925l1.675-1,.308.581Z" transform="translate(1090.61 1302.176)" fill="#12263f"/>
    <path id="Trazado_210605" data-name="Trazado 210605" d="M71.009,97.976l1.663.948-.308.569-1.675-.99v1.923h-.619l.015-1.923-1.677.99-.321-.569,1.675-.948-1.675-.948.321-.581,1.677,1-.015-1.925h.619v1.925l1.675-1,.308.581Z" transform="translate(1093.79 1302.176)" fill="#12263f"/>
    <rect id="Rectángulo_66094" data-name="Rectángulo 66094" width="41.613" height="41.613" transform="translate(1041.07 1379.005)" fill="#e6e6e6"/>
    <path id="Trazado_210606" data-name="Trazado 210606" d="M28.57,97.614H27.551V96.341a4.257,4.257,0,0,0-8.514,0v1.273H18.015a1.456,1.456,0,0,0-1.45,1.448v8.287a1.459,1.459,0,0,0,1.45,1.463H28.57a1.462,1.462,0,0,0,1.463-1.463V99.063a1.459,1.459,0,0,0-1.463-1.448m-7.608-1.273a2.333,2.333,0,0,1,4.666,0v1.273H20.962Zm3.119,8.635v2.117a.158.158,0,0,1-.167.152H22.9a.155.155,0,0,1-.154-.152v-2.117a1.859,1.859,0,1,1,1.334,0" transform="translate(1037.953 1298.448)" fill="#1e3094"/>
    <path id="Trazado_210607" data-name="Trazado 210607" d="M255.175,156.788H17.419a7.307,7.307,0,0,1-7.308-7.308v-27a7.307,7.307,0,0,1,7.308-7.308H255.175a7.307,7.307,0,0,1,7.308,7.308v27a7.307,7.307,0,0,1-7.308,7.308" transform="translate(1030.958 1343.475)" fill="#1e3094"/>
    <path id="Trazado_210625" data-name="Trazado 210625" d="M96.446,0a48.815,48.815,0,1,0,48.815,48.815A48.871,48.871,0,0,0,96.446,0" transform="translate(1071.622 1175.648)" fill="#fff" stroke="#1e3094" stroke-width="1"/>
    <path id="Trazado_210626" data-name="Trazado 210626" d="M113.061,51.211H58.595a1.168,1.168,0,0,1-1.167-1.167V21.515a1.166,1.166,0,0,1,1.167-1.167h9.444l1.346-6.089a1.168,1.168,0,0,1,1.14-.915h30.607a1.168,1.168,0,0,1,1.14.915l1.346,6.089h9.444a1.166,1.166,0,0,1,1.167,1.167V50.044a1.168,1.168,0,0,1-1.167,1.167m-53.3-2.334h52.132v-26.2H102.68a1.168,1.168,0,0,1-1.14-.915l-1.346-6.089H71.462l-1.346,6.089a1.168,1.168,0,0,1-1.14.915H59.762Z" transform="translate(1082.24 1190.111)" fill="#1e3094"/>
    <path id="Trazado_210627" data-name="Trazado 210627" d="M77.6,42.029A12.579,12.579,0,1,1,90.177,29.451,12.593,12.593,0,0,1,77.6,42.029m0-22.824A10.245,10.245,0,1,0,87.843,29.451,10.256,10.256,0,0,0,77.6,19.2" transform="translate(1090.469 1193.934)" fill="#1e3094"/>
    <path id="Trazado_210628" data-name="Trazado 210628" d="M74.1,23.307a3.048,3.048,0,1,1-3.049-3.047A3.049,3.049,0,0,1,74.1,23.307" transform="translate(1093.7 1197.606)" fill="#1e3094"/>
    <path id="Trazado_210629" data-name="Trazado 210629" d="M86.208,21.538H78.946a1.167,1.167,0,0,1,0-2.334h7.262a1.167,1.167,0,1,1,0,2.334" transform="translate(1104.296 1196.462)" fill="#1e3094"/>
    <rect id="Rectángulo_66097" data-name="Rectángulo 66097" width="252.374" height="0.754" transform="translate(1041.068 1521.763)" fill="#1e3094"/>
    <g id="Grupo_209867" data-name="Grupo 209867" transform="translate(-612.579 -350.02)">
      <rect id="Rectángulo_66093-2" data-name="Rectángulo 66093" width="472.605" height="77.926" transform="translate(1018.579 1525.549)" fill="#1e3094"/>
      <path id="Trazado_210594-2" data-name="Trazado 210594" d="M41.284,100.116l3.114,1.775-.578,1.065L40.683,101.1v3.6H39.524l.027-3.6-3.141,1.854-.6-1.065,3.137-1.775-3.137-1.775.6-1.089,3.141,1.877-.027-3.606h1.159v3.606l3.137-1.877.578,1.089Z" transform="translate(1083.05 1465.034)" fill="#fff"/>
      <path id="Trazado_210595-2" data-name="Trazado 210595" d="M44.218,100.116l3.114,1.775-.578,1.065L43.617,101.1v3.6H42.458l.027-3.6-3.141,1.854-.6-1.065,3.137-1.775-3.137-1.775.6-1.089,3.141,1.877-.027-3.606h1.159v3.606l3.137-1.877.578,1.089Z" transform="translate(1091.566 1465.034)" fill="#fff"/>
      <path id="Trazado_210596-2" data-name="Trazado 210596" d="M47.152,100.116l3.114,1.775-.578,1.065L46.551,101.1v3.6H45.392l.027-3.6-3.141,1.854-.6-1.065,3.137-1.775-3.137-1.775.6-1.089,3.141,1.877-.027-3.606h1.159v3.606l3.137-1.877.578,1.089Z" transform="translate(1100.082 1465.034)" fill="#fff"/>
      <path id="Trazado_210597-2" data-name="Trazado 210597" d="M50.086,100.116l3.114,1.775-.578,1.065L49.485,101.1v3.6H48.326l.027-3.6-3.141,1.854-.6-1.065,3.137-1.775-3.137-1.775.6-1.089,3.141,1.877-.027-3.606h1.159v3.606l3.137-1.877.578,1.089Z" transform="translate(1108.597 1465.034)" fill="#fff"/>
      <path id="Trazado_210598-2" data-name="Trazado 210598" d="M53.021,100.116l3.114,1.775-.578,1.065L52.42,101.1v3.6H51.261l.027-3.6-3.141,1.854-.6-1.065,3.137-1.775-3.137-1.775.6-1.089,3.141,1.877-.027-3.606H52.42v3.606l3.137-1.877.578,1.089Z" transform="translate(1117.114 1465.034)" fill="#fff"/>
      <path id="Trazado_210599-2" data-name="Trazado 210599" d="M55.955,100.116l3.114,1.775-.578,1.065L55.354,101.1v3.6H54.2l.027-3.6-3.141,1.854-.6-1.065,3.137-1.775L50.48,98.341l.6-1.089,3.141,1.877L54.2,95.523h1.159v3.606l3.137-1.877.578,1.089Z" transform="translate(1125.629 1465.034)" fill="#fff"/>
      <path id="Trazado_210600-2" data-name="Trazado 210600" d="M58.889,100.116,62,101.892l-.578,1.065L58.288,101.1v3.6H57.129l.027-3.6-3.141,1.854-.6-1.065,3.137-1.775-3.137-1.775.6-1.089,3.141,1.877-.027-3.606h1.159v3.606l3.137-1.877L62,98.341Z" transform="translate(1134.144 1465.034)" fill="#fff"/>
      <path id="Trazado_210601-2" data-name="Trazado 210601" d="M61.824,100.116l3.114,1.775-.578,1.065L61.223,101.1v3.6H60.064l.027-3.6-3.141,1.854-.6-1.065,3.137-1.775-3.137-1.775.6-1.089,3.141,1.877-.027-3.606h1.159v3.606l3.137-1.877.578,1.089Z" transform="translate(1142.661 1465.034)" fill="#fff"/>
      <path id="Trazado_210602-2" data-name="Trazado 210602" d="M64.758,100.116l3.114,1.775-.578,1.065L64.157,101.1v3.6H63l.027-3.6-3.141,1.854-.6-1.065,3.137-1.775-3.137-1.775.6-1.089,3.141,1.877L63,95.523h1.159v3.606l3.137-1.877.578,1.089Z" transform="translate(1151.177 1465.034)" fill="#fff"/>
      <path id="Trazado_210603-2" data-name="Trazado 210603" d="M67.692,100.116l3.114,1.775-.578,1.065L67.091,101.1v3.6H65.932l.027-3.6-3.141,1.854-.6-1.065,3.137-1.775-3.137-1.775.6-1.089,3.141,1.877-.027-3.606h1.159v3.606l3.137-1.877.578,1.089Z" transform="translate(1159.691 1465.034)" fill="#fff"/>
      <path id="Trazado_210604-2" data-name="Trazado 210604" d="M70.626,100.116l3.114,1.775-.578,1.065L70.025,101.1v3.6H68.866l.027-3.6-3.141,1.854-.6-1.065,3.137-1.775-3.137-1.775.6-1.089,3.141,1.877-.027-3.606h1.159v3.606l3.137-1.877.578,1.089Z" transform="translate(1168.207 1465.034)" fill="#fff"/>
      <path id="Trazado_210605-2" data-name="Trazado 210605" d="M73.56,100.116l3.114,1.775-.578,1.065L72.959,101.1v3.6H71.8l.027-3.6-3.141,1.854-.6-1.065,3.137-1.775-3.137-1.775.6-1.089,3.141,1.877L71.8,95.523h1.159v3.606L76.1,97.252l.578,1.089Z" transform="translate(1176.722 1465.034)" fill="#fff"/>
      <rect id="Rectángulo_66094-2" data-name="Rectángulo 66094" width="77.927" height="77.926" transform="translate(1018.583 1525.549)" fill="#fff" opacity="0.253"/>
      <path id="Trazado_210606-2" data-name="Trazado 210606" d="M39.045,102.44H37.137v-2.384a7.972,7.972,0,0,0-15.944,0v2.384H19.281a2.727,2.727,0,0,0-2.716,2.712v15.519a2.733,2.733,0,0,0,2.716,2.739H39.045a2.738,2.738,0,0,0,2.739-2.739V105.152a2.732,2.732,0,0,0-2.739-2.712M24.8,100.056a4.368,4.368,0,0,1,8.737,0v2.384H24.8Zm5.842,16.17v3.965a.3.3,0,0,1-.312.285h-1.9a.29.29,0,0,1-.289-.285v-3.965a3.481,3.481,0,1,1,2.5,0" transform="translate(1027.201 1455.052)" fill="#fff"/>
    </g>
  </g>
</svg>
