<svg xmlns="http://www.w3.org/2000/svg" xmlns:xlink="http://www.w3.org/1999/xlink" width="620" height="331.673" viewBox="0 0 620 331.673">
  <defs>
    <linearGradient id="linear-gradient" x1="0.5" x2="0.5" y2="1" gradientUnits="objectBoundingBox">
      <stop offset="0" stop-color="#210557"/>
      <stop offset="1" stop-color="#51186d"/>
    </linearGradient>
    <clipPath id="clip-path">
      <rect id="Rectángulo_60602" data-name="Rectángulo 60602" width="234.416" height="37.004" fill="#fff" stroke="#d3d3d3" stroke-width="1"/>
    </clipPath>
    <clipPath id="clip-path-3">
      <rect id="Rectángulo_60608" data-name="Rectángulo 60608" width="75.745" height="8.808" fill="#12263f"/>
    </clipPath>
  </defs>
  <g id="Grupo_212213" data-name="Grupo 212213" transform="translate(-180 -2504)">
    <rect id="Image_Place_Holder" data-name="Image Place Holder" width="620" height="331.673" transform="translate(180 2504)" fill="url(#linear-gradient)"/>
    <g id="Grupo_209869" data-name="Grupo 209869" transform="translate(0 -1049)">
      <rect id="Rectángulo_60600" data-name="Rectángulo 60600" width="302.002" height="189.135" rx="15.611" transform="translate(245.604 3616.632)" fill="#edecf0"/>
      <path id="Trazado_208620" data-name="Trazado 208620" d="M302,38.874v-14.4A24.479,24.479,0,0,0,277.523,0H24.479A24.48,24.48,0,0,0,0,24.478v14.4Z" transform="translate(245.604 3601.928)" fill="#f24dc3" fill-rule="evenodd"/>
      <g id="Grupo_199737" data-name="Grupo 199737" transform="translate(279.397 3656.593)">
        <g id="Grupo_199736" data-name="Grupo 199736">
          <g id="Grupo_199735" data-name="Grupo 199735" clip-path="url(#clip-path)">
            <rect id="Rectángulo_60601" data-name="Rectángulo 60601" width="234.415" height="37.005" transform="translate(0 0)" fill="#fff" stroke="#d3d3d3" stroke-width="1"/>
          </g>
        </g>
      </g>
      <g id="Grupo_199740" data-name="Grupo 199740" transform="translate(279.397 3705.461)">
        <g id="Grupo_199739" data-name="Grupo 199739">
          <g id="Grupo_199738" data-name="Grupo 199738" clip-path="url(#clip-path)">
            <rect id="Rectángulo_60603" data-name="Rectángulo 60603" width="234.415" height="37.005" transform="translate(0 0)" fill="#fff" stroke="#d3d3d3" stroke-width="1"/>
          </g>
        </g>
      </g>
      <path id="Trazado_208621" data-name="Trazado 208621" d="M34.412,50.238a1.932,1.932,0,0,0,.98-.227,1.821,1.821,0,0,0,.623-.593,2.445,2.445,0,0,0,.328-.84,4.719,4.719,0,0,0,.1-.955V44.207h.856v3.415a5.213,5.213,0,0,1-.157,1.3,3.118,3.118,0,0,1-.5,1.082,2.4,2.4,0,0,1-.889.734,3.383,3.383,0,0,1-2.688-.011,2.544,2.544,0,0,1-.889-.757,3.1,3.1,0,0,1-.485-1.083,5.377,5.377,0,0,1-.149-1.262V44.207H32.4v3.415a4.7,4.7,0,0,0,.1.974,2.481,2.481,0,0,0,.334.833,1.741,1.741,0,0,0,.618.585,1.886,1.886,0,0,0,.966.224" transform="translate(263.518 3627.037)" fill="#004151"/>
      <path id="Trazado_208622" data-name="Trazado 208622" d="M37.9,50.438a3.882,3.882,0,0,1-1.179-.183,2.928,2.928,0,0,1-1-.539l.361-.56a3.557,3.557,0,0,0,.875.5,2.6,2.6,0,0,0,.924.165,1.541,1.541,0,0,0,.861-.21A.694.694,0,0,0,39.064,49a.549.549,0,0,0-.085-.309.737.737,0,0,0-.259-.224,2.255,2.255,0,0,0-.436-.171c-.179-.049-.384-.105-.619-.16-.3-.077-.555-.149-.77-.22a2.087,2.087,0,0,1-.533-.249.854.854,0,0,1-.3-.339,1.175,1.175,0,0,1-.1-.5,1.452,1.452,0,0,1,.147-.662,1.388,1.388,0,0,1,.4-.483,1.75,1.75,0,0,1,.6-.295,2.67,2.67,0,0,1,.748-.1,3,3,0,0,1,1.046.18,2.574,2.574,0,0,1,.818.475l-.381.5a2.144,2.144,0,0,0-.7-.414,2.41,2.41,0,0,0-.8-.138,1.475,1.475,0,0,0-.775.193.68.68,0,0,0-.318.626.605.605,0,0,0,.061.285.521.521,0,0,0,.205.2,1.551,1.551,0,0,0,.365.154c.149.044.328.093.538.144.329.074.616.154.861.232a2.535,2.535,0,0,1,.608.279,1.107,1.107,0,0,1,.362.379,1.12,1.12,0,0,1,.119.533,1.317,1.317,0,0,1-.533,1.105,2.3,2.3,0,0,1-1.436.408" transform="translate(265.896 3627.654)" fill="#004151"/>
      <path id="Trazado_208623" data-name="Trazado 208623" d="M41.313,50.438a2.575,2.575,0,0,1-1.027-.2,2.487,2.487,0,0,1-.8-.558,2.521,2.521,0,0,1-.517-.823,2.684,2.684,0,0,1-.187-.993,2.638,2.638,0,0,1,.187-.989,2.489,2.489,0,0,1,2.354-1.581,2.467,2.467,0,0,1,1.022.209,2.423,2.423,0,0,1,.786.558,2.526,2.526,0,0,1,.5.808,2.675,2.675,0,0,1,.174.955c0,.071,0,.135,0,.191a1.135,1.135,0,0,1-.013.135H39.668a1.906,1.906,0,0,0,.171.673,1.737,1.737,0,0,0,.37.524,1.71,1.71,0,0,0,.519.343,1.535,1.535,0,0,0,.613.122,1.593,1.593,0,0,0,.447-.061,1.89,1.89,0,0,0,.411-.165,1.472,1.472,0,0,0,.337-.259,1.022,1.022,0,0,0,.223-.342l.723.2a1.835,1.835,0,0,1-.337.5,2.172,2.172,0,0,1-.494.4,2.527,2.527,0,0,1-.624.26,2.611,2.611,0,0,1-.713.094m1.7-2.909a1.772,1.772,0,0,0-.176-.652,1.737,1.737,0,0,0-.372-.508,1.642,1.642,0,0,0-.517-.328,1.679,1.679,0,0,0-1.775.331,1.7,1.7,0,0,0-.362.511,1.913,1.913,0,0,0-.166.646Z" transform="translate(267.632 3627.654)" fill="#004151"/>
      <path id="Trazado_208624" data-name="Trazado 208624" d="M45.194,46.093a2.123,2.123,0,0,0-1.107.325,1.642,1.642,0,0,0-.681.845v3.062h-.837V45.361h.779v1.152a2.513,2.513,0,0,1,.676-.851,1.39,1.39,0,0,1,.894-.34h.161a.405.405,0,0,1,.114.013Z" transform="translate(269.783 3627.67)" fill="#004151"/>
      <path id="Trazado_208625" data-name="Trazado 208625" d="M49.074,50.342h-.837V47.567a2.13,2.13,0,0,0-.243-1.162.834.834,0,0,0-.737-.362,1.389,1.389,0,0,0-.513.1,2.136,2.136,0,0,0-.486.268,1.921,1.921,0,0,0-.4.412,1.7,1.7,0,0,0-.256.524v2.993h-.839V45.379h.762v1.065a2.176,2.176,0,0,1,.851-.837,2.417,2.417,0,0,1,1.212-.314,1.46,1.46,0,0,1,.713.157,1.191,1.191,0,0,1,.458.437,1.917,1.917,0,0,1,.241.66,4.43,4.43,0,0,1,.072.826Z" transform="translate(271.03 3627.654)" fill="#004151"/>
      <path id="Trazado_208626" data-name="Trazado 208626" d="M49.8,50.438a1.9,1.9,0,0,1-.685-.119A1.682,1.682,0,0,1,48.568,50a1.465,1.465,0,0,1-.357-.486,1.425,1.425,0,0,1-.127-.594,1.358,1.358,0,0,1,.152-.641,1.43,1.43,0,0,1,.433-.5,2.061,2.061,0,0,1,.666-.312,3.028,3.028,0,0,1,.84-.11,3.921,3.921,0,0,1,.734.067,3.194,3.194,0,0,1,.655.18v-.4a1.195,1.195,0,0,0-1.312-1.3,2.781,2.781,0,0,0-1.579.579l-.276-.543a4.152,4.152,0,0,1,.961-.483,3.038,3.038,0,0,1,.989-.163,2.092,2.092,0,0,1,1.5.524,1.931,1.931,0,0,1,.552,1.474v2.027c0,.2.088.3.267.3v.723c-.064.013-.124.022-.182.03a1.458,1.458,0,0,1-.162.009.81.81,0,0,1-.408-.116.446.446,0,0,1-.22-.389l-.019-.353a2.154,2.154,0,0,1-.39.4,2.421,2.421,0,0,1-1.493.511M50,49.81a1.845,1.845,0,0,0,.779-.171,1.744,1.744,0,0,0,.6-.417.629.629,0,0,0,.18-.392V48.1a3.641,3.641,0,0,0-1.256-.235,1.835,1.835,0,0,0-1.036.26.82.82,0,0,0-.39.717.89.89,0,0,0,.077.367.928.928,0,0,0,.22.31,1.1,1.1,0,0,0,.351.213,1.291,1.291,0,0,0,.475.08" transform="translate(272.915 3627.654)" fill="#004151"/>
      <path id="Trazado_208627" data-name="Trazado 208627" d="M59.185,50.342h-.837V47.567a2.09,2.09,0,0,0-.251-1.154.855.855,0,0,0-.748-.37,1.33,1.33,0,0,0-.917.368,2.02,2.02,0,0,0-.575.946v2.985h-.837V47.567a2.1,2.1,0,0,0-.248-1.162.845.845,0,0,0-.742-.362,1.361,1.361,0,0,0-.913.358,1.932,1.932,0,0,0-.58.949v2.993H51.7V45.379h.76v1.065a2.264,2.264,0,0,1,.789-.851,2.049,2.049,0,0,1,1.094-.3,1.425,1.425,0,0,1,.994.336,1.473,1.473,0,0,1,.453.872,2.069,2.069,0,0,1,1.893-1.207,1.488,1.488,0,0,1,.718.157,1.188,1.188,0,0,1,.461.437,2.022,2.022,0,0,1,.248.66,4.293,4.293,0,0,1,.075.826Z" transform="translate(274.969 3627.654)" fill="#004151"/>
      <path id="Trazado_208628" data-name="Trazado 208628" d="M59.61,50.438a2.575,2.575,0,0,1-1.027-.2,2.463,2.463,0,0,1-.8-.558,2.5,2.5,0,0,1-.519-.823,2.683,2.683,0,0,1-.187-.993,2.638,2.638,0,0,1,.187-.989,2.489,2.489,0,0,1,2.354-1.581,2.467,2.467,0,0,1,1.022.209,2.407,2.407,0,0,1,.786.558,2.526,2.526,0,0,1,.5.808,2.675,2.675,0,0,1,.174.955c0,.071,0,.135,0,.191a.878.878,0,0,1-.013.135H57.965a1.906,1.906,0,0,0,.171.673,1.737,1.737,0,0,0,.37.524,1.711,1.711,0,0,0,.519.343,1.54,1.54,0,0,0,.613.122,1.585,1.585,0,0,0,.447-.061,1.89,1.89,0,0,0,.411-.165,1.472,1.472,0,0,0,.337-.259,1.022,1.022,0,0,0,.223-.342l.723.2a1.835,1.835,0,0,1-.337.5,2.172,2.172,0,0,1-.494.4,2.527,2.527,0,0,1-.624.26,2.611,2.611,0,0,1-.713.094m1.7-2.909a1.772,1.772,0,0,0-.176-.652,1.737,1.737,0,0,0-.372-.508,1.681,1.681,0,0,0-2.292,0,1.665,1.665,0,0,0-.361.511,1.842,1.842,0,0,0-.166.646Z" transform="translate(278.024 3627.654)" fill="#004151"/>
      <path id="Trazado_208629" data-name="Trazado 208629" d="M32.254,80.658l.817-1.207-1.281-.409.241-.778,1.3.5-.056-1.372h.947l-.055,1.372,1.3-.5.241.778-1.281.409.836,1.207-.706.466-.8-1.247-.818,1.247Z" transform="translate(263.66 3645.885)" fill="#004151"/>
      <path id="Trazado_208630" data-name="Trazado 208630" d="M36.162,80.658l.817-1.207L35.7,79.042l.241-.778,1.3.5-.056-1.372h.947l-.055,1.372,1.3-.5.241.778-1.281.409.836,1.207-.706.466-.8-1.247-.818,1.247Z" transform="translate(265.88 3645.885)" fill="#004151"/>
      <path id="Trazado_208631" data-name="Trazado 208631" d="M40.071,80.658l.817-1.207-1.281-.409.241-.778,1.3.5-.056-1.372h.947l-.055,1.372,1.3-.5.241.778-1.281.409.834,1.207-.7.466-.8-1.247-.818,1.247Z" transform="translate(268.101 3645.885)" fill="#004151"/>
      <path id="Trazado_208632" data-name="Trazado 208632" d="M43.979,80.658l.817-1.207-1.281-.409.241-.778,1.3.5L45,77.39h.947l-.055,1.372,1.3-.5.241.778-1.281.409.834,1.207-.7.466-.8-1.247-.818,1.247Z" transform="translate(270.32 3645.885)" fill="#004151"/>
      <path id="Trazado_208633" data-name="Trazado 208633" d="M47.888,80.658l.817-1.207-1.281-.409.241-.778,1.3.5-.056-1.372h.947L49.8,78.762l1.3-.5.241.778-1.281.409.834,1.207-.7.466-.8-1.247-.818,1.247Z" transform="translate(272.541 3645.885)" fill="#004151"/>
      <path id="Trazado_208634" data-name="Trazado 208634" d="M51.8,80.658l.817-1.207-1.281-.409.241-.778,1.3.5-.056-1.372h.947l-.055,1.372,1.3-.5.241.778-1.281.409.834,1.207-.7.466-.8-1.247-.817,1.247Z" transform="translate(274.761 3645.885)" fill="#004151"/>
      <path id="Trazado_208635" data-name="Trazado 208635" d="M55.705,80.658l.817-1.207-1.281-.409.241-.778,1.3.5-.056-1.372h.947l-.055,1.372,1.3-.5.241.778-1.281.409.834,1.207-.7.466-.8-1.247-.817,1.247Z" transform="translate(276.98 3645.885)" fill="#004151"/>
      <path id="Trazado_208636" data-name="Trazado 208636" d="M59.613,80.658l.817-1.207-1.281-.409.241-.778,1.3.5-.056-1.372h.947l-.055,1.372,1.3-.5.241.778-1.281.409.834,1.207-.7.466-.8-1.247L60.3,81.124Z" transform="translate(279.201 3645.885)" fill="#004151"/>
      <path id="Trazado_208637" data-name="Trazado 208637" d="M63.522,80.658l.817-1.207-1.281-.409.241-.778,1.3.5-.056-1.372h.947l-.055,1.372,1.3-.5.241.778-1.281.409.834,1.207-.7.466-.8-1.247-.817,1.247Z" transform="translate(281.42 3645.885)" fill="#004151"/>
      <path id="Trazado_208638" data-name="Trazado 208638" d="M159.325,47.062a2.492,2.492,0,1,0-2.33,0,3.908,3.908,0,0,0-2.724,3.71v1.962h7.779V50.772a3.9,3.9,0,0,0-2.725-3.71" transform="translate(333.229 3626)" fill="#004151"/>
      <path id="Trazado_208639" data-name="Trazado 208639" d="M162.14,77.574h-.71v-.892a2.977,2.977,0,0,0-5.954,0v.892h-.713a1.016,1.016,0,0,0-1.013,1.011v5.792a1.018,1.018,0,0,0,1.013,1.021h7.377a1.02,1.02,0,0,0,1.022-1.021V78.585a1.018,1.018,0,0,0-1.022-1.011m-5.319-.892a1.631,1.631,0,0,1,3.261,0v.892h-3.261ZM159,82.718V84.2a.113.113,0,0,1-.116.11h-.709a.111.111,0,0,1-.108-.11V82.718a1.3,1.3,0,1,1,.933,0" transform="translate(332.933 3643.793)" fill="#004151"/>
      <path id="Trazado_208640" data-name="Trazado 208640" d="M60.024,18.523l3.023-7.506h.972l3.012,7.506H65.774l-.8-2.038h-2.9l-.781,2.038Zm3.509-6.186L62.287,15.6h2.451Z" transform="translate(279.697 3608.186)" fill="#fff"/>
      <path id="Trazado_208641" data-name="Trazado 208641" d="M66.125,14.733a3.944,3.944,0,0,1,.243-1.347,3.84,3.84,0,0,1,.7-1.207,3.53,3.53,0,0,1,1.124-.861,3.416,3.416,0,0,1,1.513-.328,3.217,3.217,0,0,1,1.728.453,2.9,2.9,0,0,1,1.083,1.185l-.93.626a1.977,1.977,0,0,0-.37-.574,1.97,1.97,0,0,0-1.014-.563,2.59,2.59,0,0,0-.539-.058,2.119,2.119,0,0,0-1.01.235,2.289,2.289,0,0,0-.735.632,2.792,2.792,0,0,0-.444.875,3.328,3.328,0,0,0-.147.974,3.151,3.151,0,0,0,.174,1.047A2.833,2.833,0,0,0,68,16.7a2.494,2.494,0,0,0,.751.61,2.053,2.053,0,0,0,.952.226,2.448,2.448,0,0,0,.555-.071,2,2,0,0,0,.549-.22,2.15,2.15,0,0,0,.481-.387,1.976,1.976,0,0,0,.37-.56l.983.56a2.32,2.32,0,0,1-.5.745,3.207,3.207,0,0,1-.724.546,3.688,3.688,0,0,1-.856.337,3.569,3.569,0,0,1-.9.116,3.022,3.022,0,0,1-1.427-.337,3.832,3.832,0,0,1-1.116-.883,4.108,4.108,0,0,1-.988-2.648" transform="translate(283.163 3608.17)" fill="#fff"/>
      <path id="Trazado_208642" data-name="Trazado 208642" d="M72.038,14.733a3.944,3.944,0,0,1,.243-1.347,3.84,3.84,0,0,1,.7-1.207,3.53,3.53,0,0,1,1.124-.861,3.411,3.411,0,0,1,1.513-.328,3.217,3.217,0,0,1,1.728.453,2.9,2.9,0,0,1,1.083,1.185l-.93.626a1.977,1.977,0,0,0-.37-.574,1.97,1.97,0,0,0-1.015-.563,2.59,2.59,0,0,0-.539-.058,2.119,2.119,0,0,0-1.01.235,2.289,2.289,0,0,0-.735.632,2.792,2.792,0,0,0-.444.875,3.328,3.328,0,0,0-.147.974,3.151,3.151,0,0,0,.174,1.047,2.834,2.834,0,0,0,.491.877,2.494,2.494,0,0,0,.751.61,2.048,2.048,0,0,0,.952.226,2.447,2.447,0,0,0,.555-.071,2,2,0,0,0,.549-.22,2.15,2.15,0,0,0,.481-.387,1.977,1.977,0,0,0,.37-.56l.983.56a2.32,2.32,0,0,1-.5.745,3.207,3.207,0,0,1-.724.546,3.687,3.687,0,0,1-.856.337,3.569,3.569,0,0,1-.9.116,3.017,3.017,0,0,1-1.427-.337,3.832,3.832,0,0,1-1.116-.883,4.108,4.108,0,0,1-.988-2.648" transform="translate(286.521 3608.17)" fill="#fff"/>
      <path id="Trazado_208643" data-name="Trazado 208643" d="M81.445,18.6A3.221,3.221,0,0,1,80,18.274a3.659,3.659,0,0,1-1.121-.858,3.824,3.824,0,0,1-.724-1.223,4,4,0,0,1-.252-1.4,3.973,3.973,0,0,1,1.013-2.651,3.59,3.59,0,0,1,1.132-.844,3.337,3.337,0,0,1,1.427-.309,3.156,3.156,0,0,1,1.444.331,3.716,3.716,0,0,1,1.115.873,4.055,4.055,0,0,1,.972,2.612,3.882,3.882,0,0,1-.27,1.436,3.819,3.819,0,0,1-.745,1.209,3.63,3.63,0,0,1-1.126.837,3.257,3.257,0,0,1-1.422.312m-2.336-3.807a3.235,3.235,0,0,0,.165,1.025,2.77,2.77,0,0,0,.469.88,2.368,2.368,0,0,0,.74.607,2.2,2.2,0,0,0,1.962-.009,2.34,2.34,0,0,0,.74-.632,2.9,2.9,0,0,0,.461-.875,3.21,3.21,0,0,0,.158-1,3.131,3.131,0,0,0-.169-1.029,2.782,2.782,0,0,0-.477-.867,2.34,2.34,0,0,0-.74-.6,2.026,2.026,0,0,0-.961-.226,2.081,2.081,0,0,0-.989.235,2.4,2.4,0,0,0-.739.619,2.746,2.746,0,0,0-.461.872,3.259,3.259,0,0,0-.158,1" transform="translate(289.853 3608.167)" fill="#fff"/>
      <path id="Trazado_208644" data-name="Trazado 208644" d="M87.733,17.507a1.9,1.9,0,0,0,.983-.232,1.849,1.849,0,0,0,.629-.607,2.616,2.616,0,0,0,.337-.858,4.762,4.762,0,0,0,.1-.986V11.017h1.2v3.807a5.623,5.623,0,0,1-.182,1.452,3.326,3.326,0,0,1-.571,1.195,2.694,2.694,0,0,1-1.01.808,3.382,3.382,0,0,1-1.483.3,3.33,3.33,0,0,1-1.518-.314,2.717,2.717,0,0,1-1-.836,3.362,3.362,0,0,1-.55-1.2,5.884,5.884,0,0,1-.169-1.406V11.017h1.184v3.807a4.861,4.861,0,0,0,.1,1,2.541,2.541,0,0,0,.339.855,1.76,1.76,0,0,0,.635.6,1.915,1.915,0,0,0,.978.227" transform="translate(293.598 3608.186)" fill="#fff"/>
      <path id="Trazado_208645" data-name="Trazado 208645" d="M92.161,13.238v5.286H90.977V11.017h.93L96.2,16.429v-5.4h1.193v7.5H96.41Z" transform="translate(297.278 3608.186)" fill="#fff"/>
      <path id="Trazado_208646" data-name="Trazado 208646" d="M103.249,12.065h-2.495v6.459H99.569V12.065h-2.5V11.017h6.184Z" transform="translate(300.736 3608.186)" fill="#fff"/>
      <path id="Trazado_208647" data-name="Trazado 208647" d="M105.83,18.523V11.018h1.184v6.459h4.028v1.047Z" transform="translate(305.715 3608.186)" fill="#fff"/>
      <path id="Trazado_208648" data-name="Trazado 208648" d="M114.178,18.6a3.221,3.221,0,0,1-1.443-.321,3.659,3.659,0,0,1-1.121-.858,3.824,3.824,0,0,1-.724-1.223,4,4,0,0,1-.252-1.4,3.973,3.973,0,0,1,1.013-2.651,3.591,3.591,0,0,1,1.132-.844,3.337,3.337,0,0,1,1.427-.309,3.156,3.156,0,0,1,1.444.331,3.716,3.716,0,0,1,1.115.873,4.055,4.055,0,0,1,.972,2.612,3.882,3.882,0,0,1-.27,1.436,3.819,3.819,0,0,1-.745,1.209,3.63,3.63,0,0,1-1.126.837,3.257,3.257,0,0,1-1.422.312m-2.336-3.807a3.235,3.235,0,0,0,.165,1.025,2.77,2.77,0,0,0,.469.88,2.357,2.357,0,0,0,.742.607,2.053,2.053,0,0,0,.972.226,2.075,2.075,0,0,0,.988-.235,2.34,2.34,0,0,0,.74-.632,2.9,2.9,0,0,0,.461-.875,3.21,3.21,0,0,0,.158-1,3.131,3.131,0,0,0-.169-1.029,2.782,2.782,0,0,0-.477-.867,2.323,2.323,0,0,0-.74-.6,2.026,2.026,0,0,0-.961-.226,2.081,2.081,0,0,0-.989.235,2.4,2.4,0,0,0-.739.619,2.746,2.746,0,0,0-.461.872,3.26,3.26,0,0,0-.158,1" transform="translate(308.445 3608.167)" fill="#fff"/>
      <path id="Trazado_208649" data-name="Trazado 208649" d="M122.65,17.612a2.855,2.855,0,0,1-2.147.983,3,3,0,0,1-1.369-.321,3.665,3.665,0,0,1-1.11-.858,4.1,4.1,0,0,1-.74-1.225,3.976,3.976,0,0,1,.74-4.089,3.549,3.549,0,0,1,1.115-.817,3.6,3.6,0,0,1,3.183.147,2.932,2.932,0,0,1,1.088,1.19l-.909.655a2.139,2.139,0,0,0-.829-.922,2.279,2.279,0,0,0-1.157-.306,1.96,1.96,0,0,0-.941.227,2.377,2.377,0,0,0-.724.6,2.809,2.809,0,0,0-.466.873,3.271,3.271,0,0,0-.163,1.035,3.093,3.093,0,0,0,.18,1.069,2.728,2.728,0,0,0,.5.867,2.46,2.46,0,0,0,.756.588,2.092,2.092,0,0,0,.941.213,2.622,2.622,0,0,0,2.051-1.109v-.793h-1.576v-.878h2.568v3.8h-.993Z" transform="translate(312.068 3608.167)" fill="#fff"/>
      <rect id="Rectángulo_60605" data-name="Rectángulo 60605" width="1.184" height="7.497" transform="translate(439.2 3619.212)" fill="#fff"/>
      <path id="Trazado_208650" data-name="Trazado 208650" d="M127.833,13.238v5.286h-1.184V11.017h.93l4.293,5.411v-5.4h1.193v7.5h-.983Z" transform="translate(317.54 3608.186)" fill="#fff"/>
      <path id="Trazado_208651" data-name="Trazado 208651" d="M192.9,127.788V173.26l-66.64-66.64Z" transform="translate(317.316 3662.487)" fill="#edecf0" fill-rule="evenodd"/>
      <rect id="Rectángulo_60606" data-name="Rectángulo 60606" width="123.235" height="31.73" transform="translate(390.578 3753.788)" fill="#f24dc3"/>
      <path id="Trazado_208652" data-name="Trazado 208652" d="M120.841,111.579v-7.156h1.129v6.158h3.842v1Z" transform="translate(314.241 3661.239)" fill="#fff"/>
      <path id="Trazado_208653" data-name="Trazado 208653" d="M128.16,111.649a3.056,3.056,0,0,1-1.377-.309,3.533,3.533,0,0,1-1.069-.814,3.69,3.69,0,0,1-.69-1.168,3.816,3.816,0,0,1-.241-1.341,3.685,3.685,0,0,1,.257-1.369,3.776,3.776,0,0,1,.71-1.16,3.4,3.4,0,0,1,1.079-.8,3.16,3.16,0,0,1,1.361-.3,2.977,2.977,0,0,1,1.377.318,3.522,3.522,0,0,1,1.065.829,3.82,3.82,0,0,1,.685,1.167,3.771,3.771,0,0,1,.241,1.327,3.712,3.712,0,0,1-.257,1.369,3.674,3.674,0,0,1-.71,1.154,3.473,3.473,0,0,1-1.074.8,3.129,3.129,0,0,1-1.356.3m-2.228-3.631a3.083,3.083,0,0,0,.157.98,2.6,2.6,0,0,0,.448.836,2.191,2.191,0,0,0,.706.579,1.934,1.934,0,0,0,.927.218,1.959,1.959,0,0,0,.944-.227,2.219,2.219,0,0,0,.706-.6,2.751,2.751,0,0,0,.437-.837,3.054,3.054,0,0,0-.009-1.932,2.653,2.653,0,0,0-.453-.826,2.3,2.3,0,0,0-.706-.574,2.069,2.069,0,0,0-1.861.009,2.263,2.263,0,0,0-.706.591,2.65,2.65,0,0,0-.439.831,3.1,3.1,0,0,0-.151.952" transform="translate(316.48 3661.22)" fill="#fff"/>
      <path id="Trazado_208654" data-name="Trazado 208654" d="M135.6,110.713a2.725,2.725,0,0,1-2.048.938,2.851,2.851,0,0,1-1.3-.31,3.494,3.494,0,0,1-1.058-.814,3.946,3.946,0,0,1-.707-1.17,3.781,3.781,0,0,1,.707-3.9,3.372,3.372,0,0,1,1.063-.781,3.108,3.108,0,0,1,1.341-.287,3.149,3.149,0,0,1,1.693.428,2.791,2.791,0,0,1,1.04,1.134l-.867.627a2.035,2.035,0,0,0-.792-.878,2.163,2.163,0,0,0-1.1-.292,1.873,1.873,0,0,0-.9.215,2.282,2.282,0,0,0-.69.575,2.664,2.664,0,0,0-.444.833,3.151,3.151,0,0,0-.155.986,2.975,2.975,0,0,0,.171,1.021,2.58,2.58,0,0,0,.478.826,2.314,2.314,0,0,0,.721.56,1.975,1.975,0,0,0,.9.205,2.5,2.5,0,0,0,1.955-1.06v-.753h-1.5v-.839h2.451V111.6H135.6Z" transform="translate(319.569 3661.22)" fill="#fff"/>
      <rect id="Rectángulo_60607" data-name="Rectángulo 60607" width="1.129" height="7.148" transform="translate(458.434 3765.67)" fill="#fff"/>
      <path id="Trazado_208655" data-name="Trazado 208655" d="M139.255,106.538v5.041h-1.129v-7.158h.887l4.092,5.16v-5.151h1.14v7.148h-.938Z" transform="translate(324.059 3661.238)" fill="#fff"/>
      <g id="Grupo_199743" data-name="Grupo 199743" transform="translate(281.227 3766.978)" opacity="0.8">
        <g id="Grupo_199742" data-name="Grupo 199742">
          <g id="Grupo_199741" data-name="Grupo 199741" clip-path="url(#clip-path-3)">
            <path id="Trazado_208656" data-name="Trazado 208656" d="M22.719,111.941v-6.562h4.334v.74h-3.5v2.19H26.5V109H23.55v2.94Z" transform="translate(-22.719 -105.195)" fill="#12263f"/>
            <path id="Trazado_208657" data-name="Trazado 208657" d="M28.114,111.434a2.358,2.358,0,0,1-1.761-.748,2.427,2.427,0,0,1-.494-.795,2.67,2.67,0,0,1,0-1.913,2.541,2.541,0,0,1,.5-.795,2.366,2.366,0,0,1,1.751-.75,2.42,2.42,0,0,1,.988.2,2.371,2.371,0,0,1,.773.546,2.572,2.572,0,0,1,.679,1.756,2.629,2.629,0,0,1-.176.952,2.409,2.409,0,0,1-1.272,1.341,2.39,2.39,0,0,1-.993.2m-1.6-2.485a1.908,1.908,0,0,0,.125.7,1.8,1.8,0,0,0,.342.564,1.63,1.63,0,0,0,.508.378,1.462,1.462,0,0,0,1.247,0,1.632,1.632,0,0,0,.514-.384,1.787,1.787,0,0,0,.347-.572,2.053,2.053,0,0,0,0-1.4,1.787,1.787,0,0,0-.347-.572,1.609,1.609,0,0,0-.514-.384,1.423,1.423,0,0,0-.622-.138,1.372,1.372,0,0,0-.624.144,1.588,1.588,0,0,0-.508.387,1.8,1.8,0,0,0-.342.572,1.945,1.945,0,0,0-.125.707" transform="translate(-21.034 -104.596)" fill="#12263f"/>
            <path id="Trazado_208658" data-name="Trazado 208658" d="M31.953,107.212a2.081,2.081,0,0,0-1.077.315,1.6,1.6,0,0,0-.66.822v2.976H29.4V106.5h.757v1.118a2.455,2.455,0,0,1,.655-.828,1.365,1.365,0,0,1,.869-.328h.158a.56.56,0,0,1,.11.009Z" transform="translate(-18.922 -104.579)" fill="#12263f"/>
            <path id="Trazado_208659" data-name="Trazado 208659" d="M33.575,111.4a2.013,2.013,0,0,1-.9-.2,2.259,2.259,0,0,1-.707-.546,2.49,2.49,0,0,1-.458-.787,2.693,2.693,0,0,1-.162-.924,2.918,2.918,0,0,1,.162-.966,2.483,2.483,0,0,1,.458-.8,2.195,2.195,0,0,1,.707-.539,2.054,2.054,0,0,1,.911-.2,1.866,1.866,0,0,1,1.054.295,2.723,2.723,0,0,1,.748.749v-.961h.721v4.77a2.021,2.021,0,0,1-.194.909,1.942,1.942,0,0,1-.527.66,2.314,2.314,0,0,1-.781.408,3.221,3.221,0,0,1-.956.138,2.76,2.76,0,0,1-1.336-.282,2.466,2.466,0,0,1-.855-.781l.472-.416a1.777,1.777,0,0,0,.739.637,2.268,2.268,0,0,0,.98.215,2.114,2.114,0,0,0,.633-.094,1.47,1.47,0,0,0,.521-.278,1.352,1.352,0,0,0,.358-.463,1.506,1.506,0,0,0,.133-.654v-.851a2.12,2.12,0,0,1-.328.4,1.979,1.979,0,0,1-.412.306,1.984,1.984,0,0,1-.978.254m.249-.665a1.385,1.385,0,0,0,.5-.093,1.851,1.851,0,0,0,.444-.245,1.6,1.6,0,0,0,.342-.348,1.128,1.128,0,0,0,.185-.4v-1.388a1.833,1.833,0,0,0-.263-.453,2.012,2.012,0,0,0-.365-.356,1.649,1.649,0,0,0-.439-.235,1.431,1.431,0,0,0-.475-.083,1.366,1.366,0,0,0-.662.157,1.6,1.6,0,0,0-.494.416,1.925,1.925,0,0,0-.314.588,2.013,2.013,0,0,0-.111.66,1.841,1.841,0,0,0,.129.685,1.877,1.877,0,0,0,.351.563,1.672,1.672,0,0,0,.524.383,1.487,1.487,0,0,0,.651.144" transform="translate(-17.818 -104.595)" fill="#12263f"/>
            <path id="Trazado_208660" data-name="Trazado 208660" d="M37.432,111.434a2.358,2.358,0,0,1-1.761-.748,2.427,2.427,0,0,1-.494-.795A2.6,2.6,0,0,1,35,108.94a2.561,2.561,0,0,1,.18-.961,2.509,2.509,0,0,1,.5-.795,2.361,2.361,0,0,1,.767-.546,2.427,2.427,0,0,1,2.746.546,2.572,2.572,0,0,1,.679,1.756,2.629,2.629,0,0,1-.176.952,2.438,2.438,0,0,1-.5.795,2.465,2.465,0,0,1-.773.546,2.39,2.39,0,0,1-.993.2m-1.6-2.485a1.908,1.908,0,0,0,.125.7,1.8,1.8,0,0,0,.342.564,1.63,1.63,0,0,0,.508.378,1.465,1.465,0,0,0,1.248,0,1.626,1.626,0,0,0,.513-.384,1.787,1.787,0,0,0,.347-.572,2.054,2.054,0,0,0,0-1.4,1.787,1.787,0,0,0-.347-.572,1.6,1.6,0,0,0-.513-.384,1.435,1.435,0,0,0-.624-.138,1.372,1.372,0,0,0-.624.144,1.588,1.588,0,0,0-.508.387,1.8,1.8,0,0,0-.342.572,1.945,1.945,0,0,0-.125.707" transform="translate(-15.742 -104.596)" fill="#12263f"/>
            <path id="Trazado_208661" data-name="Trazado 208661" d="M41.329,111.653c-.049.025-.114.053-.194.088s-.171.067-.271.1a2.362,2.362,0,0,1-.334.083,2.224,2.224,0,0,1-.375.031,1.228,1.228,0,0,1-.767-.245.894.894,0,0,1-.323-.762v-3.244h-.655v-.637h.655v-1.607h.814v1.607h1.08v.637h-1.08V110.7a.508.508,0,0,0,.176.389.588.588,0,0,0,.368.121,1.21,1.21,0,0,0,.441-.08,1.742,1.742,0,0,0,.271-.125Z" transform="translate(-13.807 -105.147)" fill="#12263f"/>
            <path id="Trazado_208662" data-name="Trazado 208662" d="M42.293,111.942V105.38h2.735a1.792,1.792,0,0,1,.8.179,2.044,2.044,0,0,1,.629.481,2.29,2.29,0,0,1,.411.676,2.052,2.052,0,0,1,.147.762,2.265,2.265,0,0,1-.138.786,2.187,2.187,0,0,1-.392.674,1.869,1.869,0,0,1-.61.47,1.734,1.734,0,0,1-.792.177H43.124v2.357Zm.831-3.1h1.913a1,1,0,0,0,.467-.107,1.071,1.071,0,0,0,.356-.295,1.445,1.445,0,0,0,.23-.439,1.633,1.633,0,0,0,.083-.527,1.476,1.476,0,0,0-.356-.971,1.136,1.136,0,0,0-.378-.287,1.076,1.076,0,0,0-.458-.1H43.124Z" transform="translate(-11.601 -105.194)" fill="#12263f"/>
            <path id="Trazado_208663" data-name="Trazado 208663" d="M47.234,111.434a1.906,1.906,0,0,1-.666-.114A1.712,1.712,0,0,1,46.04,111a1.433,1.433,0,0,1-.347-.472,1.365,1.365,0,0,1-.124-.579,1.31,1.31,0,0,1,.147-.621,1.37,1.37,0,0,1,.42-.481,2.013,2.013,0,0,1,.648-.306,2.987,2.987,0,0,1,.817-.105,3.954,3.954,0,0,1,.712.064,3.374,3.374,0,0,1,.638.176v-.389a1.162,1.162,0,0,0-1.276-1.265,2.694,2.694,0,0,0-1.533.563l-.268-.525a3.967,3.967,0,0,1,.935-.472,2.947,2.947,0,0,1,.96-.158,2.046,2.046,0,0,1,1.461.508,1.879,1.879,0,0,1,.535,1.433v1.968c0,.193.088.292.259.3v.7q-.092.019-.174.028a1.422,1.422,0,0,1-.158.009.8.8,0,0,1-.4-.111.441.441,0,0,1-.213-.379l-.017-.342a2.02,2.02,0,0,1-.379.387,2.261,2.261,0,0,1-.453.279,2.383,2.383,0,0,1-1,.221m.2-.61a1.842,1.842,0,0,0,.757-.165,1.728,1.728,0,0,0,.583-.408.6.6,0,0,0,.176-.379v-.712a3.547,3.547,0,0,0-.605-.171,3.413,3.413,0,0,0-.615-.061,1.8,1.8,0,0,0-1.008.254.8.8,0,0,0-.378.7.874.874,0,0,0,.074.357.891.891,0,0,0,.212.3,1.009,1.009,0,0,0,.343.207,1.246,1.246,0,0,0,.461.08" transform="translate(-9.739 -104.596)" fill="#12263f"/>
            <path id="Trazado_208664" data-name="Trazado 208664" d="M50.94,111.434a3.733,3.733,0,0,1-1.146-.18,2.84,2.84,0,0,1-.971-.521l.351-.546a3.485,3.485,0,0,0,.85.485,2.5,2.5,0,0,0,.9.161,1.469,1.469,0,0,0,.836-.209.665.665,0,0,0,.31-.586.529.529,0,0,0-.083-.3.689.689,0,0,0-.249-.218,2.036,2.036,0,0,0-.425-.166c-.172-.049-.373-.1-.6-.157q-.433-.111-.746-.213a2,2,0,0,1-.519-.24.833.833,0,0,1-.3-.334,1.107,1.107,0,0,1-.091-.478,1.4,1.4,0,0,1,.143-.643,1.317,1.317,0,0,1,.394-.47,1.768,1.768,0,0,1,.586-.289,2.622,2.622,0,0,1,.726-.1,2.919,2.919,0,0,1,1.016.177,2.493,2.493,0,0,1,.795.463l-.37.489a2.111,2.111,0,0,0-.684-.4,2.308,2.308,0,0,0-.776-.133,1.414,1.414,0,0,0-.754.19.656.656,0,0,0-.309.6.571.571,0,0,0,.06.279.525.525,0,0,0,.2.193,1.61,1.61,0,0,0,.356.149c.144.042.318.088.522.14.32.074.6.147.836.226a2.389,2.389,0,0,1,.591.273,1.053,1.053,0,0,1,.351.367,1.089,1.089,0,0,1,.116.519,1.282,1.282,0,0,1-.517,1.073,2.235,2.235,0,0,1-1.4.4" transform="translate(-7.892 -104.596)" fill="#12263f"/>
            <path id="Trazado_208665" data-name="Trazado 208665" d="M53.846,111.434a3.725,3.725,0,0,1-1.146-.18,2.84,2.84,0,0,1-.971-.521l.351-.546a3.464,3.464,0,0,0,.851.485,2.483,2.483,0,0,0,.9.161,1.469,1.469,0,0,0,.836-.209.665.665,0,0,0,.31-.586.529.529,0,0,0-.083-.3.688.688,0,0,0-.249-.218,2.036,2.036,0,0,0-.425-.166c-.172-.049-.373-.1-.6-.157q-.435-.111-.748-.213a2,2,0,0,1-.519-.24.845.845,0,0,1-.3-.334,1.107,1.107,0,0,1-.091-.478,1.4,1.4,0,0,1,.143-.643,1.317,1.317,0,0,1,.394-.47,1.768,1.768,0,0,1,.586-.289,2.63,2.63,0,0,1,.726-.1,2.919,2.919,0,0,1,1.016.177,2.493,2.493,0,0,1,.795.463l-.37.489a2.111,2.111,0,0,0-.684-.4,2.308,2.308,0,0,0-.776-.133,1.414,1.414,0,0,0-.754.19.659.659,0,0,0-.309.6.571.571,0,0,0,.06.279.525.525,0,0,0,.2.193,1.61,1.61,0,0,0,.356.149c.144.042.318.088.522.14.32.074.6.147.836.226a2.389,2.389,0,0,1,.591.273,1.053,1.053,0,0,1,.351.367,1.089,1.089,0,0,1,.116.519,1.282,1.282,0,0,1-.517,1.073,2.235,2.235,0,0,1-1.4.4" transform="translate(-6.241 -104.596)" fill="#12263f"/>
            <path id="Trazado_208666" data-name="Trazado 208666" d="M61.092,106.488h.786l-2.053,4.823h-.674l-.971-2.357-.961,2.357h-.674l-2.051-4.823h.776l1.664,4.019.812-2.005-.831-2h.674l.591,1.543.593-1.543h.674l-.823,2,.814,2.005Z" transform="translate(-4.671 -104.565)" fill="#12263f"/>
            <path id="Trazado_208667" data-name="Trazado 208667" d="M61.8,111.434a2.358,2.358,0,0,1-1.761-.748,2.457,2.457,0,0,1-.5-.795,2.627,2.627,0,0,1-.174-.952,2.561,2.561,0,0,1,.18-.961,2.509,2.509,0,0,1,.5-.795,2.361,2.361,0,0,1,.767-.546,2.427,2.427,0,0,1,2.746.546,2.572,2.572,0,0,1,.679,1.756,2.629,2.629,0,0,1-.176.952,2.409,2.409,0,0,1-1.272,1.341,2.39,2.39,0,0,1-.993.2m-1.6-2.485a1.908,1.908,0,0,0,.125.7,1.8,1.8,0,0,0,.342.564,1.63,1.63,0,0,0,.508.378,1.462,1.462,0,0,0,1.247,0,1.615,1.615,0,0,0,.514-.384,1.787,1.787,0,0,0,.347-.572,2.054,2.054,0,0,0,0-1.4,1.786,1.786,0,0,0-.347-.572,1.592,1.592,0,0,0-.514-.384,1.423,1.423,0,0,0-.622-.138,1.372,1.372,0,0,0-.624.144,1.588,1.588,0,0,0-.508.387,1.8,1.8,0,0,0-.342.572,1.945,1.945,0,0,0-.125.707" transform="translate(-1.902 -104.596)" fill="#12263f"/>
            <path id="Trazado_208668" data-name="Trazado 208668" d="M65.637,107.212a2.071,2.071,0,0,0-1.076.315,1.6,1.6,0,0,0-.662.822v2.976h-.812V106.5h.757v1.118a2.455,2.455,0,0,1,.655-.828,1.365,1.365,0,0,1,.869-.328h.158a.56.56,0,0,1,.11.009Z" transform="translate(0.21 -104.579)" fill="#12263f"/>
            <path id="Trazado_208669" data-name="Trazado 208669" d="M67.208,112.1a2.118,2.118,0,0,1-.924-.2,2.339,2.339,0,0,1-.731-.544,2.514,2.514,0,0,1-.475-.8,2.659,2.659,0,0,1-.171-.952,2.878,2.878,0,0,1,.162-.966,2.559,2.559,0,0,1,.452-.8,2.18,2.18,0,0,1,.695-.539,1.95,1.95,0,0,1,.881-.2,1.835,1.835,0,0,1,1.04.3,2.4,2.4,0,0,1,.726.74v-2.884h.814v5.748c0,.191.086.292.259.3v.7c-.067.011-.129.02-.18.027a1.228,1.228,0,0,1-.143.009.646.646,0,0,1-.444-.144.464.464,0,0,1-.176-.345l-.019-.453a2.078,2.078,0,0,1-1.766,1m.194-.7a1.4,1.4,0,0,0,.458-.083,1.846,1.846,0,0,0,.444-.232,1.675,1.675,0,0,0,.359-.347,1.019,1.019,0,0,0,.2-.419v-1.388a1.505,1.505,0,0,0-.249-.439,1.94,1.94,0,0,0-.375-.361,1.89,1.89,0,0,0-.442-.24,1.384,1.384,0,0,0-1.12.066,1.575,1.575,0,0,0-.5.4,1.83,1.83,0,0,0-.318.583,2.04,2.04,0,0,0-.111.67,1.851,1.851,0,0,0,.129.688,1.833,1.833,0,0,0,.351.569,1.7,1.7,0,0,0,.522.383,1.5,1.5,0,0,0,.652.144" transform="translate(1.245 -105.261)" fill="#12263f"/>
            <path id="Trazado_208670" data-name="Trazado 208670" d="M69.639,110.021a2.034,2.034,0,0,1,.176-.873,1.557,1.557,0,0,1,.6-.643c.11-.074.238-.149.383-.229a2.515,2.515,0,0,0,.411-.282,1.442,1.442,0,0,0,.329-.389,1.041,1.041,0,0,0,.133-.541,1,1,0,0,0-.351-.789,1.076,1.076,0,0,0-.361-.2,1.278,1.278,0,0,0-.425-.069,1.346,1.346,0,0,0-.437.069,1.513,1.513,0,0,0-.384.19,1.58,1.58,0,0,0-.315.281,1.921,1.921,0,0,0-.23.337l-.546-.359a1.714,1.714,0,0,1,.325-.508,2.011,2.011,0,0,1,.461-.376,2.232,2.232,0,0,1,.55-.229,2.312,2.312,0,0,1,.6-.08,2.221,2.221,0,0,1,.676.107,1.72,1.72,0,0,1,.591.328,1.651,1.651,0,0,1,.416.555,1.822,1.822,0,0,1,.157.787,1.68,1.68,0,0,1-.1.6,1.523,1.523,0,0,1-.254.434,1.707,1.707,0,0,1-.37.321c-.141.094-.289.182-.442.27q-.167.092-.334.193a1.22,1.22,0,0,0-.29.245,1.156,1.156,0,0,0-.2.347,1.441,1.441,0,0,0-.078.508Zm.017.88h.685v1.073h-.685Z" transform="translate(3.354 -105.225)" fill="#12263f"/>
          </g>
        </g>
      </g>
      <rect id="Rectángulo_60609" data-name="Rectángulo 60609" width="302.002" height="233.819" transform="translate(245.604 3601.928)" fill="none"/>
      <rect id="Rectángulo_60610" data-name="Rectángulo 60610" width="302.002" height="233.819" transform="translate(245.604 3601.928)" fill="none"/>
    </g>
  </g>
</svg>
