<svg xmlns="http://www.w3.org/2000/svg" xmlns:xlink="http://www.w3.org/1999/xlink" width="145.182" height="145.184" viewBox="0 0 145.182 145.184">
  <defs>
    <clipPath id="clip-path">
      <path id="Trazado_189538" data-name="Trazado 189538" d="M2.531,72.592a70.06,70.06,0,1,1,70.061,70.061A70.141,70.141,0,0,1,2.531,72.592M72.592,0a72.592,72.592,0,1,0,72.59,72.592A72.674,72.674,0,0,0,72.592,0Z" fill="#fff"/>
    </clipPath>
    <clipPath id="clip-path-2">
      <rect id="Rect치ngulo_60519" data-name="Rect치ngulo 60519" width="68.758" height="84.32" fill="none" stroke="#fff" stroke-width="1"/>
    </clipPath>
  </defs>
  <g id="Grupo_199197" data-name="Grupo 199197" transform="translate(6020 7891)">
    <circle id="Elipse_4053" data-name="Elipse 4053" cx="72.5" cy="72.5" r="72.5" transform="translate(-6020 -7891)" fill="#f24dc3"/>
    <g id="Grupo_199196" data-name="Grupo 199196">
      <g id="Grupo_199153" data-name="Grupo 199153" transform="translate(-6382 -11700)">
        <g id="Grupo_172088" data-name="Grupo 172088" transform="translate(362 3809)">
          <g id="Grupo_172087" data-name="Grupo 172087" clip-path="url(#clip-path)">
            <rect id="Rect치ngulo_49153" data-name="Rect치ngulo 49153" width="180.135" height="180.136" transform="translate(-39.16 11.468) rotate(-16.323)" fill="#fff"/>
          </g>
        </g>
        <g id="Grupo_199138" data-name="Grupo 199138" transform="translate(400.621 3839)">
          <g id="Grupo_199137" data-name="Grupo 199137" transform="translate(0 0)" clip-path="url(#clip-path-2)">
            <path id="Trazado_208210" data-name="Trazado 208210" d="M17.145,19.845a1.488,1.488,0,1,0-.071-.895H13.448A.444.444,0,0,0,13,19.4a.449.449,0,0,0,.446.448Zm.895-.895a.575.575,0,0,1,.482-.259.595.595,0,1,1,0,1.189.5.5,0,0,1-.2-.036.6.6,0,0,1-.386-.555.577.577,0,0,1,.109-.339" transform="translate(11.382 15.579)" fill="#fff" stroke="#fff" stroke-width="1"/>
            <path id="Trazado_208211" data-name="Trazado 208211" d="M21.4,19.323a.448.448,0,0,0-.448.446v3.623H16.11a1.484,1.484,0,1,0,0,.895H21.4a.443.443,0,0,0,.446-.446V19.769a.447.447,0,0,0-.446-.446m-6.326,4.964a.6.6,0,0,1-.384.144.591.591,0,0,1,0-1.182.6.6,0,0,1,.384.143.575.575,0,0,1,0,.895" transform="translate(11.558 16.915)" fill="#fff" stroke="#fff" stroke-width="1"/>
            <path id="Trazado_208212" data-name="Trazado 208212" d="M18.914,23.976c-.019,0-.034-.019-.054-.045,0,.017.036.053.054.045" transform="translate(16.51 20.949)" fill="#fff" stroke="#fff" stroke-width="1"/>
            <path id="Trazado_208213" data-name="Trazado 208213" d="M68.4,53.424l-.026-.019L48.584,38.68c-.009,0-.019-.009-.026-.019a2.179,2.179,0,0,0-.206-.116V36.91a.95.95,0,0,0,.268-.144L67,24.016l.045-.036.036-.026a.86.86,0,0,0,.152-1.208L55.617,7.959a.166.166,0,0,0-.233-.036.172.172,0,0,0-.047.24l9.921,14.844L48.352,33.751V31a1.333,1.333,0,0,0-.671-1.163L45.488,28.57l9.778-7.712.038-.026a.87.87,0,0,0,.143-1.225L40.22.122A.312.312,0,0,0,39.79.058.321.321,0,0,0,39.719.5L53.477,19.92l-10.35,7.121a.872.872,0,0,1-.071.054c-.019.008-.028.026-.045.043L35.047,22.55a1.329,1.329,0,0,0-1.341,0l-7.954,4.589a.643.643,0,0,0-.126-.1l-10.35-7.13L29.037.5a.308.308,0,0,0-.064-.429.313.313,0,0,0-.437.054L13.31,19.607a.866.866,0,0,0,.143,1.217l.045.034,9.769,7.712-2.19,1.272A1.348,1.348,0,0,0,20.4,31v2.747L3.494,23.007,13.426,8.164a.183.183,0,0,0-.045-.24.173.173,0,0,0-.242.036L1.527,22.747l-.036.036a.87.87,0,0,0,.214,1.2l.045.036L20.144,36.765a.187.187,0,0,0,.045.028,1.279,1.279,0,0,0,.216.107v1.645a1.209,1.209,0,0,0-.234.135L.381,53.406l-.026.026-.028.019a.871.871,0,0,0-.133,1.227l16.73,20.808a.285.285,0,0,0,.4.054.291.291,0,0,0,.064-.413L2.16,54.336,20.4,41.5v4.1a1.324,1.324,0,0,0,.42.968l-10.013,7.9-.036.028a.865.865,0,0,0-.161,1.206L31.766,84.172a.369.369,0,0,0,.51.081.375.375,0,0,0,.1-.519L12.584,55.4l10.35-7.14a.185.185,0,0,0,.071-.045,1.216,1.216,0,0,0,.216-.223l10.485,6.058a1.351,1.351,0,0,0,1.341,0l10.485-6.058a1.7,1.7,0,0,0,.287.268L56.17,55.4,36.39,83.733a.371.371,0,1,0,.6.439L58.139,55.7a.879.879,0,0,0-.161-1.217l-.028-.017-10.011-7.9a1.346,1.346,0,0,0,.413-.968V41.5l18.24,12.837L51.367,75.126a.294.294,0,0,0,.053.4.287.287,0,0,0,.411-.045l16.73-20.808.019-.028a.866.866,0,0,0-.18-1.225M34.824,30.53a.592.592,0,0,1,0,.771.592.592,0,0,1-.895,0,.592.592,0,0,1,0-.771.588.588,0,0,1,.895,0m-7.517-1.189,6.622-3.82V29.5a1.455,1.455,0,0,0-.968.966H27.308Zm7.068,22L26.9,47.018l1.95-1.36a1.45,1.45,0,0,0,.9.313,1.486,1.486,0,0,0,1.414-1.039h3.22a1.488,1.488,0,0,0,.975.968l.009,4.867Zm-5.225-6.853a.782.782,0,0,1,.019-.144.6.6,0,0,1,.581-.456.574.574,0,0,1,.394.152.619.619,0,0,1,.2.448.587.587,0,0,1-.206.446.6.6,0,0,1-.384.144.143.143,0,0,1-.062-.009.013.013,0,0,1-.019,0,.59.59,0,0,1-.519-.581m7.1.394a.6.6,0,0,1-.439.2.55.55,0,0,1-.377-.152h-.007a.186.186,0,0,1-.064.007c0-.017.009-.036.009-.053a.569.569,0,0,1-.161-.394.56.56,0,0,1,.206-.439.542.542,0,0,1,.394-.161.6.6,0,0,1,.589.6.55.55,0,0,1-.15.384Zm9.42-5.984h-4.1a1.488,1.488,0,1,0-2.048,1.789v2.907a1.484,1.484,0,1,0,.895,0V40.8a1.486,1.486,0,0,0,1.153-1.013h4.1v5.028l-9.4,5.431L36.255,45.9a1.489,1.489,0,1,0-1.87-1.862h-3.22a1.487,1.487,0,0,0-2.907.448,1.452,1.452,0,0,0,.071.439l-2.29,1.6-2.952-1.71V31.782l3.327-1.922v1.054a.443.443,0,0,0,.446.448h6.1a1.455,1.455,0,0,0,.968.966v2.648a.454.454,0,0,0,.446.446H41.5a1.495,1.495,0,1,0,0-.893H34.824v-2.2a1.48,1.48,0,0,0,0-2.826V25.52l10.844,6.262Zm-5.521,1.037a.59.59,0,0,1-.508-.3.552.552,0,0,1-.081-.294.683.683,0,0,1,.043-.233.235.235,0,0,1,.028-.045l.009-.019c0-.007.007-.007.017-.017a.571.571,0,0,1,.885-.133.587.587,0,0,1,.206.446.569.569,0,0,1-.214.446.559.559,0,0,1-.116.081.665.665,0,0,1-.27.064m.27,4.688a.567.567,0,0,1,.143.384.591.591,0,0,1-1.182,0,.559.559,0,0,1,.144-.384.587.587,0,0,1,.446-.206.594.594,0,0,1,.448.206m1.905-9.645a.584.584,0,0,1,.206-.446.574.574,0,0,1,.394-.152.595.595,0,0,1,0,1.189.59.59,0,0,1-.386-.144.567.567,0,0,1-.214-.446" transform="translate(0 -0.001)" fill="#fff" stroke="#fff" stroke-width="1"/>
          </g>
        </g>
      </g>
    </g>
  </g>
</svg>
