<svg xmlns="http://www.w3.org/2000/svg" xmlns:xlink="http://www.w3.org/1999/xlink" width="145.182" height="145.432" viewBox="0 0 145.182 145.432">
  <defs>
    <clipPath id="clip-path">
      <path id="Trazado_189538" data-name="Trazado 189538" d="M2.531,72.592a70.06,70.06,0,1,1,70.061,70.061A70.141,70.141,0,0,1,2.531,72.592M72.592,0a72.592,72.592,0,1,0,72.59,72.592A72.674,72.674,0,0,0,72.592,0Z" fill="#fff"/>
    </clipPath>
    <clipPath id="clip-path-2">
      <rect id="Rect치ngulo_60520" data-name="Rect치ngulo 60520" width="85.091" height="85.137" fill="#fff" stroke="#fff" stroke-width="1"/>
    </clipPath>
  </defs>
  <g id="Grupo_199201" data-name="Grupo 199201" transform="translate(5472.122 5968.432)">
    <circle id="Elipse_4056" data-name="Elipse 4056" cx="72.5" cy="72.5" r="72.5" transform="translate(-5472 -5968)" fill="#f24dc3"/>
    <g id="Grupo_199174" data-name="Grupo 199174" transform="translate(-6382 -9777)">
      <g id="Grupo_199120" data-name="Grupo 199120" transform="translate(909.878 3808.568)">
        <g id="Grupo_172087" data-name="Grupo 172087" clip-path="url(#clip-path)">
          <rect id="Rect치ngulo_49153" data-name="Rect치ngulo 49153" width="180.135" height="180.136" transform="translate(-39.16 11.468) rotate(-16.323)" fill="#fff"/>
        </g>
      </g>
      <g id="Grupo_199140" data-name="Grupo 199140" transform="translate(945.171 3839)">
        <g id="Grupo_199139" data-name="Grupo 199139" clip-path="url(#clip-path-2)">
          <path id="Trazado_208214" data-name="Trazado 208214" d="M46.621,78.077c-.831.2-1.184.005-1.542-.767a4.486,4.486,0,0,0-.6-.98.991.991,0,0,0-1.339-.276,4.671,4.671,0,0,0-1.075.758c-1.271,1.23-2.508,2.5-3.771,3.734-.865.848-1.447.839-2.3-.013Q30.6,75.162,25.214,69.789a3.121,3.121,0,0,1-.981-2.369c.027-2.183.029-4.368,0-6.55a1.393,1.393,0,0,1,.943-1.42c.557.46,1.093.916,1.643,1.355a16.149,16.149,0,0,0,10,3.883,13.68,13.68,0,0,0,6.013-1.136,2.783,2.783,0,0,0,.852-.635,1.374,1.374,0,0,0-.983-2.278,3.169,3.169,0,0,0-1.125.205,11.787,11.787,0,0,1-9.828-.477,18.14,18.14,0,0,1-5.473-4.3,30.348,30.348,0,0,1-5.4-8.871c-.253-.627-.521-1.248-.815-1.856a1.469,1.469,0,1,0-2.7,1.153,28.076,28.076,0,0,0,2.655,5.916A12.478,12.478,0,0,1,20.792,54a11.836,11.836,0,0,1,.472,4.746c0,3.55-.012,7.1.028,10.652a1.978,1.978,0,0,0,.491,1.223c1.4,1.487,2.861,2.922,4.308,4.367a13.966,13.966,0,0,1,2.719,3.149c.514.959,1.144,1.856,1.72,2.782.076.122.142.251.213.377l-.058.043c-.964-.92-1.922-1.847-2.895-2.759a4.957,4.957,0,0,0-1.195-1c-5.107-2.3-10.231-4.567-15.351-6.842-.983-.437-1.976-.855-2.944-1.323a1.221,1.221,0,0,1-.616-1.854c.113-.235.249-.461.383-.686,1.024-1.721,2.062-3.433,3.073-5.161.76-1.3.656-1.826-.542-2.745-1.556-1.193-3.133-2.362-4.7-3.543a1.616,1.616,0,0,1-.61-2.144q2.483-6.226,4.979-12.447a1.445,1.445,0,0,1,2.088-.928c.1.037.207.077.31.117a58.6,58.6,0,0,0,11.64,3.015,83.691,83.691,0,0,0,14.242.949A77.016,77.016,0,0,0,53.835,42.3a48.853,48.853,0,0,0,11.238-3.757,4.865,4.865,0,0,0,.852-.572c.264-.208.485-.469.749-.675.238-.187.51-.33.764-.5a19.583,19.583,0,0,0,4.586-3.845,8.423,8.423,0,0,0,.533-10.8A15.524,15.524,0,0,0,68.8,18.5a33.589,33.589,0,0,0-9.567-4.552,1.473,1.473,0,0,1-1.16-1.2,2.469,2.469,0,0,0-.091-.318,22.206,22.206,0,0,0-2.236-4.879,41.777,41.777,0,0,0-4.008-5.732,1.589,1.589,0,0,0-1.5-.758A1.109,1.109,0,0,1,49.68.924,5.963,5.963,0,0,0,46.3.561c-1.932.32-3.85.722-5.779,1.06a15.806,15.806,0,0,1-5.479.2c-1.468-.255-2.93-.546-4.391-.841a2.982,2.982,0,0,1-.585-.3,4.36,4.36,0,0,0-.82-.342c-.453-.1-.924-.131-1.382-.22a5.423,5.423,0,0,0-5.473,1.885,38.12,38.12,0,0,0-2.724,3.648,25.865,25.865,0,0,0-3.221,6.367c-.52,1.615-.341,1.6-2.131,2.165a30.243,30.243,0,0,0-10.2,5.361A12.634,12.634,0,0,0,1,23.334a7.624,7.624,0,0,0-.832,5.358,9.069,9.069,0,0,0,1.5,3.494,17.326,17.326,0,0,0,5.56,4.825c1.1.632,1.287,1.167.808,2.362Q5.065,46.809,2.086,54.245c-.428,1.069-.36,1.319.548,2q2.4,1.8,4.811,3.6a1.452,1.452,0,0,1,.449,2.274q-1.889,3.117-3.764,6.243a6.852,6.852,0,0,0-.445.974.7.7,0,0,0,.266.881,6.451,6.451,0,0,0,1.073.613Q16.881,76.11,28.745,81.376c2.269,1.009,4.53,2.037,6.8,3.037a3.386,3.386,0,0,0,3.582-.15.322.322,0,0,1,.293-.03c.244.19.461.1.694,0,2.434-1.078,4.872-2.148,7.3-3.237a2.907,2.907,0,0,0,.777-.538,1.292,1.292,0,0,0,.4-1.205,1.506,1.506,0,0,0-1.978-1.173m9.854-50.835a14.028,14.028,0,0,1-5.461,3.268c-.619.229-1.249.432-1.941.669,0-.217,0-.387,0-.558,0-1.244-.013-2.488-.009-3.732a1.119,1.119,0,0,1,.9-1.224,22.761,22.761,0,0,0,6.848-3.254,1.619,1.619,0,0,1,.175-.1,3.9,3.9,0,0,1-.512,4.928M17.417,17.434A26.014,26.014,0,0,1,22.235,5.942c.544-.765,1.118-1.509,1.705-2.242a3.538,3.538,0,0,1,4.485-1.053,9.5,9.5,0,0,1,2.858,2.224c.776.806,1.534,1.629,2.34,2.4a5.047,5.047,0,0,0,3.695,1.511,1.552,1.552,0,0,0,.984-.415,1,1,0,0,0-.63-1.7A5.439,5.439,0,0,1,33.9,4.379c-.305-.369-.633-.719-1.032-1.17.833.166,1.544.315,2.258.447a14.284,14.284,0,0,0,5.186-.191c2.158-.39,4.312-.811,6.474-1.175a3.524,3.524,0,0,1,3.48,1.3,29.712,29.712,0,0,1,5.672,9.888,38.911,38.911,0,0,1,.973,4.352,2.32,2.32,0,0,1-.832,2.263,16.229,16.229,0,0,1-6.528,3.369,44.9,44.9,0,0,1-14.2,1.733,41.834,41.834,0,0,1-12.982-2.563,14.592,14.592,0,0,1-3.9-2.315,2.791,2.791,0,0,1-1.045-2.882M16.986,23l.273-.71c.587.375,1.134.746,1.7,1.083a26.883,26.883,0,0,0,8.476,3.078,47.9,47.9,0,0,0,9.914.969,49.512,49.512,0,0,0,7.789-.669,2.955,2.955,0,0,1,.7-.031.99.99,0,0,1,.982.944c.033,1.1.028,2.209-.01,3.312a1.049,1.049,0,0,1-1.024.975c-1.351.2-2.7.443-4.062.536-2.091.143-4.192.272-6.285.236a35.821,35.821,0,0,1-14.366-3.17A10.393,10.393,0,0,1,17.9,27.339,3.808,3.808,0,0,1,16.986,23M4.052,31.574A6.468,6.468,0,0,1,2.3,26.522a7.181,7.181,0,0,1,2.146-4.155,21.359,21.359,0,0,1,7.063-4.686c1.246-.551,2.516-1.048,3.841-1.6-.114.944-.227,1.816-.323,2.692-.188,1.715-.379,3.431-.544,5.148a6.238,6.238,0,0,0,2.155,5.285,17.416,17.416,0,0,0,6.443,3.631,37.607,37.607,0,0,0,10.538,2,54.321,54.321,0,0,0,9.224-.174A32.482,32.482,0,0,0,55.156,31.08a11.989,11.989,0,0,0,2.917-2.3,6.5,6.5,0,0,0,1.674-5.66c-.312-2.282-.514-4.579-.772-6.944,3.871,1.4,7.6,2.94,10.558,5.861a8.926,8.926,0,0,1,1.991,2.779,5.842,5.842,0,0,1-.538,5.761,13.86,13.86,0,0,1-4.343,4.084,35.229,35.229,0,0,1-9.388,4.058,66.25,66.25,0,0,1-14.909,2.52,85.4,85.4,0,0,1-15.834-.528,53.326,53.326,0,0,1-15.853-4.381,18.853,18.853,0,0,1-6.606-4.754" transform="translate(0 0)" fill="#fff" stroke="#fff" stroke-width="1"/>
          <path id="Trazado_208215" data-name="Trazado 208215" d="M173.775,148.251q.005-8.146.02-16.293a1.846,1.846,0,0,0-.958-1.785c-3.293-1.888-6.574-3.8-9.864-5.691-2.534-1.458-5.076-2.9-7.61-4.361a1.427,1.427,0,0,0-1.555.067q-8.692,5.032-17.4,10.04a1.571,1.571,0,0,0-.873,1.508c.015,3.331.007,6.662.007,9.992,0,3.372.006,6.744,0,10.116a1.492,1.492,0,0,0,.8,1.425c2.042,1.185,4.061,2.409,6.107,3.587,3.814,2.2,7.642,4.37,11.462,6.557a1.47,1.47,0,0,0,1.57-.038c.5-.29,1-.583,1.5-.873q7.857-4.532,15.718-9.058a1.953,1.953,0,0,0,1.1-1.921c-.04-1.09-.024-2.183-.023-3.275m-2.211,2.152a1.8,1.8,0,0,1-.979,1.692q-7.482,4.312-14.954,8.639a1.908,1.908,0,0,1-2.071-.077q-4.668-2.723-9.351-5.421c-1.8-1.043-3.609-2.087-5.424-3.112a1.824,1.824,0,0,1-1.023-1.745c.021-2.86.008-5.721.008-8.582s.011-5.749-.007-8.624a1.852,1.852,0,0,1,1.014-1.756q7.464-4.3,14.918-8.619a1.781,1.781,0,0,1,1.919,0q7.493,4.334,14.99,8.658a1.772,1.772,0,0,1,.96,1.66q-.011,8.645,0,17.289" transform="translate(-88.709 -78.487)" fill="#fff" stroke="#fff" stroke-width="1"/>
          <path id="Trazado_208216" data-name="Trazado 208216" d="M177.722,152.269c.2,2.38.395,4.76.608,7.138.084.937.42,1.218,1.369,1.218q2.3,0,4.6,0c1,0,1.3-.3,1.383-1.285.263-3.178.537-6.355.8-9.532.078-.936.156-1.871.207-2.808a.989.989,0,0,0-.971-1.153,4.363,4.363,0,0,0-.578-.038c-1.037,0-2.073,0-3.109,0s-2.072,0-3.109,0c-1.382,0-1.715.389-1.589,1.755.144,1.567.254,3.137.385,4.705m3.484-4.242c.206.01.413,0,.62,0,0-.007,0-.015,0-.022.413.019.829.011,1.238.062a1.157,1.157,0,0,1,1.181,1.351c-.04.977-.146,1.952-.223,2.927-.127,1.622-.243,3.245-.386,4.865-.081.921-.529,1.267-1.468,1.209a4.483,4.483,0,0,0-.5.018,1.154,1.154,0,0,1-1.294-1.106c-.146-1.676-.273-3.353-.414-5.03-.078-.934-.188-1.866-.248-2.8-.073-1.136.345-1.532,1.488-1.474" transform="translate(-116.05 -95.43)" fill="#fff" stroke="#fff" stroke-width="1"/>
          <path id="Trazado_208217" data-name="Trazado 208217" d="M181.985,199.663a4.7,4.7,0,1,0,4.7,4.691,4.706,4.706,0,0,0-4.7-4.691m.046,7.182a2.476,2.476,0,0,1-.109-4.952,2.477,2.477,0,1,1,.109,4.952" transform="translate(-116.034 -130.678)" fill="#fff" stroke="#fff" stroke-width="1"/>
        </g>
      </g>
    </g>
  </g>
</svg>
