<svg xmlns="http://www.w3.org/2000/svg" xmlns:xlink="http://www.w3.org/1999/xlink" width="145.182" height="145.184" viewBox="0 0 145.182 145.184">
  <defs>
    <clipPath id="clip-path">
      <path id="Trazado_189538" data-name="Trazado 189538" d="M2.531,72.592a70.06,70.06,0,1,1,70.061,70.061A70.141,70.141,0,0,1,2.531,72.592M72.592,0a72.592,72.592,0,1,0,72.59,72.592A72.674,72.674,0,0,0,72.592,0Z" fill="#fff"/>
    </clipPath>
    <clipPath id="clip-path-2">
      <rect id="Rect치ngulo_60512" data-name="Rect치ngulo 60512" width="73.003" height="85.137" fill="#fff" stroke="#fff" stroke-width="1"/>
    </clipPath>
  </defs>
  <g id="Grupo_199202" data-name="Grupo 199202" transform="translate(5290 5327)">
    <circle id="Elipse_4057" data-name="Elipse 4057" cx="72.5" cy="72.5" r="72.5" transform="translate(-5290 -5327)" fill="#f24dc3"/>
    <g id="Grupo_199180" data-name="Grupo 199180" transform="translate(-6382 -9136)">
      <g id="Grupo_199121" data-name="Grupo 199121" transform="translate(1092 3809)">
        <g id="Grupo_172087" data-name="Grupo 172087" clip-path="url(#clip-path)">
          <rect id="Rect치ngulo_49153" data-name="Rect치ngulo 49153" width="180.135" height="180.136" transform="translate(-39.16 11.468) rotate(-16.323)" fill="#fff"/>
        </g>
      </g>
      <g id="Grupo_199126" data-name="Grupo 199126" transform="translate(1128 3839)">
        <g id="Grupo_199125" data-name="Grupo 199125" transform="translate(0 0)" clip-path="url(#clip-path-2)">
          <path id="Trazado_208170" data-name="Trazado 208170" d="M73,38.073a4.489,4.489,0,0,0-4.6-4.624c-1.764-.015-3.528,0-5.292,0-3.223,0-6.447-.006-9.671.005-1.261,0-2.016.948-1.631,2.008a1.667,1.667,0,0,0,1.823,1.052q5.565-.014,11.131,0c.284,0,.569.025.853.038a.425.425,0,0,1-.224.358Q53.068,48.036,40.751,59.168a6.242,6.242,0,0,1-8.546-.038c-3.289-2.936-6.548-5.905-9.817-8.863-5-4.528-10-9.057-15.2-13.761H8.4q17.653,0,35.308,0c1.246,0,1.933-.579,1.914-1.575-.018-.951-.685-1.481-1.893-1.482-3.133,0-6.266-.024-9.4.015-.709.009-.912-.167-.909-.894q.043-9.9,0-19.8a.927.927,0,0,1,.7-1.043,6.011,6.011,0,0,0,3.7-7.166,6.086,6.086,0,1,0-8.123,7.162c.463.183.726.35.724.939-.025,6.6-.036,13.2.01,19.8.006.9-.3,1.01-1.075,1.008q-12.362-.039-24.724-.017a4.477,4.477,0,0,0-4.632,4.5q-.021,21.349,0,42.7a4.463,4.463,0,0,0,4.454,4.484c.669.012,1.338,0,2.007,0q30.883,0,61.765,0A4.481,4.481,0,0,0,73,80.588q.013-21.257,0-42.515M28.9,6.036a3.039,3.039,0,0,1,6.078.017A3.039,3.039,0,1,1,28.9,6.036M69.939,68q0,6.067,0,12.133a1.635,1.635,0,0,1-.293,1.284q-2.268-2.047-4.524-4.081L47.6,61.484c-.091-.081-.177-.167-.273-.242a1.546,1.546,0,0,0-2.206.083,1.5,1.5,0,0,0,.173,2.193c2.014,1.852,4.049,3.681,6.078,5.516q6.867,6.21,13.734,12.416c.178.161.351.328.633.592H7.245L17.97,72.336q4.8-4.344,9.6-8.691c.977-.888.913-2.12-.125-2.648a1.686,1.686,0,0,0-2.05.484q-5.363,4.879-10.749,9.734T3.893,80.943c-.173.157-.311.38-.581.405-.321-.326-.242-.739-.243-1.126q-.006-20.937,0-41.874c0-.122-.005-.243,0-.365.018-.24-.016-.541.218-.662.278-.145.418.169.583.316C5.184,38.812,6.488,40,7.8,41.183Q18.851,51.189,29.909,61.194a9.412,9.412,0,0,0,13.185,0Q55.955,49.577,68.8,37.947c.275-.248.519-.775.906-.6s.227.71.227,1.1q.007,14.779,0,29.558" transform="translate(0 0)" fill="#fff" stroke="#fff" stroke-width="1"/>
          <path id="Trazado_208171" data-name="Trazado 208171" d="M57.488,37.811c.2-.119.3-.392.653-.409,0,2.037.021,4.062,0,6.087a6.8,6.8,0,0,1-5.489,6.6.837.837,0,0,1-1.125-.509A4.406,4.406,0,0,0,47.7,47.17a1.531,1.531,0,1,0-.313,3.045c1.1.176,1.61.638,1.628,1.486.018.891-.491,1.38-1.64,1.577a1.454,1.454,0,0,0-1.353,1.63,1.424,1.424,0,0,0,1.606,1.371,4.249,4.249,0,0,0,3.861-2.318,1.348,1.348,0,0,1,1.157-.808A9.573,9.573,0,0,0,61,45.181c.526-3.952.172-7.952.159-11.929a1.443,1.443,0,0,0-2.417-.925,43.764,43.764,0,0,0-3.29,3.281,1.39,1.39,0,0,0,.043,1.92,1.561,1.561,0,0,0,1.991.282" transform="translate(-11.016 -7.651)" fill="#fff" stroke="#fff" stroke-width="1"/>
        </g>
      </g>
    </g>
  </g>
</svg>
