<svg xmlns="http://www.w3.org/2000/svg" xmlns:xlink="http://www.w3.org/1999/xlink" width="145.182" height="145.184" viewBox="0 0 145.182 145.184">
  <defs>
    <clipPath id="clip-path">
      <path id="Trazado_189538" data-name="Trazado 189538" d="M2.531,72.592a70.06,70.06,0,1,1,70.061,70.061A70.141,70.141,0,0,1,2.531,72.592M72.592,0a72.592,72.592,0,1,0,72.59,72.592A72.674,72.674,0,0,0,72.592,0Z" fill="#fff"/>
    </clipPath>
    <clipPath id="clip-path-2">
      <rect id="Rect치ngulo_60513" data-name="Rect치ngulo 60513" width="76.671" height="85.137" fill="#fff"/>
    </clipPath>
  </defs>
  <g id="Grupo_212211" data-name="Grupo 212211" transform="translate(6137 4686)">
    <g id="Grupo_212210" data-name="Grupo 212210">
      <circle id="Elipse_4058" data-name="Elipse 4058" cx="72.5" cy="72.5" r="72.5" transform="translate(-6137 -4686)" fill="#f24dc3"/>
    </g>
    <g id="Grupo_199189" data-name="Grupo 199189" transform="translate(-7412 -8495)">
      <g id="Grupo_199122" data-name="Grupo 199122" transform="translate(1275 3809)">
        <g id="Grupo_172087" data-name="Grupo 172087" clip-path="url(#clip-path)">
          <rect id="Rect치ngulo_49153" data-name="Rect치ngulo 49153" width="180.135" height="180.136" transform="translate(-39.16 11.468) rotate(-16.323)" fill="#fff"/>
        </g>
      </g>
      <g id="Grupo_199128" data-name="Grupo 199128" transform="translate(1309 3839)">
        <g id="Grupo_199127" data-name="Grupo 199127" clip-path="url(#clip-path-2)">
          <path id="Trazado_208172" data-name="Trazado 208172" d="M218.538,8.88c0,1.27.641,2.018,1.692,2,1.012-.02,1.628-.76,1.631-1.985.005-2.213-.036-4.428.019-6.64A2.245,2.245,0,0,0,220.7,0h-1a2.166,2.166,0,0,0-1.187,2.239c.058,2.212.015,4.427.019,6.64" transform="translate(-182.098)" fill="#fff"/>
          <path id="Trazado_208173" data-name="Trazado 208173" d="M75.641,142.073q-1.586-.981-3.2-1.925a4.325,4.325,0,0,0-6.17,1.559c-.622,1.013-1.246,2.025-1.836,3.056-.211.369-.4.482-.753.2a2.08,2.08,0,0,0-.494-.3c-.512-.214-.6-.471-.273-.97.693-1.064,1.358-2.152,1.963-3.269a4.23,4.23,0,0,0-1.252-5.543c-1.248-.862-2.576-1.613-3.894-2.368a1.577,1.577,0,0,0-2.146.446c-2.246,3.212-3.047,6.659-1.553,10.423a1.191,1.191,0,0,1-.136,1.209q-1.973,3.216-3.9,6.46a17.679,17.679,0,0,0-2.127,4.015c-.115.4-.383.386-.7.386q-10.806-.005-21.611,0c-.4,0-.655-.056-.776-.512a8.716,8.716,0,0,0-1.075-2.231q-2.466-4.081-4.921-8.169c-.159-.265-.4-.482-.224-.895a10.443,10.443,0,0,0-1.205-10.318,1.725,1.725,0,0,0-2.656-.677q-1.573.924-3.128,1.877a4.358,4.358,0,0,0-1.545,6.3c.608,1.021,1.218,2.041,1.848,3.048.179.286.234.469-.132.632a3.283,3.283,0,0,0-.7.436c-.394.316-.592.158-.813-.225q-.909-1.581-1.88-3.127a4.3,4.3,0,0,0-6-1.5c-.863.494-1.709,1.02-2.559,1.537-2.149,1.307-2.265,1.729-.938,3.858a10.089,10.089,0,0,0,7.989,5.125.947.947,0,0,1,.8.592q2.655,4.4,5.318,8.8a1.539,1.539,0,0,1,.2.861q-.01,5.527,0,11.055h-.006c0,3.574-.014,7.148,0,10.723a5.6,5.6,0,0,0,5.728,5.723q6.192.021,12.385,0c.482,0,.777.02.641.645-.183.837-.31,1.688-.41,2.538-.045.384-.165.51-.559.492-.746-.035-1.5-.027-2.244,0a1.657,1.657,0,1,0,.022,3.312q7.605.021,15.211,0a1.661,1.661,0,1,0,.018-3.316,19.091,19.091,0,0,0-2.077.01c-.517.043-.657-.16-.709-.624a21.317,21.317,0,0,0-.361-2.294c-.14-.626.022-.775.669-.77,4.073.031,8.146.024,12.219.009a5.6,5.6,0,0,0,5.846-5.857q.008-10.847-.012-21.694a1.4,1.4,0,0,1,.191-.782q2.693-4.427,5.365-8.868c.152-.252.259-.507.651-.542,3.954-.352,6.693-2.484,8.565-5.885a1.722,1.722,0,0,0-.662-2.665M8.849,147.29a6.98,6.98,0,0,1-4.684-2.828c-.164-.223-.1-.323.1-.44.619-.363,1.222-.756,1.854-1.093a.973.973,0,0,1,1.413.423c.662,1.084,1.322,2.17,1.966,3.265.224.381-.074.686-.651.673m50.358-10.513c.207-.51.422-.531.836-.24.472.332.983.608,1.475.911a.992.992,0,0,1,.393,1.482c-.632,1.1-1.289,2.182-1.956,3.258-.269.433-.667.322-.913-.254a7.222,7.222,0,0,1-.442-2.272,8.548,8.548,0,0,1,.607-2.886m-6.293,19.639,5,3.03a8.216,8.216,0,0,1-4,1.873c-.4.078-.633-.005-.76-.4a8.452,8.452,0,0,1-.246-4.5m-29.334,4.449a.559.559,0,0,1-.727.469,8.4,8.4,0,0,1-4.064-1.883l4.991-3.017a8.364,8.364,0,0,1-.2,4.432m-8.266-23.5c.349-.221.708-.426,1.063-.638.909-.546.906-.546,1.268.423a8.093,8.093,0,0,1,.459,2.43,8.894,8.894,0,0,1-.393,2.27.854.854,0,0,1-.6.614c-.326.08-.354-.285-.472-.475-.6-.958-1.186-1.922-1.758-2.895-.456-.775-.33-1.242.436-1.728m1.655,19.277c-.211,0-.265-.173-.347-.309q-2.033-3.366-4.068-6.731c-.168-.276-.123-.421.149-.583q2.383-1.417,4.75-2.863c.245-.15.37-.113.511.124q2.04,3.41,4.1,6.809c.161.266.171.4-.127.577-1.591.941-3.168,1.906-4.751,2.862-.07.042-.146.077-.215.114M36.81,192c.162-1.095.33-2.154.468-3.217.041-.314.171-.394.474-.421,1.533-.134,1.594-.1,1.818,1.368.112.737.212,1.476.325,2.27Zm21.424-15.851c0,.587-.087.844-.749.786a19.189,19.189,0,0,0-2.325-.009,1.69,1.69,0,0,0-1.745,1.719,1.66,1.66,0,0,0,1.767,1.6c.831.018,1.663.029,2.493-.005.445-.018.578.129.554.562-.034.608,0,1.219-.011,1.828a2.3,2.3,0,0,1-2.474,2.417c-4.017.01-8.034,0-12.05,0H21.255c-1.917,0-2.764-.857-2.768-2.794,0-2.006,0-2.006,2-2.006H41.1a7.5,7.5,0,0,0,.913-.025,1.631,1.631,0,0,0,1.41-1.42,1.673,1.673,0,0,0-1.013-1.734,2.856,2.856,0,0,0-1.144-.146c-7.313,0-14.627-.01-21.94.018-.69,0-.858-.16-.852-.852.036-4.209.018-8.419.018-12.754a20.813,20.813,0,0,0,2.474.977c3.474.983,5.538-.295,6.155-3.842.094-.54-.034-1.3.279-1.577.406-.364,1.16-.115,1.763-.116,6.482-.008,12.965,0,19.447-.019.615,0,.847.126.867.784a7.489,7.489,0,0,0,.429,2.107,3.876,3.876,0,0,0,4.941,2.883,13.607,13.607,0,0,0,3.262-1.153c.208.211.113.44.113.641.007,4.044-.007,8.089.018,12.133m5.87-26.473q-2.006,3.285-3.976,6.592c-.182.3-.3.451-.684.211-1.521-.95-3.064-1.864-4.607-2.779-.28-.166-.4-.284-.191-.625,1.439-2.352,2.854-4.718,4.29-7.1,1.7,1.019,3.344,2.022,5.007,3,.355.208.361.377.161.7m8.244-4.946a7.113,7.113,0,0,1-4.512,2.558.741.741,0,0,1-.718-.324c-.151-.219.117-.389.219-.563.587-1,1.18-2,1.794-2.984a1.033,1.033,0,0,1,1.607-.42c.482.268.931.6,1.426.842s.541.464.185.891" transform="translate(0 -110.223)" fill="#fff"/>
          <path id="Trazado_208174" data-name="Trazado 208174" d="M167.8,83.094a1.127,1.127,0,0,1,.479,1.047c-.018,1.717-.007,3.434-.007,5.151,0,1.357.041,2.715-.008,4.071a10.716,10.716,0,0,0,3.823,8.649,3.781,3.781,0,0,0,5.319.045,10.789,10.789,0,0,0,3.874-8.546c-.06-3.156-.014-6.314-.011-9.471,0-.323-.047-.633.3-.882,3.267-2.359,4.394-5.681,4.265-9.561a1.7,1.7,0,0,0-1.881-1.828q-1.911-.018-3.822,0a4.328,4.328,0,0,0-4.441,4.469c-.007,1.163-.05,2.329.017,3.488.039.667-.205.83-.788.735a.808.808,0,0,0-.249,0c-.609.093-.87-.084-.829-.776.067-1.132.027-2.27.016-3.405a4.257,4.257,0,0,0-3.979-4.4,41.929,41.929,0,0,0-4.566-.028,1.573,1.573,0,0,0-1.583,1.518c-.216,3.9.809,7.29,4.071,9.726m7.444,16.444a.6.6,0,0,1-.933.011,8.226,8.226,0,0,1-2.435-3.631h5.788a8.163,8.163,0,0,1-2.42,3.621m3.778-19.874c-.031-.524-.009-1.051-.009-1.578,0-.609-.012-1.218,0-1.827.02-.8.372-1.14,1.178-1.166.359-.012.72,0,1.08,0,1.343,0,1.362,0,1.044,1.334a6.954,6.954,0,0,1-2.243,3.694.884.884,0,0,1-.9.269c-.348-.125-.142-.479-.156-.724m-6.764,4.106c1.688.042,3.378.029,5.066.006.454-.006.632.1.628.594q-.031,3.82,0,7.641c0,.459-.175.545-.586.541-1.716-.019-3.434-.032-5.149.006-.547.012-.64-.191-.629-.671.028-1.245.01-2.491.01-3.737,0-1.218.02-2.437-.009-3.654-.012-.507.079-.739.67-.724m-4.053-8.618c2.328,0,2.328,0,2.328,2.349v.662c0,.524.023,1.05-.01,1.572-.015.239.2.593-.182.705a.867.867,0,0,1-.835-.22,6.81,6.81,0,0,1-2.3-3.822c-.268-1.243-.255-1.246.995-1.246" transform="translate(-136.42 -59.799)" fill="#fff"/>
          <path id="Trazado_208175" data-name="Trazado 208175" d="M16.009,113.648c.949,1.395,1.892,2.794,2.85,4.183a1.572,1.572,0,0,0,1.9.646,1.59,1.59,0,0,0,1.12-1.687,1.443,1.443,0,0,0-.282-.823c-1.385-2.036-2.751-4.084-4.161-6.1a1.624,1.624,0,0,0-2.339-.426,1.642,1.642,0,0,0-.388,2.284c.408.657.867,1.283,1.3,1.924" transform="translate(-12.009 -90.931)" fill="#fff"/>
          <path id="Trazado_208176" data-name="Trazado 208176" d="M402.632,118.532a1.439,1.439,0,0,0,1.032-.451,1.758,1.758,0,0,0,.265-.318c1.358-1.987,2.724-3.968,4.063-5.967a1.667,1.667,0,0,0-.316-2.364,1.575,1.575,0,0,0-2.233.268c-1.5,2.123-2.982,4.26-4.372,6.455a1.606,1.606,0,0,0,1.56,2.377" transform="translate(-334.034 -90.908)" fill="#fff"/>
          <path id="Trazado_208177" data-name="Trazado 208177" d="M177.429,23.85a1.665,1.665,0,0,0,1.609-1.676c.023-.664,0-1.329,0-1.993,0-.637.012-1.274,0-1.91a1.657,1.657,0,1,0-3.311-.078q-.047,1.992,0,3.986a1.656,1.656,0,0,0,1.7,1.672" transform="translate(-146.422 -13.773)" fill="#fff"/>
          <path id="Trazado_208178" data-name="Trazado 208178" d="M261.439,22.014c0,.055,0,.111,0,.166a1.662,1.662,0,0,0,1.612,1.669,1.61,1.61,0,0,0,1.678-1.512c.063-1.436.065-2.88,0-4.316a1.585,1.585,0,0,0-1.685-1.493,1.616,1.616,0,0,0-1.6,1.665c-.021.664,0,1.329-.005,1.993q0,.914,0,1.827" transform="translate(-217.863 -13.773)" fill="#fff"/>
          <path id="Trazado_208179" data-name="Trazado 208179" d="M191.418,359.761c.017-1-.753-1.674-1.942-1.677-2.548-.006-5.1,0-7.645,0-2.6,0-5.207,0-7.811,0-1.185,0-1.964.677-1.953,1.668a1.718,1.718,0,0,0,1.9,1.652q7.769.012,15.538,0a1.719,1.719,0,0,0,1.91-1.643" transform="translate(-143.39 -298.402)" fill="#fff"/>
          <path id="Trazado_208180" data-name="Trazado 208180" d="M193.062,320.385q4.65.024,9.3,0a1.667,1.667,0,0,0,1.831-1.707,1.649,1.649,0,0,0-1.829-1.609c-1.55-.015-3.1,0-4.65,0s-3.1-.011-4.65,0a1.654,1.654,0,0,0-1.833,1.607,1.671,1.671,0,0,0,1.831,1.708" transform="translate(-159.359 -264.219)" fill="#fff"/>
          <path id="Trazado_208181" data-name="Trazado 208181" d="M282.251,400.228a1.7,1.7,0,0,0-1.665,1.705,1.654,1.654,0,0,0,1.661,1.607,1.629,1.629,0,0,0,1.654-1.6,1.673,1.673,0,0,0-1.649-1.71" transform="translate(-233.821 -333.524)" fill="#fff"/>
        </g>
      </g>
    </g>
  </g>
</svg>
