<svg xmlns="http://www.w3.org/2000/svg" xmlns:xlink="http://www.w3.org/1999/xlink" width="93.089" height="93.091" viewBox="0 0 93.089 93.091">
  <defs>
    <clipPath id="clip-path">
      <path id="Trazado_189538" data-name="Trazado 189538" d="M1.623,46.545A44.922,44.922,0,1,1,46.545,91.468,44.974,44.974,0,0,1,1.623,46.545M46.545,0A46.545,46.545,0,1,0,93.089,46.545,46.6,46.6,0,0,0,46.545,0Z" fill="#4e1993"/>
    </clipPath>
    <clipPath id="clip-path-2">
      <rect id="Rect치ngulo_60617" data-name="Rect치ngulo 60617" width="60.356" height="46.637" fill="#4e1993"/>
    </clipPath>
  </defs>
  <g id="Grupo_209886" data-name="Grupo 209886" transform="translate(-390.217 -3535.216)">
    <g id="Grupo_199789" data-name="Grupo 199789" transform="translate(390.217 3535.216)">
      <g id="Grupo_172088" data-name="Grupo 172088">
        <g id="Grupo_172087" data-name="Grupo 172087" clip-path="url(#clip-path)">
          <rect id="Rect치ngulo_49153" data-name="Rect치ngulo 49153" width="115.5" height="115.501" transform="translate(-25.109 7.353) rotate(-16.323)" fill="#4e1993"/>
        </g>
      </g>
      <g id="Grupo_199769" data-name="Grupo 199769" transform="translate(18.691 22.82)">
        <g id="Grupo_199769-2" data-name="Grupo 199769" clip-path="url(#clip-path-2)">
          <path id="Trazado_208692" data-name="Trazado 208692" d="M142.242,88.363c-.056-.362-.1-.727-.156-1.088s-.125-.738-.207-1.1a15.966,15.966,0,0,0-.45-1.58,16.272,16.272,0,0,0-.946-2.243,14.81,14.81,0,0,0-1.236-2,11.336,11.336,0,0,0-.861-1.076,18.155,18.155,0,0,0-2.5-2.276c-.454-.329-.91-.656-1.388-.946-.565-.343-1.142-.669-1.736-.964a.779.779,0,0,1-.378-.32.849.849,0,0,1,.025-.889,3.78,3.78,0,0,1,.338-.471,6.4,6.4,0,0,0,.658-1,7.607,7.607,0,0,0,.788-2.028,7.108,7.108,0,0,0,.221-1.41c0-.425,0-.85,0-1.275a.563.563,0,0,0,0-.139c-.1-.359-.129-.729-.225-1.09a7.952,7.952,0,0,0-.417-1.247,10.93,10.93,0,0,0-.567-1.1,6.042,6.042,0,0,0-.818-1.1,9.524,9.524,0,0,0-1.155-1.108,7.907,7.907,0,0,0-.941-.645,8.983,8.983,0,0,0-2.01-.843,7.321,7.321,0,0,0-1.395-.262,8.071,8.071,0,0,0-1.758.034,9.411,9.411,0,0,0-1.225.248,8.352,8.352,0,0,0-1.919.814,8.856,8.856,0,0,0-1.837,1.432,7.884,7.884,0,0,0-.61.693,10.429,10.429,0,0,0-.649.979,7.579,7.579,0,0,0-.548,1.166,10.017,10.017,0,0,0-.321,1.061,5.872,5.872,0,0,0-.2,1.232,7.332,7.332,0,0,0,.037,1.518c.055.336.112.67.178,1a8.4,8.4,0,0,0,.61,1.727,6.243,6.243,0,0,0,.479.857c.192.3.4.585.62.865.2.262.425.51.638.763.047.056.062.093-.029.129-.166.066-.328.145-.489.222-.576.277-1.153.551-1.7.877-.237.14-.485.266-.712.421-.522.356-1.045.71-1.543,1.1-.426.337-.824.705-1.216,1.075a11.669,11.669,0,0,0-.913,1c-.308.368-.607.742-.884,1.133a14.1,14.1,0,0,0-.958,1.536,19.275,19.275,0,0,0-1.147,2.581c-.2.554-.365,1.115-.509,1.682a9.691,9.691,0,0,0-.236,1.245c-.05.426-.086.854-.122,1.281-.023.284,0,.571-.007.856a1.958,1.958,0,0,0,.231.988,1.425,1.425,0,0,0,1.116.774,1.5,1.5,0,0,0,1.574-.849,3.238,3.238,0,0,0,.277-1.19c.054-.381.006-.771.05-1.16.04-.354.092-.709.147-1.058a8.708,8.708,0,0,1,.357-1.39,13.726,13.726,0,0,1,.562-1.4,12.386,12.386,0,0,1,1.346-2.25,14.548,14.548,0,0,1,1.347-1.569,12.837,12.837,0,0,1,1-.88,5.357,5.357,0,0,1,.579-.452c.4-.241.779-.518,1.19-.748a12.922,12.922,0,0,1,1.914-.91,11.391,11.391,0,0,1,2.254-.611,10.274,10.274,0,0,1,1.545-.171c.206,0,.412,0,.694,0a11.1,11.1,0,0,1,1.264.049c.276.054.561.08.842.123a11.776,11.776,0,0,1,1.548.363,14.342,14.342,0,0,1,2.027.758,15.583,15.583,0,0,1,1.5.835,9.865,9.865,0,0,1,1.542,1.16,11.83,11.83,0,0,1,1.9,2.116c.278.418.559.832.8,1.273a13.139,13.139,0,0,1,.925,2.128,10.484,10.484,0,0,1,.359,1.233c.076.37.145.745.2,1.12.066.428.123.858.157,1.288a6.066,6.066,0,0,0,.115.9,1.6,1.6,0,0,0,.949,1.21,1.55,1.55,0,0,0,1.485-.225,1.739,1.739,0,0,0,.607-1.391,8.747,8.747,0,0,0-.075-1.4M131.269,68.881a5.027,5.027,0,0,1-.352,1.551,4.413,4.413,0,0,1-.545,1.011,5.777,5.777,0,0,1-1.093,1.124,4.616,4.616,0,0,1-.951.585,5.813,5.813,0,0,1-1.053.35,5.655,5.655,0,0,1-1.641.106,5.162,5.162,0,0,1-.964-.178,4.636,4.636,0,0,1-1.163-.5,4.972,4.972,0,0,1-1.464-1.27,5.441,5.441,0,0,1-.692-1.178,5.6,5.6,0,0,1-.289-.93,4.883,4.883,0,0,1-.1-1.48,5.158,5.158,0,0,1,.336-1.494,4.9,4.9,0,0,1,.684-1.243,4.615,4.615,0,0,1,1.013-.993,7.885,7.885,0,0,1,1.017-.588,5.182,5.182,0,0,1,.889-.29,3.976,3.976,0,0,1,1.222-.113c.179,0,.359-.009.538,0a4.36,4.36,0,0,1,1.288.294,4.457,4.457,0,0,1,1.063.535,5.453,5.453,0,0,1,1.058.937,5.837,5.837,0,0,1,.809,1.308,5.9,5.9,0,0,1,.284.912,5.005,5.005,0,0,1,.109,1.54" transform="translate(-81.961 -44.842)" fill="#4e1993"/>
          <path id="Trazado_208693" data-name="Trazado 208693" d="M25.351,93.117c-.272,0-.544,0-.816,0-4.192-.038-8.384.077-12.575-.057-.406-.013-.814.036-1.219.046-.983.023-1.968.034-2.952-.04-.535-.04-1.076,0-1.613-.009-1.543-.036-3.083.1-4.626.062a1.112,1.112,0,0,0-.441.056,1.379,1.379,0,0,0-.625.363,2.123,2.123,0,0,0-.407.839,1.392,1.392,0,0,0,.24,1.173,1.664,1.664,0,0,0,1.441.71q5.868,0,11.736,0H25.13a1.685,1.685,0,0,0,.982-.284,1.54,1.54,0,0,0,.681-1.755,1.556,1.556,0,0,0-1.442-1.1" transform="translate(-0.026 -69.386)" fill="#4e1993"/>
          <path id="Trazado_208694" data-name="Trazado 208694" d="M.612,2.78a1.545,1.545,0,0,0,1.016.358q11.852.014,23.7.007a.491.491,0,0,0,.158-.009,1.846,1.846,0,0,0,1.015-.641,1.686,1.686,0,0,0,.319-.815,1.514,1.514,0,0,0-.284-1A1.379,1.379,0,0,0,25.364.006Q19.428-.006,13.492,0,7.7,0,1.9,0A2.159,2.159,0,0,0,.617.35a1.351,1.351,0,0,0-.6.937A1.557,1.557,0,0,0,.612,2.78" transform="translate(0 0.001)" fill="#4e1993"/>
          <path id="Trazado_208695" data-name="Trazado 208695" d="M25.26,46.662q-5.946-.01-11.892,0-5.906,0-11.812,0a1.376,1.376,0,0,0-.8.23A1.527,1.527,0,0,0,.073,48.6a1.725,1.725,0,0,0,.464.79,1.669,1.669,0,0,0,1.138.407q11.424.006,22.848,0a4.194,4.194,0,0,0,.921-.048,1.554,1.554,0,0,0,1.3-1.012,1.455,1.455,0,0,0-.132-1.332,1.532,1.532,0,0,0-1.348-.745" transform="translate(-0.006 -34.792)" fill="#4e1993"/>
        </g>
      </g>
    </g>
  </g>
</svg>
