<svg xmlns="http://www.w3.org/2000/svg" xmlns:xlink="http://www.w3.org/1999/xlink" width="93.089" height="93.09" viewBox="0 0 93.089 93.09">
  <defs>
    <clipPath id="clip-path">
      <path id="Trazado_189538" data-name="Trazado 189538" d="M1.623,46.545A44.922,44.922,0,1,1,46.545,91.468,44.974,44.974,0,0,1,1.623,46.545M46.545,0A46.545,46.545,0,1,0,93.089,46.545,46.6,46.6,0,0,0,46.545,0Z" fill="#4e1993"/>
    </clipPath>
    <clipPath id="clip-path-2">
      <rect id="Rect치ngulo_60616" data-name="Rect치ngulo 60616" width="53.422" height="51.963" fill="#4e1993"/>
    </clipPath>
  </defs>
  <g id="Grupo_209890" data-name="Grupo 209890" transform="translate(-390 -3631)">
    <g id="Grupo_172088" data-name="Grupo 172088" transform="translate(390 3631)">
      <g id="Grupo_172087" data-name="Grupo 172087" clip-path="url(#clip-path)">
        <rect id="Rect치ngulo_49153" data-name="Rect치ngulo 49153" width="115.5" height="115.501" transform="translate(-25.109 7.353) rotate(-16.323)" fill="#4e1993"/>
      </g>
    </g>
    <g id="Grupo_199768" data-name="Grupo 199768" transform="translate(409.764 3651.862)">
      <g id="Grupo_199768-2" data-name="Grupo 199768" clip-path="url(#clip-path-2)">
        <path id="Trazado_208679" data-name="Trazado 208679" d="M9.3,359.61c-2.816,0-5.633,0-8.449-.007A.979.979,0,0,0,0,359.98v1.774a1,1,0,0,0,.863.359c1.5-.012,2.99,0,4.485,0,1.339,0,2.677.005,4.016,0,.612,0,.766-.169.776-.779,0-.3,0-.591,0-.887-.007-.665-.161-.828-.837-.829" transform="translate(0 -310.15)" fill="#4e1993"/>
        <path id="Trazado_208680" data-name="Trazado 208680" d="M9.425,281.913a.819.819,0,0,0,1.016.021l1.766-1.018c0,.771-.025,1.445.007,2.116a.749.749,0,0,0,1.15.7.865.865,0,0,0,.37-.811c0-.646,0-1.293,0-2.014.642.374,1.191.7,1.747,1.015.5.283.954.2,1.186-.192s.092-.82-.412-1.123c-.564-.34-1.137-.663-1.766-1.028.6-.356,1.171-.683,1.732-1.02.542-.326.7-.738.439-1.152s-.661-.467-1.184-.173c-.557.312-1.106.636-1.746,1,0-.782.015-1.475-.006-2.168a.735.735,0,0,0-.649-.764.694.694,0,0,0-.77.406,1.4,1.4,0,0,0-.1.663c.006.6,0,1.193,0,1.859-.635-.365-1.185-.688-1.742-1-.525-.292-.943-.227-1.185.168-.252.412-.1.835.437,1.155.563.337,1.131.665,1.73,1.017-.642.377-1.246.713-1.831,1.079a.75.75,0,0,0-.19,1.256" transform="translate(-7.901 -237.437)" fill="#4e1993"/>
        <path id="Trazado_208681" data-name="Trazado 208681" d="M324.21,278.355a5.239,5.239,0,0,0,.486.3c.469.278.939.554,1.448.855-.667.393-1.267.741-1.861,1.1a.744.744,0,0,0-.407.78.7.7,0,0,0,.507.6.944.944,0,0,0,.792-.145c.557-.328,1.12-.647,1.731-1,0,.716,0,1.341,0,1.966s.285.974.768.97.75-.343.758-.982c.008-.623,0-1.247,0-1.959.65.378,1.2.7,1.757,1.017a.8.8,0,0,0,1.182-.206c.23-.406.08-.81-.429-1.116-.559-.336-1.124-.66-1.752-1.028.606-.353,1.158-.67,1.705-1s.712-.732.481-1.146c-.243-.436-.684-.5-1.268-.164-.537.306-1.071.619-1.675.969,0-.313.007-.55,0-.785a10.328,10.328,0,0,0-.044-1.559.688.688,0,0,0-.69-.6.68.68,0,0,0-.735.537,2.36,2.36,0,0,0-.056.566c-.007.593,0,1.185,0,1.831-.7-.4-1.311-.759-1.936-1.09a.689.689,0,0,0-.989.277.7.7,0,0,0,.229,1" transform="translate(-279.32 -237.378)" fill="#4e1993"/>
        <path id="Trazado_208682" data-name="Trazado 208682" d="M226.527,277.292c-.236-.411-.676-.471-1.23-.159s-1.1.631-1.723.989c0-.757.007-1.4,0-2.044-.008-.572-.317-.929-.77-.912s-.718.357-.724.908c-.007.655,0,1.309,0,1.973-.244,0-.38-.148-.541-.235-.488-.264-.961-.554-1.453-.81a.674.674,0,0,0-.852.167.723.723,0,0,0-.1.869,1.11,1.11,0,0,0,.5.435c.546.32,1.093.638,1.681.98-.642.374-1.213.7-1.78,1.039a.857.857,0,0,0-.469.531.724.724,0,0,0,.255.8.76.76,0,0,0,.882.039c.614-.341,1.221-.694,1.879-1.07,0,.656,0,1.229,0,1.8,0,.139-.007.279.007.417a.7.7,0,0,0,.738.712.669.669,0,0,0,.737-.7c.023-.718.006-1.436.006-2.241.647.375,1.2.7,1.753,1.013.513.29.958.226,1.2-.158.248-.4.086-.845-.435-1.158-.554-.333-1.113-.657-1.729-1.019.614-.358,1.168-.676,1.717-1,.52-.309.693-.752.46-1.156" transform="translate(-188.908 -237.324)" fill="#4e1993"/>
        <path id="Trazado_208683" data-name="Trazado 208683" d="M115.15,277.007a.656.656,0,0,0-.9.272.7.7,0,0,0,.147.98,4.286,4.286,0,0,0,.568.363c.462.278.926.552,1.423.848-.68.4-1.3.743-1.9,1.12a.708.708,0,0,0-.265,1,.721.721,0,0,0,.989.31,3.626,3.626,0,0,0,.5-.276l1.47-.846c0,.805-.017,1.5.006,2.2a.7.7,0,0,0,.8.745.728.728,0,0,0,.681-.827c0-.681,0-1.362,0-2.109.628.36,1.166.672,1.708.979s.99.261,1.233-.143.084-.833-.451-1.153-1.1-.65-1.717-1.01c.6-.352,1.166-.68,1.727-1.015.525-.313.685-.75.436-1.157s-.658-.461-1.187-.165c-.557.313-1.108.637-1.749,1.007,0-.73,0-1.37,0-2.009,0-.59-.281-.94-.735-.949s-.752.345-.759.923c-.008.651,0,1.3,0,2.016-.188-.1-.309-.157-.426-.222-.53-.294-1.052-.6-1.592-.878" transform="translate(-98.415 -237.326)" fill="#4e1993"/>
        <path id="Trazado_208684" data-name="Trazado 208684" d="M114.006,359.637h-7.557c-1.61,0-1.61,0-1.6,1.6.006.724.17.9.883.9,1.39,0,2.779,0,4.169,0h3.6c1.523,0,1.523,0,1.518-1.515,0-.846-.144-.984-1.014-.984" transform="translate(-90.431 -310.179)" fill="#4e1993"/>
        <path id="Trazado_208685" data-name="Trazado 208685" d="M218.889,359.636q-3.778,0-7.557,0c-1.662,0-1.662,0-1.623,1.672.016.67.164.823.845.826,1.407.005,2.814,0,4.221,0h3.544c1.556,0,1.556,0,1.551-1.535,0-.813-.153-.964-.982-.964" transform="translate(-180.861 -310.177)" fill="#4e1993"/>
        <path id="Trazado_208686" data-name="Trazado 208686" d="M324.826,360.416c-.009-.585-.191-.782-.783-.784q-4.3-.009-8.6,0c-.578,0-.744.184-.756.75-.006.3,0,.591,0,.886.005.713.143.856.854.858,1.39,0,2.78,0,4.169,0,1.442,0,2.884,0,4.326,0,.6,0,.781-.19.79-.772q.007-.469,0-.938" transform="translate(-271.407 -310.17)" fill="#4e1993"/>
        <path id="Trazado_208687" data-name="Trazado 208687" d="M104.908,16.143a2.714,2.714,0,0,0-2.6-1.55q-6.629,0-13.258,0c-.218,0-.285-.039-.283-.274.013-1.423.007-2.845.006-4.268a4.511,4.511,0,0,1,.1-.991A4.579,4.579,0,0,1,94.02,5.5a4.52,4.52,0,0,1,3.844,3.835,22.086,22.086,0,0,1,.055,2.417.913.913,0,0,0,.947.956q1.771.01,3.542,0a.91.91,0,0,0,.96-.973c0-.514,0-1.029,0-1.544a9.9,9.9,0,0,0-2.093-6.3A9.827,9.827,0,0,0,94.824.115,1.268,1.268,0,0,1,94.286,0H92.349c-.381.093-.777.066-1.161.157A10.133,10.133,0,0,0,86.113,3a9.921,9.921,0,0,0-2.863,6.926c-.028,1.472-.006,2.945,0,4.418,0,.187,0,.359-.21.457a2.592,2.592,0,0,0-1.525,2.033V28.761c.1.049.083.156.108.234a2.7,2.7,0,0,0,2.7,2q9.036.006,18.071,0a2.719,2.719,0,0,0,2.793-2.792q.014-5.4,0-10.806a2.709,2.709,0,0,0-.276-1.257M85.3,8.466A7.992,7.992,0,0,1,91.39,2.077,8.143,8.143,0,0,1,101.3,8.009a10.427,10.427,0,0,1,.252,2.732c0,.11-.022.162-.148.16-.5-.006-1.009-.01-1.513,0-.214,0-.157-.134-.156-.241a8.846,8.846,0,0,0-.229-2.338,6.392,6.392,0,0,0-12.392.311,5.835,5.835,0,0,0-.158,1.5c0,1.392,0,2.785.005,4.177,0,.209-.023.3-.27.288a12.476,12.476,0,0,0-1.3,0c-.225.01-.258-.071-.255-.271.011-.847,0-1.695,0-2.642A15.338,15.338,0,0,1,85.3,8.466m16.987,20.718H84.429c-.768,0-1.1-.336-1.1-1.105q0-5.281,0-10.562c0-.771.334-1.108,1.1-1.108h17.856c.746,0,1.087.342,1.087,1.09q0,5.3,0,10.592c0,.751-.339,1.093-1.084,1.093" transform="translate(-70.301)" fill="#4e1993"/>
        <path id="Trazado_208688" data-name="Trazado 208688" d="M268.581,56.8c1.237-.6,2.465-1.225,3.693-1.846a.857.857,0,0,0,.479-.72.9.9,0,0,0-1.243-.9c-1.261.6-2.507,1.231-3.747,1.872a.864.864,0,0,0-.36,1.174.88.88,0,0,0,1.178.425" transform="translate(-230.543 -45.924)" fill="#4e1993"/>
        <path id="Trazado_208689" data-name="Trazado 208689" d="M272.312,121.245c-1.235-.629-2.469-1.263-3.719-1.86a.9.9,0,0,0-1.263.9.95.95,0,0,0,.587.782c1.152.571,2.3,1.15,3.45,1.725a1.622,1.622,0,0,0,.223.09.915.915,0,0,0,1.185-.873.847.847,0,0,0-.463-.765" transform="translate(-230.562 -102.893)" fill="#4e1993"/>
        <path id="Trazado_208690" data-name="Trazado 208690" d="M271.793,92.891q-1.738-.005-3.476,0a.911.911,0,1,0,.01,1.815c.574,0,1.148,0,1.723,0s1.169,0,1.753,0a.91.91,0,1,0-.01-1.814" transform="translate(-230.566 -80.115)" fill="#4e1993"/>
        <path id="Trazado_208691" data-name="Trazado 208691" d="M151.736,132.672A2.538,2.538,0,0,0,149.1,133a2.693,2.693,0,0,0,.523,4.672.25.25,0,0,1,.173.268c-.009.464,0,.928,0,1.392,0,.414,0,.827,0,1.241a.915.915,0,1,0,1.816,0c0-.868,0-1.735,0-2.6a.271.271,0,0,1,.167-.3,2.635,2.635,0,0,0,1.6-2.915,2.549,2.549,0,0,0-1.641-2.082m-1.027,3.417a.907.907,0,1,1,.9-.9.916.916,0,0,1-.9.9" transform="translate(-127.627 -114.232)" fill="#4e1993"/>
      </g>
    </g>
  </g>
</svg>
