<svg xmlns="http://www.w3.org/2000/svg" xmlns:xlink="http://www.w3.org/1999/xlink" width="93.089" height="93.09" viewBox="0 0 93.089 93.09">
  <defs>
    <clipPath id="clip-path">
      <path id="Trazado_189538" data-name="Trazado 189538" d="M1.623,46.545A44.922,44.922,0,1,1,46.545,91.467,44.974,44.974,0,0,1,1.623,46.545M46.545,0A46.545,46.545,0,1,0,93.089,46.545,46.6,46.6,0,0,0,46.545,0Z" fill="#4e1993"/>
    </clipPath>
    <clipPath id="clip-path-2">
      <rect id="Rect치ngulo_60624" data-name="Rect치ngulo 60624" width="54.632" height="55.222" fill="#4e1993"/>
    </clipPath>
  </defs>
  <g id="Grupo_209901" data-name="Grupo 209901" transform="translate(-1125 -3445)">
    <g id="Grupo_172088" data-name="Grupo 172088" transform="translate(1125 3445)">
      <g id="Grupo_172087" data-name="Grupo 172087" clip-path="url(#clip-path)">
        <rect id="Rect치ngulo_49153" data-name="Rect치ngulo 49153" width="115.5" height="115.501" transform="translate(-25.109 7.353) rotate(-16.323)" fill="#4e1993"/>
      </g>
    </g>
    <g id="Grupo_199775" data-name="Grupo 199775" transform="translate(1144.763 3463.666)">
      <g id="Grupo_199778" data-name="Grupo 199778" clip-path="url(#clip-path-2)">
        <path id="Trazado_208752" data-name="Trazado 208752" d="M35.479,307.141h0" transform="translate(-30.311 -262.403)" fill="#4e1993"/>
        <path id="Trazado_208753" data-name="Trazado 208753" d="M131.472,304.145a.089.089,0,0,1,0,.03l.024-.019-.019-.011" transform="translate(-112.317 -259.843)" fill="#4e1993"/>
        <path id="Trazado_208754" data-name="Trazado 208754" d="M361,267.2q0-.665,0-1.33-.024.665,0,1.33" transform="translate(-308.407 -227.14)" fill="#4e1993"/>
        <path id="Trazado_208755" data-name="Trazado 208755" d="M360.877,266.575a2.5,2.5,0,0,0,.02.621q-.025-.665,0-1.33a3.316,3.316,0,0,0-.02.709" transform="translate(-308.303 -227.14)" fill="#4e1993"/>
        <path id="Trazado_208756" data-name="Trazado 208756" d="M361.005,108.694v1.125s0,.008,0,.013a.036.036,0,0,0,.009,0q0-.578,0-1.157a.058.058,0,0,0-.012.006s0,.006,0,.009" transform="translate(-308.42 -92.849)" fill="#4e1993"/>
        <path id="Trazado_208757" data-name="Trazado 208757" d="M360.931,109.853v-1.125s0-.006,0-.009a.056.056,0,0,0-.011.005h0q0,.568,0,1.136a.041.041,0,0,0,.013.005s0-.008,0-.013" transform="translate(-308.346 -92.883)" fill="#4e1993"/>
        <path id="Trazado_208758" data-name="Trazado 208758" d="M255.114,24.711s0-.009,0-.014l-.012,0v.736l.012-.005v-.712" transform="translate(-217.943 -21.095)" fill="#4e1993"/>
        <path id="Trazado_208759" data-name="Trazado 208759" d="M255.183,24.739v.712l.009,0q0-.359,0-.718l-.01,0s0,.009,0,.014" transform="translate(-218.013 -21.124)" fill="#4e1993"/>
        <path id="Trazado_208760" data-name="Trazado 208760" d="M350.757,259.219h-.663a5.477,5.477,0,0,0,.663,0" transform="translate(-299.099 -221.461)" fill="#4e1993"/>
        <path id="Trazado_208761" data-name="Trazado 208761" d="M350.1,259.219a1.9,1.9,0,0,0,.663,0,5.477,5.477,0,0,1-.663,0" transform="translate(-299.1 -221.461)" fill="#4e1993"/>
        <path id="Trazado_208762" data-name="Trazado 208762" d="M340.163,259.21h-.629a4.255,4.255,0,0,0,.629,0" transform="translate(-290.077 -221.453)" fill="#4e1993"/>
        <path id="Trazado_208763" data-name="Trazado 208763" d="M340.163,259.21a4.255,4.255,0,0,1-.629,0,1.659,1.659,0,0,0,.629,0" transform="translate(-290.077 -221.453)" fill="#4e1993"/>
        <path id="Trazado_208764" data-name="Trazado 208764" d="M255.109,35.975l-.012-.005V36.5a4.148,4.148,0,0,0,.013-.52" transform="translate(-217.938 -30.731)" fill="#4e1993"/>
        <path id="Trazado_208765" data-name="Trazado 208765" d="M255.119,36.01h0l-.009,0a4.158,4.158,0,0,1-.013.52,1.574,1.574,0,0,0,.022-.516" transform="translate(-217.939 -30.761)" fill="#4e1993"/>
        <path id="Trazado_208766" data-name="Trazado 208766" d="M255.114,35.975a.054.054,0,0,0-.012-.005Z" transform="translate(-217.943 -30.731)" fill="#4e1993"/>
        <path id="Trazado_208767" data-name="Trazado 208767" d="M255.184,36.006l.009,0h0Z" transform="translate(-218.013 -30.761)" fill="#4e1993"/>
        <path id="Trazado_208768" data-name="Trazado 208768" d="M181.546.024a1.4,1.4,0,0,0-.4-.019c.131.027.266-.006.4.019" transform="translate(-154.763 0)" fill="#4e1993"/>
        <path id="Trazado_208769" data-name="Trazado 208769" d="M181.546.054c-.132-.025-.266.008-.4-.019a1.1,1.1,0,0,0,.4.019" transform="translate(-154.763 -0.03)" fill="#4e1993"/>
        <path id="Trazado_208770" data-name="Trazado 208770" d="M18.515,48.973q-1.618,1.618-3.237,3.235a.727.727,0,0,0-.228.383,1.4,1.4,0,0,0,.014.521,3.137,3.137,0,0,1,.013.471c0,.85.015,1.7-.011,2.549,0,.11.041.147.14.147.553,0,1.106,0,1.659,0,.133,0,.169-.077.18-.185a4.255,4.255,0,0,0,.026-.755c0-.12,0-.241,0-.362,0-.152,0-.3,0-.456,0-.24,0-.481,0-.72a1.209,1.209,0,0,1,.408-.981q1.279-1.289,2.567-2.569c.3-.3.594-.591.888-.889a1.179,1.179,0,0,1,1.3-.3,15.434,15.434,0,0,0,2.374.571,9.766,9.766,0,0,0,1,.12.876.876,0,0,1,.929.963c0,.029,0,.058,0,.088q0,3.913,0,7.826c0,.085-.024.177.047.248a.227.227,0,0,0,.15.033h1.641a.211.211,0,0,0,.149-.035c.069-.074.045-.166.045-.251q0-2.817,0-5.635c0-.766.012-1.533-.009-2.3a.86.86,0,0,1,.548-.848,3.02,3.02,0,0,1,.874-.153,13.306,13.306,0,0,0,2.76-.6,1.324,1.324,0,0,1,1.479.356q1.644,1.654,3.3,3.3a1.594,1.594,0,0,1,.516,1.232q0,1.036,0,2.071c0,.073-.019.154.052.209a.28.28,0,0,0,.135.027c.562,0,1.124,0,1.685,0a.334.334,0,0,0,.1-.016c.1-.068.053-.17.057-.257a.969.969,0,0,0-.027-.363c-.021-.751-.023-1.5,0-2.253a3.89,3.89,0,0,0,.017-.875c-.03-.105-.149-.153-.17-.264h0c-.07,0-.11-.058-.154-.1-1.034-1.033-2.074-2.061-3.1-3.1-.281-.286-.559-.577-.838-.865-.151-.156-.143-.2.047-.312A24.341,24.341,0,0,0,38.4,46.246c.215-.16.424-.327.632-.5a.85.85,0,0,1,1.274.063q2.219,2.216,4.435,4.435a.929.929,0,0,1,.211,1.164,5.685,5.685,0,0,0-.514,1.841c-.014.134,0,.268-.008.4,0,.068.015.141-.042.2a.065.065,0,0,1,.018.013c.043.234.047.472.087.707a5.144,5.144,0,0,0,1.763,3.107,5.016,5.016,0,0,0,1.658.947.836.836,0,0,0,.1.034,5.508,5.508,0,0,1,.908.245c.467,0,.934.016,1.4-.011a5.674,5.674,0,0,0,3.1-1.678,5.177,5.177,0,0,0,1.345-2.972,5.192,5.192,0,0,0-3.1-5.31,5.322,5.322,0,0,0-1.708-.4,5.189,5.189,0,0,0-2.48.448,1.222,1.222,0,0,1-1.458-.274c-.935-.926-1.826-1.9-2.776-2.806q-.694-.665-1.374-1.343a1.657,1.657,0,0,1-.195-.224.958.958,0,0,1,.046-1.309A16.07,16.07,0,0,0,42.8,41.555c.338-.517.643-1.053.946-1.591.128-.228.189-.237.376-.05q1.829,1.828,3.657,3.657c.119.119.215.26.34.375a.694.694,0,0,0,.641.2,1.372,1.372,0,0,1,.279-.015q1.476,0,2.953,0c.074,0,.17.035.206-.078.006-.161,0-.322,0-.483q0-.411,0-.822c0-.156,0-.313,0-.469a.129.129,0,0,0-.148-.148c-.678.007-1.356-.017-2.033.013a1.627,1.627,0,0,1-1.4-.493c-.177-.169-.327-.363-.5-.536L45.8,38.786c-.156-.156-.33-.294-.488-.449a1.347,1.347,0,0,1-.347-1.46c.146-.473.272-.951.383-1.433a12.988,12.988,0,0,0,.273-1.775,1,1,0,0,1,1-1.027,5.525,5.525,0,0,1,1.028,0,1,1,0,0,0,.243.012h5.771c.3,0,.6,0,.9,0a.259.259,0,0,0,.183-.032c.06-.069.031-.16.054-.237a.916.916,0,0,0-.006-.433,3.106,3.106,0,0,1,0-.625.915.915,0,0,0,.006-.435.39.39,0,0,1-.009-.05c-.02-.214-.02-.214-.244-.219q-2.875,0-5.749,0c-.559.006-1.118-.015-1.677.011a2.073,2.073,0,0,1-.609.006,1.022,1.022,0,0,1-.878-.951c-.039-.283-.064-.567-.1-.849a14.768,14.768,0,0,0-.54-2.365,1.719,1.719,0,0,1-.1-.719,1.3,1.3,0,0,1,.452-.824c.19-.173.373-.351.554-.532q1.244-1.24,2.483-2.485A2.954,2.954,0,0,1,49,21.359a1.512,1.512,0,0,1,.68-.2c.813,0,1.625,0,2.436,0a.087.087,0,0,0,.082-.064c0-.637.015-1.274-.008-1.91-.124-.121-.263-.045-.4-.029-.611.027-1.223.009-1.834.011-.3,0-.594.016-.89-.011a2.291,2.291,0,0,0-.675-.018c-.1.034-.17.118-.264.161h0c.017.079-.049.118-.093.162q-1.962,1.966-3.927,3.928c-.164.163-.228.152-.35-.067-.327-.585-.669-1.16-1.037-1.72a17.345,17.345,0,0,0-1.058-1.432.886.886,0,0,1,.059-1.3q2.22-2.226,4.446-4.447a.971.971,0,0,1,1.159-.181,4.982,4.982,0,0,0,2.624.52,5.053,5.053,0,0,0,2.675-.965,5.308,5.308,0,0,0,2.164-3.707,2.485,2.485,0,0,1,.022-.261,1.356,1.356,0,0,0,0-.459,5.473,5.473,0,0,0-.617-2.217A5.081,5.081,0,0,0,50.9,4.542a7.8,7.8,0,0,0-1.1-.153.817.817,0,0,0-.372,0,5.731,5.731,0,0,0-1.715.37,5.215,5.215,0,0,0-1.491.891,5.088,5.088,0,0,0-1.736,3.118c-.036.224-.045.45-.071.675a.137.137,0,0,1-.023.031c.054.058.04.132.039.2a4.589,4.589,0,0,0,.445,1.994,1.209,1.209,0,0,1,0,1.186,1.084,1.084,0,0,1-.171.219q-2.18,2.18-4.359,4.36a.969.969,0,0,1-1.49-.04.181.181,0,0,1-.057-.094c-.067.01-.106-.039-.15-.074a20.47,20.47,0,0,0-2.884-1.84c-.212-.116-.229-.167-.052-.329.4-.369.793-.754,1.206-1.113.1-.088.193-.185.288-.28l2.237-2.236A4.074,4.074,0,0,1,39.8,11.1a.662.662,0,0,0,.264-.457,3.688,3.688,0,0,0-.019-.815q-.034-1.091,0-2.182a1.087,1.087,0,0,0-.016-.621.994.994,0,0,0-.315-.024q-.674,0-1.347,0c-.1.015-.2-.026-.289.04-.053.06-.037.132-.037.2,0,.667,0,1.335,0,2a1.674,1.674,0,0,1-.561,1.352q-1.66,1.625-3.286,3.283a1.239,1.239,0,0,1-1.352.352,16.232,16.232,0,0,0-2.446-.574,7.374,7.374,0,0,0-.78-.088,1.051,1.051,0,0,1-1.053-1.283,6.377,6.377,0,0,0,.011-.7c0-.639,0-1.277,0-1.916q0-2.479,0-4.957c0-.023,0-.046,0-.068,0-.27,0-.27-.27-.27a1.607,1.607,0,0,0-.425.025,3.445,3.445,0,0,1-.667,0,1.218,1.218,0,0,0-.494-.01.273.273,0,0,0-.15.057,1.773,1.773,0,0,0-.026.513c-.007.132,0,.265,0,.4q0,2.84,0,5.68a.769.769,0,0,0,.011.191,5.756,5.756,0,0,1-.032,1.409,1.05,1.05,0,0,1-.914.9c-.366.066-.739.083-1.107.139a12.633,12.633,0,0,0-2.1.51,1.966,1.966,0,0,1-.475.109,1.2,1.2,0,0,1-1-.4q-.867-.91-1.762-1.793c-.544-.534-1.068-1.087-1.628-1.606a1.259,1.259,0,0,1-.457-1.018c0-.755,0-1.51,0-2.265C17.058,7,17.058,7,16.847,7c-.091,0-.182,0-.273,0-.365,0-.729,0-1.093,0-.4.011-.4.011-.4.412q0,1.34,0,2.68a1.667,1.667,0,0,1-.012.278.964.964,0,0,0-.013.446,1.6,1.6,0,0,0,.284.352L19.2,15.033c.238.238.233.251-.054.418a21.567,21.567,0,0,0-3.142,2.112.821.821,0,0,1-1.145-.015c-.637-.607-1.25-1.238-1.869-1.862a.2.2,0,0,1-.059-.1.267.267,0,0,1-.15-.1q-1.235-1.233-2.467-2.468a.923.923,0,0,1-.244-.993c.072-.228.187-.438.269-.662a6.121,6.121,0,0,0,.318-1.533,1.781,1.781,0,0,0,0-.523,5.491,5.491,0,0,0-.445-1.855A5.1,5.1,0,0,0,8.471,5.335,5.137,5.137,0,0,0,5.912,4.4a.731.731,0,0,1-.1-.015,2.86,2.86,0,0,0-.653,0,5.577,5.577,0,0,0-2.051.581A5.1,5.1,0,0,0,.488,8.188c-.069.238-.1.488-.188.724-.026.47-.021.94,0,1.409a8.09,8.09,0,0,1,.283.969,5.237,5.237,0,0,0,1.036,1.746A5.082,5.082,0,0,0,4.7,14.712a4.956,4.956,0,0,0,2.833-.384,1.281,1.281,0,0,1,1.113-.054,1.405,1.405,0,0,1,.4.279q2.156,2.155,4.311,4.312a.916.916,0,0,1,.081,1.295,22,22,0,0,0-2.1,3.13c-.146.25-.176.253-.378.051Q8.97,21.352,6.985,19.36a.636.636,0,0,0-.507-.211c-.466.014-.932,0-1.4.008-.209,0-.417,0-.625,0a.6.6,0,0,1-.124-.007c-.047,0-.093,0-.14,0-.065.011-.131.005-.2.013-.282,0-.563,0-.845,0-.226,0-.227,0-.238.231-.007.172,0,.345,0,.517s0,.325,0,.487,0,.355,0,.532c.01.1-.041.23.136.227.794,0,1.588,0,2.381,0a1.583,1.583,0,0,1,1,.484Q8.1,23.338,9.8,25.015a1.234,1.234,0,0,1,.323,1.386,14.105,14.105,0,0,0-.681,3.365.909.909,0,0,1-1.11.867,1.052,1.052,0,0,0-.226-.01H.567c-.085,0-.177-.024-.248.047a.23.23,0,0,0-.033.15q0,.82,0,1.64a.214.214,0,0,0,.035.149.227.227,0,0,0,.181.046H7.509a.427.427,0,0,0,.121-.011,3.462,3.462,0,0,1,1.043.029.95.95,0,0,1,.766.866c.056.427.094.856.169,1.281a15.484,15.484,0,0,0,.479,1.967,1.624,1.624,0,0,1,.107.753,1.541,1.541,0,0,1-.567.917c-.25.22-.482.457-.717.69q-.781.776-1.557,1.557c-.315.318-.607.66-.934.967a1.627,1.627,0,0,1-1.323.465c-.3-.032-.609-.006-.914-.014-.28,0-.561,0-.841,0-.136.017-.28-.043-.409.039-.04.068-.018.143-.025.215,0,.167,0,.334,0,.5s0,.32,0,.48,0,.327,0,.49c-.005.282-.005.279.279.278q1.528,0,3.057,0a.5.5,0,0,1,.122.007.61.61,0,0,0,.611-.21q.98-.984,1.964-1.965l1.989-1.989c.041-.041.081-.084.125-.122.111-.092.157-.087.233.041.2.331.384.666.582,1a18.9,18.9,0,0,0,1.568,2.247.844.844,0,0,1-.067,1.271c-1.47,1.47-2.946,2.935-4.406,4.415a1.07,1.07,0,0,1-1.232.229,6.274,6.274,0,0,0-1.69-.483c-.167-.022-.337-.008-.5-.046-.045-.01-.094-.006-.127-.046h0a.082.082,0,0,1-.01.018c-.227.052-.461.05-.69.087a5.186,5.186,0,0,0-3.69,2.481,4.132,4.132,0,0,0-.588,1.486c-.024.135-.1.25-.131.379-.032.465-.007.931-.012,1.4a5.963,5.963,0,0,0,1.085,2.563,5.113,5.113,0,0,0,3.041,1.9c.177.035.35.087.527.123.363,0,.727.013,1.089-.009a5.418,5.418,0,0,0,2.709-1.166,5.1,5.1,0,0,0,1.91-3.6,5.016,5.016,0,0,0-.422-2.466,1.259,1.259,0,0,1,.3-1.614Q12.6,47.977,14.679,45.9a1.043,1.043,0,0,1,.842-.344.993.993,0,0,1,.592.232,18.8,18.8,0,0,0,2.711,1.845c.135.08.269.162.407.239.114.064.166.108.165.16l.019.012-.024.019a.461.461,0,0,1-.11.143c-.254.257-.51.511-.765.766m31.117,1.589A3.148,3.148,0,1,1,46.465,53.7a3.147,3.147,0,0,1,3.167-3.135m.037-44.133a3.148,3.148,0,1,1-3.2,3.134,3.147,3.147,0,0,1,3.2-3.134m-44.2,6.289A3.146,3.146,0,1,1,8.631,9.569a3.148,3.148,0,0,1-3.164,3.149m.024,44.142a3.148,3.148,0,1,1,3.141-3.142,3.165,3.165,0,0,1-3.141,3.142M16.7,43.621a15.648,15.648,0,0,1-5.3-11.216A15.7,15.7,0,0,1,16.135,20.2,15.528,15.528,0,0,1,26.59,15.5,15.717,15.717,0,0,1,38.031,19.35a15.65,15.65,0,0,1,5.62,10.918,15.821,15.821,0,0,1-3.789,11.847c-3.229,3.876-8.006,5.732-14.116,5.691-2.347-.024-5.984-1.4-9.045-4.185" transform="translate(-0.241 -3.731)" fill="#4e1993"/>
        <path id="Trazado_208771" data-name="Trazado 208771" d="M19.034,289.451c-.137-.077-.271-.159-.407-.239a18.8,18.8,0,0,1-2.711-1.845.994.994,0,0,0-.592-.232,1.043,1.043,0,0,0-.842.344q-2.072,2.078-4.149,4.151a1.259,1.259,0,0,0-.3,1.614,5.016,5.016,0,0,1,.421,2.466,5.1,5.1,0,0,1-1.91,3.6,5.418,5.418,0,0,1-2.709,1.166c-.363.023-.726.007-1.089.01-.177-.036-.35-.088-.527-.123a5.113,5.113,0,0,1-3.041-1.9A5.962,5.962,0,0,1,.091,295.9c.006-.465-.02-.93.013-1.4.035-.129.107-.244.131-.379a4.13,4.13,0,0,1,.588-1.486,5.185,5.185,0,0,1,3.69-2.481c.229-.037.463-.035.69-.087a.069.069,0,0,0,.01-.018,6.8,6.8,0,0,0-.733.071,4.7,4.7,0,0,0-1.358.4,5.421,5.421,0,0,0-1.775,1.32,5.35,5.35,0,0,0-.888,1.406c-.179.389-.216.818-.382,1.209,0,.437,0,.874,0,1.31,0,.062.019.129-.024.186.009.032.019.064.027.1a7.95,7.95,0,0,0,.478,1.481,5.106,5.106,0,0,0,1.371,1.763,5.134,5.134,0,0,0,1.617.929c.375.135.771.172,1.145.3a3.044,3.044,0,0,1,.649-.023c.178-.007.356,0,.534,0a4.012,4.012,0,0,0,1.024-.239A5.254,5.254,0,0,0,8.96,299a5.115,5.115,0,0,0,1-1.38,5.22,5.22,0,0,0,.558-2.3,4.839,4.839,0,0,0-.094-.9,5.288,5.288,0,0,0-.373-1.221,1.18,1.18,0,0,1,.26-1.488q2.121-2.116,4.237-4.237a.992.992,0,0,1,1.366-.05,13.3,13.3,0,0,0,1.538,1.128c.571.356,1.149.7,1.746,1.065,0-.053-.052-.1-.165-.16" transform="translate(-0.044 -245.309)" fill="#4e1993"/>
        <path id="Trazado_208772" data-name="Trazado 208772" d="M126.147,308.539c.021.111.14.159.17.264a3.9,3.9,0,0,1-.017.875c-.023.751-.021,1.5,0,2.253a.971.971,0,0,1,.027.363c0,.087.042.189-.057.257a.331.331,0,0,1-.1.017c-.562,0-1.124,0-1.685,0a.277.277,0,0,1-.135-.027c-.072-.056-.052-.136-.052-.209q0-1.035,0-2.071a1.594,1.594,0,0,0-.516-1.232q-1.657-1.641-3.3-3.3a1.325,1.325,0,0,0-1.48-.356,13.3,13.3,0,0,1-2.76.6,3.025,3.025,0,0,0-.874.153.86.86,0,0,0-.548.848c.022.766,0,1.532.009,2.3q0,2.817,0,5.635c0,.085.024.176-.045.251a.212.212,0,0,1-.149.036h-1.641a.227.227,0,0,1-.15-.033c-.071-.072-.047-.164-.047-.249q0-3.913,0-7.826c0-.029,0-.059,0-.088a.876.876,0,0,0-.929-.963,9.77,9.77,0,0,1-1-.12,15.441,15.441,0,0,1-2.374-.571,1.179,1.179,0,0,0-1.3.3c-.294.3-.592.593-.888.889q-1.284,1.284-2.567,2.569a1.208,1.208,0,0,0-.408.981c0,.24,0,.48,0,.72q0,.228,0,.456c0,.121,0,.241,0,.362a4.228,4.228,0,0,1-.026.755c-.012.109-.047.186-.18.186-.553,0-1.106,0-1.659,0-.1,0-.143-.037-.14-.147.026-.849.007-1.7.012-2.549a3.139,3.139,0,0,0-.013-.471,1.392,1.392,0,0,1-.014-.521.725.725,0,0,1,.228-.383q1.62-1.616,3.237-3.235c.255-.255.511-.51.765-.766a.463.463,0,0,0,.11-.143,1.5,1.5,0,0,0-.13.109q-2.017,2.01-4.033,4.021a.619.619,0,0,0-.211.368v.523c0,.646.018,1.292.009,1.938a7.76,7.76,0,0,1-.031,1.2c-.016.094.026.116.115.115.577,0,1.153,0,1.73-.006.237,0,.237,0,.25-.24q0-.559.006-1.118V310.8a3.513,3.513,0,0,1,.021-.774c-.008-.026-.039-.042-.029-.077a1.838,1.838,0,0,1,.462-.853c1.175-1.162,2.335-2.339,3.508-3.5a.959.959,0,0,1,.946-.264c.735.2,1.462.431,2.215.561q.547.094,1.1.159a2.964,2.964,0,0,1,.689.1c.334.122.484.384.494.871.053.061.027.134.027.2q0,3.888,0,7.776c0,.069.007.139.01.208h2.041c0-.069.012-.138.012-.208q0-2.763,0-5.526c0-.07,0-.139,0-.209q0-1.17,0-2.339a.876.876,0,0,1,.575-.775,4.1,4.1,0,0,1,.819-.136c.354-.058.714-.081,1.064-.152a15.765,15.765,0,0,0,1.817-.478,1.164,1.164,0,0,1,1.263.314c1.114,1.109,2.219,2.227,3.339,3.331a1.6,1.6,0,0,1,.534,1.179c.051.049.022.11.022.165q0,1.122,0,2.244l2.05,0q.006-.33.012-.66,0-1.154,0-2.308l0-.908-.182-.2a.1.1,0,0,1-.018,0h0" transform="translate(-86.498 -260.019)" fill="#4e1993"/>
        <path id="Trazado_208773" data-name="Trazado 208773" d="M289.495,105.726c.095-.043.165-.127.264-.161a2.291,2.291,0,0,1,.675.018c.3.027.593.013.89.011.611,0,1.223.016,1.834-.011.134-.016.273-.092.4.029.024.636.011,1.272.008,1.91a.086.086,0,0,1-.082.064c-.812,0-1.624,0-2.436,0a1.513,1.513,0,0,0-.68.2,2.952,2.952,0,0,0-.621.557q-1.236,1.248-2.483,2.485c-.181.181-.365.359-.554.532a1.3,1.3,0,0,0-.452.824,1.718,1.718,0,0,0,.1.719,14.766,14.766,0,0,1,.54,2.365c.04.283.065.567.1.849a1.022,1.022,0,0,0,.878.951,2.068,2.068,0,0,0,.609-.006c.559-.026,1.118-.006,1.677-.011h5.749c.224,0,.224,0,.244.219a.373.373,0,0,0,.009.05.915.915,0,0,1-.006.435,3.106,3.106,0,0,0,0,.625.916.916,0,0,1,.006.433c-.023.078.006.168-.054.237a.259.259,0,0,1-.182.033c-.3,0-.6,0-.9,0h-5.771a1,1,0,0,1-.244-.012,5.523,5.523,0,0,0-1.028,0,1,1,0,0,0-1,1.027,13.039,13.039,0,0,1-.273,1.775c-.112.482-.237.96-.383,1.433a1.347,1.347,0,0,0,.346,1.46c.158.155.331.293.488.449l2.321,2.322c.173.173.322.367.5.536a1.626,1.626,0,0,0,1.4.493c.677-.03,1.355-.006,2.033-.013a.129.129,0,0,1,.148.148c0,.157,0,.313,0,.47q0,.411,0,.821c0,.161,0,.322,0,.483-.035.113-.131.078-.206.078q-1.476,0-2.953,0a1.372,1.372,0,0,0-.279.015.694.694,0,0,1-.641-.2c-.125-.115-.221-.256-.34-.375q-1.828-1.829-3.657-3.657c-.187-.187-.248-.178-.376.05-.3.538-.608,1.074-.946,1.591a16.142,16.142,0,0,1-1.085,1.477.959.959,0,0,0-.046,1.309,1.663,1.663,0,0,0,.195.223q.68.679,1.374,1.343c.95.911,1.842,1.88,2.776,2.806a1.222,1.222,0,0,0,1.458.274,5.19,5.19,0,0,1,2.48-.448,5.325,5.325,0,0,1,1.708.4,5.192,5.192,0,0,1,3.1,5.31,5.176,5.176,0,0,1-1.345,2.972,5.673,5.673,0,0,1-3.1,1.678c-.466.027-.934.008-1.4.011a5.517,5.517,0,0,0-.908-.245.851.851,0,0,1-.1-.034,5.02,5.02,0,0,1-1.658-.947A5.145,5.145,0,0,1,285.858,141c-.04-.235-.044-.473-.087-.707a.066.066,0,0,0-.018-.013h0c.015.183.008.367.035.551a5.4,5.4,0,0,0,.4,1.432,5.181,5.181,0,0,0,1.664,2.085,4.754,4.754,0,0,0,1.567.788,3.514,3.514,0,0,1,.806.235.79.79,0,0,1,.34-.023c.386,0,.773,0,1.16,0a3.363,3.363,0,0,0,.539-.141,5.233,5.233,0,0,0,2.158-1.151,5.117,5.117,0,0,0,1.338-1.845,5.711,5.711,0,0,0,.434-1.746,4.754,4.754,0,0,0-.123-1.476,5.3,5.3,0,0,0-.608-1.528,5.065,5.065,0,0,0-1.943-1.9,5.167,5.167,0,0,0-2.952-.631,4.848,4.848,0,0,0-1.58.383,1.294,1.294,0,0,1-1.732-.348c-.378-.4-.769-.793-1.157-1.185-.958-.967-1.934-1.917-2.9-2.877a.953.953,0,0,1-.117-1.372c.194-.226.385-.455.556-.7a22.657,22.657,0,0,0,1.529-2.468c.088-.166.111-.17.242-.039q1.588,1.588,3.174,3.177c.242.243.491.479.716.739a.976.976,0,0,0,.54.378,2.127,2.127,0,0,0,.429-.023c.542,0,1.083,0,1.625,0,.524,0,1.048,0,1.573,0,.046,0,.14.058.137-.064a1.975,1.975,0,0,1-.022-.532v-.83c0-.157-.011-.314,0-.471.008-.13-.034-.169-.166-.168-.692.007-1.384,0-2.077,0a1.652,1.652,0,0,1-1.336-.512c-.283-.283-.535-.593-.825-.869-.847-.8-1.636-1.664-2.494-2.455a1.179,1.179,0,0,1-.346-1.231c.145-.563.327-1.116.439-1.687.07-.359.139-.72.19-1.083.041-.292.046-.589.106-.878a.915.915,0,0,1,.726-.691,8.027,8.027,0,0,1,1.163-.026c.82,0,1.641,0,2.461,0q1.807,0,3.613,0h0l1.151-.005.014-.279q0-.209,0-.419,0-.333,0-.665,0-.209,0-.418c-.019-.3-.019-.3-.238-.3a.606.606,0,0,1-.117.023l-5.7,0h-1.71c-.128,0-.256.011-.383.009a.966.966,0,0,1-1.015-.912c-.062-.439-.1-.88-.178-1.318a14.66,14.66,0,0,0-.5-2.026,1.212,1.212,0,0,1,.121-1.11,3.19,3.19,0,0,1,.425-.446c.978-.964,1.946-1.938,2.917-2.91a1.448,1.448,0,0,0,.108-.114,1.522,1.522,0,0,1,1.054-.579.193.193,0,0,1,.134-.028h2.289a.179.179,0,0,1,.133.027c.022,0,.058.022.056-.028-.038-.045-.024-.1-.024-.151q0-.952,0-1.9l-.384-.009c-.261,0-.521.008-.782.007q-1.008,0-2.016-.009l-.7,0c-.07.061-.162.095-.214.177,0,0,0,.007,0,.011h0" transform="translate(-241.609 -90.162)" fill="#4e1993"/>
        <path id="Trazado_208774" data-name="Trazado 208774" d="M87.2,15.58c.62.624,1.232,1.256,1.869,1.862a.821.821,0,0,0,1.145.015,21.567,21.567,0,0,1,3.142-2.112c.287-.166.292-.179.054-.417L89.547,11.06a1.6,1.6,0,0,1-.284-.352.963.963,0,0,1,.013-.446,1.669,1.669,0,0,0,.012-.278q0-1.34,0-2.68c0-.4,0-.4.4-.412.364-.006.729,0,1.093,0,.091.005.182,0,.273,0,.211,0,.211,0,.222.221,0,.755,0,1.51,0,2.265a1.259,1.259,0,0,0,.457,1.018c.56.519,1.084,1.072,1.628,1.606q.9.881,1.762,1.793a1.2,1.2,0,0,0,1,.4,1.965,1.965,0,0,0,.475-.109,12.65,12.65,0,0,1,2.1-.51c.368-.056.741-.073,1.107-.139a1.051,1.051,0,0,0,.914-.9,5.763,5.763,0,0,0,.031-1.409.776.776,0,0,1-.011-.191q0-2.84,0-5.68c0-.133-.006-.265,0-.4a1.768,1.768,0,0,1,.026-.513.274.274,0,0,1,.15-.057,1.218,1.218,0,0,1,.494.01,3.443,3.443,0,0,0,.667,0,1.614,1.614,0,0,1,.425-.025c.273,0,.273,0,.27.27,0,.023,0,.046,0,.068q0,2.478,0,4.957c0,.639,0,1.277,0,1.916a6.378,6.378,0,0,1-.011.7,1.051,1.051,0,0,0,1.053,1.283,7.341,7.341,0,0,1,.78.088,16.226,16.226,0,0,1,2.445.574,1.24,1.24,0,0,0,1.352-.352q1.631-1.653,3.286-3.283a1.675,1.675,0,0,0,.561-1.352c0-.667,0-1.334,0-2,0-.068-.016-.141.037-.2.089-.066.193-.025.289-.04.449,0,.9,0,1.347,0a.986.986,0,0,1,.315.024,1.086,1.086,0,0,1,.016.621q-.032,1.091,0,2.183a3.678,3.678,0,0,1,.019.815.663.663,0,0,1-.263.457,4.03,4.03,0,0,0-.359.332l-2.237,2.236c-.095.095-.187.192-.288.28-.413.359-.8.743-1.206,1.113-.177.162-.161.213.052.329a20.5,20.5,0,0,1,2.884,1.84c.044.035.083.084.15.074,0,0,0-.007,0-.01a.754.754,0,0,1-.214-.161,19.178,19.178,0,0,0-2.853-1.8c-.133-.071-.135-.119-.026-.218.441-.4.887-.792,1.311-1.207.864-.847,1.715-1.708,2.572-2.562.069-.068.143-.131.217-.195a.627.627,0,0,0,.289-.466V9.741q0-1.119,0-2.238-.006-.33-.013-.66l-.341.008a4.16,4.16,0,0,1-.811.022,2.029,2.029,0,0,1-.585-.023l-.312,0q0,1.086-.006,2.171c0,.055.028.116-.022.165,0,.07,0,.139-.007.209a1.263,1.263,0,0,1-.343.847q-1.8,1.815-3.621,3.62a.993.993,0,0,1-.966.271c-.691-.175-1.369-.4-2.073-.525a12.453,12.453,0,0,0-1.412-.194,1.138,1.138,0,0,1-.545-.163,1,1,0,0,1-.443-1.028q0-1.327,0-2.654,0-2.195,0-4.39c0-.2,0-.406,0-.61,0-.011,0-.023,0-.034,0-.275,0-.275-.281-.283l-.417-.007h-.7l-.491.005-.173.014-.005.977q0,2.967,0,5.934a8.476,8.476,0,0,1-.023,1.268,1.022,1.022,0,0,1-.86.941c-.231.045-.463.065-.695.089a11.939,11.939,0,0,0-2.639.6,1.242,1.242,0,0,1-1.4-.348q-1.624-1.686-3.306-3.315a1.385,1.385,0,0,1-.488-.97c-.032-.034-.023-.076-.023-.116q0-1.064,0-2.129a.164.164,0,0,1,.023-.117c0-.231,0-.231-.239-.23-.092,0-.184,0-.275.007a4.993,4.993,0,0,1-1.116,0h-.5a.4.4,0,0,1,.042.229q0,1.2,0,2.4c0,.273-.007.545-.01.818l.007.452a4.164,4.164,0,0,0,.468.511q1.89,1.89,3.783,3.779c.092.091.106.141-.015.2-.5.262-.969.562-1.443.859a15.513,15.513,0,0,0-1.8,1.3.8.8,0,0,1-1.131,0c-.65-.634-1.283-1.284-1.924-1.928a.14.14,0,0,1-.021,0,.206.206,0,0,0,.059.1" transform="translate(-74.452 -3.626)" fill="#4e1993"/>
        <path id="Trazado_208775" data-name="Trazado 208775" d="M18.091,114.445h0l.005,0-.005,0" transform="translate(-15.456 -97.772)" fill="#4e1993"/>
        <path id="Trazado_208776" data-name="Trazado 208776" d="M5.987,135.05a6.278,6.278,0,0,1,1.69.483,1.07,1.07,0,0,0,1.232-.229c1.46-1.48,2.936-2.944,4.406-4.415a.844.844,0,0,0,.067-1.271,18.9,18.9,0,0,1-1.568-2.247c-.2-.33-.386-.665-.582-1-.075-.127-.121-.133-.233-.041-.045.037-.084.081-.125.122l-1.989,1.989q-.982.982-1.964,1.965a.61.61,0,0,1-.611.21.5.5,0,0,0-.122-.007q-1.529,0-3.057,0c-.284,0-.284,0-.278-.278,0-.163,0-.327,0-.49s0-.32,0-.48,0-.334,0-.5a.483.483,0,0,1,.025-.215c.129-.082.273-.022.409-.039.28,0,.561,0,.841,0,.3.007.609-.018.914.014a1.627,1.627,0,0,0,1.323-.465c.327-.307.618-.649.934-.967q.775-.782,1.557-1.557c.235-.234.467-.47.717-.69a1.541,1.541,0,0,0,.567-.917,1.624,1.624,0,0,0-.107-.753,15.488,15.488,0,0,1-.479-1.967c-.075-.425-.112-.854-.169-1.281a.95.95,0,0,0-.766-.866,3.463,3.463,0,0,0-1.043-.029.427.427,0,0,1-.121.011H.448a.228.228,0,0,1-.181-.046.213.213,0,0,1-.035-.149q0-.82,0-1.64a.23.23,0,0,1,.032-.15c.072-.071.163-.047.248-.047H8.048a1.052,1.052,0,0,1,.227.01.909.909,0,0,0,1.11-.867,14.105,14.105,0,0,1,.681-3.365,1.235,1.235,0,0,0-.324-1.386q-1.7-1.677-3.373-3.374a1.584,1.584,0,0,0-1-.484c-.793,0-1.587,0-2.381,0-.177,0-.126-.131-.136-.227q0-.266,0-.532c0-.162,0-.325,0-.487s0-.345,0-.517c.011-.227.013-.23.238-.231.282,0,.563,0,.845,0,.065-.007.131,0,.2-.013a.751.751,0,0,1-.177-.028c-.295,0-.589-.006-.884-.007-.275,0-.275,0-.262.271a2.33,2.33,0,0,1,.019.532v.482a2.4,2.4,0,0,1-.022.566c.039.08-.112.268.131.233.039-.036.087-.026.132-.026H5.3c.045,0,.093-.011.132.026a1.176,1.176,0,0,1,.163.043,1.085,1.085,0,0,1,.614.3q1.812,1.806,3.617,3.619a.979.979,0,0,1,.264.979c-.173.66-.386,1.308-.517,1.98a10.039,10.039,0,0,0-.216,1.537.9.9,0,0,1-1.026.949H.427c-.069,0-.139.007-.208.01q0,1.02,0,2.041c.069,0,.139.01.208.01H7.421c.07,0,.139,0,.209.005a8.418,8.418,0,0,1,.85.02.911.911,0,0,1,.863.841c.058.362.082.728.138,1.09a14.956,14.956,0,0,0,.542,2.273,1.208,1.208,0,0,1-.207,1.238c-.2.242-.45.431-.669.653-.928.94-1.871,1.865-2.784,2.82a1.61,1.61,0,0,1-1.285.5h0l-.947-.007-.87,0-.45.01q0,.118,0,.236a2.33,2.33,0,0,1,.019.532q0,.241,0,.483a2.444,2.444,0,0,1-.02.531c0,.1-.042.215.014.288s.158-.037.243-.012a.132.132,0,0,0,.035,0c.786,0,1.572-.009,2.358,0a6.98,6.98,0,0,1,.99.028.487.487,0,0,0,.4-.148c.14-.131.275-.267.41-.4l3.009-3.019c.247-.247.5-.492.74-.742.084-.086.128-.088.185.028.081.165.182.32.274.48a19.962,19.962,0,0,0,1.848,2.735.815.815,0,0,1-.053,1.263c-1.466,1.466-2.938,2.926-4.393,4.4a1.027,1.027,0,0,1-1.19.211,6.187,6.187,0,0,0-2.329-.535c.034.04.083.036.128.046.166.038.336.024.5.046" transform="translate(-0.187 -90.218)" fill="#4e1993"/>
        <path id="Trazado_208777" data-name="Trazado 208777" d="M4.476,19.081c-.072,0-.144,0-.216.007a.6.6,0,0,0,.124.007c.208,0,.416,0,.625,0,.466-.008.932.006,1.4-.008a.635.635,0,0,1,.507.211q1.982,2,3.975,3.98c.2.2.232.2.378-.051a22.009,22.009,0,0,1,2.1-3.13.916.916,0,0,0-.081-1.295q-2.153-2.158-4.311-4.312a1.405,1.405,0,0,0-.4-.279,1.279,1.279,0,0,0-1.113.054,4.958,4.958,0,0,1-2.833.384,5.083,5.083,0,0,1-3.081-1.676A5.233,5.233,0,0,1,.513,11.23a8.094,8.094,0,0,0-.284-.969c-.02-.469-.024-.939,0-1.409.084-.236.119-.485.188-.724A5.1,5.1,0,0,1,3.036,4.906a5.578,5.578,0,0,1,2.051-.581,2.861,2.861,0,0,1,.653,0,.731.731,0,0,0,.1.015A5.139,5.139,0,0,1,8.4,5.274a5.1,5.1,0,0,1,1.743,2.113,5.491,5.491,0,0,1,.445,1.855,1.776,1.776,0,0,1,0,.523,6.114,6.114,0,0,1-.318,1.532c-.082.224-.2.434-.269.662a.924.924,0,0,0,.244.993q1.23,1.238,2.467,2.468a.266.266,0,0,0,.151.1v0l0-.012c-.84-.836-1.675-1.677-2.521-2.507a.975.975,0,0,1-.215-1.276,5.308,5.308,0,0,0,.487-1.94V9.224a4.583,4.583,0,0,0-.111-.866,5.121,5.121,0,0,0-1.183-2.32A5.283,5.283,0,0,0,7.489,4.714,5.361,5.361,0,0,0,5.761,4.3h-.7c-.1.013-.2.022-.306.033a4.85,4.85,0,0,0-1.543.442A5.1,5.1,0,0,0,1.439,6.117a5.623,5.623,0,0,0-.96,1.667C.355,8.118.348,8.479.2,8.8q0,.753,0,1.505c.013.109.095.19.112.3a3.805,3.805,0,0,0,.317,1.037,5.357,5.357,0,0,0,1.525,1.965,5.164,5.164,0,0,0,2.813,1.126,4.948,4.948,0,0,0,2.54-.446,1.19,1.19,0,0,1,1.469.262q2.125,2.124,4.25,4.25a.924.924,0,0,1,.047,1.349,11.553,11.553,0,0,0-.783,1.017c-.478.684-.888,1.409-1.309,2.127-.053.091-.081.134-.18.034Q8.96,21.272,6.909,19.222a.471.471,0,0,0-.346-.176c-.5.006-1,.008-1.5.011a2.045,2.045,0,0,1-.584.024" transform="translate(-0.172 -3.67)" fill="#4e1993"/>
        <path id="Trazado_208778" data-name="Trazado 208778" d="M87.139,81.285a.113.113,0,0,0,.021,0l-.018-.018s0,.008,0,.012v0" transform="translate(-74.445 -69.432)" fill="#4e1993"/>
        <path id="Trazado_208779" data-name="Trazado 208779" d="M285.6,9.363c.025-.225.035-.451.071-.675A5.088,5.088,0,0,1,287.4,5.57a5.222,5.222,0,0,1,1.491-.891,5.731,5.731,0,0,1,1.715-.37.816.816,0,0,1,.372,0,7.771,7.771,0,0,1,1.1.153,5.081,5.081,0,0,1,3.288,2.608,5.473,5.473,0,0,1,.617,2.218,1.348,1.348,0,0,1,0,.459,2.521,2.521,0,0,0-.022.261,5.307,5.307,0,0,1-2.164,3.707,5.05,5.05,0,0,1-2.675.965,4.98,4.98,0,0,1-2.623-.52.971.971,0,0,0-1.16.181q-2.225,2.222-4.446,4.447a.886.886,0,0,0-.059,1.3,17.355,17.355,0,0,1,1.058,1.432c.368.559.71,1.135,1.037,1.72.123.219.186.231.35.067q1.965-1.962,3.927-3.928c.044-.044.11-.083.093-.162l-.009,0c-.031.037-.059.075-.093.109l-3.954,3.954c-.155.155-.154.155-.266-.043a20.088,20.088,0,0,0-2.144-3.212.844.844,0,0,1-.2-.515.9.9,0,0,1,.292-.693c1.474-1.475,2.954-2.944,4.419-4.428A1.062,1.062,0,0,1,288.5,14.2a5.013,5.013,0,0,0,3.218.454,5.18,5.18,0,0,0,2.744-1.428,4.981,4.981,0,0,0,1.018-1.408,5.423,5.423,0,0,0,.549-2.047q0-.246,0-.491a5.686,5.686,0,0,0-.244-1.327,5.293,5.293,0,0,0-1.442-2.293,5.353,5.353,0,0,0-1.185-.843,5.162,5.162,0,0,0-2.168-.539l-.385,0c-.131.009-.262.025-.393.036a4.645,4.645,0,0,0-1.486.392,5.134,5.134,0,0,0-1.832,1.308,5.3,5.3,0,0,0-1.037,1.746,5.118,5.118,0,0,0-.29,1.623s.006.008.009.012a.141.141,0,0,0,.023-.031" transform="translate(-241.426 -3.652)" fill="#4e1993"/>
        <path id="Trazado_208780" data-name="Trazado 208780" d="M328.661,106.769l-.007.008.009,0s0-.007,0-.011" transform="translate(-280.782 -91.217)" fill="#4e1993"/>
        <path id="Trazado_208781" data-name="Trazado 208781" d="M252.134,294.867c0-.134-.007-.268.008-.4a5.681,5.681,0,0,1,.514-1.841.929.929,0,0,0-.211-1.164q-2.216-2.219-4.435-4.435a.85.85,0,0,0-1.274-.063c-.209.168-.418.335-.633.5a24.309,24.309,0,0,1-2.548,1.621c-.19.108-.2.156-.047.312.279.289.557.579.838.866,1.023,1.044,2.063,2.071,3.1,3.1.044.044.084.1.154.1,0,0,0-.007,0-.011-.038-.034-.077-.068-.113-.1q-1.285-1.284-2.568-2.57c-.478-.482-.945-.975-1.423-1.458-.091-.092-.066-.13.03-.185.541-.305,1.083-.61,1.6-.955a16.741,16.741,0,0,0,1.452-1.045,1.827,1.827,0,0,1,.434-.311.814.814,0,0,1,.946.208q2.227,2.231,4.459,4.458a.9.9,0,0,1,.2,1.124,5.242,5.242,0,0,0-.528,2.451h0c.057-.057.04-.13.042-.2" transform="translate(-207.948 -244.943)" fill="#4e1993"/>
        <path id="Trazado_208782" data-name="Trazado 208782" d="M272.218,333.029l-.014-.013s0,.007,0,.011a.1.1,0,0,0,.018,0" transform="translate(-232.551 -284.508)" fill="#4e1993"/>
        <path id="Trazado_208783" data-name="Trazado 208783" d="M303.055,344.1h0" transform="translate(-258.911 -293.974)" fill="#4e1993"/>
        <path id="Trazado_208784" data-name="Trazado 208784" d="M264.675,47.245a.18.18,0,0,0,.056.094.969.969,0,0,0,1.49.04q2.177-2.183,4.359-4.36a1.088,1.088,0,0,0,.171-.219,1.21,1.21,0,0,0,0-1.186,4.583,4.583,0,0,1-.445-1.993c0-.068.015-.143-.039-.2a.117.117,0,0,1-.009.012,5.018,5.018,0,0,0,.014.621,5.325,5.325,0,0,0,.455,1.616,1.131,1.131,0,0,1-.254,1.4c-.783.756-1.544,1.533-2.314,2.3-.667.666-1.336,1.33-2,2a.9.9,0,0,1-1.246.067,2.393,2.393,0,0,0-.239-.2l0,0h0" transform="translate(-226.122 -33.677)" fill="#4e1993"/>
        <path id="Trazado_208785" data-name="Trazado 208785" d="M264.662,93.085l0,0-.008-.006a.092.092,0,0,0,0,.01h0" transform="translate(-226.108 -79.518)" fill="#4e1993"/>
        <path id="Trazado_208786" data-name="Trazado 208786" d="M303.029,39.349a.139.139,0,0,0-.009-.012c0,.008,0,.016,0,.024a.136.136,0,0,0,.009-.012" transform="translate(-258.882 -33.607)" fill="#4e1993"/>
        <path id="Trazado_208787" data-name="Trazado 208787" d="M180.214,330.888a.516.516,0,0,1-.014-.207q0-3.887,0-7.775a.661.661,0,0,0-.011-.208q0,4.019,0,8.037c0,.057-.038.128.036.173a.069.069,0,0,1,0-.016l-.013,0" transform="translate(-153.935 -275.693)" fill="#4e1993"/>
        <path id="Trazado_208788" data-name="Trazado 208788" d="M180.245,322.906q0,3.887,0,7.775a.515.515,0,0,0,.014.207l.013,0s0-.006,0-.009c0-.069-.01-.139-.01-.208q0-3.888,0-7.776c0-.067.027-.14-.027-.2a.662.662,0,0,1,.011.208" transform="translate(-153.981 -275.693)" fill="#4e1993"/>
        <path id="Trazado_208789" data-name="Trazado 208789" d="M194.541,343.876a.634.634,0,0,1-.01.191.149.149,0,0,1-.017.007.072.072,0,0,1,0,.018c.074-.044.039-.116.039-.174q0-2.891,0-5.782a.042.042,0,0,0-.013-.007q0,2.874,0,5.748" transform="translate(-166.181 -288.876)" fill="#4e1993"/>
        <path id="Trazado_208790" data-name="Trazado 208790" d="M194.531,344.032a.643.643,0,0,0,.01-.191q0-2.874,0-5.748a.046.046,0,0,0-.011-.006c0,.07,0,.139,0,.209q0,2.763,0,5.527c0,.069-.008.138-.012.208,0,0,0,.005,0,.008a.119.119,0,0,0,.017-.007" transform="translate(-166.181 -288.842)" fill="#4e1993"/>
        <path id="Trazado_208791" data-name="Trazado 208791" d="M259.181,346.786c-.006-.741.008-1.482-.008-2.223q0,1.161,0,2.321c0,.031-.016.072.032.087-.038-.059-.018-.124-.019-.186" transform="translate(-221.415 -294.373)" fill="#4e1993"/>
        <path id="Trazado_208792" data-name="Trazado 208792" d="M259.216,344.563c.016.741,0,1.482.008,2.223,0,.062-.019.127.019.186q0-1.122,0-2.244c0-.055.028-.116-.022-.165" transform="translate(-221.458 -294.373)" fill="#4e1993"/>
        <path id="Trazado_208793" data-name="Trazado 208793" d="M182.38,378.962q-.864,0-1.728,0a.553.553,0,0,1-.153-.007v0l-.009.012h2.043a.014.014,0,0,1-.005-.016.431.431,0,0,1-.148.008" transform="translate(-154.2 -323.755)" fill="#4e1993"/>
        <path id="Trazado_208794" data-name="Trazado 208794" d="M180.662,378.907q.864,0,1.728,0a.429.429,0,0,0,.148-.008.017.017,0,0,1,.005-.009H180.5l.006.011a.555.555,0,0,0,.153.007" transform="translate(-154.211 -323.699)" fill="#4e1993"/>
        <path id="Trazado_208795" data-name="Trazado 208795" d="M180.5,378.952l-.007,0a.062.062,0,0,0,0,.016l.009-.012Z" transform="translate(-154.2 -323.752)" fill="#4e1993"/>
        <path id="Trazado_208796" data-name="Trazado 208796" d="M180.506,378.9l-.006-.011s0,.006,0,.009l.007,0" transform="translate(-154.207 -323.699)" fill="#4e1993"/>
        <path id="Trazado_208797" data-name="Trazado 208797" d="M194.475,378.943a.015.015,0,0,0,.005.016.071.071,0,0,0,0-.018l-.005,0" transform="translate(-166.147 -323.744)" fill="#4e1993"/>
        <path id="Trazado_208798" data-name="Trazado 208798" d="M194.484,378.9a.064.064,0,0,0,0-.007.018.018,0,0,0-.005.009l.005,0" transform="translate(-166.151 -323.7)" fill="#4e1993"/>
        <path id="Trazado_208799" data-name="Trazado 208799" d="M.029,337.6a.343.343,0,0,1,.018-.188c-.046.028-.025.073-.025.11q0,.694,0,1.387c.014-.436,0-.873.007-1.309" transform="translate(-0.014 -288.267)" fill="#4e1993"/>
        <path id="Trazado_208800" data-name="Trazado 208800" d="M.077,338.727c0-.437,0-.874,0-1.31a.343.343,0,0,0-.018.188c-.006.436.007.873-.007,1.309.043-.057.023-.124.024-.186" transform="translate(-0.045 -288.268)" fill="#4e1993"/>
        <path id="Trazado_208801" data-name="Trazado 208801" d="M32.293,378.9c-.134.005-.268-.007-.4.006.236,0,.472.007.708,0a1.385,1.385,0,0,0,.475-.024,6.452,6.452,0,0,1-.781.018" transform="translate(-27.247 -323.696)" fill="#4e1993"/>
        <path id="Trazado_208802" data-name="Trazado 208802" d="M32.541,378.86a3.039,3.039,0,0,0-.649.023c.134-.014.268,0,.4-.006a6.5,6.5,0,0,0,.781-.018c-.178,0-.356-.006-.534,0" transform="translate(-27.247 -323.67)" fill="#4e1993"/>
        <path id="Trazado_208803" data-name="Trazado 208803" d="M115.665,351.778c-.009.371.019.742-.015,1.112.036-.031.027-.074.027-.113q0-.5,0-1.007h-.009Z" transform="translate(-98.804 -300.53)" fill="#4e1993"/>
        <path id="Trazado_208804" data-name="Trazado 208804" d="M115.665,351.787v-.008h-.009q0,.559-.006,1.118c.034-.37.006-.741.015-1.112" transform="translate(-98.804 -300.538)" fill="#4e1993"/>
        <path id="Trazado_208805" data-name="Trazado 208805" d="M115.743,344.112h.009q0-.389,0-.777c-.026.258,0,.517-.012.776" transform="translate(-98.883 -293.325)" fill="#4e1993"/>
        <path id="Trazado_208806" data-name="Trazado 208806" d="M115.623,344.11h.009c.007-.259-.014-.518.012-.776a3.522,3.522,0,0,0-.021.774" transform="translate(-98.771 -293.325)" fill="#4e1993"/>
        <path id="Trazado_208807" data-name="Trazado 208807" d="M101.236,335.225a1.06,1.06,0,0,0,0,.524,2.938,2.938,0,0,1,0-.524" transform="translate(-86.461 -286.396)" fill="#4e1993"/>
        <path id="Trazado_208808" data-name="Trazado 208808" d="M101.359,335.749v-.524a2.964,2.964,0,0,0,0,.524" transform="translate(-86.585 -286.396)" fill="#4e1993"/>
        <path id="Trazado_208809" data-name="Trazado 208809" d="M115.753,348.663q0,.227,0,.454h.009v-.451h-.009Z" transform="translate(-98.892 -297.876)" fill="#4e1993"/>
        <path id="Trazado_208810" data-name="Trazado 208810" d="M115.7,348.655h-.009v.457h.009q0-.227,0-.454" transform="translate(-98.838 -297.868)" fill="#4e1993"/>
        <path id="Trazado_208811" data-name="Trazado 208811" d="M331.2,198.73h-5.886a.587.587,0,0,1-.191-.011.129.129,0,0,0,.1.023l5.993,0-.007-.009H331.2" transform="translate(-277.764 -169.773)" fill="#4e1993"/>
        <path id="Trazado_208812" data-name="Trazado 208812" d="M325.313,198.7h5.894a.092.092,0,0,1-.01-.013q-1.807,0-3.613,0c-.82,0-1.641,0-2.461,0a.588.588,0,0,0,.191.011" transform="translate(-277.764 -169.744)" fill="#4e1993"/>
        <path id="Trazado_208813" data-name="Trazado 208813" d="M338.95,184.335a.915.915,0,0,0,.191-.007c-.058,0-.116,0-.174,0h-5.623a.059.059,0,0,0-.008.012h5.614" transform="translate(-284.782 -157.474)" fill="#4e1993"/>
        <path id="Trazado_208814" data-name="Trazado 208814" d="M338.9,184.36h-5.614a.065.065,0,0,0-.008.012l5.7,0a.61.61,0,0,0,.117-.023.914.914,0,0,1-.191.007" transform="translate(-284.732 -157.5)" fill="#4e1993"/>
        <path id="Trazado_208815" data-name="Trazado 208815" d="M341.582,263.257c.652,0,1.3,0,1.957,0,.133,0,.173.037.164.167-.011.156,0,.314,0,.471v.006a.05.05,0,0,0,.009-.007h0c0-.169,0-.338.007-.506.008-.12-.04-.144-.15-.143-.658,0-1.317,0-1.975,0-.049,0-.106-.021-.146.028a.244.244,0,0,1,.137-.016" transform="translate(-291.71 -224.896)" fill="#4e1993"/>
        <path id="Trazado_208816" data-name="Trazado 208816" d="M343.522,263.348c.132,0,.174.038.166.168-.01.156,0,.314,0,.471a.044.044,0,0,0,.011-.01v-.006c0-.157-.008-.315,0-.471.009-.13-.031-.168-.164-.167-.652.007-1.3,0-1.957,0a.244.244,0,0,0-.137.016c.692,0,1.384,0,2.077,0" transform="translate(-291.71 -224.975)" fill="#4e1993"/>
        <path id="Trazado_208817" data-name="Trazado 208817" d="M339.836,119.825c-.266,0-.533-.015-.8.01h2.555c-.585-.023-1.171-.006-1.756-.009" transform="translate(-289.652 -102.367)" fill="#4e1993"/>
        <path id="Trazado_208818" data-name="Trazado 208818" d="M341.459,119.725h-2.289a.193.193,0,0,0-.134.028c.266-.024.533-.011.8-.009.586,0,1.171-.014,1.757.009a.18.18,0,0,0-.133-.027" transform="translate(-289.652 -102.285)" fill="#4e1993"/>
        <path id="Trazado_208819" data-name="Trazado 208819" d="M356.879,105.551l.015.008c-.006-.014-.014-.016-.022-.011l.006,0Z" transform="translate(-304.889 -90.172)" fill="#4e1993"/>
        <path id="Trazado_208820" data-name="Trazado 208820" d="M356.869,105.586c.019.593,0,1.186.008,1.779a2.182,2.182,0,0,0,.006.279q0-1.026.008-2.051l-.016-.008Z" transform="translate(-304.887 -90.205)" fill="#4e1993"/>
        <path id="Trazado_208821" data-name="Trazado 208821" d="M356.806,107.374c-.006-.593.01-1.186-.008-1.779l-.009,0q0,.952,0,1.9c0,.051-.014.106.024.151a2.171,2.171,0,0,1-.006-.279" transform="translate(-304.815 -90.214)" fill="#4e1993"/>
        <path id="Trazado_208822" data-name="Trazado 208822" d="M334.659,378.909c-.294.008-.588-.007-.881.007.434,0,.868,0,1.3,0,.066,0,.138.029.2-.024a3.8,3.8,0,0,1-.618.017" transform="translate(-285.159 -323.702)" fill="#4e1993"/>
        <path id="Trazado_208823" data-name="Trazado 208823" d="M334.118,378.857a.789.789,0,0,0-.34.023c.294-.014.588,0,.881-.007a3.8,3.8,0,0,0,.618-.017c-.387,0-.773,0-1.16,0" transform="translate(-285.159 -323.666)" fill="#4e1993"/>
        <path id="Trazado_208824" data-name="Trazado 208824" d="M367.111,198.69c-.06,0-.119,0-.179,0a.021.021,0,0,1,0,.009c.2,0,.405,0,.608,0a1.86,1.86,0,0,0,.526-.024c-.318.04-.638.007-.957.018" transform="translate(-313.484 -169.733)" fill="#4e1993"/>
        <path id="Trazado_208825" data-name="Trazado 208825" d="M366.824,198.677a.015.015,0,0,1,.016.013c.06,0,.119,0,.179,0,.319-.01.638.023.957-.018Z" transform="translate(-313.392 -169.733)" fill="#4e1993"/>
        <path id="Trazado_208826" data-name="Trazado 208826" d="M366.894,198.8l.007.009a.019.019,0,0,0,0-.009h-.006" transform="translate(-313.452 -169.838)" fill="#4e1993"/>
        <path id="Trazado_208827" data-name="Trazado 208827" d="M366.84,198.722a.015.015,0,0,0-.016-.013.093.093,0,0,0,.01.013h.006" transform="translate(-313.392 -169.765)" fill="#4e1993"/>
        <path id="Trazado_208828" data-name="Trazado 208828" d="M356.925,268.541c0,.007,0,.014,0,.021s.006,0,.008.006q0-.431,0-.862c0,.01,0,.014-.009.016v.819" transform="translate(-304.935 -228.711)" fill="#4e1993"/>
        <path id="Trazado_208829" data-name="Trazado 208829" d="M356.858,268.634v-.819a.018.018,0,0,1-.012,0v.83a.043.043,0,0,1,.012.009c0-.007,0-.014,0-.021" transform="translate(-304.867 -228.805)" fill="#4e1993"/>
        <path id="Trazado_208830" data-name="Trazado 208830" d="M356.925,267.723c.006,0,.009-.006.009-.016s-.006,0-.009.007Z" transform="translate(-304.935 -228.712)" fill="#4e1993"/>
        <path id="Trazado_208831" data-name="Trazado 208831" d="M356.858,267.755a.043.043,0,0,1-.012.01.019.019,0,0,0,.012,0Z" transform="translate(-304.867 -228.753)" fill="#4e1993"/>
        <path id="Trazado_208832" data-name="Trazado 208832" d="M356.916,273.613a5.168,5.168,0,0,0,.01.518q0-.258,0-.517a.018.018,0,0,1-.008,0" transform="translate(-304.926 -233.758)" fill="#4e1993"/>
        <path id="Trazado_208833" data-name="Trazado 208833" d="M356.813,273.533a.014.014,0,0,1-.012-.014,1.977,1.977,0,0,0,.022.532,5.167,5.167,0,0,1-.01-.518" transform="translate(-304.822 -233.678)" fill="#4e1993"/>
        <path id="Trazado_208834" data-name="Trazado 208834" d="M356.926,273.587a.018.018,0,0,0,.008,0s-.005,0-.008-.006v0" transform="translate(-304.936 -233.732)" fill="#4e1993"/>
        <path id="Trazado_208835" data-name="Trazado 208835" d="M356.858,273.528a.039.039,0,0,0-.012-.009.014.014,0,0,0,.012.014v0" transform="translate(-304.867 -233.678)" fill="#4e1993"/>
        <path id="Trazado_208836" data-name="Trazado 208836" d="M180.247,16.725q0-2.871,0-5.742s0-.008,0-.012l-.009-.007q0,2.926,0,5.853a.474.474,0,0,0,.021.1.655.655,0,0,1-.009-.191" transform="translate(-153.982 -9.367)" fill="#4e1993"/>
        <path id="Trazado_208837" data-name="Trazado 208837" d="M180.3,11.015s0,.008,0,.012q0,2.871,0,5.742a.655.655,0,0,0,.01.191q0-2.967,0-5.934a.091.091,0,0,1-.012-.01" transform="translate(-154.038 -9.411)" fill="#4e1993"/>
        <path id="Trazado_208838" data-name="Trazado 208838" d="M194.7,6.4q0,2.493,0,4.986a.039.039,0,0,0,.013-.006h0q0-1.943,0-3.886c0-.372,0-.743-.007-1.115,0,0,0,0-.007,0V6.4" transform="translate(-166.343 -5.452)" fill="#4e1993"/>
        <path id="Trazado_208839" data-name="Trazado 208839" d="M194.607,11.41V6.424c0-.007,0-.011,0-.017s-.013,0-.016.009c0,.2,0,.406,0,.61q0,2.195,0,4.39s.007,0,.01,0Z" transform="translate(-166.246 -5.474)" fill="#4e1993"/>
        <path id="Trazado_208840" data-name="Trazado 208840" d="M115.75,26.034V23.672q-.017,1.181,0,2.362" transform="translate(-98.882 -20.224)" fill="#4e1993"/>
        <path id="Trazado_208841" data-name="Trazado 208841" d="M115.633,23.789q0,1.065,0,2.129c0,.04-.009.082.023.116q-.016-1.181,0-2.362a.164.164,0,0,0-.023.117" transform="translate(-98.789 -20.224)" fill="#4e1993"/>
        <path id="Trazado_208842" data-name="Trazado 208842" d="M259.18,22.3c0-.062-.02-.127.02-.185-.049.014-.032.055-.032.086q0,1.125,0,2.251c.016-.717,0-1.434.008-2.151" transform="translate(-221.414 -18.894)" fill="#4e1993"/>
        <path id="Trazado_208843" data-name="Trazado 208843" d="M259.238,24.286q0-1.086.006-2.171c-.04.058-.019.124-.02.185-.006.717.008,1.434-.008,2.151.051-.049.022-.11.022-.165" transform="translate(-221.458 -18.894)" fill="#4e1993"/>
        <path id="Trazado_208844" data-name="Trazado 208844" d="M262.945,22.135h-1.4c.465.012.931.01,1.4,0" transform="translate(-223.451 -18.91)" fill="#4e1993"/>
        <path id="Trazado_208845" data-name="Trazado 208845" d="M262.133,22.157a4.158,4.158,0,0,0,.811-.022c-.465.01-.931.011-1.4,0a2.031,2.031,0,0,0,.585.023" transform="translate(-223.45 -18.91)" fill="#4e1993"/>
        <path id="Trazado_208846" data-name="Trazado 208846" d="M105.723,22.135h-1.116c.372.012.744.011,1.116,0" transform="translate(-89.37 -18.91)" fill="#4e1993"/>
        <path id="Trazado_208847" data-name="Trazado 208847" d="M105.723,22.135c-.372.01-.744.011-1.116,0a4.993,4.993,0,0,0,1.116,0" transform="translate(-89.37 -18.91)" fill="#4e1993"/>
        <path id="Trazado_208848" data-name="Trazado 208848" d="M180.253,4.379c-.052.04-.024.1-.024.144,0,.272,0,.543,0,.815a.019.019,0,0,1,.009,0c.009-.32-.022-.641.018-.961" transform="translate(-153.97 -3.741)" fill="#4e1993"/>
        <path id="Trazado_208849" data-name="Trazado 208849" d="M180.3,5.341a.016.016,0,0,1,.012.016l.005-.977c-.039.32-.008.641-.018.961" transform="translate(-154.032 -3.742)" fill="#4e1993"/>
        <path id="Trazado_208850" data-name="Trazado 208850" d="M180.261,10.966a.019.019,0,0,0-.009,0l.009.007v-.006" transform="translate(-153.996 -9.367)" fill="#4e1993"/>
        <path id="Trazado_208851" data-name="Trazado 208851" d="M180.314,10.982a.092.092,0,0,0,.012.01.016.016,0,0,0-.012-.016v.006" transform="translate(-154.049 -9.377)" fill="#4e1993"/>
        <path id="Trazado_208852" data-name="Trazado 208852" d="M193,4.457s0,0,.007,0c0-.326,0-.326-.292-.329l-.005.009c.285,0,.29,0,.29.324" transform="translate(-164.64 -3.523)" fill="#4e1993"/>
        <path id="Trazado_208853" data-name="Trazado 208853" d="M192.657,4.185a.13.13,0,0,0-.009.016c.278.008.278.008.281.283,0,.011,0,.023,0,.034,0-.006.01-.007.016-.009,0-.321-.006-.324-.29-.324" transform="translate(-164.587 -3.575)" fill="#4e1993"/>
        <path id="Trazado_208854" data-name="Trazado 208854" d="M182.116,4.076a.979.979,0,0,0-.491.005,2.194,2.194,0,0,1,.491-.005" transform="translate(-155.169 -3.457)" fill="#4e1993"/>
        <path id="Trazado_208855" data-name="Trazado 208855" d="M181.625,4.185l.491-.005a2.194,2.194,0,0,0-.491.005" transform="translate(-155.169 -3.561)" fill="#4e1993"/>
        <path id="Trazado_208856" data-name="Trazado 208856" d="M101.229,45.829a.783.783,0,0,0,.007.452,2.191,2.191,0,0,1-.007-.452" transform="translate(-86.458 -39.153)" fill="#4e1993"/>
        <path id="Trazado_208857" data-name="Trazado 208857" d="M101.361,46.281l-.007-.452a2.191,2.191,0,0,0,.007.452" transform="translate(-86.584 -39.153)" fill="#4e1993"/>
        <path id="Trazado_208858" data-name="Trazado 208858" d="M190.2,4.081c0-.006.006-.009.018-.009a1.369,1.369,0,0,0-.432.018,3.816,3.816,0,0,1,.414-.009" transform="translate(-162.138 -3.471)" fill="#4e1993"/>
        <path id="Trazado_208859" data-name="Trazado 208859" d="M190.2,4.176a3.817,3.817,0,0,0-.414.009l.417.007a.021.021,0,0,1,0-.016" transform="translate(-162.138 -3.567)" fill="#4e1993"/>
        <path id="Trazado_208860" data-name="Trazado 208860" d="M192.626,4.132h.012l.005-.009c-.012,0-.016,0-.018.009" transform="translate(-164.568 -3.522)" fill="#4e1993"/>
        <path id="Trazado_208861" data-name="Trazado 208861" d="M192.636,4.185h-.011a.02.02,0,0,0,0,.015.132.132,0,0,1,.009-.016h0" transform="translate(-164.566 -3.575)" fill="#4e1993"/>
        <path id="Trazado_208862" data-name="Trazado 208862" d="M.067,184.309a.4.4,0,0,1,.172-.013H8.008a.35.35,0,0,1,.172.015c-.05-.045-.111-.027-.167-.027q-3.906,0-7.811,0c-.051,0-.118-.035-.155.036H.062a.113.113,0,0,1,0-.013" transform="translate(-0.039 -157.434)" fill="#4e1993"/>
        <path id="Trazado_208863" data-name="Trazado 208863" d="M8.1,184.389H.331a.4.4,0,0,0-.172.013.091.091,0,0,0,0,.013H.163c.069,0,.139-.01.208-.01h7.9a.349.349,0,0,0-.172-.015" transform="translate(-0.132 -157.528)" fill="#4e1993"/>
        <path id="Trazado_208864" data-name="Trazado 208864" d="M7.342,198.64H.207a.4.4,0,0,1-.138-.01.1.1,0,0,1-.007-.016H.044c.044.074.116.036.172.036q3.547,0,7.095,0c.057,0,.117.018.169-.022a.359.359,0,0,1-.138.011" transform="translate(-0.038 -169.684)" fill="#4e1993"/>
        <path id="Trazado_208865" data-name="Trazado 208865" d="M.38,198.617c-.069,0-.139-.007-.208-.01H.164a.109.109,0,0,0,.007.016.4.4,0,0,0,.138.01H7.445a.36.36,0,0,0,.138-.011c-.07,0-.139-.005-.209-.005H.38" transform="translate(-0.14 -169.677)" fill="#4e1993"/>
        <path id="Trazado_208866" data-name="Trazado 208866" d="M19.294,119.828a2.288,2.288,0,0,0-.382.009H21.4c-.7-.021-1.4,0-2.1-.008" transform="translate(-16.157 -102.371)" fill="#4e1993"/>
        <path id="Trazado_208867" data-name="Trazado 208867" d="M21.266,119.723H19.044c-.045,0-.094-.01-.132.026a2.287,2.287,0,0,1,.382-.008c.7,0,1.4-.013,2.1.008-.038-.036-.087-.026-.132-.026" transform="translate(-16.157 -102.282)" fill="#4e1993"/>
        <path id="Trazado_208868" data-name="Trazado 208868" d="M.058,186.618a.333.333,0,0,1-.006-.112q0-.908,0-1.816a.35.35,0,0,1,.006-.1h0l-.012-.009q0,1.022,0,2.044l.012-.008Z" transform="translate(-0.038 -157.695)" fill="#4e1993"/>
        <path id="Trazado_208869" data-name="Trazado 208869" d="M.087,184.7q0,.908,0,1.816a.329.329,0,0,0,.006.112l.011.006v-2.041l-.012.007a.35.35,0,0,0-.006.1" transform="translate(-0.073 -157.706)" fill="#4e1993"/>
        <path id="Trazado_208870" data-name="Trazado 208870" d="M.059,184.589l0-.007H.046l.012.009h0" transform="translate(-0.039 -157.694)" fill="#4e1993"/>
        <path id="Trazado_208871" data-name="Trazado 208871" d="M.136,184.6l.012-.007H.139l0,.007" transform="translate(-0.116 -157.702)" fill="#4e1993"/>
        <path id="Trazado_208872" data-name="Trazado 208872" d="M.062,198.564l0-.008h0l-.012.008H.062Z" transform="translate(-0.038 -169.634)" fill="#4e1993"/>
        <path id="Trazado_208873" data-name="Trazado 208873" d="M.144,198.57H.152l-.011-.006,0,.008" transform="translate(-0.12 -169.639)" fill="#4e1993"/>
        <path id="Trazado_208874" data-name="Trazado 208874" d="M27.571,105.633l-.007.006h.017l-.01-.006" transform="translate(-23.549 -90.246)" fill="#4e1993"/>
        <path id="Trazado_208875" data-name="Trazado 208875" d="M26.148,105.607l-.007,0-.243.007.243,0,.007-.006" transform="translate(-22.126 -90.221)" fill="#4e1993"/>
        <path id="Trazado_208876" data-name="Trazado 208876" d="M27.624,105.614c.285,0,.571.006.857-.006l-.861,0,0,0,.01.006" transform="translate(-23.592 -90.221)" fill="#4e1993"/>
        <path id="Trazado_208877" data-name="Trazado 208877" d="M27.579,105.6h-.012l.007,0,0,0" transform="translate(-23.552 -90.221)" fill="#4e1993"/>
        <path id="Trazado_208878" data-name="Trazado 208878" d="M27.177,105.675a.22.22,0,0,1-.032.018l-.034.006c.046,0,.093,0,.14,0a.155.155,0,0,1-.057-.025h-.017" transform="translate(-23.162 -90.282)" fill="#4e1993"/>
        <path id="Trazado_208879" data-name="Trazado 208879" d="M26.109,105.672a.206.206,0,0,0,.032-.018l-.243,0a.752.752,0,0,0,.177.028.308.308,0,0,0,.034-.006" transform="translate(-22.126 -90.262)" fill="#4e1993"/>
        <path id="Trazado_208880" data-name="Trazado 208880" d="M27.681,105.642a.158.158,0,0,0,.057.025c.072,0,.144-.007.216-.007a2.045,2.045,0,0,0,.584-.024c-.285.012-.571.01-.857.006" transform="translate(-23.649 -90.249)" fill="#4e1993"/>
        <path id="Trazado_208881" data-name="Trazado 208881" d="M27.087,263.265c.314.009.63-.019.944.015h0c-.022-.037-.059-.03-.093-.03l-.85,0,0,.011Z" transform="translate(-23.141 -224.905)" fill="#4e1993"/>
        <path id="Trazado_208882" data-name="Trazado 208882" d="M27.073,263.342h0l0,.008.947.007c-.314-.034-.629-.006-.944-.015" transform="translate(-23.127 -224.981)" fill="#4e1993"/>
        <path id="Trazado_208883" data-name="Trazado 208883" d="M21.075,263.293h.867l0-.011-.88,0,0,.008h.008" transform="translate(-17.997 -224.932)" fill="#4e1993"/>
        <path id="Trazado_208884" data-name="Trazado 208884" d="M21.087,263.355h-.008l0,.011.87,0,0-.008h-.867" transform="translate(-18.009 -224.994)" fill="#4e1993"/>
        <path id="Trazado_208885" data-name="Trazado 208885" d="M18.025,114.462l-.009,0q0,.278,0,.555c.025-.186.005-.373.011-.56" transform="translate(-15.39 -97.789)" fill="#4e1993"/>
        <path id="Trazado_208886" data-name="Trazado 208886" d="M18.036,114.423l-.005,0-.005,0a5.572,5.572,0,0,1-.011.56,2.413,2.413,0,0,0,.022-.566" transform="translate(-15.39 -97.756)" fill="#4e1993"/>
        <path id="Trazado_208887" data-name="Trazado 208887" d="M18.041,272.136l-.007,0q0,.26,0,.52c.019-.174,0-.349.008-.524" transform="translate(-15.406 -232.496)" fill="#4e1993"/>
        <path id="Trazado_208888" data-name="Trazado 208888" d="M18.053,272.089l-.012.007c0,.175.01.35-.008.524a2.445,2.445,0,0,0,.02-.531" transform="translate(-15.406 -232.456)" fill="#4e1993"/>
        <path id="Trazado_208889" data-name="Trazado 208889" d="M18.029,265.123q0,.261,0,.521l.009.005c0-.175.01-.351-.009-.526" transform="translate(-15.402 -226.505)" fill="#4e1993"/>
        <path id="Trazado_208890" data-name="Trazado 208890" d="M18.041,265.65l.011.006a2.33,2.33,0,0,0-.019-.532c.019.175,0,.351.009.526" transform="translate(-15.405 -226.506)" fill="#4e1993"/>
        <path id="Trazado_208891" data-name="Trazado 208891" d="M18.029,107.462q0,.261,0,.521l.009,0c0-.175.01-.351-.009-.526" transform="translate(-15.402 -91.809)" fill="#4e1993"/>
        <path id="Trazado_208892" data-name="Trazado 208892" d="M18.041,107.988l.011.006a2.321,2.321,0,0,0-.019-.532c.019.175,0,.351.009.526" transform="translate(-15.405 -91.809)" fill="#4e1993"/>
        <path id="Trazado_208893" data-name="Trazado 208893" d="M18.037,268.716s0-.006,0-.009l-.009,0q0,.252,0,.5l.007,0s0-.006,0-.009v-.477" transform="translate(-15.402 -229.562)" fill="#4e1993"/>
        <path id="Trazado_208894" data-name="Trazado 208894" d="M18.1,268.743l-.011-.006s0,.006,0,.009q0,.238,0,.477s0,.006,0,.009l.012-.007v-.483" transform="translate(-15.456 -229.592)" fill="#4e1993"/>
        <path id="Trazado_208895" data-name="Trazado 208895" d="M18.037,111.056s0-.007,0-.01l-.009,0v.5a.045.045,0,0,1,.009,0v-.484" transform="translate(-15.402 -94.867)" fill="#4e1993"/>
        <path id="Trazado_208896" data-name="Trazado 208896" d="M18.1,111.562h0v-.482l-.011-.006s0,.007,0,.01q0,.239,0,.478s0,0,0,.006l.005,0,.005,0" transform="translate(-15.456 -94.895)" fill="#4e1993"/>
        <path id="Trazado_208897" data-name="Trazado 208897" d="M18.129,114.426l.005,0-.005,0" transform="translate(-15.488 -97.756)" fill="#4e1993"/>
        <path id="Trazado_208898" data-name="Trazado 208898" d="M18.459,263.235l0-.008c-.149.005-.3-.047-.445.029a1.867,1.867,0,0,1,.447-.022" transform="translate(-15.388 -224.875)" fill="#4e1993"/>
        <path id="Trazado_208899" data-name="Trazado 208899" d="M18.459,263.339a1.872,1.872,0,0,0-.447.022l.45-.01,0-.011" transform="translate(-15.388 -224.978)" fill="#4e1993"/>
        <path id="Trazado_208900" data-name="Trazado 208900" d="M.016,36.051a6.244,6.244,0,0,1,.014-.814c-.046.05-.022.11-.022.165,0,.369,0,.739,0,1.108,0,.077-.029.16.023.232a4.153,4.153,0,0,1-.015-.691" transform="translate(0 -30.104)" fill="#4e1993"/>
        <path id="Trazado_208901" data-name="Trazado 208901" d="M.068,36.051a4.153,4.153,0,0,0,.015.691q0-.752,0-1.505a6.244,6.244,0,0,0-.014.814" transform="translate(-0.052 -30.104)" fill="#4e1993"/>
        <path id="Trazado_208902" data-name="Trazado 208902" d="M34.263,4.079a1.68,1.68,0,0,0-.7,0,3.142,3.142,0,0,1,.7,0" transform="translate(-28.674 -3.454)" fill="#4e1993"/>
        <path id="Trazado_208903" data-name="Trazado 208903" d="M33.563,4.181h.7a3.142,3.142,0,0,0-.7,0" transform="translate(-28.674 -3.556)" fill="#4e1993"/>
        <path id="Trazado_208904" data-name="Trazado 208904" d="M71.733,38.69a1.085,1.085,0,0,0,0-.562,2.1,2.1,0,0,1,0,.562" transform="translate(-61.284 -32.574)" fill="#4e1993"/>
        <path id="Trazado_208905" data-name="Trazado 208905" d="M71.733,38.128v.562a2.1,2.1,0,0,0,0-.562" transform="translate(-61.284 -32.574)" fill="#4e1993"/>
        <path id="Trazado_208906" data-name="Trazado 208906" d="M374.851,39.1a1.021,1.021,0,0,0,0-.491,2.393,2.393,0,0,1,0,.491" transform="translate(-320.249 -32.988)" fill="#4e1993"/>
        <path id="Trazado_208907" data-name="Trazado 208907" d="M374.849,38.612q0,.245,0,.491a2.39,2.39,0,0,0,0-.491" transform="translate(-320.248 -32.988)" fill="#4e1993"/>
        <path id="Trazado_208908" data-name="Trazado 208908" d="M337.995,4.07a.536.536,0,0,0-.385,0,1.113,1.113,0,0,1,.385,0" transform="translate(-288.433 -3.447)" fill="#4e1993"/>
        <path id="Trazado_208909" data-name="Trazado 208909" d="M337.609,4.183l.385,0a1.113,1.113,0,0,0-.385,0" transform="translate(-288.432 -3.559)" fill="#4e1993"/>
        <path id="Trazado_208910" data-name="Trazado 208910" d="M140.808,131.815h1.7c.068,0,.142.018.134-.1-.033-.471,0-.942,0-1.413q0-3.783,0-7.566,0-2.481.008-4.962c0-.119-.011-.163-.155-.162-.721.006-1.444.028-2.164-.027a1.016,1.016,0,0,1-1.009-.966,5.5,5.5,0,0,1-.035-.662,5.848,5.848,0,0,0-1.864-4.345,5.859,5.859,0,0,0-9.825,4.8,1.524,1.524,0,0,1-.06.57.956.956,0,0,1-.979.64q-1.083,0-2.166-.013c-.132,0-.17.027-.17.166q.01,3.381.009,6.762,0,3.556-.014,7.112c0,.138.036.172.171.17.623-.009,1.246-.009,1.869-.009h11.183l3.372.006m-11.129-15.8a3.718,3.718,0,0,1,.592-2.168,3.757,3.757,0,0,1,6.872,1.491,4.77,4.77,0,0,1,.016,1.357.976.976,0,0,1-.938.891,10.037,10.037,0,0,1-1.046.027c-.635,0-1.269,0-2.216,0-.566-.005-1.445-.008-2.323.008a.889.889,0,0,1-.969-1.012c.008-.2.016-.4.013-.593m3.684,13.7c-1.991,0-3.983-.006-5.974.013a.946.946,0,0,1-1.076-1.085c0-.175,0-.349,0-.524q0-2.611,0-5.223c0-.728-.012-1.456,0-2.184a.912.912,0,0,1,1.037-1.011c.378,0,.757.01,1.135.01q4.621,0,9.242,0c.576,0,1.153-.009,1.729-.01a1.858,1.858,0,0,1,.347.027.89.89,0,0,1,.738.942c.005.448,0,.9,0,1.345q0,2.629,0,5.259c0,.46,0,.92.005,1.38a.946.946,0,0,1-1.068,1.077c-.646,0-1.292-.014-1.938-.015q-2.088,0-4.175,0" transform="translate(-106.119 -93.991)" fill="#4e1993"/>
        <path id="Trazado_208911" data-name="Trazado 208911" d="M182.4,204.434c0,.32,0,.64,0,.96,0,.1-.022.135-.125.132-.617-.018-1.234-.022-1.85,0-.1,0-.125-.037-.125-.132q.006-.986,0-1.971c0-.1.03-.108.122-.107.612.008,1.223.011,1.835,0,.126,0,.144.031.142.14-.005.326,0,.652,0,.978" transform="translate(-154.036 -173.7)" fill="#4e1993"/>
        <path id="Trazado_208912" data-name="Trazado 208912" d="M182.258,203.316c-.611.01-1.223.007-1.835,0-.092,0-.122.01-.122.107q0,.986,0,1.971c0,.094.021.135.125.132.617-.022,1.234-.018,1.85,0,.1,0,.127-.036.125-.131,0-.32,0-.64,0-.96s0-.652,0-.978c0-.109-.017-.142-.142-.14" transform="translate(-154.037 -173.7)" fill="#4e1993"/>
      </g>
    </g>
  </g>
</svg>
