<svg xmlns="http://www.w3.org/2000/svg" xmlns:xlink="http://www.w3.org/1999/xlink" width="93.088" height="93.089" viewBox="0 0 93.088 93.089">
  <defs>
    <clipPath id="clip-path">
      <path id="Trazado_189538" data-name="Trazado 189538" d="M1.623,46.545A44.922,44.922,0,1,1,46.545,91.467,44.973,44.973,0,0,1,1.623,46.545M46.545,0A46.545,46.545,0,1,0,93.088,46.545,46.6,46.6,0,0,0,46.545,0Z" fill="#4d1992"/>
    </clipPath>
    <clipPath id="clip-path-2">
      <rect id="Rect치ngulo_60627" data-name="Rect치ngulo 60627" width="54.025" height="47.069" fill="#4d1992" stroke="#4e1993" stroke-width="1"/>
    </clipPath>
  </defs>
  <g id="Grupo_209913" data-name="Grupo 209913" transform="translate(-1125.217 -3727.216)">
    <g id="Grupo_172088" data-name="Grupo 172088" transform="translate(1125.217 3727.216)">
      <g id="Grupo_172087" data-name="Grupo 172087" clip-path="url(#clip-path)">
        <rect id="Rect치ngulo_49153" data-name="Rect치ngulo 49153" width="115.499" height="115.5" transform="translate(-25.108 7.353) rotate(-16.323)" fill="#4d1992"/>
      </g>
    </g>
    <g id="Grupo_199782" data-name="Grupo 199782" transform="translate(1144.749 3750.299)">
      <g id="Grupo_199781" data-name="Grupo 199781" clip-path="url(#clip-path-2)">
        <path id="Trazado_208928" data-name="Trazado 208928" d="M51.046,0H2.969A2.663,2.663,0,0,0,0,2.963Q0,18.3,0,33.643a2.659,2.659,0,0,0,2.965,2.963h17.3c.068.138,0,.207-.043.284-.762,1.525-1.528,3.048-2.28,4.578a1.008,1.008,0,0,1-.6.553,2.564,2.564,0,0,0-1.591,3.006,2.616,2.616,0,0,0,2.693,2.036q5.483.008,10.966,0c2.053,0,4.105.005,6.158,0a2.618,2.618,0,0,0,2.726-2.2,2.59,2.59,0,0,0-1.731-2.886.649.649,0,0,1-.4-.325c-.817-1.656-1.649-3.3-2.524-5.05h.671q8.4,0,16.8,0a2.649,2.649,0,0,0,2.9-2.918q0-15.367,0-30.734A2.664,2.664,0,0,0,51.046,0M1.737,3.032C1.737,2,1.985,1.745,3,1.745H51.016c1.021,0,1.272.253,1.272,1.279q0,12.124.011,24.248c0,.471-.089.624-.6.623q-12.341-.028-24.682-.013t-24.682.012c-.5,0-.61-.128-.609-.614q.024-12.124.012-24.248M35.708,43.574a.894.894,0,0,1,.9.883.884.884,0,0,1-.93.857c-1.206.019-2.412.007-3.619.008H18.722a3.462,3.462,0,0,1-.538-.022.859.859,0,0,1,.026-1.71,3.913,3.913,0,0,1,.539-.021H35.276c.144,0,.289-.006.432.006M34.3,41.8H19.817c-.087-.171.05-.279.107-.4.733-1.478,1.483-2.949,2.206-4.432a.571.571,0,0,1,.606-.376c2.862.012,5.725.008,8.587.006.219,0,.4,0,.521.253.793,1.627,1.608,3.243,2.456,4.944m18-11.564c-.038,1.1-.012,2.2-.012,3.293s-.241,1.338-1.324,1.338H6.685c-1.278,0-2.556,0-3.834,0-.8,0-1.11-.317-1.112-1.114,0-1.188.019-2.376-.012-3.563-.012-.438.086-.575.551-.571,2.718.024,5.436.012,8.154.012H27.009q12.339,0,24.678-.012c.5,0,.63.128.613.619" transform="translate(0 0)" fill="#4d1992" stroke="#4e1993" stroke-width="1"/>
        <path id="Trazado_208929" data-name="Trazado 208929" d="M123.714,40.875a.849.849,0,0,1,.3.695q-.015,2.105,0,4.21c0,.784.294,1.064,1.083,1.066q2.51.005,5.021,0h4.859c.993,0,1.225-.237,1.227-1.249,0-1.313.01-2.627-.006-3.941a.993.993,0,0,1,.356-.832,9.229,9.229,0,0,0,3.133-7.289A9.523,9.523,0,0,0,128.91,24.29a9.085,9.085,0,0,0-7.924,6.627,9.143,9.143,0,0,0,2.727,9.959m1.139-12.922a7.9,7.9,0,0,1,8.8-1.169,7.8,7.8,0,0,1,4.253,7.58,7.573,7.573,0,0,1-2.884,5.465,1.439,1.439,0,0,0-.582,1.252c.024,1.206-.005,2.413.016,3.619.006.333-.081.417-.415.418-1.335,0-1.334.016-1.334-1.332q0-.513,0-1.026c0-.63.006-1.26,0-1.89-.008-.609-.322-.961-.846-.97-.543-.009-.884.358-.888.989-.007,1.278-.011,2.557,0,3.835,0,.3-.067.39-.38.394-1.362.017-1.362.029-1.362-1.35,0-.954.005-1.909,0-2.863,0-.639-.332-1.006-.873-1.005s-.858.36-.861,1.008c-.005,1.26-.012,2.521.005,3.781,0,.319-.059.429-.407.431-1.342.007-1.342.022-1.342-1.32,0-.9-.022-1.8.008-2.7a1.474,1.474,0,0,0-.612-1.293,7.784,7.784,0,0,1-.3-11.852" transform="translate(-103.091 -20.707)" fill="#4d1992" stroke="#4e1993" stroke-width="1"/>
        <path id="Trazado_208930" data-name="Trazado 208930" d="M156.291,217.362a3.322,3.322,0,0,0-.538-.023q-2.4,0-4.8,0c-1.691,0-3.383,0-5.074,0-.689,0-1.077.311-1.085.847s.393.893,1.056.894q5.047.008,10.095,0a1.406,1.406,0,0,0,.525-.09.8.8,0,0,0,.514-.907.776.776,0,0,0-.689-.721" transform="translate(-123.882 -185.954)" fill="#4d1992" stroke="#4e1993" stroke-width="1"/>
        <path id="Trazado_208931" data-name="Trazado 208931" d="M147.5,77.685a2.607,2.607,0,1,0-2.6-2.552,2.6,2.6,0,0,0,2.6,2.552m.02-3.475a.905.905,0,0,1,.86.86.868.868,0,0,1-.888.872.834.834,0,0,1-.845-.846.869.869,0,0,1,.873-.887" transform="translate(-123.981 -62.006)" fill="#4d1992" stroke="#4e1993" stroke-width="1"/>
        <path id="Trazado_208932" data-name="Trazado 208932" d="M195.681,77.69a2.607,2.607,0,1,0,.027-5.214,2.607,2.607,0,0,0-.027,5.214m.027-3.476a.865.865,0,0,1,.861.843.838.838,0,0,1-.857.889.868.868,0,0,1-.876-.829.9.9,0,0,1,.872-.9" transform="translate(-165.212 -62.01)" fill="#4d1992" stroke="#4e1993" stroke-width="1"/>
      </g>
    </g>
  </g>
</svg>
