<svg xmlns="http://www.w3.org/2000/svg" xmlns:xlink="http://www.w3.org/1999/xlink" width="93.088" height="93.089" viewBox="0 0 93.088 93.089">
  <defs>
    <clipPath id="clip-path">
      <path id="Trazado_189538" data-name="Trazado 189538" d="M1.623,46.545A44.922,44.922,0,1,1,46.545,91.467,44.973,44.973,0,0,1,1.623,46.545M46.545,0A46.545,46.545,0,1,0,93.088,46.545,46.6,46.6,0,0,0,46.545,0Z" fill="#4e1993"/>
    </clipPath>
    <clipPath id="clip-path-2">
      <rect id="Rect치ngulo_60628" data-name="Rect치ngulo 60628" width="54.025" height="42.176" fill="#4e1993"/>
    </clipPath>
  </defs>
  <g id="Grupo_209914" data-name="Grupo 209914" transform="translate(-1125.217 -3823.216)">
    <g id="Grupo_199147" data-name="Grupo 199147" transform="translate(1125.217 3823.216)">
      <g id="Grupo_172088" data-name="Grupo 172088">
        <g id="Grupo_172087" data-name="Grupo 172087" clip-path="url(#clip-path)">
          <rect id="Rect치ngulo_49153" data-name="Rect치ngulo 49153" width="115.499" height="115.5" transform="translate(-25.108 7.353) rotate(-16.323)" fill="#4e1993"/>
        </g>
      </g>
    </g>
    <g id="Grupo_199783" data-name="Grupo 199783" transform="translate(1144.749 3848.673)">
      <g id="Grupo_199783-2" data-name="Grupo 199783" transform="translate(0 0)" clip-path="url(#clip-path-2)">
        <path id="Trazado_208933" data-name="Trazado 208933" d="M53.384,10.865Q37.774-3.842,16.975,1.377A35.359,35.359,0,0,0,.682,10.824,1.989,1.989,0,0,0,0,12.147,1.819,1.819,0,0,0,1.05,13.89a1.9,1.9,0,0,0,2.2-.539,33.8,33.8,0,0,1,37.178-7,33.191,33.191,0,0,1,10.352,7.025,1.865,1.865,0,0,0,3.247-.737V11.8a4.929,4.929,0,0,0-.641-.931" transform="translate(0 0)" fill="#4e1993"/>
        <path id="Trazado_208934" data-name="Trazado 208934" d="M71.6,82.678A27.251,27.251,0,0,0,52.26,90.667a1.737,1.737,0,0,0-.544,1.675,1.79,1.79,0,0,0,3.045.9A26.571,26.571,0,0,1,57.27,91.07c7.688-5.469,15.849-6.354,24.469-2.451a21.366,21.366,0,0,1,6.194,4.4,1.836,1.836,0,0,0,1.607.616,1.721,1.721,0,0,0,1.471-1.2,1.819,1.819,0,0,0-.569-2A26.754,26.754,0,0,0,71.6,82.678" transform="translate(-44.386 -71.018)" fill="#4e1993"/>
        <path id="Trazado_208935" data-name="Trazado 208935" d="M116.56,165.675a16.215,16.215,0,0,0-5.434.893,16.673,16.673,0,0,0-6.5,4.068,1.7,1.7,0,0,0-.457,1.838,1.721,1.721,0,0,0,1.4,1.217,2.107,2.107,0,0,0,1.869-.754,12.936,12.936,0,0,1,11.3-3.5,12.268,12.268,0,0,1,6.818,3.505,1.872,1.872,0,0,0,1.5.625,1.7,1.7,0,0,0,1.561-1.151,1.773,1.773,0,0,0-.513-2.014,16.27,16.27,0,0,0-11.536-4.727" transform="translate(-89.392 -142.311)" fill="#4e1993"/>
        <path id="Trazado_208936" data-name="Trazado 208936" d="M163.336,233.364a4.634,4.634,0,1,0,4.62,4.687,4.64,4.64,0,0,0-4.62-4.687m-.044,5.684a1.078,1.078,0,0,1-1.021-1.06,1.051,1.051,0,1,1,1.021,1.06" transform="translate(-136.311 -200.455)" fill="#4e1993"/>
      </g>
    </g>
  </g>
</svg>
