<svg xmlns="http://www.w3.org/2000/svg" xmlns:xlink="http://www.w3.org/1999/xlink" width="820" height="483.896" viewBox="0 0 820 483.896">
  <defs>
    <clipPath id="clip-path">
      <rect id="Rectángulo_67332" data-name="Rectángulo 67332" width="55.785" height="45.772" fill="#fff"/>
    </clipPath>
    <clipPath id="clip-path-2">
      <rect id="Rectángulo_67333" data-name="Rectángulo 67333" width="51.461" height="51.451" fill="#fff"/>
    </clipPath>
    <clipPath id="clip-path-3">
      <rect id="Rectángulo_67334" data-name="Rectángulo 67334" width="51.29" height="33.449" fill="#fff"/>
    </clipPath>
  </defs>
  <g id="Grupo_211600" data-name="Grupo 211600" transform="translate(-389.801 -500.59)">
    <g id="Grupo_211599" data-name="Grupo 211599" transform="translate(0 -627.515)">
      <rect id="Rectángulo_4911" data-name="Rectángulo 4911" width="259.391" height="48.029" rx="21" transform="translate(425.41 1339)" fill="#fde8f7"/>
      <rect id="Rectángulo_67329" data-name="Rectángulo 67329" width="259.391" height="48.029" rx="21" transform="translate(425.41 1442)" fill="#fde8f7"/>
      <rect id="Rectángulo_67330" data-name="Rectángulo 67330" width="259.391" height="48.029" rx="21" transform="translate(425.41 1545)" fill="#fde8f7"/>
      <rect id="Rectángulo_67304" data-name="Rectángulo 67304" width="294.601" height="68.338" transform="translate(389.801 1202)" fill="#5918af"/>
      <rect id="Rectángulo_67331" data-name="Rectángulo 67331" width="294.601" height="388.896" rx="24" transform="translate(915.199 1222.104)" fill="#efedf3"/>
      <text id="Ejes_fundamentales" data-name="Ejes fundamentales" transform="translate(447.564 1222.104)" fill="#fff" font-size="20" font-family="Roboto-Black, Roboto" font-weight="800"><tspan x="0" y="21">Ejes fundamentales</tspan></text>
      <text id="Personas" transform="translate(499.353 1354)" fill="#12263f" font-size="16" font-family="Roboto-Regular, Roboto"><tspan x="0" y="17">Personas</tspan></text>
      <text id="Tecnología" transform="translate(499.353 1457)" fill="#12263f" font-size="16" font-family="Roboto-Regular, Roboto"><tspan x="0" y="17">Tecnología</tspan></text>
      <text id="Procesos" transform="translate(499.353 1560)" fill="#12263f" font-size="16" font-family="Roboto-Regular, Roboto"><tspan x="0" y="17">Procesos</tspan></text>
      <g id="Elipse_4902" data-name="Elipse 4902" transform="translate(391.21 1321)" fill="#f24dc3" stroke="#f24dc3" stroke-width="2">
        <circle cx="42" cy="42" r="42" stroke="none"/>
        <circle cx="42" cy="42" r="41" fill="none"/>
      </g>
      <g id="Elipse_4903" data-name="Elipse 4903" transform="translate(391.21 1424)" fill="#f24dc3" stroke="#f24dc3" stroke-width="2">
        <circle cx="42" cy="42" r="42" stroke="none"/>
        <circle cx="42" cy="42" r="41" fill="none"/>
      </g>
      <g id="Elipse_4904" data-name="Elipse 4904" transform="translate(391.21 1527)" fill="#f24dc3" stroke="#f24dc3" stroke-width="2">
        <circle cx="42" cy="42" r="42" stroke="none"/>
        <circle cx="42" cy="42" r="41" fill="none"/>
      </g>
      <path id="Trazado_223941" data-name="Trazado 223941" d="M3336.79-10521.418h20v409h-20" transform="translate(-2568.989 11723.418)" fill="none" stroke="#e05cbe" stroke-width="2"/>
      <path id="Trazado_223942" data-name="Trazado 223942" d="M3356.789-10246.318h85" transform="translate(-2568.989 11653.018)" fill="none" stroke="#e05cbe" stroke-width="2"/>
      <text id="Los_códigos_de_ética_garantizan_el_cumplimiento_de_las_normas_que_regulan_el_uso_de_la_tecnología_en_otras_palabras_es_un_grupo_de_profesionales_y_empresas_que_regulan_la_conducta_y_comportamiento_de_los_usuarios_en_los_distintos_escenarios_tecnológicos." data-name="Los códigos de ética garantizan el cumplimiento de las normas que regulan el uso de la tecnología; en otras palabras, es un grupo de profesionales y empresas que regulan la conducta y comportamiento de los usuarios en los distintos escenarios tecnológicos." transform="translate(960.063 1309.521)" fill="#12263f" font-size="16" font-family="Roboto-Regular, Roboto"><tspan x="0" y="17">Los códigos de ética </tspan><tspan x="0" y="41">garantizan el cumplimiento </tspan><tspan x="0" y="65">de las normas que regulan el </tspan><tspan x="0" y="89">uso de la tecnología; en </tspan><tspan x="0" y="113">otras palabras, es un grupo </tspan><tspan x="0" y="137">de profesionales y empresas </tspan><tspan x="0" y="161">que regulan la conducta y </tspan><tspan x="0" y="185">comportamiento de los </tspan><tspan x="0" y="209">usuarios en los distintos </tspan><tspan x="0" y="233">escenarios tecnológicos.</tspan></text>
      <g id="Grupo_211594" data-name="Grupo 211594" transform="translate(405.21 1443)">
        <g id="Grupo_211593" data-name="Grupo 211593" clip-path="url(#clip-path)">
          <path id="Trazado_223944" data-name="Trazado 223944" d="M56.728,41.942c-1.448-2.393-2.881-4.794-4.322-7.191a2.522,2.522,0,0,1-.287-1.364q0-8.39,0-16.78c0-3.8.006-7.591,0-11.387A3.922,3.922,0,0,0,49.642,1.4a4.851,4.851,0,0,0-1.87-.294q-16.262,0-32.525,0c-1.544,0-3.088.029-4.631-.007A4.061,4.061,0,0,0,6.459,5.259c.027,9.262,0,18.523.023,27.785a4.171,4.171,0,0,1-.644,2.308C4.566,37.4,3.343,39.488,2.1,41.559a2.818,2.818,0,0,0,.3,3.451,4.068,4.068,0,0,0,3.286,1.532q23.617,0,47.235,0A3.948,3.948,0,0,0,56.765,44c.1-.214.1-.519.426-.566v-1.09c-.273,0-.356-.229-.463-.405M7.938,5.249a2.462,2.462,0,0,1,2.676-2.675q18.684,0,37.369,0a2.464,2.464,0,0,1,2.67,2.682q0,13.918.013,27.836c0,.465-.125.55-.565.549q-10.4-.023-20.809-.011t-20.809.011c-.452,0-.558-.1-.557-.556q.023-13.918.012-27.836M3.958,41.313c1.123-1.882,2.261-3.756,3.372-5.646a.719.719,0,0,1,.723-.411q8.879.019,17.759.009,12.339,0,24.677-.01a.8.8,0,0,1,.8.463c1.182,2.011,2.391,4.007,3.632,6.077H3.741c-.019-.208.129-.335.217-.482m14.379,3.759q-6.342,0-12.684,0A2.361,2.361,0,0,1,3.23,43.437h9.732c2.014,0,4.029.015,6.042-.012.422-.006.5.116.494.509-.024,1.136-.006,1.137-1.161,1.137m17.987,0c-4.885,0-9.77-.007-14.654.011-.45,0-.575-.1-.559-.556.037-1.089.011-1.09,1.1-1.09h7.082c2.56,0,5.121.01,7.681-.01.4,0,.514.089.5.5-.027,1.144-.006,1.145-1.156,1.145m16.669.008c-4.482-.018-8.964-.008-13.446-.008a.73.73,0,0,0-.109,0c-.251.037-.332-.051-.343-.321-.051-1.315-.061-1.315,1.254-1.315H55.356a2.453,2.453,0,0,1-2.364,1.643" transform="translate(-1.407 -0.938)" fill="#fff"/>
          <path id="Trazado_223945" data-name="Trazado 223945" d="M50.875,32.784q.01-14.163.005-28.326A4.107,4.107,0,0,0,46.454,0H9.3A4.1,4.1,0,0,0,4.9,4.422q0,14.136.005,28.272a1.947,1.947,0,0,1-.287,1.07C3.156,36.163,1.726,38.58.269,40.98a1.768,1.768,0,0,0-.235,1.3A4.1,4.1,0,0,0,4.3,45.767q22.607,0,45.213,0c.763,0,1.526.011,2.288-.005a4.09,4.09,0,0,0,3.777-2.792c.055-.16.024-.367.21-.472-.328.047-.329.351-.426.566A3.948,3.948,0,0,1,51.516,45.6q-23.617.007-47.235,0A4.069,4.069,0,0,1,.995,44.071a2.818,2.818,0,0,1-.3-3.451c1.243-2.071,2.466-4.154,3.738-6.207a4.171,4.171,0,0,0,.644-2.307c-.02-9.262,0-18.524-.023-27.785A4.061,4.061,0,0,1,9.209.161C10.752.2,12.3.168,13.84.168q16.262,0,32.525,0a4.852,4.852,0,0,1,1.87.294A3.922,3.922,0,0,1,50.71,4.282c.009,3.8,0,7.591,0,11.387q0,8.39,0,16.78A2.523,2.523,0,0,0,51,33.813c1.441,2.4,2.875,4.8,4.322,7.191.107.177.19.407.463.405q-2.328-3.855-4.66-7.707a1.679,1.679,0,0,1-.249-.918" transform="translate(0 0)" fill="#fff"/>
          <path id="Trazado_223946" data-name="Trazado 223946" d="M57.217,50.236H73.834a2.614,2.614,0,0,0,.381-.006.786.786,0,0,0,.741-.8.8.8,0,0,0-.767-.826c-.144-.014-.29,0-.436,0q-7.763,0-15.527.008c-.4,0-.541-.069-.541-.516q.024-11.741,0-23.481c0-.4.066-.542.515-.541q17.57.022,35.14,0c.478,0,.542.145.541.572q-.02,11.686,0,23.372c0,.522-.162.6-.627.6C88.1,48.6,82.947,48.6,77.789,48.6a2.494,2.494,0,0,0-.489.013.815.815,0,0,0-.022,1.6,1.9,1.9,0,0,0,.434.017H94.383c.875,0,1.126-.254,1.126-1.136q0-12.748,0-25.5c0-.915-.241-1.155-1.161-1.155H57.193c-.881,0-1.13.249-1.13,1.13q0,12.748,0,25.5c0,.919.24,1.16,1.155,1.161" transform="translate(-47.898 -19.179)" fill="#fff"/>
        </g>
      </g>
      <g id="Grupo_211596" data-name="Grupo 211596" transform="translate(407.006 1542.796)">
        <g id="Grupo_211595" data-name="Grupo 211595" clip-path="url(#clip-path-2)">
          <path id="Trazado_223947" data-name="Trazado 223947" d="M33.452,134.666a14.447,14.447,0,0,0-1.724-.366,1.358,1.358,0,0,1-1.454-1.367.666.666,0,0,1,.212-.688c.607-.526,1.2-1.069,1.793-1.611.506-.464.547-.734.244-1.367a18.566,18.566,0,0,0-1.166-2.04.931.931,0,0,0-1.2-.416,14.312,14.312,0,0,0-1.622.534,1.362,1.362,0,0,1-1.951-.435.7.7,0,0,1-.173-.74c.267-.755.5-1.522.741-2.286a.921.921,0,0,0-.43-1.278,19,19,0,0,0-2.088-1.19.934.934,0,0,0-1.243.249,16.727,16.727,0,0,0-1.137,1.281,1.368,1.368,0,0,1-1.871.6c-.318-.136-.483-.262-.547-.594-.16-.822-.352-1.638-.525-2.457a.841.841,0,0,0-.8-.735,13.1,13.1,0,0,0-2.728,0,.822.822,0,0,0-.781.687,12.52,12.52,0,0,0-.39,1.828A1.327,1.327,0,0,1,13.29,123.7c-.32.035-.519.044-.735-.207-.536-.622-1.1-1.22-1.644-1.836a.935.935,0,0,0-1.244-.242,19.347,19.347,0,0,0-2.086,1.194.92.92,0,0,0-.426,1.278,11.182,11.182,0,0,0,.512,1.573,1.365,1.365,0,0,1-.447,1.949.69.69,0,0,1-.742.16c-.772-.272-1.557-.508-2.335-.763a.934.934,0,0,0-1.194.422,21.355,21.355,0,0,0-1.218,2.134.908.908,0,0,0,.224,1.2,14.243,14.243,0,0,0,1.319,1.175,1.371,1.371,0,0,1,.588,1.877.727.727,0,0,1-.6.541c-.822.158-1.638.349-2.457.523a.844.844,0,0,0-.726.805,11.926,11.926,0,0,0,0,2.727.828.828,0,0,0,.7.774,13.047,13.047,0,0,0,1.775.381c.874.073,1.386.4,1.475,1.343a.712.712,0,0,1-.22.731c-.621.538-1.217,1.1-1.834,1.646a.931.931,0,0,0-.232,1.245,21.371,21.371,0,0,0,1.224,2.13.92.92,0,0,0,1.153.408,11.188,11.188,0,0,0,1.621-.534,1.385,1.385,0,0,1,2,.441.665.665,0,0,1,.17.693c-.274.79-.523,1.589-.78,2.386a.909.909,0,0,0,.39,1.156,20.406,20.406,0,0,0,2.176,1.25.911.911,0,0,0,1.2-.234,13.5,13.5,0,0,0,1.174-1.32,1.366,1.366,0,0,1,1.878-.575c.294.121.462.231.524.555.156.823.354,1.637.522,2.458a.868.868,0,0,0,.828.77,12.3,12.3,0,0,0,2.673,0,.868.868,0,0,0,.829-.768,14.45,14.45,0,0,0,.368-1.723,1.358,1.358,0,0,1,1.354-1.467.708.708,0,0,1,.727.236c.539.62,1.1,1.219,1.647,1.833a.912.912,0,0,0,1.2.236,20.733,20.733,0,0,0,2.136-1.215.952.952,0,0,0,.418-1.242,13.851,13.851,0,0,0-.537-1.62,1.347,1.347,0,0,1,.436-1.907.715.715,0,0,1,.787-.168c.755.267,1.526.487,2.286.742a.954.954,0,0,0,1.236-.434,20.885,20.885,0,0,0,1.211-2.137.891.891,0,0,0-.214-1.158,14.506,14.506,0,0,0-1.358-1.212,1.329,1.329,0,0,1-.573-1.832c.132-.307.237-.494.581-.559.823-.155,1.638-.354,2.458-.525a.855.855,0,0,0,.753-.841c.033-.427.06-.855.09-1.291-.029-.439-.058-.884-.089-1.329a.872.872,0,0,0-.786-.87M31.811,137.6c-.662.144-1.323.291-1.986.425a.959.959,0,0,0-.855.832,11.279,11.279,0,0,1-.575,2.166.891.891,0,0,0,.276,1.057c.621.564,1.234,1.139,1.871,1.685a.384.384,0,0,1,.094.578c-.408.74-.4.744-1.19.485-.66-.215-1.323-.419-1.981-.641a.887.887,0,0,0-1.054.289,12.056,12.056,0,0,1-1.588,1.589.909.909,0,0,0-.308,1.1c.265.774.5,1.561.763,2.335a.408.408,0,0,1-.212.591c-.713.407-.7.423-1.237-.167-.455-.5-.919-1-1.365-1.511a.967.967,0,0,0-1.189-.319,9.715,9.715,0,0,1-2.062.549.985.985,0,0,0-.87.881c-.157.786-.348,1.566-.493,2.354-.056.3-.17.4-.484.4-.808,0-.807.014-.975-.775-.142-.662-.294-1.322-.427-1.986a.983.983,0,0,0-.875-.876,10.733,10.733,0,0,1-2.114-.563.89.89,0,0,0-1.06.263c-.54.6-1.117,1.161-1.608,1.8-.354.457-.6.177-.931.027-.375-.171-.472-.359-.311-.772.284-.728.479-1.491.728-2.233a.891.891,0,0,0-.277-1.058,13.132,13.132,0,0,1-1.626-1.627.939.939,0,0,0-.838-.344l-1.336.426c-.272.086-.544.17-.815.257-.859.274-.847.269-1.258-.521a.333.333,0,0,1,.092-.491c.618-.541,1.217-1.1,1.835-1.645a1,1,0,0,0,.315-1.24,8.577,8.577,0,0,1-.526-1.957,1.01,1.01,0,0,0-.884-.93c-.8-.161-1.6-.376-2.406-.5-.5-.078-.35-.419-.341-.677s-.186-.607.323-.691c.79-.129,1.565-.348,2.352-.5a1.054,1.054,0,0,0,.96-.98,7.951,7.951,0,0,1,.514-1.905,1.02,1.02,0,0,0-.335-1.282c-.608-.525-1.186-1.085-1.8-1.608a.356.356,0,0,1-.088-.536c.411-.758.4-.763,1.227-.5.644.207,1.293.4,1.932.622a.912.912,0,0,0,1.1-.3,11.631,11.631,0,0,1,1.549-1.552.936.936,0,0,0,.316-1.141c-.266-.755-.484-1.527-.746-2.284a.437.437,0,0,1,.23-.629c.69-.386.681-.4,1.2.166.468.516.944,1.025,1.4,1.549a.97.97,0,0,0,1.2.289,9.43,9.43,0,0,1,2.01-.536.987.987,0,0,0,.888-.864c.164-.8.359-1.6.506-2.406.053-.292.174-.364.452-.369.826-.014.825-.027,1,.8.143.662.29,1.323.427,1.986a.961.961,0,0,0,.845.843,10.306,10.306,0,0,1,2.114.562.919.919,0,0,0,1.106-.277c.551-.609,1.115-1.208,1.647-1.833a.407.407,0,0,1,.618-.115c.717.408.724.394.464,1.2-.208.644-.4,1.293-.623,1.931a.907.907,0,0,0,.29,1.1A12.132,12.132,0,0,1,26.4,129.18a.911.911,0,0,0,1.1.29c.757-.261,1.537-.458,2.28-.753.447-.177.558.074.711.364s.435.544-.012.889c-.634.49-1.2,1.069-1.8,1.605a.914.914,0,0,0-.279,1.1,10.552,10.552,0,0,1,.562,2.114.985.985,0,0,0,.895.856c.786.155,1.566.346,2.353.5.272.052.38.143.385.44.013.841.03.841-.787,1.019" transform="translate(0 -102.539)" fill="#fff"/>
          <path id="Trazado_223948" data-name="Trazado 223948" d="M174.416,12.232c.6.168,1.19.368,1.783.557.666.212.806.541.492,1.148-.287.553-.565,1.111-.869,1.655a.94.94,0,0,0,.113,1.178,12.852,12.852,0,0,0,1.474,1.475.942.942,0,0,0,1.176.138c.562-.307,1.132-.6,1.7-.893s.895-.145,1.083.441c.2.61.4,1.217.583,1.832a.93.93,0,0,0,.863.742,9.507,9.507,0,0,0,2.189,0,.929.929,0,0,0,.866-.739c.19-.649.4-1.291.613-1.934a.63.63,0,0,1,.954-.391c.6.306,1.205.615,1.8.939a.926.926,0,0,0,1.137-.095,11.493,11.493,0,0,0,1.549-1.552.91.91,0,0,0,.113-1.091c-.324-.614-.649-1.227-.963-1.847a.623.623,0,0,1,.4-.946q.991-.319,1.984-.63a.888.888,0,0,0,.672-.8,9.119,9.119,0,0,0,.005-2.243.908.908,0,0,0-.7-.84c-.647-.2-1.29-.407-1.933-.614a.626.626,0,0,1-.419-.975c.3-.588.6-1.171.907-1.756a1.059,1.059,0,0,0,.177-.566.9.9,0,0,0-.261-.611A11.027,11.027,0,0,0,190.4,2.3a.943.943,0,0,0-1.18-.1c-.575.321-1.165.615-1.752.913a.627.627,0,0,1-.986-.4c-.191-.593-.388-1.184-.555-1.784a1.065,1.065,0,0,0-1.047-.887,10.814,10.814,0,0,0-2.083.025.9.9,0,0,0-.83.71c-.193.648-.405,1.29-.615,1.934a.621.621,0,0,1-.982.4q-.905-.458-1.8-.936a.925.925,0,0,0-1.133.126,12.247,12.247,0,0,0-1.513,1.512.925.925,0,0,0-.118,1.134q.48.894.938,1.8a.627.627,0,0,1-.414.98c-.659.215-1.322.42-1.984.629a.86.86,0,0,0-.644.766,9.02,9.02,0,0,0-.013,2.242.918.918,0,0,0,.728.872M175.7,9.716c.569-.138,1.12-.352,1.684-.514.43-.124.618-.441.861-.794.907-1.322.094-2.356-.49-3.428a.539.539,0,0,1,.1-.775.509.509,0,0,1,.732-.092c.475.28.98.508,1.46.78a1.492,1.492,0,0,0,1.221.035A2.36,2.36,0,0,0,183.13,2.8a5.33,5.33,0,0,1,.163-.564c.088-.317.165-.56.619-.558s.532.23.625.552c.148.513.317,1.02.464,1.533a1.512,1.512,0,0,0,.756.831c1.3.868,2.359.165,3.431-.457a.548.548,0,0,1,.817.1.494.494,0,0,1,.1.688c-.3.522-.562,1.073-.849,1.605a.955.955,0,0,0-.02.968.163.163,0,0,1,.023.048c.238,1.594,1.56,1.794,2.763,2.131.336.094.5.221.486.614a.515.515,0,0,1-.454.582c-.568.144-1.121.348-1.684.515a1.041,1.041,0,0,0-.742.7.189.189,0,0,1-.017.051c-.924,1.279-.18,2.351.449,3.419a.553.553,0,0,1-.108.815.487.487,0,0,1-.689.09c-.508-.294-1.039-.549-1.558-.825a1.525,1.525,0,0,0-.658-.179c-.5.215-1.108.433-1.671.728-.359.188-.362.634-.484.982a11.889,11.889,0,0,0-.377,1.224.527.527,0,0,1-.622.477.513.513,0,0,1-.574-.468c-.13-.5-.338-.978-.454-1.479-.128-.552-.506-.763-.965-1.029a2.231,2.231,0,0,0-2.623.179c-.189.131-.415.206-.611.328-.294.183-.514.254-.826-.053s-.211-.532-.047-.828c.268-.483.506-.981.769-1.467a1.039,1.039,0,0,0,.026-1.019,9.507,9.507,0,0,1-.38-.939,1.07,1.07,0,0,0-.739-.708c-.6-.18-1.181-.407-1.786-.548-.388-.09-.333-.333-.349-.6-.017-.284.041-.452.366-.531" transform="translate(-148.748 0)" fill="#fff"/>
          <path id="Trazado_223949" data-name="Trazado 223949" d="M255.024,156.143l-.3-.11a.818.818,0,0,1-.511-1.24,6.277,6.277,0,0,0,.572-1.343,1.14,1.14,0,0,0-.268-.662,9.856,9.856,0,0,0-1.284-1.287.933.933,0,0,0-1.136-.127c-.314.167-.64.311-.964.459a.823.823,0,0,1-1.14-.481,6.417,6.417,0,0,1-.285-.8,1.1,1.1,0,0,0-1.186-.935c-.214,0-.428-.023-.642-.024-1.51-.008-1.572.037-2.07,1.445-.03.084-.064.166-.094.25a.816.816,0,0,1-1.24.511c-.306-.143-.613-.285-.915-.437a.922.922,0,0,0-1.089.136,10.035,10.035,0,0,0-1.288,1.283.933.933,0,0,0-.13,1.135c.165.315.311.641.459.965a.818.818,0,0,1-.478,1.14c-.351.129-.7.251-1.057.374a.77.77,0,0,0-.552.468,4.5,4.5,0,0,0,0,2.588c.186.581.863.552,1.34.762.13.057.267.1.4.144s.206.157.289.28c.267.4.106.733-.067,1.092-.674,1.4-.666,1.43.427,2.523.038.038.077.075.116.112.931.888,1.02.9,2.188.342.177-.085.352-.172.534-.245a.847.847,0,0,1,1.006.414c.087.214.159.434.237.653.39,1.1.5,1.177,1.641,1.21,1.791.051,1.832.048,2.4-1.646a1.008,1.008,0,0,1,.78-.688c.3-.086.53.161.782.278,1.28.59,1.346.582,2.355-.414.051-.05.1-.1.152-.151.923-.957.938-1.044.377-2.227-.076-.161-.142-.328-.231-.481a.661.661,0,0,1-.012-.551c.162-.636.741-.6,1.175-.762.924-.354,1.044-.483,1.1-1.465.008-.16.01-.321.01-.482,0-1.446-.053-1.52-1.4-2m-.618,2.445a.473.473,0,0,1-.052.01c-1.366.126-1.71,1.226-2.084,2.25-.219.6.268,1.074.487,1.586.1.235.147.407-.084.6-.157.131-.278.211-.46.076-.014-.01-.036-.01-.049-.021-1.048-.863-2.057-.37-3.07.084a.943.943,0,0,0-.5.6c-.113.318-.234.635-.332.958a.372.372,0,0,1-.418.305c-.235,0-.378-.067-.421-.3a2.325,2.325,0,0,0-1.809-1.979,1.687,1.687,0,0,0-1.462.022c-.213.127-.457.2-.67.33s-.349.053-.5-.111c-.133-.144-.239-.266-.092-.455.01-.013.01-.036.02-.049.849-1.045.4-2.057-.074-3.071a.964.964,0,0,0-.593-.5c-.334-.121-.667-.248-1.008-.35-.242-.072-.257-.231-.266-.444a.315.315,0,0,1,.285-.373,2.392,2.392,0,0,0,2.018-1.906,1.483,1.483,0,0,0-.005-1.264c-.141-.246-.231-.522-.372-.767-.123-.214-.062-.343.1-.505s.308-.223.5-.083c.014.01.036.01.049.021,1.056.87,2.07.352,3.064-.119.589-.28.554-.957.781-1.462.1-.23.172-.394.473-.376.212.013.358.07.379.275.136,1.327,1.129,1.769,2.191,2.147a.955.955,0,0,0,.775-.031c.336-.163.674-.322,1.017-.471a.519.519,0,0,1,.641.41c-.159.332-.311.674-.484,1a1.083,1.083,0,0,0,.016,1.164.3.3,0,0,1,.048.1,2.214,2.214,0,0,0,1.974,1.86c.236.041.286.2.289.428s-.082.366-.307.413" transform="translate(-204.958 -128.157)" fill="#fff"/>
          <path id="Trazado_223950" data-name="Trazado 223950" d="M1.045,79.464c.331.241.635.519,1.006.827a20.638,20.638,0,0,1,17.077-7.368c-.335.467-.945.719-.9,1.082s.571.639.868.972c.17.19.284.2.467.008.748-.768,1.517-1.515,2.265-2.282a.847.847,0,0,0,0-1.356c-.521-.54-1.057-1.065-1.588-1.6-.918-.919-.907-.907-1.83,0-.26.257-.235.393.014.623a2.779,2.779,0,0,1,.738.827A22.368,22.368,0,0,0,.984,78.887c-.23.261-.2.389.061.577" transform="translate(-0.711 -59.171)" fill="#fff"/>
          <path id="Trazado_223951" data-name="Trazado 223951" d="M313.285,17.205c.351.069.464-.047.518-.366.1-.578.223-1.152.355-1.821a12.808,12.808,0,0,1-.83,12.581c-.219.334-.706.653-.6,1,.1.326.6.519.9.8.235.219.37.224.573-.057a14.533,14.533,0,0,0,2.674-11.582,15.666,15.666,0,0,0-1.216-3.676c.366.072.662.127.955.19,1.242.266,1.228.264,1.489-.994.078-.375-.042-.491-.388-.555-1.226-.226-2.448-.476-3.671-.719a.883.883,0,0,0-1.19.8c-.2.959-.384,1.922-.586,2.88-.271,1.284-.274,1.271,1.014,1.523" transform="translate(-267.407 -10.254)" fill="#fff"/>
          <path id="Trazado_223952" data-name="Trazado 223952" d="M63.358,173.53a9.434,9.434,0,1,0,9.4,9.468,9.448,9.448,0,0,0-9.4-9.468m-.041,17.153a7.719,7.719,0,1,1,7.726-7.673,7.734,7.734,0,0,1-7.726,7.673" transform="translate(-46.169 -148.667)" fill="#fff"/>
          <path id="Trazado_223953" data-name="Trazado 223953" d="M219.765,50.412a4.288,4.288,0,1,0-4.249-4.327,4.3,4.3,0,0,0,4.249,4.327m.049-6.86a2.573,2.573,0,1,1-2.583,2.534,2.582,2.582,0,0,1,2.583-2.534" transform="translate(-184.637 -35.842)" fill="#fff"/>
          <path id="Trazado_223954" data-name="Trazado 223954" d="M278.8,185.5a3.43,3.43,0,1,0,3.434,3.44,3.441,3.441,0,0,0-3.434-3.44m-.024,5.145a1.715,1.715,0,1,1,1.742-1.716,1.732,1.732,0,0,1-1.742,1.716" transform="translate(-235.921 -158.925)" fill="#fff"/>
        </g>
      </g>
      <g id="Grupo_211598" data-name="Grupo 211598" transform="translate(407.006 1345.909)">
        <g id="Grupo_211597" data-name="Grupo 211597" clip-path="url(#clip-path-3)">
          <path id="Trazado_223955" data-name="Trazado 223955" d="M51.825,141.42a9.893,9.893,0,0,0-9.4-8.268,9.447,9.447,0,0,0-4.2.751.664.664,0,0,1-.879-.2,13.966,13.966,0,0,0-8.978-4.9,14.014,14.014,0,0,0-10.994,3.109,13.439,13.439,0,0,0-1.857,1.818.645.645,0,0,1-.842.172,9.679,9.679,0,0,0-8.375.341,9.637,9.637,0,0,0-5.263,7.419,5.792,5.792,0,0,0-.1,1.244,1.022,1.022,0,0,0,.958,1.081.976.976,0,0,0,.975-1.043,8.08,8.08,0,0,1,2.148-5.318,7.839,7.839,0,0,1,5.4-2.527,7.653,7.653,0,0,1,2.957.407c.539.182.6.336.353.838a14.274,14.274,0,0,0-1.578,5.6,7.115,7.115,0,0,0-.086.945,1.094,1.094,0,0,0,.908,1.1,1.037,1.037,0,0,0,1.061-.931c.13-.59.063-1.194.145-1.793A12.4,12.4,0,0,1,23.3,131.046a12.066,12.066,0,0,1,11.931,3.247,11.963,11.963,0,0,1,3.549,7.449,7.347,7.347,0,0,1,.017.75,2.765,2.765,0,0,0,.049.6,1.073,1.073,0,0,0,1.052.893,1.048,1.048,0,0,0,.915-.979,8.032,8.032,0,0,0-.136-1.741,14,14,0,0,0-1.562-4.986c-.214-.405-.109-.6.38-.768a7.606,7.606,0,0,1,5.391.113,7.782,7.782,0,0,1,4.956,5.91,7.946,7.946,0,0,1,.172,1.439.951.951,0,0,0,.665.958.926.926,0,0,0,1.069-.342c.092-.107.143-.278.338-.248v-1.4c-.3-.059-.233-.33-.265-.516" transform="translate(-0.8 -110.689)" fill="#fff"/>
          <path id="Trazado_223956" data-name="Trazado 223956" d="M51.2,141.036a10,10,0,0,0-13.676-8.05.751.751,0,0,1-1.015-.267A14.01,14.01,0,0,0,26.1,127.8a14.144,14.144,0,0,0-11.48,5.087.477.477,0,0,1-.656.17,9.572,9.572,0,0,0-8.186.15A9.811,9.811,0,0,0,0,142.117a1.136,1.136,0,0,0,.673,1.177c.683.329,1.541-.208,1.572-1.218a7.8,7.8,0,0,1,10.335-7.185c.369.124.481.223.258.631a14.094,14.094,0,0,0-1.686,6.413,2.474,2.474,0,0,0,.028.547,1.109,1.109,0,0,0,1.1.91,1.078,1.078,0,0,0,1.068-.938c.1-.743.066-1.5.2-2.24a12.271,12.271,0,0,1,24.026-.778,17.281,17.281,0,0,1,.345,2.874,1.1,1.1,0,0,0,1.145,1.081,1.135,1.135,0,0,0,1.078-1.16c0-.1,0-.2-.005-.3a14.14,14.14,0,0,0-1.713-6.457c-.22-.4-.067-.47.241-.567a7.846,7.846,0,0,1,10.4,7.323,1.113,1.113,0,0,0,.868,1.136,1.135,1.135,0,0,0,1.246-.618c.031-.054.071-.1.107-.153-.195-.03-.246.141-.338.248a.925.925,0,0,1-1.069.342.951.951,0,0,1-.665-.958,7.947,7.947,0,0,0-.172-1.439,7.782,7.782,0,0,0-4.956-5.91,7.606,7.606,0,0,0-5.391-.113c-.489.166-.594.363-.38.768a14,14,0,0,1,1.562,4.986,8.033,8.033,0,0,1,.135,1.741,1.048,1.048,0,0,1-.915.979,1.073,1.073,0,0,1-1.052-.893,2.765,2.765,0,0,1-.049-.6,7.346,7.346,0,0,0-.017-.75,11.964,11.964,0,0,0-3.549-7.449A12.066,12.066,0,0,0,22.5,130.3a12.4,12.4,0,0,0-9.131,10.211c-.082.6-.015,1.2-.145,1.793a1.037,1.037,0,0,1-1.061.931,1.094,1.094,0,0,1-.908-1.1,7.094,7.094,0,0,1,.086-.945,14.271,14.271,0,0,1,1.578-5.6c.248-.5.186-.656-.353-.838a7.651,7.651,0,0,0-2.957-.406,7.838,7.838,0,0,0-5.4,2.527A8.08,8.08,0,0,0,2.069,142.2a.976.976,0,0,1-.975,1.043,1.022,1.022,0,0,1-.958-1.081,5.792,5.792,0,0,1,.1-1.244A9.637,9.637,0,0,1,5.5,133.495a9.679,9.679,0,0,1,8.375-.341.645.645,0,0,0,.842-.172,13.463,13.463,0,0,1,1.857-1.818,14.014,14.014,0,0,1,10.994-3.109,13.965,13.965,0,0,1,8.978,4.9.664.664,0,0,0,.879.2,9.447,9.447,0,0,1,4.2-.751,9.892,9.892,0,0,1,9.4,8.268c.032.186-.04.457.265.516-.077-.026-.081-.09-.09-.157" transform="translate(0 -109.945)" fill="#fff"/>
          <path id="Trazado_223957" data-name="Trazado 223957" d="M135.528,15.613A7.807,7.807,0,1,0,127.7,7.79a7.833,7.833,0,0,0,7.831,7.823m-5.6-7.982a5.574,5.574,0,1,1,5.4,5.74,5.592,5.592,0,0,1-5.4-5.74" transform="translate(-109.859 0.001)" fill="#fff"/>
          <path id="Trazado_223958" data-name="Trazado 223958" d="M261,74.98a5.569,5.569,0,1,0-5.61-5.519A5.556,5.556,0,0,0,261,74.98m0-8.911a3.343,3.343,0,1,1-3.377,3.315A3.341,3.341,0,0,1,261,66.07" transform="translate(-219.715 -54.924)" fill="#fff"/>
          <path id="Trazado_223959" data-name="Trazado 223959" d="M38.65,74.981a5.569,5.569,0,1,0-5.6-5.528,5.55,5.55,0,0,0,5.6,5.528m0-8.91A3.342,3.342,0,1,1,35.278,69.4a3.344,3.344,0,0,1,3.367-3.328" transform="translate(-28.433 -54.925)" fill="#fff"/>
        </g>
      </g>
      <rect id="Rectángulo_67305" data-name="Rectángulo 67305" width="294.601" height="68.338" transform="translate(915.199 1202)" fill="#240658"/>
      <text id="Códigos_de_ética" data-name="Códigos de ética" transform="translate(972.963 1222.104)" fill="#fff" font-size="20" font-family="Roboto-Black, Roboto" font-weight="800"><tspan x="0" y="21">Códigos de ética</tspan></text>
    </g>
    <text id="Ética_informática" data-name="Ética informática" transform="translate(704.21 500.59)" fill="#12263f" font-size="20" font-family="Roboto-Bold, Roboto" font-weight="700"><tspan x="19.702" y="21">Ética informática</tspan></text>
  </g>
</svg>
