<svg id="Grupo_211638" data-name="Grupo 211638" xmlns="http://www.w3.org/2000/svg" xmlns:xlink="http://www.w3.org/1999/xlink" width="400" height="266.473" viewBox="0 0 400 266.473">
  <defs>
    <clipPath id="clip-path">
      <rect id="Rectángulo_67374" data-name="Rectángulo 67374" width="400" height="266.473" fill="none"/>
    </clipPath>
    <clipPath id="clip-path-4">
      <rect id="Rectángulo_67343" data-name="Rectángulo 67343" width="1.198" height="1.501" fill="none"/>
    </clipPath>
    <clipPath id="clip-path-6">
      <rect id="Rectángulo_67345" data-name="Rectángulo 67345" width="8.12" height="10.172" fill="none"/>
    </clipPath>
    <clipPath id="clip-path-7">
      <rect id="Rectángulo_67346" data-name="Rectángulo 67346" width="9.67" height="12.115" fill="none"/>
    </clipPath>
    <clipPath id="clip-path-8">
      <rect id="Rectángulo_67348" data-name="Rectángulo 67348" width="8.119" height="10.172" fill="none"/>
    </clipPath>
    <clipPath id="clip-path-9">
      <rect id="Rectángulo_67354" data-name="Rectángulo 67354" width="159.941" height="6.439" fill="none"/>
    </clipPath>
    <clipPath id="clip-path-10">
      <rect id="Rectángulo_67360" data-name="Rectángulo 67360" width="51.256" height="40.447" fill="none"/>
    </clipPath>
    <clipPath id="clip-path-11">
      <rect id="Rectángulo_67361" data-name="Rectángulo 67361" width="49.379" height="1.972" fill="none"/>
    </clipPath>
  </defs>
  <g id="Grupo_211637" data-name="Grupo 211637" clip-path="url(#clip-path)">
    <g id="Grupo_211636" data-name="Grupo 211636">
      <g id="Grupo_211635" data-name="Grupo 211635" clip-path="url(#clip-path)">
        <path id="Trazado_223961" data-name="Trazado 223961" d="M196.019,250.929c-34.28,16.574-123.9,35.61-152.59-29.441C-1.142,120.416,63.474,33.121,112.991,34.55c44.377,1.281,55.064,24.157,86.1-2.511,35.12-30.175,140.848-42.511,181.871,12.486,36.139,48.448-2.537,88.281,13.01,126.021,57.1,138.6-102.061,83.049-133.066,69.044s-48.235,3.287-64.89,11.339" transform="translate(-12.189 -2.714)" fill="#bedef3"/>
        <g id="Grupo_211610" data-name="Grupo 211610" opacity="0.7">
          <g id="Grupo_211609" data-name="Grupo 211609">
            <g id="Grupo_211608" data-name="Grupo 211608" clip-path="url(#clip-path)">
              <path id="Trazado_223962" data-name="Trazado 223962" d="M199.59,251.7C144.526,250.25-11.817,291.767.711,145.969s132.08-43.391,186.262-92.176S297.048-31.54,352.46,40.48s56.684,81.179,32.766,132.228S360.652,276.077,284.52,264.966s-63.5-12.694-84.931-13.261" transform="translate(0 0)" fill="#d8ebf8"/>
            </g>
          </g>
        </g>
        <path id="Trazado_223963" data-name="Trazado 223963" d="M212.363,156.806H198.827a2.094,2.094,0,0,1-2.094-2.094V141.176a2.094,2.094,0,0,1,2.094-2.094h13.537a2.094,2.094,0,0,1,2.094,2.094v13.537a2.094,2.094,0,0,1-2.094,2.094" transform="translate(-84.191 -59.52)" fill="#57a8dd"/>
        <path id="Trazado_223964" data-name="Trazado 223964" d="M211.95,152.351a1.734,1.734,0,0,0-1.493.858l-4.94-1.18c0-.032.01-.062.01-.094a1.728,1.728,0,0,0-.06-.431l4.274-2.626A1.79,1.79,0,1,0,209.2,148l-4.274,2.626a1.741,1.741,0,1,0,.227,2.367l5.064,1.21a1.738,1.738,0,1,0,1.73-1.856" transform="translate(-86.463 -62.408)" fill="#fff"/>
        <rect id="Rectángulo_67339" data-name="Rectángulo 67339" width="0.701" height="1.403" transform="translate(237.811 67.011)" fill="#e9f4fc"/>
        <path id="Trazado_223965" data-name="Trazado 223965" d="M508.765,118.544h-1.418v-1.4h1.418Zm-2.836,0H504.51v-1.4h1.418Zm-2.837,0h-1.418v-1.4h1.418Zm-2.836,0h-1.418v-1.4h1.418Zm-2.836,0H496v-1.4h1.418Zm-2.836,0h-1.418v-1.4h1.418Zm-2.837,0h-1.418v-1.4h1.418Zm-2.836,0h-1.418v-1.4h1.418Zm-2.836,0h-1.418v-1.4h1.418Zm-2.836,0h-1.418v-1.4h1.418Zm-2.836,0h-1.418v-1.4H480.4Zm-2.836,0h-1.418v-1.4h1.418Zm-2.837,0H473.31v-1.4h1.418Zm-2.836,0h-1.418v-1.4h1.418Zm-2.836,0h-1.418v-1.4h1.418Zm-2.836,0H464.8v-1.4h1.418Zm-2.837,0h-1.418v-1.4h1.418Zm-2.836,0h-1.418v-1.4h1.418Zm-2.836,0h-1.418v-1.4h1.418Zm-2.836,0h-1.418v-1.4h1.418Zm-2.837,0h-1.418v-1.4h1.418Zm-2.836,0h-1.418v-1.4H449.2Zm-2.836,0h-1.418v-1.4h1.418Zm-2.836,0H442.11v-1.4h1.418Zm-2.836,0h-1.418v-1.4h1.418Zm-2.836,0h-1.418v-1.4h1.418Zm-2.837,0H433.6v-1.4h1.418Zm-2.836,0h-1.418v-1.4h1.418Zm-2.836,0h-1.418v-1.4h1.418Zm-2.836,0h-1.418v-1.4h1.418Zm-2.837,0h-1.418v-1.4h1.418Zm-2.836,0h-1.418v-1.4h1.418Z" transform="translate(-179.488 -50.13)" fill="#e9f4fc"/>
        <path id="Trazado_223966" data-name="Trazado 223966" d="M578.784,118.544h-.7v-1.4h1.4v1.4Z" transform="translate(-247.388 -50.13)" fill="#e9f4fc"/>
        <path id="Trazado_223967" data-name="Trazado 223967" d="M579.485,126.583h-1.4v-1.472h1.4Zm0-2.944h-1.4v-1.472h1.4Z" transform="translate(-247.388 -52.281)" fill="#e9f4fc"/>
        <rect id="Rectángulo_67340" data-name="Rectángulo 67340" width="1.403" height="0.701" transform="translate(330.694 75.775)" fill="#e9f4fc"/>
        <rect id="Rectángulo_67341" data-name="Rectángulo 67341" width="0.701" height="1.403" transform="translate(99.648 67.011)" fill="#e9f4fc"/>
        <path id="Trazado_223968" data-name="Trazado 223968" d="M229.539,118.544h-1.4v-1.4h1.4Zm-2.793,0h-1.4v-1.4h1.4Zm-2.793,0h-1.4v-1.4h1.4Zm-2.794,0h-1.4v-1.4h1.4Zm-2.793,0h-1.4v-1.4h1.4Zm-2.794,0h-1.4v-1.4h1.4Zm-2.793,0h-1.4v-1.4h1.4Zm-2.793,0h-1.4v-1.4h1.4Zm-2.793,0h-1.4v-1.4h1.4Zm-2.793,0H203v-1.4h1.4Zm-2.793,0h-1.4v-1.4h1.4Zm-2.793,0h-1.4v-1.4h1.4Zm-2.794,0h-1.4v-1.4h1.4Zm-2.793,0h-1.4v-1.4h1.4Zm-2.793,0h-1.4v-1.4h1.4Zm-2.793,0h-1.4v-1.4h1.4Zm-2.793,0h-1.4v-1.4h1.4Zm-2.793,0h-1.4v-1.4h1.4Zm-2.794,0h-1.4v-1.4h1.4Z" transform="translate(-76.115 -50.13)" fill="#e9f4fc"/>
        <rect id="Rectángulo_67342" data-name="Rectángulo 67342" width="0.701" height="1.403" transform="translate(154.821 67.011)" fill="#e9f4fc"/>
        <path id="Trazado_223969" data-name="Trazado 223969" d="M180.94,193.368h-1.4v-1.4h1.4Zm-2.806,0h-1.4v-1.4h1.4Zm-2.805,0h-1.4v-1.4h1.4Zm-2.807,0h-1.4v-1.4h1.4Zm-2.805,0h-1.4v-1.4h1.4Zm-2.806,0h-1.4v-1.4h1.4Zm-2.806,0h-1.4v-1.4h1.4Zm-2.806,0h-1.4v-1.4h1.4Zm-2.806,0h-1.4v-1.4h1.4Zm-2.805,0h-1.4v-1.4h1.4Zm-2.806,0h-1.4v-1.4h1.4Zm-2.806,0h-1.4v-1.4h1.4Zm-2.806,0h-1.4v-1.4h1.4Zm-2.806,0h-1.4v-1.4h1.4Zm-2.805,0h-1.4v-1.4h1.4Zm-2.806,0h-1.4v-1.4h1.4Zm-2.806,0h-1.4v-1.4h1.4Zm-2.806,0h-1.4v-1.4h1.4Zm-2.806,0h-1.4v-1.4h1.4Zm-2.806,0h-1.4v-1.4h1.4Zm-2.805,0h-1.4v-1.4h1.4Zm-2.806,0h-1.4v-1.4h1.4Zm-2.806,0h-1.4v-1.4h1.4Zm-2.806,0h-1.585v-1.221h.7v-.181h.883Zm-.181-2.624h-1.4v-1.4h1.4Zm0-2.806h-1.4v-1.4h1.4Zm0-2.806h-1.4v-1.4h1.4Zm0-2.806h-1.4v-1.4h1.4Zm0-2.806h-1.4v-1.4h1.4Zm0-2.805h-1.4v-1.4h1.4Zm0-2.806h-1.4v-1.4h1.4Zm0-2.806h-1.4v-1.4h1.4Zm0-2.806h-1.4v-1.4h1.4Zm0-2.806h-1.4v-1.4h1.4Zm0-2.805h-1.4v-1.4h1.4Zm0-2.806h-1.4v-1.4h1.4Zm0-2.805h-1.4v-1.4h1.4Zm0-2.806h-1.4v-1.4h1.4Zm0-2.806h-1.4v-1.4h1.4Zm0-2.806h-1.4v-1.4h1.4Zm0-2.806h-1.4v-1.4h1.4Zm0-2.805h-1.4v-1.4h1.4Zm0-2.806h-1.4v-1.4h1.4Zm0-2.806h-1.4v-1.4h1.4Z" transform="translate(-49.137 -58.213)" fill="#e9f4fc"/>
        <path id="Trazado_223970" data-name="Trazado 223970" d="M272.366,116.882a1.985,1.985,0,1,1-1.985-1.984,1.985,1.985,0,0,1,1.985,1.984" transform="translate(-114.859 -49.17)" fill="#e9f4fc"/>
        <path id="Trazado_223971" data-name="Trazado 223971" d="M542.874,193.368h-1.585v-1.4h.883v.181h.7Zm-2.987,0h-1.4v-1.4h1.4Zm-2.806,0h-1.4v-1.4h1.4Zm-2.806,0h-1.4v-1.4h1.4Zm-2.806,0h-1.4v-1.4h1.4Zm-2.805,0h-1.4v-1.4h1.4Zm-2.806,0h-1.4v-1.4h1.4Zm-2.805,0h-1.4v-1.4h1.4Zm-2.806,0h-1.4v-1.4h1.4Zm-2.806,0h-1.4v-1.4h1.4Zm-2.806,0h-1.4v-1.4h1.4Zm-2.806,0h-1.4v-1.4h1.4Zm-2.805,0h-1.4v-1.4h1.4Zm-2.806,0h-1.4v-1.4h1.4Zm-2.806,0h-1.4v-1.4h1.4Zm-2.806,0h-1.4v-1.4h1.4Zm-2.806,0h-1.4v-1.4h1.4Zm-2.805,0h-1.4v-1.4h1.4Zm-2.806,0h-1.4v-1.4h1.4Zm-2.806,0h-1.4v-1.4h1.4Zm-2.806,0h-1.4v-1.4h1.4Zm-2.806,0h-.11v-1.4h.11Zm59.1-2.624h-1.4v-1.4h1.4Zm0-2.806h-1.4v-1.4h1.4Zm0-2.806h-1.4v-1.4h1.4Zm0-2.806h-1.4v-1.4h1.4Zm0-2.806h-1.4v-1.4h1.4Zm0-2.805h-1.4v-1.4h1.4Zm0-2.806h-1.4v-1.4h1.4Zm0-2.806h-1.4v-1.4h1.4Zm0-2.806h-1.4v-1.4h1.4Zm0-2.806h-1.4v-1.4h1.4Zm0-2.805h-1.4v-1.4h1.4Zm0-2.806h-1.4v-1.4h1.4Zm0-2.805h-1.4v-1.4h1.4Zm0-2.806h-1.4v-1.4h1.4Zm0-2.806h-1.4v-1.4h1.4Zm0-2.806h-1.4v-1.4h1.4Zm0-2.806h-1.4v-1.4h1.4Zm0-2.805h-1.4v-1.4h1.4Zm0-2.806h-1.4v-1.4h1.4Zm0-2.806h-1.4v-1.4h1.4Z" transform="translate(-206.98 -58.213)" fill="#e9f4fc"/>
        <path id="Trazado_223972" data-name="Trazado 223972" d="M110.375,236.09h0a9.6,9.6,0,0,1-9.6-9.6h0a9.6,9.6,0,0,1,19.208,0h0a9.6,9.6,0,0,1-9.6,9.6" transform="translate(-43.124 -92.814)" fill="#57a8dd"/>
        <path id="Trazado_223973" data-name="Trazado 223973" d="M116.993,230.214a3.41,3.41,0,0,0-6.546-.441,1.272,1.272,0,0,0-1.66,1.427,1.7,1.7,0,1,0-.344,3.357c.034,0,.067,0,.1,0s.042,0,.063,0h8.339a2.172,2.172,0,0,0,.048-4.344" transform="translate(-45.682 -97.363)" fill="#fff"/>
        <path id="Trazado_223974" data-name="Trazado 223974" d="M108.584,236.079a1.237,1.237,0,0,1,1.22-1.354l.051,0a1.382,1.382,0,1,0-.459,2.725,1.356,1.356,0,0,1-.812-1.374" transform="translate(-46.315 -100.441)" fill="#d9ecf9"/>
        <path id="Trazado_223975" data-name="Trazado 223975" d="M121.475,232.508c0-.965-.4-1.759-1.958-1.747a2.684,2.684,0,0,0-2.571-2.549,3.073,3.073,0,0,0-2.253,1.372,2.771,2.771,0,0,1,4.757,1.292,1.765,1.765,0,0,1,1.311,2.9,1.716,1.716,0,0,0,.713-1.269" transform="translate(-49.082 -97.662)" fill="#d9ecf9"/>
        <g id="Grupo_211613" data-name="Grupo 211613" transform="translate(63.609 132.613)" opacity="0.5">
          <g id="Grupo_211612" data-name="Grupo 211612">
            <g id="Grupo_211611" data-name="Grupo 211611" clip-path="url(#clip-path-4)">
              <path id="Trazado_223976" data-name="Trazado 223976" d="M112.393,231.829a1.143,1.143,0,0,0-.154-.011,1.017,1.017,0,0,0-.861.454,1.312,1.312,0,0,0-.142,1s.034.048.038.049a2.086,2.086,0,0,1-.029-.269,1.2,1.2,0,0,1,1.148-1.221" transform="translate(-111.194 -231.818)" fill="#d9ecf9"/>
            </g>
          </g>
        </g>
        <path id="Trazado_223977" data-name="Trazado 223977" d="M116.427,235.641a2.04,2.04,0,0,1-.258-2.054,1.925,1.925,0,0,1,2.972-.631s-1.875-.723-2.57.6a2.01,2.01,0,0,0-.145,2.082" transform="translate(-49.635 -99.508)" fill="#d9ecf9"/>
        <path id="Trazado_223978" data-name="Trazado 223978" d="M578.76,236.09h0a9.6,9.6,0,0,1-9.6-9.6h0a9.6,9.6,0,0,1,19.208,0h0a9.6,9.6,0,0,1-9.6,9.6" transform="translate(-243.568 -92.814)" fill="#57a8dd"/>
        <path id="Trazado_223979" data-name="Trazado 223979" d="M585.379,230.214a3.41,3.41,0,0,0-6.546-.441,1.272,1.272,0,0,0-1.66,1.427,1.7,1.7,0,1,0-.344,3.357c.034,0,.067,0,.1,0s.042,0,.063,0h8.339a2.172,2.172,0,0,0,.048-4.344" transform="translate(-246.126 -97.363)" fill="#fff"/>
        <path id="Trazado_223980" data-name="Trazado 223980" d="M576.97,236.079a1.237,1.237,0,0,1,1.22-1.354l.05,0a1.382,1.382,0,1,0-.459,2.725,1.355,1.355,0,0,1-.811-1.374" transform="translate(-246.758 -100.441)" fill="#d9ecf9"/>
        <path id="Trazado_223981" data-name="Trazado 223981" d="M589.86,232.508c0-.965-.4-1.759-1.958-1.747a2.684,2.684,0,0,0-2.571-2.549,3.074,3.074,0,0,0-2.253,1.372,2.771,2.771,0,0,1,4.757,1.292,1.765,1.765,0,0,1,1.311,2.9,1.716,1.716,0,0,0,.713-1.269" transform="translate(-249.526 -97.662)" fill="#d9ecf9"/>
        <g id="Grupo_211616" data-name="Grupo 211616" transform="translate(331.551 132.613)" opacity="0.5">
          <g id="Grupo_211615" data-name="Grupo 211615">
            <g id="Grupo_211614" data-name="Grupo 211614" clip-path="url(#clip-path-4)">
              <path id="Trazado_223982" data-name="Trazado 223982" d="M580.779,231.829a1.142,1.142,0,0,0-.154-.011,1.017,1.017,0,0,0-.861.454,1.312,1.312,0,0,0-.142,1s.034.048.038.049a2.092,2.092,0,0,1-.029-.269,1.2,1.2,0,0,1,1.148-1.221" transform="translate(-579.58 -231.818)" fill="#d9ecf9"/>
            </g>
          </g>
        </g>
        <path id="Trazado_223983" data-name="Trazado 223983" d="M584.812,235.641a2.039,2.039,0,0,1-.258-2.054,1.925,1.925,0,0,1,2.972-.631s-1.875-.723-2.569.6a2.009,2.009,0,0,0-.145,2.082" transform="translate(-250.078 -99.508)" fill="#d9ecf9"/>
        <path id="Trazado_223984" data-name="Trazado 223984" d="M485.018,61.844h-1.527a8.151,8.151,0,0,0-.915-2.38l1.15-1.15a.438.438,0,0,0,.059-.55,10.516,10.516,0,0,0-2.319-2.49.437.437,0,0,0-.573.041l-1.2,1.191a7.957,7.957,0,0,0-2.216-.923V53.729a.437.437,0,0,0-.345-.43,10.277,10.277,0,0,0-2.061-.213,9.94,9.94,0,0,0-1.346.1.436.436,0,0,0-.372.434v1.967a8.177,8.177,0,0,0-2.033.82l-1.5-1.5a.438.438,0,0,0-.549-.058,10.515,10.515,0,0,0-2.49,2.321.438.438,0,0,0,.041.573l1.538,1.542a9.046,9.046,0,0,0-.847,1.864h-2.274a.437.437,0,0,0-.43.345,10.313,10.313,0,0,0-.213,2.064,9.979,9.979,0,0,0,.1,1.355.436.436,0,0,0,.434.372h2.214a8.279,8.279,0,0,0,.677,1.927l-1.6,1.6a.438.438,0,0,0-.059.549,10.513,10.513,0,0,0,2.323,2.49.437.437,0,0,0,.574-.042l1.461-1.464a7.932,7.932,0,0,0,1.944.991v2.054a.437.437,0,0,0,.345.43,10.318,10.318,0,0,0,2.061.213,9.972,9.972,0,0,0,1.347-.1.437.437,0,0,0,.372-.434V71.692a8.055,8.055,0,0,0,2.273-.732l1.254,1.252a.438.438,0,0,0,.549.059,10.513,10.513,0,0,0,2.494-2.325.438.438,0,0,0-.042-.574L482.2,68.255a8.023,8.023,0,0,0,1.111-2.288h1.59a.437.437,0,0,0,.43-.345,10.293,10.293,0,0,0,.213-2.063,9.906,9.906,0,0,0-.1-1.343.436.436,0,0,0-.434-.372M475.417,67a3.445,3.445,0,0,1-3.371-4.143A3.442,3.442,0,1,1,475.417,67" transform="translate(-198.824 -22.718)" fill="#57a8dd"/>
        <path id="Trazado_223985" data-name="Trazado 223985" d="M479.436,61.884a5.446,5.446,0,1,0,5.446,5.446,5.446,5.446,0,0,0-5.446-5.446m0,8.883a3.437,3.437,0,1,1,3.44-3.444,3.439,3.439,0,0,1-3.44,3.444" transform="translate(-202.842 -26.483)" fill="#e3f1fb"/>
        <path id="Trazado_223986" data-name="Trazado 223986" d="M484.576,68.231a4.23,4.23,0,1,1-4.23-4.23,4.23,4.23,0,0,1,4.23,4.23" transform="translate(-203.752 -27.389)" fill="#fff"/>
        <path id="Trazado_223987" data-name="Trazado 223987" d="M484.139,69.531a2.492,2.492,0,1,1-2.492-2.492,2.492,2.492,0,0,1,2.492,2.492" transform="translate(-205.052 -28.689)" fill="#57a8dd"/>
        <path id="Trazado_223988" data-name="Trazado 223988" d="M265.014,36.117a10.529,10.529,0,1,1-10.529-10.529,10.529,10.529,0,0,1,10.529,10.529" transform="translate(-104.4 -10.95)" fill="#57a8dd"/>
        <path id="Trazado_223989" data-name="Trazado 223989" d="M254.194,44.384a1.548,1.548,0,1,1,1.548-1.548,1.548,1.548,0,0,1-1.548,1.548" transform="translate(-108.119 -17.669)" fill="#fff"/>
        <path id="Trazado_223990" data-name="Trazado 223990" d="M259.352,44.519a3.652,3.652,0,0,0,.223-5.463l-.242-.236-.678.677.249.244a2.695,2.695,0,0,1-.181,4.055l-.3.239.683.684Z" transform="translate(-110.593 -16.613)" fill="#fff"/>
        <path id="Trazado_223991" data-name="Trazado 223991" d="M262.837,45.009a6.438,6.438,0,0,0,.214-9.414l-.244-.238-.677.677.247.241a5.48,5.48,0,0,1-.193,8.032l-.268.241.68.68Z" transform="translate(-112.085 -15.131)" fill="#fff"/>
        <path id="Trazado_223992" data-name="Trazado 223992" d="M266.243,45.5a9.194,9.194,0,0,0,.2-13.291l-.243-.241-.678.678.247.243a8.207,8.207,0,0,1,2.458,5.873,8.292,8.292,0,0,1-2.645,6.043l-.26.243.678.678Z" transform="translate(-113.544 -13.681)" fill="#fff"/>
        <path id="Trazado_223993" data-name="Trazado 223993" d="M582.11,73.945a23.11,23.11,0,0,0-44.357-2.988,8.619,8.619,0,0,0-11.245,9.673,11.493,11.493,0,1,0-2.333,22.747c.228,0,.454-.008.679-.022.141.011.282.022.426.022h56.161c.023,0,.045-.006.069-.007.091,0,.182.007.273.007a14.718,14.718,0,0,0,.327-29.432" transform="translate(-219.4 -23.814)" fill="#fff"/>
        <path id="Trazado_223994" data-name="Trazado 223994" d="M525.127,113.687c0-5.229,3.247-9.173,8.27-9.173.116,0,.228.014.342.018A9.364,9.364,0,1,0,530.627,123c-3.667-1.22-5.5-5.088-5.5-9.311" transform="translate(-223.691 -44.667)" fill="#d9ecf9"/>
        <path id="Trazado_223995" data-name="Trazado 223995" d="M612.473,89.492c0-6.54-2.742-11.919-13.264-11.839-1.033-9.88-8.358-17.27-17.42-17.27-6.193,0-11.833,4.682-15.268,9.295a18.775,18.775,0,0,1,32.235,8.75,11.959,11.959,0,0,1,8.881,19.666c2.556-2.2,4.836-4.964,4.836-8.6" transform="translate(-242.44 -25.841)" fill="#d9ecf9"/>
        <g id="Grupo_211619" data-name="Grupo 211619" transform="translate(310.52 48.518)" opacity="0.5">
          <g id="Grupo_211618" data-name="Grupo 211618">
            <g id="Grupo_211617" data-name="Grupo 211617" clip-path="url(#clip-path-6)">
              <path id="Trazado_223996" data-name="Trazado 223996" d="M550.935,84.888a8.093,8.093,0,0,0-1.046-.075,6.9,6.9,0,0,0-5.835,3.074,8.9,8.9,0,0,0-.964,6.767c.026.005.232.326.258.331a14.732,14.732,0,0,1-.194-1.824,8.128,8.128,0,0,1,7.781-8.273" transform="translate(-542.815 -84.813)" fill="#d9ecf9"/>
            </g>
          </g>
        </g>
        <path id="Trazado_223997" data-name="Trazado 223997" d="M578.267,110.721s-5.368-6.734-1.749-13.921,11.579-9.685,20.143-4.274c0,0-12.707-4.894-17.412,4.091s-.982,14.1-.982,14.1" transform="translate(-246.182 -38.346)" fill="#d9ecf9"/>
        <path id="Trazado_223998" data-name="Trazado 223998" d="M345.049,58.451a27.524,27.524,0,0,0-52.829-3.559,10.266,10.266,0,0,0-13.393,11.521A13.688,13.688,0,1,0,276.049,93.5c.271,0,.54-.01.807-.026.168.013.336.026.508.026h66.889c.028,0,.054-.007.082-.009.109,0,.216.009.326.009a17.529,17.529,0,0,0,.389-35.053" transform="translate(-112.276 -15.688)" fill="#fff"/>
        <path id="Trazado_223999" data-name="Trazado 223999" d="M277.182,105.784c0-6.227,3.868-10.925,9.849-10.925.138,0,.271.016.407.022a11.152,11.152,0,1,0-3.705,21.993c-4.368-1.454-6.551-6.06-6.551-11.09" transform="translate(-117.386 -40.525)" fill="#d9ecf9"/>
        <path id="Trazado_224000" data-name="Trazado 224000" d="M381.212,76.968c0-7.79-3.266-14.2-15.8-14.1C364.185,51.1,355.461,42.3,344.667,42.3c-7.376,0-14.094,5.576-18.184,11.07a22.361,22.361,0,0,1,38.392,10.422,14.243,14.243,0,0,1,10.578,23.421c3.043-2.622,5.759-5.912,5.759-10.244" transform="translate(-139.717 -18.102)" fill="#d9ecf9"/>
        <g id="Grupo_211622" data-name="Grupo 211622" transform="translate(170.615 40.842)" opacity="0.5">
          <g id="Grupo_211621" data-name="Grupo 211621">
            <g id="Grupo_211620" data-name="Grupo 211620" clip-path="url(#clip-path-7)">
              <path id="Trazado_224001" data-name="Trazado 224001" d="M307.92,71.484a9.824,9.824,0,0,0-1.246-.089,8.223,8.223,0,0,0-6.949,3.661,10.6,10.6,0,0,0-1.148,8.06c.031.006.276.387.308.394a17.5,17.5,0,0,1-.231-2.172,9.68,9.68,0,0,1,9.267-9.854" transform="translate(-298.25 -71.395)" fill="#d9ecf9"/>
            </g>
          </g>
        </g>
        <path id="Trazado_224002" data-name="Trazado 224002" d="M340.472,102.251s-6.393-8.02-2.083-16.58,13.791-11.535,23.99-5.091c0,0-15.134-5.829-20.736,4.873s-1.17,16.8-1.17,16.8" transform="translate(-144.173 -32.995)" fill="#d9ecf9"/>
        <path id="Trazado_224003" data-name="Trazado 224003" d="M356.559,101.181H320.964a1.2,1.2,0,0,1-1.2-1.2V76.77a1.2,1.2,0,0,1,1.2-1.2h35.594a1.2,1.2,0,0,1,1.2,1.2V99.979a1.2,1.2,0,0,1-1.2,1.2" transform="translate(-136.841 -32.339)" fill="#faa634"/>
        <path id="Trazado_224004" data-name="Trazado 224004" d="M371.136,77.259a1.28,1.28,0,0,1-1.28,1.28H357.11V71.611a1.28,1.28,0,0,1,1.28-1.28h11.465a1.28,1.28,0,0,1,1.28,1.28Z" transform="translate(-152.824 -30.098)" fill="#faa634"/>
        <rect id="Rectángulo_67347" data-name="Rectángulo 67347" width="8.845" height="0.43" transform="translate(205.995 41.884)" fill="#fcca85"/>
        <path id="Trazado_224005" data-name="Trazado 224005" d="M348.3,91.352a2.232,2.232,0,1,1,4.464,0v1.2H353.8v-1.2a3.268,3.268,0,0,0-6.535,0V92.5H348.3Z" transform="translate(-148.61 -37.695)" fill="#fff"/>
        <path id="Trazado_224006" data-name="Trazado 224006" d="M353.482,95.805h-8.151a.694.694,0,0,0-.694.694v5.884a.694.694,0,0,0,.694.694h8.151a.694.694,0,0,0,.694-.694V96.5a.7.7,0,0,0-.694-.694m-4.075,5.4h0a.675.675,0,0,1-.67-.759l.154-1.245a.993.993,0,0,1-.48-.844,1,1,0,1,1,1.993,0,.992.992,0,0,1-.48.848l.154,1.245a.676.676,0,0,1-.67.759" transform="translate(-147.486 -40.999)" fill="#fff"/>
        <path id="Trazado_224007" data-name="Trazado 224007" d="M109.454,73.945A23.11,23.11,0,0,0,65.1,70.956,8.619,8.619,0,0,0,53.852,80.63a11.493,11.493,0,1,0-2.333,22.747c.228,0,.454-.008.678-.022.141.011.282.022.426.022h56.161c.023,0,.045-.006.069-.007.091,0,.182.007.273.007a14.718,14.718,0,0,0,.327-29.432" transform="translate(-17.129 -23.814)" fill="#fff"/>
        <path id="Trazado_224008" data-name="Trazado 224008" d="M52.471,113.687c0-5.229,3.248-9.173,8.27-9.173.116,0,.228.014.342.018A9.364,9.364,0,1,0,57.971,123c-3.667-1.22-5.5-5.088-5.5-9.311" transform="translate(-21.42 -44.667)" fill="#d9ecf9"/>
        <path id="Trazado_224009" data-name="Trazado 224009" d="M139.817,89.492c0-6.54-2.742-11.919-13.264-11.839-1.033-9.88-8.358-17.27-17.42-17.27-6.193,0-11.834,4.682-15.268,9.295a18.775,18.775,0,0,1,32.235,8.75,11.959,11.959,0,0,1,8.881,19.666c2.556-2.2,4.836-4.964,4.836-8.6" transform="translate(-40.169 -25.841)" fill="#d9ecf9"/>
        <g id="Grupo_211625" data-name="Grupo 211625" transform="translate(40.135 48.518)" opacity="0.5">
          <g id="Grupo_211624" data-name="Grupo 211624">
            <g id="Grupo_211623" data-name="Grupo 211623" clip-path="url(#clip-path-8)">
              <path id="Trazado_224010" data-name="Trazado 224010" d="M78.279,84.888a8.092,8.092,0,0,0-1.046-.075A6.905,6.905,0,0,0,71.4,87.887a8.9,8.9,0,0,0-.964,6.767c.027.005.232.326.259.331a14.716,14.716,0,0,1-.194-1.824,8.128,8.128,0,0,1,7.781-8.273" transform="translate(-70.16 -84.813)" fill="#d9ecf9"/>
            </g>
          </g>
        </g>
        <path id="Trazado_224011" data-name="Trazado 224011" d="M105.611,110.721s-5.367-6.734-1.749-13.921,11.579-9.685,20.143-4.274c0,0-12.707-4.894-17.411,4.091s-.983,14.1-.983,14.1" transform="translate(-43.911 -38.346)" fill="#d9ecf9"/>
        <path id="Trazado_224012" data-name="Trazado 224012" d="M119.118,109.822H89.232a1.01,1.01,0,0,1-1.01-1.01V89.326a1.01,1.01,0,0,1,1.01-1.01h29.886a1.01,1.01,0,0,1,1.01,1.01v19.486a1.01,1.01,0,0,1-1.01,1.01" transform="translate(-37.754 -37.794)" fill="#faa634"/>
        <path id="Trazado_224013" data-name="Trazado 224013" d="M131.356,89.737a1.075,1.075,0,0,1-1.075,1.075h-10.7V84.995a1.075,1.075,0,0,1,1.075-1.075h9.627a1.075,1.075,0,0,1,1.075,1.075Z" transform="translate(-51.174 -35.913)" fill="#faa634"/>
        <rect id="Rectángulo_67349" data-name="Rectángulo 67349" width="7.426" height="0.361" transform="translate(69.842 49.393)" fill="#fcca85"/>
        <path id="Trazado_224014" data-name="Trazado 224014" d="M112.183,101.57a1.874,1.874,0,1,1,3.748,0v1h.87v-1a2.744,2.744,0,0,0-5.487,0v.965h.87Z" transform="translate(-47.636 -42.292)" fill="#fff"/>
        <path id="Trazado_224015" data-name="Trazado 224015" d="M116.535,105.309h-6.843a.583.583,0,0,0-.583.583v4.94a.583.583,0,0,0,.583.583h6.843a.583.583,0,0,0,.583-.583v-4.94a.583.583,0,0,0-.583-.583m-3.422,4.536h0a.567.567,0,0,1-.563-.637l.129-1.045a.834.834,0,0,1-.4-.709.837.837,0,1,1,1.673,0,.834.834,0,0,1-.4.712l.129,1.045a.567.567,0,0,1-.563.637" transform="translate(-46.692 -45.067)" fill="#fff"/>
        <path id="Trazado_224016" data-name="Trazado 224016" d="M569.3,58.643v24.51h22.544V62.213l-3.57-3.57Z" transform="translate(-243.63 -25.096)" fill="#57a8dd"/>
        <path id="Trazado_224017" data-name="Trazado 224017" d="M606.04,62.213l-3.57-3.57v3.57Z" transform="translate(-257.824 -25.096)" fill="#9acbeb"/>
        <rect id="Rectángulo_67350" data-name="Rectángulo 67350" width="11.615" height="1.197" transform="translate(332.587 39.572)" fill="#f7fbfe"/>
        <rect id="Rectángulo_67351" data-name="Rectángulo 67351" width="14.518" height="1.197" transform="translate(329.684 42.11)" fill="#f7fbfe"/>
        <rect id="Rectángulo_67352" data-name="Rectángulo 67352" width="14.518" height="1.197" transform="translate(329.684 44.649)" fill="#f7fbfe"/>
        <path id="Trazado_224018" data-name="Trazado 224018" d="M604.157,89.383a1.068,1.068,0,0,1-1.068,1.068H592.456v-5.78a1.068,1.068,0,0,1,1.068-1.068h9.565a1.068,1.068,0,0,1,1.068,1.068Z" transform="translate(-253.539 -35.778)" fill="#faa634"/>
        <path id="Trazado_224019" data-name="Trazado 224019" d="M592,109.341H562.3a1,1,0,0,1-1-1V88.975a1,1,0,0,1,1-1H592a1,1,0,0,1,1,1v19.363a1,1,0,0,1-1,1" transform="translate(-240.204 -37.647)" fill="#faa634"/>
        <rect id="Rectángulo_67353" data-name="Rectángulo 67353" width="7.379" height="0.359" transform="translate(340.343 49.204)" fill="#bcdcf1"/>
        <path id="Trazado_224020" data-name="Trazado 224020" d="M592.453,100.714a1.874,1.874,0,1,1,3.748,0v1h.87v-1a2.744,2.744,0,1,0-5.487,0v.965h.87Z" transform="translate(-253.165 -41.926)" fill="#fff"/>
        <path id="Trazado_224021" data-name="Trazado 224021" d="M589.361,104.454h-6.844a.583.583,0,0,0-.583.583v4.94a.583.583,0,0,0,.583.583h6.844a.583.583,0,0,0,.583-.583v-4.94a.583.583,0,0,0-.583-.583" transform="translate(-249.036 -44.701)" fill="#fff"/>
        <g id="Grupo_211628" data-name="Grupo 211628" transform="translate(118.529 234.185)" opacity="0.15">
          <g id="Grupo_211627" data-name="Grupo 211627">
            <g id="Grupo_211626" data-name="Grupo 211626" clip-path="url(#clip-path-9)">
              <path id="Trazado_224022" data-name="Trazado 224022" d="M260,415.232c-31.827-.035-58.86.674-51.619-2.921s13.825-.075,45.143-1.278,59.669-2.586,91.7-.81,23.32,3.822,9.266,4.4c-25.836,1.061-30.417,1.52-45.4.937-43.839-1.706-36.7-.313-49.091-.327" transform="translate(-207.199 -409.375)" fill="#005d92"/>
            </g>
          </g>
        </g>
        <path id="Trazado_224023" data-name="Trazado 224023" d="M365.218,378.4a38.8,38.8,0,0,1-5.329-.579c-5.055-1.255-9.43-7.076-9.43-12.284V335.172H315.617v30.363c0,5.208-4.376,11.029-9.43,12.284a38.787,38.787,0,0,1-5.329.579,1.36,1.36,0,0,0-1.283,1.359v1.263H366.5v-1.263a1.36,1.36,0,0,0-1.283-1.359" transform="translate(-128.202 -143.435)" fill="#2c3b53"/>
        <path id="Trazado_224024" data-name="Trazado 224024" d="M327.619,335.174v23.76l34.842,6.081V335.174Z" transform="translate(-140.203 -143.436)" fill="#1e2838"/>
        <path id="Trazado_224025" data-name="Trazado 224025" d="M373.043,290.648H232.932a3.578,3.578,0,0,1-3.578-3.578V194a3.579,3.579,0,0,1,3.579-3.579h140.11A3.579,3.579,0,0,1,376.621,194v93.071a3.579,3.579,0,0,1-3.578,3.579" transform="translate(-98.151 -81.489)" fill="#3b4f6f"/>
        <rect id="Rectángulo_67355" data-name="Rectángulo 67355" width="137.44" height="77.894" transform="translate(136.116 113.844)" fill="#e5f2fa"/>
        <path id="Trazado_224026" data-name="Trazado 224026" d="M358.085,312.14l-.113,0v0Z" transform="translate(-153.193 -133.579)" fill="#2a2a3b"/>
        <rect id="Rectángulo_67356" data-name="Rectángulo 67356" width="116.129" height="38.086" transform="translate(145.555 121.032)" fill="#d8ebf8"/>
        <rect id="Rectángulo_67357" data-name="Rectángulo 67357" width="37.05" height="21.703" transform="translate(146.657 164.625)" fill="#d8ebf8"/>
        <rect id="Rectángulo_67358" data-name="Rectángulo 67358" width="37.05" height="21.703" transform="translate(186.197 164.625)" fill="#d8ebf8"/>
        <rect id="Rectángulo_67359" data-name="Rectángulo 67359" width="37.05" height="21.703" transform="translate(224.634 164.625)" fill="#d8ebf8"/>
        <g id="Grupo_211631" data-name="Grupo 211631" transform="translate(179.487 135.414)" opacity="0.1">
          <g id="Grupo_211630" data-name="Grupo 211630">
            <g id="Grupo_211629" data-name="Grupo 211629" clip-path="url(#clip-path-10)">
              <path id="Trazado_224027" data-name="Trazado 224027" d="M362.487,277.163h-46.2a2.526,2.526,0,0,1-2.526-2.526V239.242a2.526,2.526,0,0,1,2.526-2.526h46.2a2.526,2.526,0,0,1,2.526,2.526v35.394a2.526,2.526,0,0,1-2.526,2.526" transform="translate(-313.758 -236.716)" fill="#3b4f6f"/>
            </g>
          </g>
        </g>
        <g id="Grupo_211634" data-name="Grupo 211634" transform="translate(151.324 243.276)" opacity="0.15">
          <g id="Grupo_211633" data-name="Grupo 211633">
            <g id="Grupo_211632" data-name="Grupo 211632" clip-path="url(#clip-path-11)">
              <path id="Trazado_224028" data-name="Trazado 224028" d="M313.906,426.253c0,.545-11.054.986-24.69.986s-24.689-.441-24.689-.986,11.054-.986,24.689-.986,24.69.441,24.69.986" transform="translate(-264.527 -425.267)" fill="#005d92"/>
            </g>
          </g>
        </g>
        <path id="Trazado_224029" data-name="Trazado 224029" d="M357.967,272.617H311.487a2.388,2.388,0,0,1-2.388-2.388V234.913a2.388,2.388,0,0,1,2.388-2.388h46.481a2.388,2.388,0,0,1,2.388,2.388V270.23a2.388,2.388,0,0,1-2.388,2.388" transform="translate(-132.278 -99.508)" fill="#57a8dd"/>
        <path id="Trazado_224030" data-name="Trazado 224030" d="M351.388,249.619h0a5.148,5.148,0,1,1,5.148-5.148,5.148,5.148,0,0,1-5.148,5.148" transform="translate(-148.172 -102.418)" fill="#79b9e4"/>
        <path id="Trazado_224031" data-name="Trazado 224031" d="M352.772,244.657a1.177,1.177,0,1,1,2.355,0v.631h.546v-.631a1.724,1.724,0,1,0-3.447,0v.606h.546Z" transform="translate(-150.734 -103.962)" fill="#fff"/>
        <path id="Trazado_224032" data-name="Trazado 224032" d="M355.507,247.006h-4.3a.366.366,0,0,0-.366.366v3.1a.366.366,0,0,0,.366.367h4.3a.367.367,0,0,0,.366-.367v-3.1a.366.366,0,0,0-.366-.366m-2.15,2.85h0a.357.357,0,0,1-.354-.4l.081-.656a.524.524,0,0,1-.253-.445.526.526,0,1,1,1.051,0,.524.524,0,0,1-.253.447l.081.657a.356.356,0,0,1-.353.4" transform="translate(-150.141 -105.705)" fill="#fff"/>
        <path id="Trazado_224033" data-name="Trazado 224033" d="M356.486,270.277H332.039a.658.658,0,0,1-.658-.658v-3.94a.658.658,0,0,1,.658-.658h24.447a.658.658,0,0,1,.658.658v3.94a.658.658,0,0,1-.658.658" transform="translate(-141.813 -113.415)" fill="#fff"/>
        <path id="Trazado_224034" data-name="Trazado 224034" d="M334.857,270.357a.512.512,0,1,1,.009,0Z" transform="translate(-143.091 -115.242)" fill="#40464f"/>
        <path id="Trazado_224035" data-name="Trazado 224035" d="M337.913,270.357a.512.512,0,1,1,.009,0Z" transform="translate(-144.399 -115.242)" fill="#40464f"/>
        <path id="Trazado_224036" data-name="Trazado 224036" d="M340.968,270.357a.511.511,0,1,1,.009,0Z" transform="translate(-145.706 -115.242)" fill="#40464f"/>
        <path id="Trazado_224037" data-name="Trazado 224037" d="M344.024,270.357a.512.512,0,1,1,.009,0Z" transform="translate(-147.014 -115.242)" fill="#40464f"/>
        <path id="Trazado_224038" data-name="Trazado 224038" d="M347.079,270.357a.512.512,0,1,1,.009,0Z" transform="translate(-148.321 -115.242)" fill="#40464f"/>
        <path id="Trazado_224039" data-name="Trazado 224039" d="M350.135,270.357a.511.511,0,1,1,.009,0Z" transform="translate(-149.629 -115.242)" fill="#40464f"/>
        <path id="Trazado_224040" data-name="Trazado 224040" d="M356.487,282.786H332.04a.658.658,0,0,1-.658-.658v-3.94a.658.658,0,0,1,.657-.658h24.447a.657.657,0,0,1,.657.658v3.94a.657.657,0,0,1-.657.657" transform="translate(-141.813 -118.768)" fill="#fff"/>
        <path id="Trazado_224041" data-name="Trazado 224041" d="M334.857,282.258a.512.512,0,1,1,.009,0Z" transform="translate(-143.091 -120.336)" fill="#40464f"/>
        <path id="Trazado_224042" data-name="Trazado 224042" d="M337.913,282.258a.512.512,0,1,1,.009,0Z" transform="translate(-144.399 -120.336)" fill="#40464f"/>
        <path id="Trazado_224043" data-name="Trazado 224043" d="M340.968,282.258a.511.511,0,1,1,.009,0Z" transform="translate(-145.706 -120.336)" fill="#40464f"/>
        <path id="Trazado_224044" data-name="Trazado 224044" d="M361.376,283.851H349.893a.411.411,0,0,1-.411-.411V270.573a.411.411,0,0,1,.411-.41h11.483a.41.41,0,0,1,.411.41V283.44a.411.411,0,0,1-.411.411" transform="translate(-149.559 -115.615)" fill="#d7eaf7"/>
        <rect id="Rectángulo_67362" data-name="Rectángulo 67362" width="3.103" height="3.103" transform="translate(200.95 156.817)" fill="#e7f2fa"/>
        <rect id="Rectángulo_67363" data-name="Rectángulo 67363" width="3.103" height="3.103" transform="translate(204.487 156.817)" fill="#e7f2fa"/>
        <rect id="Rectángulo_67364" data-name="Rectángulo 67364" width="3.103" height="3.103" transform="translate(208.024 156.817)" fill="#e7f2fa"/>
        <rect id="Rectángulo_67365" data-name="Rectángulo 67365" width="3.103" height="3.103" transform="translate(200.95 160.4)" fill="#e7f2fa"/>
        <rect id="Rectángulo_67366" data-name="Rectángulo 67366" width="3.103" height="3.103" transform="translate(204.487 160.4)" fill="#e7f2fa"/>
        <rect id="Rectángulo_67367" data-name="Rectángulo 67367" width="3.103" height="3.103" transform="translate(208.024 160.4)" fill="#e7f2fa"/>
        <rect id="Rectángulo_67368" data-name="Rectángulo 67368" width="3.103" height="3.103" transform="translate(200.95 163.978)" fill="#e7f2fa"/>
        <rect id="Rectángulo_67369" data-name="Rectángulo 67369" width="3.103" height="3.103" transform="translate(204.487 163.978)" fill="#e7f2fa"/>
        <rect id="Rectángulo_67370" data-name="Rectángulo 67370" width="3.103" height="3.103" transform="translate(208.024 163.978)" fill="#fff"/>
        <path id="Trazado_224045" data-name="Trazado 224045" d="M353.809,288.314h0l-.228.123-.034-.135.287-.153h.15v1.311h-.171Z" transform="translate(-151.297 -123.312)" fill="#57a8dd"/>
        <path id="Trazado_224046" data-name="Trazado 224046" d="M359.366,289.443v-.109l.138-.135c.335-.318.486-.488.488-.685a.233.233,0,0,0-.26-.256.445.445,0,0,0-.278.11l-.057-.125a.574.574,0,0,1,.371-.133.369.369,0,0,1,.4.381c0,.242-.175.438-.451.7l-.1.1v0h.588v.147Z" transform="translate(-153.789 -123.295)" fill="#57a8dd"/>
        <path id="Trazado_224047" data-name="Trazado 224047" d="M365.791,289.239a.593.593,0,0,0,.29.083c.228,0,.3-.146.3-.254,0-.184-.167-.263-.338-.263h-.1v-.133h.1c.129,0,.292-.067.292-.222,0-.105-.066-.2-.23-.2a.481.481,0,0,0-.262.087l-.046-.129a.625.625,0,0,1,.343-.1c.258,0,.375.153.375.313a.325.325,0,0,1-.242.308v0a.342.342,0,0,1,.292.337c0,.21-.163.394-.478.394a.666.666,0,0,1-.341-.089Z" transform="translate(-156.518 -123.295)" fill="#57a8dd"/>
        <path id="Trazado_224048" data-name="Trazado 224048" d="M353.839,283.4v-.356h-.609v-.117l.584-.836h.192v.814h.184v.14h-.184v.356Zm0-.5v-.438c0-.068,0-.137.006-.205h-.006c-.041.077-.073.133-.109.193l-.32.446v0Z" transform="translate(-151.163 -120.719)" fill="#57a8dd"/>
        <path id="Trazado_224049" data-name="Trazado 224049" d="M360.143,282.238h-.5l-.05.337a.7.7,0,0,1,.107-.009.552.552,0,0,1,.282.071.374.374,0,0,1,.188.337.455.455,0,0,1-.488.447.645.645,0,0,1-.327-.081l.045-.135a.589.589,0,0,0,.28.073.289.289,0,0,0,.31-.284c0-.169-.115-.291-.377-.291a1.317,1.317,0,0,0-.181.014l.085-.629h.627Z" transform="translate(-153.784 -120.719)" fill="#57a8dd"/>
        <path id="Trazado_224050" data-name="Trazado 224050" d="M366.484,282.2a.6.6,0,0,0-.133.009.533.533,0,0,0-.455.466h.006a.4.4,0,0,1,.712.272.438.438,0,0,1-.435.462c-.28,0-.464-.218-.464-.559a.823.823,0,0,1,.222-.59.708.708,0,0,1,.419-.194.86.86,0,0,1,.129-.01Zm-.05.756a.267.267,0,0,0-.271-.3.292.292,0,0,0-.254.161.151.151,0,0,0-.021.078c.005.216.1.375.289.375.153,0,.256-.128.256-.315" transform="translate(-156.506 -120.703)" fill="#57a8dd"/>
        <path id="Trazado_224051" data-name="Trazado 224051" d="M354.2,275.982v.117l-.571,1.194h-.183l.569-1.16v0h-.641v-.147Z" transform="translate(-151.226 -118.105)" fill="#57a8dd"/>
        <path id="Trazado_224052" data-name="Trazado 224052" d="M359.337,276.943a.375.375,0,0,1,.26-.351l0-.006a.324.324,0,0,1-.208-.295.367.367,0,0,1,.405-.349.339.339,0,0,1,.382.323.333.333,0,0,1-.216.306v.006a.363.363,0,0,1,.264.339.4.4,0,0,1-.446.381c-.274,0-.439-.164-.439-.355m.705-.009c0-.159-.111-.236-.288-.286a.285.285,0,0,0-.236.271.242.242,0,0,0,.262.249.237.237,0,0,0,.262-.234m-.488-.655c0,.131.1.2.251.242a.258.258,0,0,0,.2-.238.2.2,0,0,0-.221-.214.209.209,0,0,0-.228.21" transform="translate(-153.777 -118.088)" fill="#57a8dd"/>
        <path id="Trazado_224053" data-name="Trazado 224053" d="M365.85,277.151a.718.718,0,0,0,.143-.006.5.5,0,0,0,.275-.127.578.578,0,0,0,.173-.349h-.006a.385.385,0,0,1-.308.141.38.38,0,0,1-.387-.4.45.45,0,0,1,.448-.466c.268,0,.434.218.434.553a.83.83,0,0,1-.226.615.652.652,0,0,1-.382.175.789.789,0,0,1-.163.01Zm.065-.754a.252.252,0,0,0,.252.279.294.294,0,0,0,.258-.137.122.122,0,0,0,.016-.065c0-.224-.083-.4-.268-.4-.151,0-.258.133-.258.319" transform="translate(-156.516 -118.089)" fill="#57a8dd"/>
        <rect id="Rectángulo_67371" data-name="Rectángulo 67371" width="5.126" height="0.164" transform="translate(200.95 155.424)" fill="#e7f2fa"/>
        <rect id="Rectángulo_67372" data-name="Rectángulo 67372" width="2.975" height="0.164" transform="translate(200.949 155.772)" fill="#e7f2fa"/>
        <path id="Trazado_224054" data-name="Trazado 224054" d="M368.07,272.266h-.9a.131.131,0,0,1-.131-.131v-.72a.131.131,0,0,1,.131-.131h.9a.131.131,0,0,1,.131.131v.72a.131.131,0,0,1-.131.131" transform="translate(-157.074 -116.095)" fill="#9acbeb"/>
        <path id="Trazado_224055" data-name="Trazado 224055" d="M368.115,272.219h-.094l-.192-.269-.2.269h-.088l.237-.32-.221-.293h.092l.177.243.178-.243h.089l-.221.291Z" transform="translate(-157.289 -116.233)" fill="#fff"/>
        <path id="Trazado_224056" data-name="Trazado 224056" d="M307.737,284.079l2.839.086-.311,4.474-2.841-.239Z" transform="translate(-131.56 -121.57)" fill="#ffc7ac"/>
        <path id="Trazado_224057" data-name="Trazado 224057" d="M313.888,278.253c0,.026-.615.037-.616.063-.1,1.834-.668,3.083-3.354,2.931a3.193,3.193,0,0,1-2.744-3.531c.011-.266.024-3.69.084-3.935l1.278-.951,2.414-.542,1.886.632a2.767,2.767,0,0,1,.709,1.97,8.963,8.963,0,0,0,.162,1.976c.1.682.185,1.29.181,1.386" transform="translate(-131.452 -116.525)" fill="#ffc7ac"/>
        <path id="Trazado_224058" data-name="Trazado 224058" d="M307.249,278.029a1.105,1.105,0,0,1-.95-.176,1.78,1.78,0,0,1-.46-.748,3.765,3.765,0,0,1-.074-.922c-.037-1.388-.991-1.581-.848-2.678a5.047,5.047,0,0,1,.355-1.567c.277-.482,1.264-.5,1.508-.792.178-.211-.169-.773.3-1.1a2.865,2.865,0,0,1,1.467-.545c1.157.023,1.45.775,2.038.336a1.765,1.765,0,0,1,1.523-.017c.556.189.436.609.522.7.16.172.744.158.807.495a1.4,1.4,0,0,1-.635,1.309,10.834,10.834,0,0,1-2.606.761c.007.291-.031.744-.037,1.192,0,.086-.236.193-.237.279-.006.529-.046.969-.037,1.218l-.366.1s-.062-.655-.237-.738c-.152-.072-.513.118-.625.244a1.65,1.65,0,0,0-.216.829,4.594,4.594,0,0,1-.225,1.061,1.059,1.059,0,0,1-.972.757" transform="translate(-130.482 -115.33)" fill="#2c3b53"/>
        <path id="Trazado_224059" data-name="Trazado 224059" d="M312.682,283.558l.449-1.609-.279-1.378.366-.1.568,1.506,1.88-.12c-.1,1.816-.382,2.88-2.609,2.9Z" transform="translate(-133.811 -120.025)" fill="#d89274"/>
        <path id="Trazado_224060" data-name="Trazado 224060" d="M293.7,338.1l.371,1.371.075,1.143-.044.013-.412-.093-.169-.317-.05-.5-.251-.5-.1.115.051.879.782.894-.035.245-.605.167-1.455-.5-.646-1.368-.1-.5.061-1.749-.1-2.432,1.793-.118.11,2.42Z" transform="translate(-124.565 -143.3)" fill="#ffc7ac"/>
        <path id="Trazado_224061" data-name="Trazado 224061" d="M296.966,294.241a2.971,2.971,0,0,1,.152,2.674c-.525,1.556-3.5,9.073-4.073,11.231-.241.906-.336,10.423-.336,10.423l-2.694.219s-.656-8.795-.5-10.68c.186-2.285,2.972-13.233,3.892-14.279,1.165-1.326,3.112-.394,3.561.411" transform="translate(-123.886 -125.458)" fill="#faa634"/>
        <path id="Trazado_224062" data-name="Trazado 224062" d="M304.81,290.929l5.472,1.22c1.325.474,1.637,1.143,1.638,2.865l-.826,10.93.227,9.079.148,1.833-.38.561-.089.951H296.3l.072-.979-.387-.693.058-1.212.12-7.412-.161-6.9-.78-5.749c0-1.235.287-3.313,2.052-3.861a46.424,46.424,0,0,1,4.637-.671l1.5.089Z" transform="translate(-126.341 -124.485)" fill="#faa634"/>
        <path id="Trazado_224063" data-name="Trazado 224063" d="M310.233,290.712l-.2-.663-3.142-.471-.412.825Z" transform="translate(-131.158 -123.924)" fill="#fff"/>
        <path id="Trazado_224064" data-name="Trazado 224064" d="M359.606,292.842l.057-1.351.88-.449-.061-.4-1.236.474-1,.381-.041,0,.116-.085.316-.106.3-.1.108-.274-.026-.018-1.073.126-.911.557-.525.867-2.74,1.849,1.26,1.625,2.674-1.942,1.067-.508Z" transform="translate(-151.392 -124.381)" fill="#ffc7ac"/>
        <path id="Trazado_224065" data-name="Trazado 224065" d="M318.28,294.392a1.93,1.93,0,0,1,2.455-1.145c1.6.354,8,5.165,9.984,5.351.912.086,9.79-4.685,9.79-4.685l1.367,2.3s-8.158,6.192-11.41,6.2c-3.227,0-9.314-3.481-10.6-4.275-1.5-.929-2.038-2.942-1.589-3.748" transform="translate(-136.141 -125.458)" fill="#faa634"/>
        <path id="Trazado_224066" data-name="Trazado 224066" d="M315.5,425.357h-.084l-.019.419h-2.007l.055-.555h.065l0-.006.174-2.04h2.083l.045.269.794.705,3.043.871s.24.1.235.236l-.009.24-.005.145s-.037.064-.285.136H316.1l-.211-.281-.2-.129Z" transform="translate(-134.115 -181.095)" fill="#3b4f6f"/>
        <path id="Trazado_224067" data-name="Trazado 224067" d="M291.713,427.41h.7v-.419h-.673Z" transform="translate(-124.837 -182.729)" fill="#324666"/>
        <path id="Trazado_224068" data-name="Trazado 224068" d="M291.218,425.357l.018.419H293.5l-.055-.555h-.066l0-.006-.006-2.04h-2.084l-.044.269-.854.753-1.189.823s-.24.1-.235.236l.009.24.005.145s.037.064.285.136h1.269l.211-.281.205-.129Z" transform="translate(-123.664 -181.095)" fill="#3b4f6f"/>
        <path id="Trazado_224069" data-name="Trazado 224069" d="M293.586,366.019l-1.525,20.5,3.261.212,3.395-20.27,3.609-22.148.375.163.727,21.485.626,20.663H307.5l.927-20.092,1.514-24.317v-5.044H294.886l-.024,2.415Z" transform="translate(-124.986 -144.289)" fill="#7b85e7"/>
      </g>
    </g>
  </g>
</svg>
