<svg xmlns="http://www.w3.org/2000/svg" xmlns:xlink="http://www.w3.org/1999/xlink" width="194" height="232.532" viewBox="0 0 194 232.532">
  <defs>
    <linearGradient id="linear-gradient" x1="1.094" y1="0.5" x2="0.173" y2="0.5" gradientUnits="objectBoundingBox">
      <stop offset="0" stop-color="#20003f"/>
      <stop offset="0.344" stop-color="#3c216e"/>
      <stop offset="0.366" stop-color="#402371"/>
      <stop offset="0.388" stop-color="#4d297b"/>
      <stop offset="0.412" stop-color="#62348b"/>
      <stop offset="0.436" stop-color="#8042a1"/>
      <stop offset="0.46" stop-color="#a555be"/>
      <stop offset="0.468" stop-color="#b45cc9"/>
      <stop offset="0.475" stop-color="#ba67ce"/>
      <stop offset="0.488" stop-color="#cc85db"/>
      <stop offset="0.505" stop-color="#e7b4f0"/>
      <stop offset="0.516" stop-color="#fbd6ff"/>
      <stop offset="0.541" stop-color="#fbb0ff"/>
      <stop offset="0.57" stop-color="#fc7fff"/>
      <stop offset="0.572" stop-color="#f67cfa"/>
      <stop offset="0.59" stop-color="#c667d6"/>
      <stop offset="0.609" stop-color="#9c54b6"/>
      <stop offset="0.628" stop-color="#7b459c"/>
      <stop offset="0.648" stop-color="#603988"/>
      <stop offset="0.668" stop-color="#4e317a"/>
      <stop offset="0.688" stop-color="#432c72"/>
      <stop offset="0.711" stop-color="#3f2a6f"/>
      <stop offset="1" stop-color="#230045"/>
    </linearGradient>
    <linearGradient id="linear-gradient-2" x1="0.018" y1="0.42" x2="0.992" y2="0.667" gradientUnits="objectBoundingBox">
      <stop offset="0"/>
      <stop offset="0.161" stop-color="#4f2f5a"/>
      <stop offset="0.301" stop-color="#8d55a0"/>
      <stop offset="0.417" stop-color="#ba70d4"/>
      <stop offset="0.505" stop-color="#d681f3"/>
      <stop offset="0.553" stop-color="#e087ff"/>
      <stop offset="0.591" stop-color="#d983f7"/>
      <stop offset="0.651" stop-color="#c677e1"/>
      <stop offset="0.724" stop-color="#a664bd"/>
      <stop offset="0.808" stop-color="#7b4a8c"/>
      <stop offset="0.901" stop-color="#43284c"/>
      <stop offset="1"/>
    </linearGradient>
    <linearGradient id="linear-gradient-3" x1="0.174" y1="0.752" x2="0.645" y2="0.394" gradientUnits="objectBoundingBox">
      <stop offset="0" stop-color="#6620ad"/>
      <stop offset="0.136" stop-color="#621fa7"/>
      <stop offset="0.323" stop-color="#571a95"/>
      <stop offset="0.539" stop-color="#451478"/>
      <stop offset="0.774" stop-color="#2c0a50"/>
      <stop offset="1" stop-color="#100023"/>
    </linearGradient>
    <linearGradient id="linear-gradient-4" x1="0.791" y1="1.061" x2="0.278" y2="0.038" gradientUnits="objectBoundingBox">
      <stop offset="0" stop-color="#05000a"/>
      <stop offset="0.344" stop-color="#3c216e"/>
      <stop offset="0.366" stop-color="#402371"/>
      <stop offset="0.388" stop-color="#4d297b"/>
      <stop offset="0.412" stop-color="#62348b"/>
      <stop offset="0.436" stop-color="#8042a1"/>
      <stop offset="0.46" stop-color="#a555be"/>
      <stop offset="0.468" stop-color="#b45cc9"/>
      <stop offset="0.475" stop-color="#ba67ce"/>
      <stop offset="0.488" stop-color="#cc85db"/>
      <stop offset="0.505" stop-color="#e7b4f0"/>
      <stop offset="0.516" stop-color="#fbd6ff"/>
      <stop offset="0.541" stop-color="#fbb0ff"/>
      <stop offset="0.57" stop-color="#fc7fff"/>
      <stop offset="0.572" stop-color="#f67cfa"/>
      <stop offset="0.59" stop-color="#c667d6"/>
      <stop offset="0.609" stop-color="#9c54b6"/>
      <stop offset="0.628" stop-color="#7b459c"/>
      <stop offset="0.648" stop-color="#603988"/>
      <stop offset="0.668" stop-color="#4e317a"/>
      <stop offset="0.688" stop-color="#432c72"/>
      <stop offset="0.711" stop-color="#3f2a6f"/>
      <stop offset="1" stop-color="#24093d"/>
    </linearGradient>
    <linearGradient id="linear-gradient-5" x1="1.093" y1="0.958" x2="0.389" y2="0.089" gradientUnits="objectBoundingBox">
      <stop offset="0"/>
      <stop offset="0.494" stop-color="#e087ff"/>
      <stop offset="1"/>
    </linearGradient>
    <linearGradient id="linear-gradient-6" x1="0.007" y1="0.583" x2="1.045" y2="0.409" gradientUnits="objectBoundingBox">
      <stop offset="0" stop-color="#5b0082"/>
      <stop offset="1" stop-color="#120026"/>
    </linearGradient>
    <linearGradient id="linear-gradient-7" x1="0.837" y1="1.019" x2="0.242" y2="0.102" gradientUnits="objectBoundingBox">
      <stop offset="0.001" stop-color="#511b98"/>
      <stop offset="0.233" stop-color="#5b1b9b"/>
      <stop offset="0.626" stop-color="#761ba4"/>
      <stop offset="0.999" stop-color="#951bae"/>
    </linearGradient>
    <linearGradient id="linear-gradient-8" x1="1.113" y1="0.937" x2="0.296" y2="-0.015" gradientUnits="objectBoundingBox">
      <stop offset="0" stop-color="#fff"/>
      <stop offset="0.507" stop-color="#5c0063"/>
      <stop offset="1" stop-color="#fff"/>
    </linearGradient>
    <linearGradient id="linear-gradient-10" x1="22.67" y1="-60.942" x2="22.67" y2="-62.894" gradientUnits="objectBoundingBox">
      <stop offset="0"/>
      <stop offset="0.556" stop-color="#bb8aff"/>
      <stop offset="1" stop-color="#0b080f"/>
    </linearGradient>
    <linearGradient id="linear-gradient-11" x1="40.777" y1="74.82" x2="40.777" y2="72.868" xlink:href="#linear-gradient-10"/>
    <linearGradient id="linear-gradient-12" x1="20.284" y1="-71.318" x2="20.284" y2="-73.27" xlink:href="#linear-gradient-10"/>
    <linearGradient id="linear-gradient-13" x1="-17.989" y1="81.487" x2="-16.834" y2="81.487" gradientUnits="objectBoundingBox">
      <stop offset="0" stop-color="#a05652"/>
      <stop offset="0.188" stop-color="#a45a52"/>
      <stop offset="0.385" stop-color="#af6752"/>
      <stop offset="0.585" stop-color="#c27c53"/>
      <stop offset="0.788" stop-color="#dc9953"/>
      <stop offset="0.991" stop-color="#fdbe54"/>
      <stop offset="1" stop-color="#ffc054"/>
    </linearGradient>
    <linearGradient id="linear-gradient-14" x1="-17.989" y1="81.416" x2="-16.834" y2="81.416" xlink:href="#linear-gradient-13"/>
    <linearGradient id="linear-gradient-15" x1="-17.989" y1="81.346" x2="-16.834" y2="81.346" xlink:href="#linear-gradient-13"/>
    <linearGradient id="linear-gradient-16" x1="-17.989" y1="81.276" x2="-16.834" y2="81.276" xlink:href="#linear-gradient-13"/>
    <linearGradient id="linear-gradient-17" x1="0.5" y1="0.189" x2="0.5" y2="0.841" gradientUnits="objectBoundingBox">
      <stop offset="0" stop-color="#ffed61"/>
      <stop offset="1" stop-color="#ffa200"/>
    </linearGradient>
    <linearGradient id="linear-gradient-18" x1="0.358" y1="0.692" x2="0.646" y2="0.303" gradientUnits="objectBoundingBox">
      <stop offset="0" stop-color="#edad3e"/>
      <stop offset="1" stop-color="#fff"/>
    </linearGradient>
    <linearGradient id="linear-gradient-19" x1="0.619" y1="0.275" x2="0.296" y2="0.86" gradientUnits="objectBoundingBox">
      <stop offset="0" stop-color="#ffed61"/>
      <stop offset="1" stop-color="#ffba00"/>
    </linearGradient>
    <radialGradient id="radial-gradient" cx="0.5" cy="0.5" r="0.298" gradientTransform="translate(-0.338 -1.348) scale(1.675 1.676)" gradientUnits="objectBoundingBox">
      <stop offset="0" stop-color="#ed8181"/>
      <stop offset="0.023" stop-color="#e88"/>
      <stop offset="0.153" stop-color="#f3acac"/>
      <stop offset="0.291" stop-color="#f6c9c9"/>
      <stop offset="0.436" stop-color="#f9e0e0"/>
      <stop offset="0.593" stop-color="#fbf0f0"/>
      <stop offset="0.768" stop-color="#fdfafa"/>
      <stop offset="1" stop-color="#fdfdfd"/>
    </radialGradient>
    <linearGradient id="linear-gradient-20" x1="0.509" y1="0.049" x2="0.467" y2="0.987" xlink:href="#linear-gradient-17"/>
    <linearGradient id="linear-gradient-21" x1="-4.789" y1="12.153" x2="-4.8" y2="12.981" xlink:href="#linear-gradient-19"/>
  </defs>
  <g id="laptop77_Convertido_" data-name="laptop77 [Convertido]" transform="translate(-233.03 -11.72)">
    <path id="Trazado_208420" data-name="Trazado 208420" d="M376.27,195.894,346.6,178.778a7.594,7.594,0,0,0-6.6-.479l-49.994,11.709H282.94v3.177h.01a4.362,4.362,0,0,0,2.21,3.93l53.721,30.832a8.735,8.735,0,0,0,9.744-.682l28.459-22.238C381.045,201.943,380.617,198.4,376.27,195.894Z" transform="translate(0.909 3.024)" fill="url(#linear-gradient)"/>
    <g id="Grupo_199636" data-name="Grupo 199636" transform="translate(285.845 196.292)">
      <path id="Trazado_208421" data-name="Trazado 208421" d="M343.223,225.878a9.139,9.139,0,0,1-4.6-1.242L284.9,193.8l.468-.815,53.721,30.832a8.256,8.256,0,0,0,9.225-.641l28.459-22.238.58.733-28.459,22.238A9.2,9.2,0,0,1,343.223,225.878Z" transform="translate(-284.9 -192.99)" fill="url(#linear-gradient-2)"/>
    </g>
    <path id="Trazado_208422" data-name="Trazado 208422" d="M376.27,189.994,346.6,172.878a7.594,7.594,0,0,0-6.6-.479l-54.261,13.41a4.439,4.439,0,0,0-.58,7.973l53.721,30.842a8.735,8.735,0,0,0,9.744-.682L377.084,201.7A7.075,7.075,0,0,0,376.27,189.994Z" transform="translate(0.909 2.917)" fill="url(#linear-gradient-3)"/>
    <path id="Trazado_208423" data-name="Trazado 208423" d="M400.674,93.093,280.413,23.66a6.787,6.787,0,0,0-5.081-.988l-.01-.01-.173.061c-.1.031-.2.061-.305.1l-6.313,2.036,2.882,1.7a12.909,12.909,0,0,0-.723,4.46v96.089c0,7.138,4.378,15.5,9.724,18.593l118.062,68.159,1.436,4.114,6.13-1.9h0c2.627-.815,4.368-3.788,4.368-8.278V111.706C410.4,104.547,406.02,96.178,400.674,93.093Z" transform="translate(0.647 0.197)" fill="url(#linear-gradient-4)"/>
    <g id="Grupo_199637" data-name="Grupo 199637" transform="translate(274.105 25.415)">
      <path id="Trazado_208424" data-name="Trazado 208424" d="M404.058,209.691h-.937V113.6c0-7.005-4.256-15.161-9.49-18.185L273.37,25.985l.468-.815L394.1,94.6c5.5,3.177,9.958,11.689,9.958,18.99Z" transform="translate(-273.37 -25.17)" fill="url(#linear-gradient-5)"/>
    </g>
    <path id="Trazado_208425" data-name="Trazado 208425" d="M393.855,95.273,273.594,25.841c-5.356-3.085-9.724.224-9.724,7.352v96.089c0,7.138,4.378,15.5,9.724,18.593l120.261,69.432c5.356,3.085,9.724-.224,9.724-7.352V113.865C403.579,106.728,399.2,98.368,393.855,95.273Z" transform="translate(0.562 0.236)" fill="url(#linear-gradient-6)"/>
    <path id="Trazado_208426" data-name="Trazado 208426" d="M397.627,214.652a4.269,4.269,0,0,1-1.965-.652L275.4,144.569c-4.185-2.413-7.861-9.592-7.861-15.344V33.135c0-2.3.672-4.765,2.148-4.765a4.27,4.27,0,0,1,1.965.652L391.915,98.454c4.185,2.413,7.861,9.592,7.861,15.344v96.089a7.387,7.387,0,0,1-.957,4.083A1.341,1.341,0,0,1,397.627,214.652Z" transform="translate(0.629 0.303)" fill="url(#linear-gradient-7)"/>
    <g id="Grupo_199638" data-name="Grupo 199638" transform="translate(271.661 29.142)">
      <path id="Trazado_208427" data-name="Trazado 208427" d="M399.784,210.113h-.937V114.024c0-5.61-3.564-12.6-7.626-14.937L270.97,29.645l.468-.815L391.7,98.262c4.307,2.484,8.095,9.846,8.095,15.752v96.1Z" transform="translate(-270.97 -28.83)" fill="url(#linear-gradient-8)"/>
    </g>
    <g id="Grupo_199640" data-name="Grupo 199640" transform="translate(296.343 11.72)">
      <path id="Trazado_208428" data-name="Trazado 208428" d="M425.9,196.241h-.937V100.152c0-7.005-4.256-15.161-9.49-18.185L295.21,12.535l.468-.815L415.94,81.152c5.5,3.177,9.958,11.689,9.958,18.99v96.1Z" transform="translate(-295.21 -11.72)" fill="url(#linear-gradient-5)"/>
    </g>
    <g id="Grupo_199641" data-name="Grupo 199641" transform="translate(339.79 20.786)">
      <path id="Trazado_208429" data-name="Trazado 208429" d="M379.6,45.841a1.327,1.327,0,0,1-.591-1.039h0c0-.387.265-.54.591-.356h0a1.327,1.327,0,0,1,.591,1.039h0C380.187,45.872,379.922,46.024,379.6,45.841Zm3.655,2.108a1.327,1.327,0,0,1-.591-1.039h0c0-.387.265-.54.591-.356h0a1.311,1.311,0,0,1,.591,1.039h0C383.842,47.979,383.578,48.132,383.252,47.949Zm3.462,2a1.327,1.327,0,0,1-.591-1.039h0c0-.387.265-.54.591-.356h0a1.327,1.327,0,0,1,.591,1.039h0C387.3,49.975,387.039,50.138,386.714,49.944ZM376.43,44.008a1.327,1.327,0,0,1-.591-1.039h0c0-.387.265-.54.591-.356h0a1.311,1.311,0,0,1,.591,1.039h0C377.03,44.039,376.755,44.2,376.43,44.008Zm-3.156-1.823a1.327,1.327,0,0,1-.591-1.039h0c0-.387.265-.54.591-.356h0a1.327,1.327,0,0,1,.591,1.039h0C373.864,42.216,373.6,42.369,373.273,42.186Zm-3.167-1.833a1.327,1.327,0,0,1-.591-1.039h0c0-.387.265-.54.591-.356h0A1.327,1.327,0,0,1,370.7,40h0C370.7,40.394,370.432,40.546,370.107,40.353ZM366.94,38.53a1.327,1.327,0,0,1-.591-1.039h0c0-.387.265-.54.591-.356h0a1.311,1.311,0,0,1,.591,1.039h0C367.541,38.561,367.266,38.714,366.94,38.53Zm-3.156-1.823a1.327,1.327,0,0,1-.591-1.039h0c0-.387.265-.54.591-.356h0a1.311,1.311,0,0,1,.591,1.039h0C364.374,36.738,364.1,36.891,363.783,36.708Zm-3.167-1.833a1.327,1.327,0,0,1-.591-1.039h0c0-.387.265-.54.591-.356h0a1.327,1.327,0,0,1,.591,1.039h0C361.207,34.905,360.943,35.068,360.617,34.875Zm-3.167-1.823a1.327,1.327,0,0,1-.591-1.039h0c0-.387.265-.54.591-.356h0a1.327,1.327,0,0,1,.591,1.039h0C358.041,33.083,357.776,33.236,357.45,33.052Zm-3.167-1.833a1.327,1.327,0,0,1-.591-1.039h0c0-.387.265-.54.591-.356h0a1.311,1.311,0,0,1,.591,1.039h0C354.884,31.26,354.609,31.413,354.283,31.22ZM351.127,29.4a1.327,1.327,0,0,1-.591-1.039h0c0-.387.265-.54.591-.356h0a1.327,1.327,0,0,1,.591,1.039h0C351.718,29.427,351.453,29.59,351.127,29.4Zm-3.167-1.823a1.327,1.327,0,0,1-.591-1.039h0c0-.387.265-.54.591-.356h0a1.327,1.327,0,0,1,.591,1.039h0C348.551,27.6,348.286,27.758,347.96,27.574Zm-3.167-1.833A1.327,1.327,0,0,1,344.2,24.7h0c0-.387.265-.54.591-.356h0a1.311,1.311,0,0,1,.591,1.039h0C345.394,25.772,345.12,25.935,344.794,25.742Zm-3.156-1.823a1.327,1.327,0,0,1-.591-1.039h0c0-.387.265-.54.591-.356h0a1.311,1.311,0,0,1,.591,1.039h0C342.228,23.949,341.953,24.1,341.637,23.919ZM338.471,22.1a1.327,1.327,0,0,1-.591-1.039h0c0-.387.265-.54.591-.356h0a1.327,1.327,0,0,1,.591,1.039h0C339.061,22.127,338.8,22.28,338.471,22.1Z" transform="translate(-337.88 -20.624)" fill="url(#linear-gradient-10)"/>
    </g>
    <g id="Grupo_199642" data-name="Grupo 199642" transform="translate(233.03 136.506)">
      <path id="Trazado_208430" data-name="Trazado 208430" d="M240.972,138.587a1.36,1.36,0,0,1,.611,1.069h0c0,.4-.275.56-.611.367h0a1.36,1.36,0,0,1-.611-1.069h0C240.361,138.557,240.636,138.394,240.972,138.587Zm-3.767-2.169a1.36,1.36,0,0,1,.611,1.069h0c0,.4-.275.56-.611.367h0a1.36,1.36,0,0,1-.611-1.069h0C236.594,136.388,236.869,136.225,237.2,136.418Zm-3.564-2.057a1.36,1.36,0,0,1,.611,1.069h0c0,.4-.275.56-.611.367h0a1.36,1.36,0,0,1-.611-1.069h0C233.03,134.321,233.3,134.158,233.641,134.362Zm10.589,6.109a1.36,1.36,0,0,1,.611,1.069h0c0,.4-.275.56-.611.367h0a1.36,1.36,0,0,1-.611-1.069h0C243.619,140.44,243.894,140.277,244.23,140.471Zm3.268,1.884a1.36,1.36,0,0,1,.611,1.069h0c0,.4-.275.56-.611.367h0a1.36,1.36,0,0,1-.611-1.069h0C246.888,142.324,247.153,142.161,247.5,142.355Zm3.258,1.884a1.36,1.36,0,0,1,.611,1.069h0c0,.4-.275.56-.611.367h0a1.36,1.36,0,0,1-.611-1.069h0C250.146,144.208,250.421,144.045,250.757,144.238Zm3.258,1.884a1.36,1.36,0,0,1,.611,1.069h0c0,.4-.275.56-.611.367h0a1.36,1.36,0,0,1-.611-1.069h0C253.4,146.091,253.679,145.928,254.015,146.122Zm3.258,1.884a1.36,1.36,0,0,1,.611,1.069h0c0,.4-.275.56-.611.367h0a1.36,1.36,0,0,1-.611-1.069h0C256.663,147.975,256.948,147.812,257.274,148.006Zm3.268,1.884a1.36,1.36,0,0,1,.611,1.069h0c0,.4-.275.56-.611.367h0a1.361,1.361,0,0,1-.611-1.069h0C259.931,149.859,260.206,149.7,260.542,149.889Zm3.258,1.884a1.36,1.36,0,0,1,.611,1.069h0c0,.4-.275.56-.611.367h0a1.36,1.36,0,0,1-.611-1.069h0C263.19,151.742,263.464,151.58,263.8,151.773Zm3.258,1.884a1.36,1.36,0,0,1,.611,1.069h0c0,.4-.275.56-.611.367h0a1.36,1.36,0,0,1-.611-1.069h0C266.448,153.616,266.733,153.463,267.059,153.657Zm3.268,1.884a1.36,1.36,0,0,1,.611,1.069h0c0,.4-.275.56-.611.367h0a1.36,1.36,0,0,1-.611-1.069h0C269.716,155.5,269.981,155.337,270.327,155.54Zm3.258,1.884a1.36,1.36,0,0,1,.611,1.069h0c0,.4-.275.56-.611.367h0a1.36,1.36,0,0,1-.611-1.069h0C272.975,157.383,273.249,157.22,273.585,157.424Zm3.258,1.874a1.36,1.36,0,0,1,.611,1.069h0c0,.4-.275.56-.611.367h0a1.36,1.36,0,0,1-.611-1.069h0C276.233,159.267,276.508,159.1,276.844,159.3Zm3.268,1.884a1.36,1.36,0,0,1,.611,1.069h0c0,.4-.275.56-.611.367h0a1.36,1.36,0,0,1-.611-1.069h0C279.5,161.151,279.776,160.988,280.112,161.181Zm3.258,1.884a1.36,1.36,0,0,1,.611,1.069h0c0,.4-.275.56-.611.367h0a1.36,1.36,0,0,1-.611-1.069h0C282.76,163.035,283.035,162.872,283.371,163.065Z" transform="translate(-233.03 -134.274)" fill="url(#linear-gradient-11)"/>
    </g>
    <g id="Grupo_199643" data-name="Grupo 199643" transform="translate(371.192 216.833)">
      <path id="Trazado_208431" data-name="Trazado 208431" d="M407.636,236.681a1.225,1.225,0,0,1-.55-.967h0c0-.356.244-.509.55-.326h0a1.226,1.226,0,0,1,.55.967h0C408.186,236.711,407.942,236.854,407.636,236.681Zm3.411,1.965a1.226,1.226,0,0,1-.55-.967h0c0-.356.244-.509.55-.326h0a1.226,1.226,0,0,1,.55.967h0C411.6,238.676,411.342,238.819,411.047,238.646Zm3.218,1.863a1.225,1.225,0,0,1-.55-.967h0c0-.356.244-.509.55-.326h0a1.225,1.225,0,0,1,.55.967h0C414.825,240.54,414.58,240.682,414.265,240.509Zm-9.581-5.539a1.226,1.226,0,0,1-.55-.967h0c0-.356.244-.509.55-.326h0a1.226,1.226,0,0,1,.55.967h0C405.233,235,404.989,235.153,404.683,234.97Zm-2.953-1.7a1.226,1.226,0,0,1-.55-.967h0c0-.356.244-.509.55-.326h0a1.225,1.225,0,0,1,.55.967h0C402.291,233.3,402.036,233.443,401.731,233.27Zm-2.943-1.7a1.225,1.225,0,0,1-.55-.967h0c0-.356.244-.509.55-.326h0a1.226,1.226,0,0,1,.55.967h0C399.338,231.6,399.093,231.742,398.788,231.569Zm-2.953-1.711a1.226,1.226,0,0,1-.55-.967h0c0-.356.244-.509.55-.326h0a1.226,1.226,0,0,1,.55.967h0C396.385,229.889,396.13,230.042,395.835,229.859Zm-2.953-1.7a1.226,1.226,0,0,1-.55-.967h0c0-.356.244-.509.55-.326h0a1.226,1.226,0,0,1,.55.967h0C393.432,228.189,393.188,228.331,392.882,228.158Zm-2.953-1.7a1.225,1.225,0,0,1-.55-.967h0c0-.356.244-.509.55-.326h0a1.225,1.225,0,0,1,.55.967h0C390.479,226.488,390.235,226.631,389.929,226.458Zm-2.953-1.711a1.226,1.226,0,0,1-.55-.967h0c0-.356.244-.509.55-.326h0a1.226,1.226,0,0,1,.55.967h0C387.537,224.778,387.282,224.931,386.977,224.747Zm-2.953-1.7a1.226,1.226,0,0,1-.55-.967h0c0-.356.244-.509.55-.326h0a1.226,1.226,0,0,1,.55.967h0C384.584,223.077,384.329,223.22,384.024,223.047Zm-2.943-1.7a1.226,1.226,0,0,1-.55-.967h0c0-.356.244-.509.55-.326h0a1.226,1.226,0,0,1,.55.967h0C381.631,221.377,381.387,221.519,381.081,221.346Zm-2.953-1.7a1.226,1.226,0,0,1-.55-.967h0c0-.356.244-.509.55-.326h0a1.225,1.225,0,0,1,.55.967h0C378.678,219.666,378.434,219.819,378.128,219.646Zm-2.953-1.711a1.226,1.226,0,0,1-.55-.967h0c0-.356.244-.509.55-.326h0a1.226,1.226,0,0,1,.55.967h0C375.725,217.966,375.481,218.108,375.175,217.935Zm-2.953-1.7a1.226,1.226,0,0,1-.55-.967h0c0-.356.244-.509.55-.326h0a1.225,1.225,0,0,1,.55.967h0C372.783,216.266,372.528,216.408,372.223,216.235Zm-2.953-1.7a1.225,1.225,0,0,1-.55-.967h0c0-.356.244-.509.55-.326h0a1.226,1.226,0,0,1,.55.967h0C369.83,214.555,369.575,214.708,369.27,214.535Z" transform="translate(-368.72 -213.163)" fill="url(#linear-gradient-12)"/>
    </g>
    <g id="Grupo_199644" data-name="Grupo 199644" transform="translate(251.602 38.588)">
      <path id="Trazado_208432" data-name="Trazado 208432" d="M279.139,52.192,255.832,38.731c-2.515-1.456-4.562-.275-4.562,2.627V81.9a10.047,10.047,0,0,0,4.562,7.891l23.307,13.461c2.515,1.456,4.562.275,4.562-2.627V60.083A10.09,10.09,0,0,0,279.139,52.192Z" transform="translate(-251.27 -38.107)" fill="#7800e9"/>
      <path id="Trazado_208433" data-name="Trazado 208433" d="M278.142,58.722l-17.269-9.968c-.723-.417-1.3-.081-1.3.753a2.875,2.875,0,0,0,1.3,2.26l17.269,9.968c.723.417,1.3.081,1.3-.753A2.864,2.864,0,0,0,278.142,58.722Z" transform="translate(-251.119 -37.917)" fill="url(#linear-gradient-13)"/>
      <path id="Trazado_208434" data-name="Trazado 208434" d="M258.488,48.893c0,1.385-.977,1.955-2.179,1.252a4.813,4.813,0,0,1-2.179-3.767c0-1.385.978-1.955,2.179-1.252A4.813,4.813,0,0,1,258.488,48.893Z" transform="translate(-251.218 -37.985)" fill="#0581d9"/>
      <path id="Trazado_208435" data-name="Trazado 208435" d="M278.142,65.582l-17.269-9.968c-.723-.417-1.3-.081-1.3.753a2.875,2.875,0,0,0,1.3,2.26L278.142,68.6c.723.417,1.3.081,1.3-.753A2.848,2.848,0,0,0,278.142,65.582Z" transform="translate(-251.119 -37.792)" fill="url(#linear-gradient-14)"/>
      <path id="Trazado_208436" data-name="Trazado 208436" d="M258.488,55.753c0,1.385-.977,1.955-2.179,1.252a4.813,4.813,0,0,1-2.179-3.767c0-1.385.978-1.955,2.179-1.252A4.782,4.782,0,0,1,258.488,55.753Z" transform="translate(-251.218 -37.86)" fill="#a805d9"/>
      <path id="Trazado_208437" data-name="Trazado 208437" d="M278.142,72.432l-17.269-9.968c-.723-.417-1.3-.081-1.3.753a2.875,2.875,0,0,0,1.3,2.26l17.269,9.968c.723.417,1.3.081,1.3-.753A2.864,2.864,0,0,0,278.142,72.432Z" transform="translate(-251.119 -37.667)" fill="url(#linear-gradient-15)"/>
      <path id="Trazado_208438" data-name="Trazado 208438" d="M258.488,62.6c0,1.385-.977,1.955-2.179,1.252a4.813,4.813,0,0,1-2.179-3.767c0-1.385.978-1.955,2.179-1.252A4.813,4.813,0,0,1,258.488,62.6Z" transform="translate(-251.218 -37.735)" fill="#d98b05"/>
      <path id="Trazado_208439" data-name="Trazado 208439" d="M278.142,79.292l-17.269-9.968c-.723-.417-1.3-.081-1.3.753a2.875,2.875,0,0,0,1.3,2.26l17.269,9.968c.723.417,1.3.081,1.3-.753A2.848,2.848,0,0,0,278.142,79.292Z" transform="translate(-251.119 -37.542)" fill="url(#linear-gradient-16)"/>
      <path id="Trazado_208440" data-name="Trazado 208440" d="M258.488,69.463c0,1.385-.977,1.955-2.179,1.252a4.813,4.813,0,0,1-2.179-3.767c0-1.385.978-1.955,2.179-1.252A4.782,4.782,0,0,1,258.488,69.463Z" transform="translate(-251.218 -37.61)" fill="#ff7878"/>
    </g>
    <g id="Grupo_199645" data-name="Grupo 199645" transform="translate(296.017 140.202)">
      <path id="Trazado_208441" data-name="Trazado 208441" d="M325.8,153.7l-26.26-15.161c-2.566-1.487-4.653-.285-4.653,2.688a10.27,10.27,0,0,0,4.653,8.054l26.26,15.161c2.566,1.487,4.653.285,4.653-2.688A10.3,10.3,0,0,0,325.8,153.7Z" transform="translate(-294.89 -137.904)" fill="#0095ff"/>
    </g>
    <g id="Grupo_199664" data-name="Grupo 199664" transform="translate(329.099 43.381)">
      <g id="Grupo_199646" data-name="Grupo 199646">
        <path id="Trazado_208442" data-name="Trazado 208442" d="M389.644,77.7,329.793,43.146c-1.334-.774-2.413-.143-2.413,1.395V89.8a5.315,5.315,0,0,0,2.413,4.175l59.851,34.558c1.334.774,2.413.143,2.413-1.395V81.879A5.315,5.315,0,0,0,389.644,77.7Z" transform="translate(-327.38 -42.815)" fill="#7800e9"/>
      </g>
      <g id="Grupo_199663" data-name="Grupo 199663" transform="translate(5.122 6.275)">
        <g id="Grupo_199662" data-name="Grupo 199662" opacity="0.5">
          <g id="Grupo_199647" data-name="Grupo 199647">
            <path id="Trazado_208443" data-name="Trazado 208443" d="M338.95,61.331l-1.263.641v-1.1c0-.153.112-.214.234-.143l1.028.6Zm1.089.132-2.108-1.212c-.367-.214-.672-.041-.672.387v2.25l2.78-1.425Z" transform="translate(-332.322 -48.774)" fill="#78c0ff"/>
            <path id="Trazado_208444" data-name="Trazado 208444" d="M339.538,52.839,333,49.062c-.326-.193-.591-.041-.591.346V59.549A1.324,1.324,0,0,0,333,60.578l4.358,2.515v-2.25c0-.428.3-.6.672-.387l2.108,1.212v-7.8A1.347,1.347,0,0,0,339.538,52.839Z" transform="translate(-332.41 -48.978)" fill="#78c0ff"/>
          </g>
          <g id="Grupo_199648" data-name="Grupo 199648" transform="translate(11.913 6.873)">
            <path id="Trazado_208445" data-name="Trazado 208445" d="M350.66,68.091l-1.263.641v-1.1c0-.153.112-.214.234-.143l1.028.6Zm1.079.122L349.642,67c-.367-.214-.672-.041-.672.387v2.25l2.77-1.425Z" transform="translate(-344.021 -55.524)" fill="#ff7878"/>
            <path id="Trazado_208446" data-name="Trazado 208446" d="M351.237,59.589,344.7,55.812c-.326-.193-.591-.041-.591.346V66.3a1.324,1.324,0,0,0,.591,1.028l4.358,2.515v-2.25c0-.428.3-.6.672-.387l2.108,1.212v-7.8A1.364,1.364,0,0,0,351.237,59.589Z" transform="translate(-344.11 -55.728)" fill="#ff7878"/>
          </g>
          <g id="Grupo_199649" data-name="Grupo 199649" transform="translate(23.836 13.756)">
            <path id="Trazado_208447" data-name="Trazado 208447" d="M362.36,74.841l-1.263.641v-1.1c0-.153.112-.214.234-.143l1.028.6Zm1.09.132-2.108-1.212c-.367-.214-.672-.041-.672.387V76.4l2.78-1.426Z" transform="translate(-355.732 -62.284)" fill="#ff7878"/>
            <path id="Trazado_208448" data-name="Trazado 208448" d="M362.948,66.349l-6.537-3.778c-.326-.193-.591-.041-.591.346V73.059a1.324,1.324,0,0,0,.591,1.028l4.358,2.515v-2.25c0-.428.3-.6.672-.387l2.108,1.212v-7.8A1.364,1.364,0,0,0,362.948,66.349Z" transform="translate(-355.82 -62.488)" fill="#ff7878"/>
          </g>
          <g id="Grupo_199650" data-name="Grupo 199650" transform="translate(35.749 20.639)">
            <path id="Trazado_208449" data-name="Trazado 208449" d="M374.07,81.6l-1.263.641v-1.1c0-.153.112-.214.234-.143l1.028.6Zm1.079.132-2.108-1.212c-.367-.214-.672-.041-.672.387v2.25l2.78-1.425Z" transform="translate(-367.432 -69.044)" fill="#ff7878"/>
            <path id="Trazado_208450" data-name="Trazado 208450" d="M374.648,73.109l-6.537-3.778c-.326-.193-.591-.041-.591.346V79.819a1.324,1.324,0,0,0,.591,1.028l4.358,2.515v-2.25c0-.428.3-.6.672-.387l2.108,1.212v-7.8A1.364,1.364,0,0,0,374.648,73.109Z" transform="translate(-367.52 -69.248)" fill="#ff7878"/>
          </g>
          <g id="Grupo_199651" data-name="Grupo 199651" transform="translate(47.663 27.522)">
            <path id="Trazado_208451" data-name="Trazado 208451" d="M385.77,88.361,384.508,89V87.913c0-.153.112-.214.234-.143l1.028.591Zm1.09.122-2.108-1.212c-.367-.214-.672-.041-.672.387v2.25l2.78-1.425Z" transform="translate(-379.131 -75.804)" fill="#78c0ff"/>
            <path id="Trazado_208452" data-name="Trazado 208452" d="M386.348,79.869l-6.537-3.778c-.326-.193-.591-.041-.591.346V86.579a1.324,1.324,0,0,0,.591,1.028l4.358,2.515v-2.25c0-.428.3-.6.672-.387l2.108,1.212V80.9A1.292,1.292,0,0,0,386.348,79.869Z" transform="translate(-379.22 -76.008)" fill="#78c0ff"/>
          </g>
          <g id="Grupo_199652" data-name="Grupo 199652" transform="translate(0 15.019)">
            <path id="Trazado_208453" data-name="Trazado 208453" d="M338.95,76.091l-1.263.641v-1.1c0-.153.112-.214.234-.143l1.028.6Zm1.09.122L337.932,75c-.367-.214-.672-.041-.672.387v2.25l2.78-1.425Z" transform="translate(-332.322 -63.524)" fill="#ff7878"/>
            <path id="Trazado_208454" data-name="Trazado 208454" d="M339.538,67.589,333,63.811c-.326-.193-.591-.041-.591.346V74.3A1.324,1.324,0,0,0,333,75.327l4.358,2.515v-2.25c0-.428.3-.6.672-.387l2.108,1.212v-7.8A1.364,1.364,0,0,0,339.538,67.589Z" transform="translate(-332.41 -63.728)" fill="#ff7878"/>
          </g>
          <g id="Grupo_199653" data-name="Grupo 199653" transform="translate(11.913 21.902)">
            <path id="Trazado_208455" data-name="Trazado 208455" d="M350.66,82.841l-1.263.641v-1.1c0-.153.112-.214.234-.143l1.028.6Zm1.079.132-2.108-1.212c-.367-.214-.672-.041-.672.387V84.4l2.78-1.425Z" transform="translate(-344.022 -70.284)" fill="#ff7878"/>
            <path id="Trazado_208456" data-name="Trazado 208456" d="M351.237,74.349,344.7,70.571c-.326-.193-.591-.041-.591.346V81.059a1.324,1.324,0,0,0,.591,1.028l4.358,2.515v-2.25c0-.428.3-.6.672-.387l2.108,1.212v-7.8A1.364,1.364,0,0,0,351.237,74.349Z" transform="translate(-344.11 -70.488)" fill="#ff7878"/>
          </g>
          <g id="Grupo_199654" data-name="Grupo 199654" transform="translate(23.836 28.785)">
            <path id="Trazado_208457" data-name="Trazado 208457" d="M362.36,89.6l-1.263.641v-1.1c0-.153.112-.214.234-.143l1.028.6Zm1.09.132-2.108-1.212c-.367-.214-.672-.041-.672.387v2.25l2.78-1.425Z" transform="translate(-355.732 -77.044)" fill="#ff7878"/>
            <path id="Trazado_208458" data-name="Trazado 208458" d="M362.948,81.109l-6.537-3.778c-.326-.193-.591-.041-.591.346V87.819a1.324,1.324,0,0,0,.591,1.028l4.358,2.515v-2.25c0-.428.3-.6.672-.387l2.108,1.212v-7.8A1.364,1.364,0,0,0,362.948,81.109Z" transform="translate(-355.82 -77.248)" fill="#ff7878"/>
          </g>
          <g id="Grupo_199655" data-name="Grupo 199655" transform="translate(35.749 35.668)">
            <path id="Trazado_208459" data-name="Trazado 208459" d="M374.07,96.361,372.808,97V95.913c0-.153.112-.214.234-.143l1.028.591Zm1.079.132-2.108-1.212c-.367-.214-.672-.041-.672.387v2.25l2.78-1.425Z" transform="translate(-367.432 -83.804)" fill="#78c0ff"/>
            <path id="Trazado_208460" data-name="Trazado 208460" d="M374.648,87.869l-6.537-3.778c-.326-.193-.591-.041-.591.346V94.579a1.324,1.324,0,0,0,.591,1.028l4.358,2.515v-2.25c0-.428.3-.6.672-.387l2.108,1.212V88.9A1.347,1.347,0,0,0,374.648,87.869Z" transform="translate(-367.52 -84.008)" fill="#78c0ff"/>
          </g>
          <g id="Grupo_199656" data-name="Grupo 199656" transform="translate(47.663 42.541)">
            <path id="Trazado_208461" data-name="Trazado 208461" d="M385.77,103.121l-1.263.641v-1.1c0-.153.112-.214.234-.143l1.028.6Zm1.09.122-2.108-1.212c-.367-.214-.672-.041-.672.387v2.25l2.78-1.425Z" transform="translate(-379.131 -90.554)" fill="#ff7878"/>
            <path id="Trazado_208462" data-name="Trazado 208462" d="M386.348,94.619l-6.537-3.778c-.326-.193-.591-.041-.591.346v10.141a1.324,1.324,0,0,0,.591,1.028l4.358,2.515v-2.25c0-.428.3-.6.672-.387l2.108,1.212v-7.8A1.308,1.308,0,0,0,386.348,94.619Z" transform="translate(-379.22 -90.758)" fill="#ff7878"/>
          </g>
          <g id="Grupo_199657" data-name="Grupo 199657" transform="translate(0 30.048)">
            <path id="Trazado_208463" data-name="Trazado 208463" d="M338.95,90.841l-1.263.641v-1.1c0-.153.112-.214.234-.143l1.028.6Zm1.089.132-2.108-1.212c-.367-.214-.672-.041-.672.387V92.4l2.78-1.425Z" transform="translate(-332.322 -78.284)" fill="#ff7878"/>
            <path id="Trazado_208464" data-name="Trazado 208464" d="M339.538,82.349,333,78.572c-.326-.193-.591-.041-.591.346V89.059A1.324,1.324,0,0,0,333,90.088l4.358,2.515v-2.25c0-.428.3-.6.672-.387l2.108,1.212v-7.8A1.364,1.364,0,0,0,339.538,82.349Z" transform="translate(-332.41 -78.488)" fill="#ff7878"/>
          </g>
          <g id="Grupo_199658" data-name="Grupo 199658" transform="translate(11.913 36.931)">
            <path id="Trazado_208465" data-name="Trazado 208465" d="M350.66,97.6l-1.263.641v-1.1c0-.153.112-.214.234-.143l1.028.6Zm1.079.132-2.108-1.212c-.367-.214-.672-.041-.672.387v2.25l2.78-1.425Z" transform="translate(-344.022 -85.044)" fill="#ff7878"/>
            <path id="Trazado_208466" data-name="Trazado 208466" d="M351.237,89.109,344.7,85.331c-.326-.193-.591-.041-.591.346V95.819a1.324,1.324,0,0,0,.591,1.028l4.358,2.515v-2.25c0-.428.3-.6.672-.387l2.108,1.212v-7.8A1.364,1.364,0,0,0,351.237,89.109Z" transform="translate(-344.11 -85.248)" fill="#ff7878"/>
          </g>
          <g id="Grupo_199659" data-name="Grupo 199659" transform="translate(23.836 43.814)">
            <path id="Trazado_208467" data-name="Trazado 208467" d="M362.36,104.361,361.1,105v-1.1c0-.153.112-.214.234-.143l1.028.6Zm1.09.132-2.108-1.212c-.367-.214-.672-.041-.672.387v2.25l2.78-1.425Z" transform="translate(-355.732 -91.804)" fill="#ff7878"/>
            <path id="Trazado_208468" data-name="Trazado 208468" d="M362.948,95.869l-6.537-3.778c-.326-.193-.591-.041-.591.346v10.141a1.324,1.324,0,0,0,.591,1.028l4.358,2.515v-2.25c0-.428.3-.6.672-.387l2.108,1.212V96.9A1.347,1.347,0,0,0,362.948,95.869Z" transform="translate(-355.82 -92.008)" fill="#ff7878"/>
          </g>
          <g id="Grupo_199660" data-name="Grupo 199660" transform="translate(35.749 50.697)">
            <path id="Trazado_208469" data-name="Trazado 208469" d="M374.07,111.121l-1.263.641v-1.1c0-.153.112-.214.234-.143l1.028.6Zm1.079.122-2.108-1.212c-.367-.214-.672-.041-.672.387v2.25l2.78-1.425Z" transform="translate(-367.432 -98.564)" fill="#ff7878"/>
            <path id="Trazado_208470" data-name="Trazado 208470" d="M374.648,102.629l-6.537-3.778c-.326-.193-.591-.041-.591.346v10.141a1.324,1.324,0,0,0,.591,1.028l4.358,2.515v-2.25c0-.428.3-.6.672-.387l2.108,1.212v-7.8A1.33,1.33,0,0,0,374.648,102.629Z" transform="translate(-367.52 -98.768)" fill="#ff7878"/>
          </g>
          <g id="Grupo_199661" data-name="Grupo 199661" transform="translate(47.663 57.57)">
            <path id="Trazado_208471" data-name="Trazado 208471" d="M385.77,117.871l-1.263.641v-1.1c0-.153.112-.214.234-.143l1.028.6Zm1.09.132-2.108-1.212c-.367-.214-.672-.041-.672.387v2.25L386.86,118Z" transform="translate(-379.131 -105.314)" fill="#78c0ff"/>
            <path id="Trazado_208472" data-name="Trazado 208472" d="M386.348,109.379l-6.537-3.778c-.326-.193-.591-.041-.591.346v10.141a1.324,1.324,0,0,0,.591,1.028l4.358,2.515v-2.25c0-.428.3-.6.672-.387l2.108,1.212v-7.8A1.308,1.308,0,0,0,386.348,109.379Z" transform="translate(-379.22 -105.518)" fill="#78c0ff"/>
          </g>
        </g>
      </g>
    </g>
    <g id="Grupo_199671" data-name="Grupo 199671" transform="translate(362.201 175.754)">
      <g id="Grupo_199665" data-name="Grupo 199665" transform="translate(4.908 0.102)">
        <path id="Trazado_208473" data-name="Trazado 208473" d="M364.71,181.045l4.877-1.436,4.887-6.69,4.877,4.541,4.877,9.938,5.152-5.875,4.613,11.18,4.887,6.343,4.877,4.541Z" transform="translate(-364.71 -172.92)" fill="#6930ff"/>
      </g>
      <g id="Grupo_199666" data-name="Grupo 199666" transform="translate(24.427 7.85)">
        <path id="Trazado_208474" data-name="Trazado 208474" d="M383.88,192.178l4.887-1.059,4.887-5.162,4.877-5.427,4.877,14.072,4.877,11.669Z" transform="translate(-383.88 -180.53)" fill="#ff8a30"/>
      </g>
      <g id="Grupo_199667" data-name="Grupo 199667" transform="translate(0.031 1.802)">
        <path id="Trazado_208475" data-name="Trazado 208475" d="M359.92,178.2l4.877-.244,4.887-1.171,4.877,5.01,4.877-1.975,4.877-5.234L389.2,183.2l4.877,7.871,4.887,5.682,4.877.753,4.877,8.869Z" transform="translate(-359.92 -174.59)" fill="#6930ff"/>
      </g>
      <g id="Grupo_199668" data-name="Grupo 199668" transform="translate(0 1.7)">
        <path id="Trazado_208476" data-name="Trazado 208476" d="M359.951,178.278l-.061-.153,4.877-.234,4.908-1.181.031.031,4.847,4.979,4.847-1.965,4.908-5.264.051.081,4.887,8.614,4.867,7.85,4.857,5.651,4.887.753.031.051,4.877,8.869-.081.041-4.857-8.828-4.867-.743-.02-.031-4.9-5.7-4.877-7.871-4.837-8.522L379.48,179.9l-4.908,1.986-4.877-5.01-4.857,1.161Z" transform="translate(-359.89 -174.49)" fill="#ab71de"/>
      </g>
      <g id="Grupo_199669" data-name="Grupo 199669" transform="translate(4.877)">
        <path id="Trazado_208477" data-name="Trazado 208477" d="M403.739,203.641l-4.9-4.562-4.9-6.374-4.562-11.058-5.142,5.865-.051-.1-4.867-9.907-4.816-4.49-4.877,6.669-4.877,1.446-.071-.153,4.867-1.436,4.9-6.72.051.041,4.887,4.562.02.031,4.826,9.826,5.152-5.875.051.112,4.6,11.16L398.9,199l4.867,4.541Z" transform="translate(-364.68 -172.82)" fill="#ab71de"/>
      </g>
      <g id="Grupo_199670" data-name="Grupo 199670" transform="translate(24.396 7.718)">
        <path id="Trazado_208478" data-name="Trazado 208478" d="M383.911,192.252l-.061-.143,4.877-1.059L393.6,185.9l4.928-5.5.051.132,4.877,14.072,4.877,11.659-.1.01-4.877-11.659-4.837-13.96-4.826,5.366-4.9,5.173Z" transform="translate(-383.85 -180.4)" fill="#ab71de"/>
      </g>
    </g>
    <g id="Grupo_199673" data-name="Grupo 199673" transform="translate(287.718 51.402)">
      <path id="Trazado_208479" data-name="Trazado 208479" d="M378.67,112.658A9.039,9.039,0,0,0,374.6,105.6L321.538,74.964V70.016a9.048,9.048,0,0,0-4.093-7.1l-20.2-11.669c-2.26-1.3-4.093-.244-4.093,2.362v62.966a9.039,9.039,0,0,0,4.073,7.056l69.8,40.3c-.458,2.026-.7,5.01,1.487,6.089,3.4,1.69,8.085-.132,9.469-1.823l.031-.031.01-.01h0a3.319,3.319,0,0,0,.682-2.2v-53.3Z" transform="translate(-286.623 -50.692)" fill="url(#linear-gradient-17)"/>
      <path id="Trazado_208480" data-name="Trazado 208480" d="M375.1,167.286,290.89,118.615V63.55L375.1,112.221Z" transform="translate(-286.664 -50.458)" fill="url(#linear-gradient-18)"/>
      <path id="Trazado_208481" data-name="Trazado 208481" d="M368.2,169.488l-77.384-44.679a9.039,9.039,0,0,1-4.073-7.056V69.52L372.27,118.9v48.233C372.27,169.722,370.437,170.781,368.2,169.488Z" transform="translate(-286.74 -50.349)" fill="url(#linear-gradient-19)"/>
      <path id="Trazado_208482" data-name="Trazado 208482" d="M370.823,165.58l-4.114.906-.519.7a2.742,2.742,0,0,0,.957.753,8.767,8.767,0,0,0,7.2-.244A2.507,2.507,0,0,1,370.823,165.58Z" transform="translate(-285.293 -48.6)" fill="#ffc512"/>
      <path id="Trazado_208489" data-name="Trazado 208489" d="M0,53.685Z" transform="translate(10.233 20.917)" fill="url(#radial-gradient)"/>
      <g id="Grupo_199672" data-name="Grupo 199672" transform="translate(21.301 44.803)">
        <path id="Trazado_208483" data-name="Trazado 208483" d="M339.5,112.274a66.757,66.757,0,0,0-14.245-16.006c-8.594-3.258-14.245-.448-14.245-.448l-3.35,1.914L321.9,138.453l5.3-2.026,2.78-1.6c.234-.122.468-.255.692-.4l.132-.071h0C336.689,130.714,339.418,123.393,339.5,112.274Z" transform="translate(-307.66 -94.694)" fill="url(#linear-gradient-20)"/>
        <path id="Trazado_208484" data-name="Trazado 208484" d="M321.9,98.148c-8.594-3.258-14.245-.448-14.245-.448.112,14.286,4.511,27.39,14.245,40.718,9.734-2.1,14.133-10.111,14.245-24.264A66.757,66.757,0,0,0,321.9,98.148Zm0,35.434c-6.934-10.325-10.406-20.629-10.824-32.084a17.981,17.981,0,0,1,10.824.621,58.541,58.541,0,0,1,10.824,11.872C332.311,124.958,328.839,131.26,321.9,133.582Z" transform="translate(-307.66 -94.66)" fill="url(#linear-gradient-21)"/>
        <path id="Trazado_208485" data-name="Trazado 208485" d="M321.844,133.5c-6.934-10.325-10.406-20.629-10.824-32.084a17.981,17.981,0,0,1,10.824.621,58.541,58.541,0,0,1,10.824,11.872C332.25,124.88,328.778,131.182,321.844,133.5Z" transform="translate(-307.599 -94.582)" fill="#fef9f1"/>
        <path id="Trazado_208486" data-name="Trazado 208486" d="M311.02,101.42c.417,11.455,3.9,21.759,10.824,32.084V102.041A17.981,17.981,0,0,0,311.02,101.42Z" transform="translate(-307.599 -94.582)" fill="#fef9f1"/>
      </g>
    </g>
    <g id="Grupo_199675" data-name="Grupo 199675" transform="translate(317.226 106.013)">
      <path id="Trazado_208487" data-name="Trazado 208487" d="M325.729,119.747a2.021,2.021,0,0,0,1.405,1.476c.55.051.8-.529.58-1.293a2.574,2.574,0,0,0-.509-.927,1.531,1.531,0,0,0-.031-.876,2.021,2.021,0,0,0-1.405-1.476c-.55-.051-.8.529-.58,1.293a.364.364,0,0,0,.041.112l-3.472-.326-3.472-3.676a.443.443,0,0,0,.041-.071,2.043,2.043,0,0,0-.58-1.955c-.55-.58-1.181-.641-1.405-.143a1.378,1.378,0,0,0-.031.845.535.535,0,0,0-.509.336,2.044,2.044,0,0,0,.58,1.955c.55.58,1.181.641,1.405.143.01-.031.02-.051.031-.081l2.362,2.495-1.924-.183c-.01-.041-.02-.071-.031-.112a2.021,2.021,0,0,0-1.405-1.476c-.55-.051-.8.529-.58,1.293a2.574,2.574,0,0,0,.509.927,1.531,1.531,0,0,0,.031.876,2.021,2.021,0,0,0,1.405,1.476c.55.051.8-.529.58-1.293a.365.365,0,0,0-.041-.112l3.034.285,3.034,3.207a.443.443,0,0,0-.041.071,2.044,2.044,0,0,0,.58,1.955c.55.58,1.181.641,1.405.143a1.378,1.378,0,0,0,.031-.845.535.535,0,0,0,.509-.336,2.044,2.044,0,0,0-.58-1.955c-.55-.58-1.181-.641-1.405-.143-.01.031-.02.051-.031.081l-1.924-2.036,2.362.224C325.709,119.675,325.719,119.706,325.729,119.747Z" transform="translate(-315.72 -104.195)" fill="#e5322b"/>
      <g id="Grupo_199674" data-name="Grupo 199674" transform="translate(0.947)">
        <path id="Trazado_208488" data-name="Trazado 208488" d="M321.67,104.941c-2.78-1.558-5.02-.031-5.02,3.187a9.225,9.225,0,0,0,.071,1.049,4.418,4.418,0,0,0,.377,1.252,4.712,4.712,0,0,0,1.8,2.1.7.7,0,0,1,.316.55v.682a1.95,1.95,0,0,0,.733,1.426c.509.377.957.163.957-.417a1.857,1.857,0,0,0,.845,1.456c.458.265.845.051.845-.489a1.822,1.822,0,0,0,.957,1.517c.428.183.733-.081.733-.58v-.682c0-.2.143-.285.316-.183a2.041,2.041,0,0,0,1,.305,1.106,1.106,0,0,0,.8-.326,1.525,1.525,0,0,0,.377-.8,5.891,5.891,0,0,0,.071-1.069C326.791,110.674,324.45,106.5,321.67,104.941Zm2.118,5.651a3.2,3.2,0,0,1,1.446,2.5c0,.927-.652,1.293-1.446.835a3.17,3.17,0,0,1-1.446-2.5C322.332,110.5,322.983,110.134,323.788,110.592ZM319.7,108.24a3.2,3.2,0,0,1,1.446,2.5c0,.927-.652,1.293-1.446.835a3.17,3.17,0,0,1-1.446-2.5C318.259,108.148,318.9,107.772,319.7,108.24Zm2.637,5.6c.092.234-.02.4-.2.285l-.794-.458c-.183-.1-.3-.4-.2-.529l.193-.275.2-.285c.092-.132.316,0,.407.234l.2.529Z" transform="translate(-316.65 -104.326)" fill="#e5322b"/>
      </g>
    </g>
  </g>
</svg>
